<svg width="110" height="110" viewBox="0 0 110 110" fill="none" xmlns="http://www.w3.org/2000/svg">
<rect width="110" height="110" rx="5" fill="#F8F8F8"/>
<path d="M43.7005 57.2005H52.7995V66.2995C52.7995 67.2243 53.5603 68 54.5 68C55.4397 68 56.2005 67.2243 56.2005 66.2995V57.2005H65.2995C66.2243 57.2005 67 56.4397 67 55.5C67 54.5603 66.2243 53.7995 65.2995 53.7995H56.2005V44.7005C56.2005 43.7757 55.4397 43 54.5 43C53.5603 43 52.7995 43.7757 52.7995 44.7005V53.7995H43.7005C42.7757 53.7995 42 54.5603 42 55.5C42 56.4397 42.7757 57.2005 43.7005 57.2005Z" fill="#D9D9D9"/>
</svg>
