<svg width="23" height="12" viewBox="0 0 23 12" fill="none" xmlns="http://www.w3.org/2000/svg">
<path d="M10.965 5.63C10.965 6.46 10.86 7.215 10.65 7.895C10.45 8.565 10.14 9.145 9.72 9.635C9.31 10.125 8.785 10.5 8.145 10.76C7.515 11.02 6.775 11.15 5.925 11.15C5.065 11.15 4.315 11.02 3.675 10.76C3.045 10.49 2.525 10.115 2.115 9.635C1.705 9.145 1.395 8.56 1.185 7.88C0.985 7.2 0.885 6.445 0.885 5.615C0.885 4.505 1.065 3.54 1.425 2.72C1.795 1.9 2.35 1.265 3.09 0.815C3.84 0.355 4.79 0.125 5.94 0.125C7.07 0.125 8.005 0.355 8.745 0.815C9.485 1.265 10.04 1.905 10.41 2.735C10.78 3.555 10.965 4.52 10.965 5.63ZM2.91 5.63C2.91 6.44 3.015 7.135 3.225 7.715C3.445 8.295 3.775 8.74 4.215 9.05C4.665 9.36 5.235 9.515 5.925 9.515C6.635 9.515 7.21 9.36 7.65 9.05C8.09 8.74 8.415 8.295 8.625 7.715C8.835 7.135 8.94 6.44 8.94 5.63C8.94 4.42 8.705 3.47 8.235 2.78C7.765 2.09 7 1.745 5.94 1.745C5.24 1.745 4.665 1.9 4.215 2.21C3.775 2.52 3.445 2.965 3.225 3.545C3.015 4.125 2.91 4.82 2.91 5.63ZM22.1106 11H19.7256L14.6556 2.6H14.5956C14.6056 2.82 14.6156 3.055 14.6256 3.305C14.6456 3.545 14.6606 3.795 14.6706 4.055C14.6806 4.305 14.6906 4.56 14.7006 4.82C14.7106 5.08 14.7206 5.34 14.7306 5.6V11H13.0056V0.289999H15.3756L20.4306 8.63H20.4756C20.4656 8.43 20.4556 8.215 20.4456 7.985C20.4356 7.745 20.4256 7.5 20.4156 7.25C20.4156 7 20.4106 6.745 20.4006 6.485C20.3906 6.225 20.3806 5.975 20.3706 5.735V0.289999H22.1106V11Z" fill="#011E5F"/>
</svg>
