<svg width="32" height="40" viewBox="0 0 32 40" fill="none" xmlns="http://www.w3.org/2000/svg">
<path d="M10 20.0056C10 20.4619 10.1719 20.8403 10.5387 21.1964L19.3639 29.5771C19.6619 29.8664 20.0172 30 20.4413 30C21.3009 30 22 29.3433 22 28.5086C22 28.0968 21.8166 27.7184 21.5072 27.4179L13.6676 20.0167L21.5072 12.5932C21.8166 12.2927 22 11.9254 22 11.5025C22 10.6678 21.3009 10 20.4413 10C20.0172 10 19.6619 10.1447 19.3639 10.4341L10.5387 18.8147C10.1605 19.1708 10 19.5492 10 20.0056Z" fill="#011E5F"/>
</svg>
