<svg width="350" height="58" viewBox="0 0 350 58" fill="none" xmlns="http://www.w3.org/2000/svg">
<rect width="350" height="58" rx="8" fill="#E2F3FF"/>
<path d="M23.2588 21.511L24.2403 20.4588L21.5263 15.0945L22.6586 13.3473L25.8258 19.6395L27.2675 19.2728L23.6047 12.4096H31.3905L27.7277 19.2728L29.1693 19.6395L32.338 13.3473L33.4765 15.0945L30.7549 20.4588L31.7363 21.511L34.8827 15.5782C35.0494 15.281 35.0376 14.9337 34.8527 14.6562L32.7284 11.3828C32.5435 11.1223 32.3112 11.0002 31.97 11.0002H23.0315C22.6839 11.0002 22.4517 11.1223 22.2744 11.3828L20.1425 14.6562C19.9638 14.9337 19.952 15.281 20.1139 15.5782L23.2588 21.511ZM24.5491 15.951H30.4552V14.5752H24.5491V15.951ZM27.5015 29.0002C30.3569 29.0002 32.6683 26.6601 32.6683 23.7709C32.6683 20.8754 30.3569 18.5366 27.5015 18.5366C24.6396 18.5366 22.3269 20.8754 22.3269 23.7709C22.3269 26.6601 24.6396 29.0002 27.5015 29.0002ZM27.5015 27.5909C25.4125 27.5909 23.7198 25.8845 23.7198 23.7709C23.7198 21.6587 25.4062 19.946 27.5015 19.946C29.5827 19.946 31.2754 21.6523 31.2754 23.7709C31.2754 25.8781 29.589 27.5909 27.5015 27.5909ZM26.1806 26.2198L27.5078 25.2405L28.8195 26.2198C29.124 26.441 29.4326 26.2134 29.3195 25.8645L28.7904 24.2812L30.1302 23.311C30.3991 23.121 30.3188 22.7267 29.9451 22.7281L28.3035 22.7436L27.801 21.1526C27.6928 20.8064 27.3073 20.8064 27.2004 21.1526L26.6966 22.7436L25.0577 22.7281C24.6903 22.7267 24.5947 23.1146 24.8762 23.3174L26.2159 24.2826L25.6855 25.8645C25.5723 26.2107 25.8824 26.4396 26.1806 26.2198Z" fill="#007AFF"/>
<path d="M47.18 25L43.655 15.61H43.595C43.615 15.81 43.63 16.065 43.64 16.375C43.66 16.685 43.675 17.025 43.685 17.395C43.695 17.755 43.7 18.125 43.7 18.505V25H42.455V14.29H44.45L47.75 23.065H47.81L51.17 14.29H53.15V25H51.815V18.415C51.815 18.065 51.82 17.72 51.83 17.38C51.84 17.03 51.855 16.705 51.875 16.405C51.895 16.095 51.91 15.835 51.92 15.625H51.86L48.29 25H47.18ZM54.6234 16.96H56.0334L57.7734 21.535C57.8734 21.805 57.9634 22.065 58.0434 22.315C58.1334 22.565 58.2134 22.81 58.2834 23.05C58.3534 23.28 58.4084 23.505 58.4484 23.725H58.5084C58.5684 23.475 58.6634 23.15 58.7934 22.75C58.9234 22.34 59.0584 21.93 59.1984 21.52L60.8334 16.96H62.2584L58.7934 26.11C58.6034 26.61 58.3784 27.045 58.1184 27.415C57.8684 27.795 57.5584 28.085 57.1884 28.285C56.8284 28.495 56.3884 28.6 55.8684 28.6C55.6284 28.6 55.4184 28.585 55.2384 28.555C55.0584 28.535 54.9034 28.51 54.7734 28.48V27.43C54.8834 27.45 55.0134 27.47 55.1634 27.49C55.3234 27.51 55.4884 27.52 55.6584 27.52C55.9684 27.52 56.2334 27.46 56.4534 27.34C56.6834 27.23 56.8784 27.065 57.0384 26.845C57.1984 26.635 57.3334 26.385 57.4434 26.095L57.8634 25.03L54.6234 16.96ZM71.2514 16.81C72.2414 16.81 73.0364 17.155 73.6364 17.845C74.2464 18.535 74.5514 19.575 74.5514 20.965C74.5514 21.875 74.4114 22.645 74.1314 23.275C73.8614 23.895 73.4764 24.365 72.9764 24.685C72.4864 24.995 71.9064 25.15 71.2364 25.15C70.8264 25.15 70.4614 25.095 70.1414 24.985C69.8214 24.875 69.5464 24.735 69.3164 24.565C69.0964 24.385 68.9064 24.19 68.7464 23.98H68.6564C68.6764 24.15 68.6964 24.365 68.7164 24.625C68.7364 24.885 68.7464 25.11 68.7464 25.3V28.6H67.4264V16.96H68.5064L68.6864 18.055H68.7464C68.9064 17.825 69.0964 17.615 69.3164 17.425C69.5464 17.235 69.8164 17.085 70.1264 16.975C70.4464 16.865 70.8214 16.81 71.2514 16.81ZM71.0114 17.92C70.4714 17.92 70.0364 18.025 69.7064 18.235C69.3764 18.435 69.1364 18.74 68.9864 19.15C68.8364 19.56 68.7564 20.08 68.7464 20.71V20.965C68.7464 21.625 68.8164 22.185 68.9564 22.645C69.0964 23.105 69.3314 23.455 69.6614 23.695C70.0014 23.935 70.4614 24.055 71.0414 24.055C71.5314 24.055 71.9314 23.92 72.2414 23.65C72.5614 23.38 72.7964 23.015 72.9464 22.555C73.1064 22.085 73.1864 21.55 73.1864 20.95C73.1864 20.03 73.0064 19.295 72.6464 18.745C72.2964 18.195 71.7514 17.92 71.0114 17.92ZM79.6999 16.825C80.6799 16.825 81.4049 17.04 81.8749 17.47C82.3449 17.9 82.5799 18.585 82.5799 19.525V25H81.6199L81.3649 23.86H81.3049C81.0749 24.15 80.8349 24.395 80.5849 24.595C80.3449 24.785 80.0649 24.925 79.7449 25.015C79.4349 25.105 79.0549 25.15 78.6049 25.15C78.1249 25.15 77.6899 25.065 77.2999 24.895C76.9199 24.725 76.6199 24.465 76.3999 24.115C76.1799 23.755 76.0699 23.305 76.0699 22.765C76.0699 21.965 76.3849 21.35 77.0149 20.92C77.6449 20.48 78.6149 20.24 79.9249 20.2L81.2899 20.155V19.675C81.2899 19.005 81.1449 18.54 80.8549 18.28C80.5649 18.02 80.1549 17.89 79.6249 17.89C79.2049 17.89 78.8049 17.955 78.4249 18.085C78.0449 18.205 77.6899 18.345 77.3599 18.505L76.9549 17.515C77.3049 17.325 77.7199 17.165 78.1999 17.035C78.6799 16.895 79.1799 16.825 79.6999 16.825ZM80.0899 21.115C79.0899 21.155 78.3949 21.315 78.0049 21.595C77.6249 21.875 77.4349 22.27 77.4349 22.78C77.4349 23.23 77.5699 23.56 77.8399 23.77C78.1199 23.98 78.4749 24.085 78.9049 24.085C79.5849 24.085 80.1499 23.9 80.5999 23.53C81.0499 23.15 81.2749 22.57 81.2749 21.79V21.07L80.0899 21.115ZM87.9131 16.81C88.4431 16.81 88.9181 16.91 89.3381 17.11C89.7681 17.31 90.1331 17.615 90.4331 18.025H90.5081L90.6881 16.96H91.7381V25.135C91.7381 25.895 91.6081 26.53 91.3481 27.04C91.0881 27.56 90.6931 27.95 90.1631 28.21C89.6331 28.47 88.9581 28.6 88.1381 28.6C87.5581 28.6 87.0231 28.555 86.5331 28.465C86.0531 28.385 85.6231 28.26 85.2431 28.09V26.875C85.5031 27.005 85.7881 27.115 86.0981 27.205C86.4081 27.305 86.7431 27.38 87.1031 27.43C87.4631 27.48 87.8331 27.505 88.2131 27.505C88.9031 27.505 89.4431 27.3 89.8331 26.89C90.2331 26.49 90.4331 25.94 90.4331 25.24V24.925C90.4331 24.805 90.4381 24.635 90.4481 24.415C90.4581 24.185 90.4681 24.025 90.4781 23.935H90.4181C90.1381 24.345 89.7881 24.65 89.3681 24.85C88.9581 25.05 88.4781 25.15 87.9281 25.15C86.8881 25.15 86.0731 24.785 85.4831 24.055C84.9031 23.325 84.6131 22.305 84.6131 20.995C84.6131 20.135 84.7431 19.395 85.0031 18.775C85.2731 18.145 85.6531 17.66 86.1431 17.32C86.6331 16.98 87.2231 16.81 87.9131 16.81ZM88.0931 17.92C87.6431 17.92 87.2581 18.04 86.9381 18.28C86.6281 18.52 86.3881 18.87 86.2181 19.33C86.0581 19.79 85.9781 20.35 85.9781 21.01C85.9781 22 86.1581 22.76 86.5181 23.29C86.8881 23.81 87.4231 24.07 88.1231 24.07C88.5331 24.07 88.8831 24.02 89.1731 23.92C89.4631 23.81 89.7031 23.645 89.8931 23.425C90.0831 23.195 90.2231 22.905 90.3131 22.555C90.4031 22.205 90.4481 21.79 90.4481 21.31V20.995C90.4481 20.265 90.3631 19.675 90.1931 19.225C90.0331 18.775 89.7781 18.445 89.4281 18.235C89.0781 18.025 88.6331 17.92 88.0931 17.92ZM97.3966 16.81C98.0866 16.81 98.6766 16.96 99.1666 17.26C99.6666 17.56 100.047 17.985 100.307 18.535C100.577 19.075 100.712 19.71 100.712 20.44V21.235H95.2066C95.2266 22.145 95.4566 22.84 95.8966 23.32C96.3466 23.79 96.9716 24.025 97.7716 24.025C98.2816 24.025 98.7316 23.98 99.1216 23.89C99.5216 23.79 99.9316 23.65 100.352 23.47V24.625C99.9416 24.805 99.5366 24.935 99.1366 25.015C98.7366 25.105 98.2616 25.15 97.7116 25.15C96.9516 25.15 96.2766 24.995 95.6866 24.685C95.1066 24.375 94.6516 23.915 94.3216 23.305C94.0016 22.685 93.8416 21.93 93.8416 21.04C93.8416 20.16 93.9866 19.405 94.2766 18.775C94.5766 18.145 94.9916 17.66 95.5216 17.32C96.0616 16.98 96.6866 16.81 97.3966 16.81ZM97.3816 17.89C96.7516 17.89 96.2516 18.095 95.8816 18.505C95.5216 18.905 95.3066 19.465 95.2366 20.185H99.3316C99.3316 19.725 99.2616 19.325 99.1216 18.985C98.9816 18.645 98.7666 18.38 98.4766 18.19C98.1966 17.99 97.8316 17.89 97.3816 17.89ZM112.523 12.61V26.17H113.723V12.61H112.523ZM110.243 18.13V19.15H112.853V18.13H110.243ZM109.448 12.91V25.48H110.618V12.91H109.448ZM102.878 14.245V22.075H104.123V14.245H102.878ZM102.878 21.58V22.66H103.748C105.203 22.66 106.763 22.585 108.608 22.225L108.473 21.145C106.703 21.49 105.143 21.58 103.748 21.58H102.878ZM120.427 13.585C118.312 13.585 116.782 14.89 116.782 16.78C116.782 18.685 118.312 19.99 120.427 19.99C122.542 19.99 124.057 18.685 124.057 16.78C124.057 14.89 122.542 13.585 120.427 13.585ZM120.427 14.665C121.822 14.665 122.842 15.52 122.842 16.78C122.842 18.04 121.822 18.91 120.427 18.91C119.017 18.91 117.997 18.04 117.997 16.78C117.997 15.52 119.017 14.665 120.427 14.665ZM125.827 12.595V26.185H127.072V12.595H125.827ZM116.272 23.215C118.687 23.215 122.002 23.2 125.047 22.615L124.942 21.7C121.987 22.165 118.567 22.18 116.092 22.18L116.272 23.215ZM137.073 14.545V16.75C137.073 19.045 135.438 21.625 133.503 22.57L134.223 23.56C136.338 22.48 138.063 19.57 138.063 16.75V14.545H137.073ZM137.298 14.545V16.75C137.298 19.435 138.933 22.165 141.078 23.23L141.783 22.24C139.818 21.31 138.288 18.895 138.288 16.75V14.545H137.298ZM133.983 13.99V15.04H141.288V13.99H133.983ZM142.893 12.61V26.17H144.153V12.61H142.893ZM143.853 18.085V19.135H146.373V18.085H143.853ZM153.301 13.525V14.065C153.301 16.585 151.201 18.58 147.721 19.54L148.216 20.515C152.161 19.435 154.606 16.975 154.606 13.525H153.301ZM148.411 13.525V14.53H154.066V13.525H148.411ZM149.626 21.31V22.315H157.426V26.14H158.671V21.31H149.626ZM157.426 12.61V20.695H158.671V12.61H157.426ZM154.051 15.025V16.045H157.681V15.025H154.051ZM153.916 17.905V18.925H157.591V17.905H153.916ZM161.31 19.06V20.065H173.565V19.06H161.31ZM167.43 21.235C164.535 21.235 162.78 22.135 162.78 23.695C162.78 25.255 164.535 26.14 167.43 26.14C170.325 26.14 172.08 25.255 172.08 23.695C172.08 22.135 170.325 21.235 167.43 21.235ZM167.43 22.225C169.56 22.225 170.82 22.75 170.82 23.695C170.82 24.625 169.56 25.165 167.43 25.165C165.315 25.165 164.04 24.625 164.04 23.695C164.04 22.75 165.315 22.225 167.43 22.225ZM166.635 13.84V14.245C166.635 15.775 164.43 16.99 162 17.26L162.45 18.235C165.255 17.905 167.745 16.42 167.745 14.245V13.84H166.635ZM167.16 13.84V14.245C167.16 16.42 169.635 17.905 172.44 18.235L172.89 17.26C170.46 16.99 168.255 15.775 168.255 14.245V13.84H167.16ZM162.435 13.3V14.305H172.47V13.3H162.435ZM185.831 15.835V16.87H189.476V15.835H185.831ZM182.711 13.225C180.686 13.225 179.216 14.515 179.216 16.375C179.216 18.235 180.686 19.51 182.711 19.51C184.736 19.51 186.206 18.235 186.206 16.375C186.206 14.515 184.736 13.225 182.711 13.225ZM182.711 14.275C184.046 14.275 185.006 15.13 185.006 16.375C185.006 17.605 184.046 18.475 182.711 18.475C181.376 18.475 180.416 17.605 180.416 16.375C180.416 15.13 181.376 14.275 182.711 14.275ZM188.921 12.61V19.885H190.166V12.61H188.921ZM181.481 20.56V25.99H190.166V20.56H188.936V22.27H182.726V20.56H181.481ZM182.726 23.26H188.936V24.985H182.726V23.26ZM203.124 12.61V26.17H204.324V12.61H203.124ZM197.499 17.785V18.805H200.904V17.785H197.499ZM200.394 12.925V25.48H201.579V12.925H200.394ZM193.314 21.865V22.915H194.184C196.344 22.915 197.649 22.855 199.194 22.525L199.074 21.49C197.574 21.805 196.299 21.865 194.184 21.865H193.314ZM193.314 14.26V22.27H194.544V15.28H198.414V14.26H193.314ZM216.458 12.595V26.185H217.703V12.595H216.458ZM210.548 13.645C208.553 13.645 207.113 15.49 207.113 18.37C207.113 21.265 208.553 23.11 210.548 23.11C212.558 23.11 213.998 21.265 213.998 18.37C213.998 15.49 212.558 13.645 210.548 13.645ZM210.548 14.77C211.883 14.77 212.798 16.18 212.798 18.37C212.798 20.575 211.883 22.015 210.548 22.015C209.228 22.015 208.298 20.575 208.298 18.37C208.298 16.18 209.228 14.77 210.548 14.77ZM221.992 19.915V20.92H231.307V19.915H221.992ZM220.417 23.395V24.43H232.702V23.395H220.417ZM221.992 13.765V20.23H223.252V14.785H231.157V13.765H221.992ZM222.847 16.795V17.785H230.872V16.795H222.847ZM243.486 12.625V22.615H244.731V12.625H243.486ZM244.356 16.765V17.815H246.741V16.765H244.356ZM236.376 24.85V25.87H245.346V24.85H236.376ZM236.376 21.835V25.225H237.621V21.835H236.376ZM234.801 19.48V20.5H235.866C238.371 20.5 240.156 20.425 242.301 20.065L242.196 19.03C240.081 19.405 238.326 19.48 235.866 19.48H234.801ZM234.771 13.495V14.515H239.646V16.435H234.801V19.84H236.016V17.38H240.876V13.495H234.771ZM254.135 12.835C251.135 12.835 249.365 13.675 249.365 15.19C249.365 16.705 251.135 17.545 254.135 17.545C257.12 17.545 258.905 16.705 258.905 15.19C258.905 13.675 257.12 12.835 254.135 12.835ZM254.135 13.78C256.34 13.78 257.615 14.29 257.615 15.19C257.615 16.09 256.34 16.6 254.135 16.6C251.915 16.6 250.64 16.09 250.64 15.19C250.64 14.29 251.915 13.78 254.135 13.78ZM248 18.445V19.45H260.255V18.445H248ZM249.485 20.605V21.565H257.465V22.765H249.515V25.315H250.745V23.665H258.695V20.605H249.485ZM249.515 25.045V26.02H259.1V25.045H249.515ZM265.695 19.795V20.8H277.95V19.795H265.695ZM271.2 18.04V20.215H272.43V18.04H271.2ZM267.315 17.485V18.46H276.51V17.485H267.315ZM267.315 13V18.01H268.545V13.975H276.45V13H267.315ZM268.185 15.22V16.18H276.09V15.22H268.185ZM271.815 21.805C268.86 21.805 267.165 22.555 267.165 23.98C267.165 25.39 268.86 26.14 271.815 26.14C274.77 26.14 276.465 25.39 276.465 23.98C276.465 22.555 274.77 21.805 271.815 21.805ZM271.815 22.75C273.99 22.75 275.205 23.185 275.205 23.98C275.205 24.79 273.99 25.21 271.815 25.21C269.64 25.21 268.425 24.79 268.425 23.98C268.425 23.185 269.64 22.75 271.815 22.75ZM279.479 14.92V15.94H286.199V14.92H279.479ZM282.839 16.84C281.159 16.84 279.929 18.115 279.929 19.945C279.929 21.76 281.159 23.035 282.839 23.035C284.534 23.035 285.764 21.76 285.764 19.945C285.764 18.115 284.534 16.84 282.839 16.84ZM282.839 17.905C283.889 17.905 284.654 18.745 284.654 19.945C284.654 21.145 283.889 21.985 282.839 21.985C281.804 21.985 281.054 21.145 281.054 19.945C281.054 18.745 281.804 17.905 282.839 17.905ZM289.784 12.61V26.17H290.984V12.61H289.784ZM287.624 18.31V19.345H290.189V18.31H287.624ZM286.889 12.91V25.51H288.059V12.91H286.889ZM282.239 13V15.55H283.469V13H282.239ZM48.5 36.375V37.38H52.22V36.375H48.5ZM51.65 32.625V42.6H52.895V32.625H51.65ZM44.24 44.85V45.87H53.27V44.85H44.24ZM44.24 41.595V45.285H45.485V41.595H44.24ZM45.44 33.48C43.445 33.48 41.945 34.875 41.945 36.84C41.945 38.805 43.445 40.2 45.44 40.2C47.435 40.2 48.935 38.805 48.935 36.84C48.935 34.875 47.435 33.48 45.44 33.48ZM45.44 34.575C46.745 34.575 47.735 35.505 47.735 36.84C47.735 38.175 46.745 39.105 45.44 39.105C44.12 39.105 43.145 38.175 43.145 36.84C43.145 35.505 44.12 34.575 45.44 34.575ZM65.8538 32.61V46.17H67.0538V32.61H65.8538ZM60.9188 37.47V38.505H63.5138V37.47H60.9188ZM63.1388 32.925V45.48H64.3088V32.925H63.1388ZM58.3088 34.71V36.435C58.3088 38.925 57.2588 41.4 55.3688 42.54L56.1338 43.47C58.1288 42.21 59.2688 39.405 59.2688 36.435V34.71H58.3088ZM58.5638 34.71V36.435C58.5638 39.27 59.6588 41.94 61.6388 43.14L62.4038 42.225C60.5438 41.145 59.5238 38.79 59.5238 36.435V34.71H58.5638ZM55.7438 34.185V35.22H61.9388V34.185H55.7438ZM69.3477 39.45V40.47H81.6027V39.45H69.3477ZM70.8927 36.945V37.98H80.1927V36.945H70.8927ZM70.8927 33.195V37.29H72.1377V34.2H80.0727V33.195H70.8927ZM70.9077 44.835V45.87H80.3127V44.835H70.9077ZM70.9077 41.895V45.105H72.1527V41.895H70.9077ZM86.7315 34.545V36.75C86.7315 39.09 85.0965 41.64 83.1315 42.57L83.8515 43.56C86.0115 42.495 87.7365 39.615 87.7365 36.75V34.545H86.7315ZM86.9715 34.545V36.75C86.9715 39.57 88.7115 42.21 90.9015 43.23L91.6065 42.24C89.6115 41.385 87.9765 39.045 87.9765 36.75V34.545H86.9715ZM83.5815 33.99V35.04H91.1565V33.99H83.5815ZM92.9865 32.61V46.17H94.2315V32.61H92.9865ZM104.187 34.545V36.75C104.187 39.045 102.552 41.625 100.617 42.57L101.337 43.56C103.452 42.48 105.177 39.57 105.177 36.75V34.545H104.187ZM104.412 34.545V36.75C104.412 39.435 106.047 42.165 108.192 43.23L108.897 42.24C106.932 41.31 105.402 38.895 105.402 36.75V34.545H104.412ZM101.097 33.99V35.04H108.402V33.99H101.097ZM110.007 32.61V46.17H111.267V32.61H110.007ZM110.967 38.085V39.135H113.487V38.085H110.967ZM120.416 33.525V34.065C120.416 36.585 118.316 38.58 114.836 39.54L115.331 40.515C119.276 39.435 121.721 36.975 121.721 33.525H120.416ZM115.526 33.525V34.53H121.181V33.525H115.526ZM116.741 41.31V42.315H124.541V46.14H125.786V41.31H116.741ZM124.541 32.61V40.695H125.786V32.61H124.541ZM121.166 35.025V36.045H124.796V35.025H121.166ZM121.031 37.905V38.925H124.706V37.905H121.031ZM128.424 39.06V40.065H140.679V39.06H128.424ZM134.544 41.235C131.649 41.235 129.894 42.135 129.894 43.695C129.894 45.255 131.649 46.14 134.544 46.14C137.439 46.14 139.194 45.255 139.194 43.695C139.194 42.135 137.439 41.235 134.544 41.235ZM134.544 42.225C136.674 42.225 137.934 42.75 137.934 43.695C137.934 44.625 136.674 45.165 134.544 45.165C132.429 45.165 131.154 44.625 131.154 43.695C131.154 42.75 132.429 42.225 134.544 42.225ZM133.749 33.84V34.245C133.749 35.775 131.544 36.99 129.114 37.26L129.564 38.235C132.369 37.905 134.859 36.42 134.859 34.245V33.84H133.749ZM134.274 33.84V34.245C134.274 36.42 136.749 37.905 139.554 38.235L140.004 37.26C137.574 36.99 135.369 35.775 135.369 34.245V33.84H134.274ZM129.549 33.3V34.305H139.584V33.3H129.549ZM148.358 32.835C145.358 32.835 143.588 33.675 143.588 35.19C143.588 36.705 145.358 37.545 148.358 37.545C151.343 37.545 153.128 36.705 153.128 35.19C153.128 33.675 151.343 32.835 148.358 32.835ZM148.358 33.78C150.563 33.78 151.838 34.29 151.838 35.19C151.838 36.09 150.563 36.6 148.358 36.6C146.138 36.6 144.863 36.09 144.863 35.19C144.863 34.29 146.138 33.78 148.358 33.78ZM142.223 38.445V39.45H154.478V38.445H142.223ZM143.708 40.605V41.565H151.688V42.765H143.738V45.315H144.968V43.665H152.918V40.605H143.708ZM143.738 45.045V46.02H153.323V45.045H143.738ZM169.789 32.625V40.32H171.049V32.625H169.789ZM162.289 41.1V45.99H171.049V41.1H162.289ZM169.819 42.09V44.985H163.504V42.09H169.819ZM163.459 33.135V34.455C163.459 36.435 162.064 38.265 160.024 39L160.639 39.99C162.934 39.135 164.494 36.975 164.494 34.455V33.135H163.459ZM163.684 33.135V34.455C163.684 36.915 165.244 38.94 167.509 39.72L168.124 38.745C166.114 38.07 164.704 36.375 164.704 34.455V33.135H163.684ZM177.047 33.78V36.21C177.047 38.685 175.502 41.295 173.537 42.285L174.302 43.275C176.447 42.135 178.067 39.21 178.067 36.21V33.78H177.047ZM177.272 33.78V36.21C177.272 39.12 178.847 41.895 180.947 43.02L181.712 42.03C179.792 41.07 178.277 38.595 178.277 36.21V33.78H177.272ZM182.897 32.61V46.17H184.157V32.61H182.897ZM183.857 38.1V39.15H186.377V38.1H183.857ZM196.801 32.61V40.545H198.046V32.61H196.801ZM197.701 35.865V36.915H200.056V35.865H197.701ZM188.086 33.36V39.69H194.356V33.36H193.141V35.43H189.316V33.36H188.086ZM189.316 36.42H193.141V38.685H189.316V36.42ZM189.571 41.28V45.69H190.816V42.285H198.151V41.28H189.571ZM189.571 44.97V45.99H198.421V44.97H189.571ZM202.62 33.96V34.995H211.35V33.96H202.62ZM201.33 43.245V44.28H213.585V43.245H201.33ZM206.085 38.4V43.755H207.33V38.4H206.085ZM210.885 33.96V35.31C210.885 36.93 210.885 38.835 210.375 41.43L211.62 41.595C212.115 38.85 212.115 36.99 212.115 35.31V33.96H210.885ZM219.025 39.06V40.095H231.28V39.06H219.025ZM220.57 36.765V37.77H229.855V36.765H220.57ZM220.57 33.15V37.245H221.8V34.17H229.75V33.15H220.57ZM225.13 41.265C222.235 41.265 220.48 42.15 220.48 43.71C220.48 45.27 222.235 46.14 225.13 46.14C228.025 46.14 229.78 45.27 229.78 43.71C229.78 42.15 228.025 41.265 225.13 41.265ZM225.13 42.225C227.26 42.225 228.52 42.765 228.52 43.71C228.52 44.64 227.26 45.165 225.13 45.165C223.015 45.165 221.74 44.64 221.74 43.71C221.74 42.765 223.015 42.225 225.13 42.225ZM232.809 40.065V41.085H245.109V40.065H232.809ZM234.369 32.955V33.93H242.304V35.325H234.399V38.07H235.629V36.24H243.519V32.955H234.369ZM234.399 37.665V38.64H243.819V37.665H234.399ZM238.329 38.175V40.575H239.574V38.175H238.329ZM234.174 42.12V43.14H242.364V46.05H243.609V42.12H234.174ZM255.893 32.565V40.05H257.138V32.565H255.893ZM256.613 35.82V36.87H259.148V35.82H256.613ZM248.528 40.74V41.685H255.923V42.87H248.558V45.42H249.788V43.77H257.138V40.74H248.528ZM248.558 45.06V46.02H257.633V45.06H248.558ZM246.653 33.825V34.8H254.663V33.825H246.653ZM250.658 35.4C248.678 35.4 247.403 36.255 247.403 37.635C247.403 39 248.678 39.84 250.658 39.84C252.608 39.84 253.898 39 253.898 37.635C253.898 36.255 252.608 35.4 250.658 35.4ZM250.658 36.315C251.903 36.315 252.713 36.825 252.713 37.635C252.713 38.43 251.903 38.94 250.658 38.94C249.398 38.94 248.588 38.43 248.588 37.635C248.588 36.825 249.398 36.315 250.658 36.315ZM250.028 32.46V34.5H251.273V32.46H250.028ZM269.793 33.09V33.84C269.793 35.775 267.408 37.395 264.933 37.77L265.428 38.775C268.248 38.295 270.888 36.435 270.888 33.84V33.09H269.793ZM270.018 33.09V33.84C270.018 36.405 272.673 38.295 275.463 38.775L275.958 37.77C273.513 37.395 271.098 35.73 271.098 33.84V33.09H270.018ZM269.793 41.01V46.17H271.023V41.01H269.793ZM264.318 40.245V41.28H276.573V40.245H264.318ZM285.389 40.95V41.685C285.389 42.99 284.369 44.445 282.659 45.06L283.289 45.99C285.239 45.24 286.349 43.455 286.349 41.685V40.95H285.389ZM285.659 40.95V41.685C285.659 43.485 286.544 45.345 288.494 46.11L289.019 45.165C287.399 44.505 286.589 43.05 286.589 41.685V40.95H285.659ZM290.399 40.95V41.685C290.399 42.855 289.574 44.43 287.969 45.165L288.494 46.11C290.429 45.285 291.329 43.275 291.329 41.685V40.95H290.399ZM290.654 40.95V41.685C290.654 43.56 291.734 45.27 293.714 45.99L294.344 45.06C292.619 44.475 291.614 43.08 291.614 41.685V40.95H290.654ZM291.869 32.625V40.365H293.129V32.625H291.869ZM285.854 33.405C283.799 33.405 282.314 34.695 282.314 36.57C282.314 38.445 283.799 39.72 285.854 39.72C287.909 39.72 289.379 38.445 289.379 36.57C289.379 34.695 287.909 33.405 285.854 33.405ZM285.854 34.44C287.204 34.44 288.179 35.31 288.179 36.57C288.179 37.83 287.204 38.685 285.854 38.685C284.504 38.685 283.529 37.83 283.529 36.57C283.529 35.31 284.504 34.44 285.854 34.44ZM297.358 40.74V45.99H306.463V40.74H305.218V42.315H298.588V40.74H297.358ZM298.588 43.275H305.218V44.985H298.588V43.275ZM295.798 38.79V39.795H308.053V38.79H295.798ZM301.303 32.76V33.36C301.303 35.07 298.948 36.525 296.503 36.855L296.953 37.83C299.743 37.41 302.368 35.715 302.368 33.36V32.76H301.303ZM301.498 32.76V33.36C301.498 35.685 304.138 37.41 306.898 37.83L307.363 36.855C304.948 36.525 302.562 35.04 302.562 33.36V32.76H301.498ZM319.466 32.61V46.17H320.711V32.61H319.466ZM310.466 33.93V42.33H311.696V33.93H310.466ZM310.466 41.595V42.675H311.576C313.721 42.675 315.866 42.51 318.221 42.03L318.071 40.965C315.776 41.445 313.631 41.595 311.576 41.595H310.466ZM332.575 32.595V46.185H333.835V32.595H332.575ZM333.535 37.95V39H336.055V37.95H333.535ZM323.98 41.76V42.81H325.045C327.595 42.81 329.38 42.735 331.465 42.345L331.33 41.295C329.305 41.67 327.55 41.76 325.045 41.76H323.98ZM323.98 33.915V42.225H325.21V34.935H330.28V33.915H323.98ZM337.539 44.19C337.539 43.82 337.629 43.56 337.809 43.41C337.989 43.26 338.204 43.185 338.454 43.185C338.714 43.185 338.934 43.26 339.114 43.41C339.304 43.56 339.399 43.82 339.399 44.19C339.399 44.55 339.304 44.81 339.114 44.97C338.934 45.13 338.714 45.21 338.454 45.21C338.204 45.21 337.989 45.13 337.809 44.97C337.629 44.81 337.539 44.55 337.539 44.19Z" fill="#011E5F"/>
</svg>
