<svg width="287" height="230" viewBox="0 0 287 230" fill="none" xmlns="http://www.w3.org/2000/svg">
<path d="M11.1089 185.625V193.32H12.3689V185.625H11.1089ZM3.60891 194.1V198.99H12.3689V194.1H3.60891ZM11.1389 195.09V197.985H4.82391V195.09H11.1389ZM4.77891 186.135V187.455C4.77891 189.435 3.38391 191.265 1.34391 192L1.95891 192.99C4.25391 192.135 5.81391 189.975 5.81391 187.455V186.135H4.77891ZM5.00391 186.135V187.455C5.00391 189.915 6.56391 191.94 8.82891 192.72L9.44391 191.745C7.43391 191.07 6.02391 189.375 6.02391 187.455V186.135H5.00391ZM17.9597 186.78V189.21C17.9597 191.685 16.4147 194.295 14.4497 195.285L15.2147 196.275C17.3597 195.135 18.9797 192.21 18.9797 189.21V186.78H17.9597ZM18.1847 186.78V189.21C18.1847 192.12 19.7597 194.895 21.8597 196.02L22.6247 195.03C20.7047 194.07 19.1897 191.595 19.1897 189.21V186.78H18.1847ZM23.8097 185.61V199.17H25.0697V185.61H23.8097ZM24.7697 191.1V192.15H27.2897V191.1H24.7697ZM29.6856 189.675V190.695H38.8956V189.675H29.6856ZM28.0206 192.51V193.53H40.3206V192.51H28.0206ZM29.6856 186.105V190.185H30.9156V186.105H29.6856ZM29.5956 197.82V198.84H38.9706V197.82H29.5956ZM29.5956 194.88V198.09H30.8256V194.88H29.5956ZM54.7549 185.595V199.185H55.9999V185.595H54.7549ZM48.8449 186.645C46.8499 186.645 45.4099 188.49 45.4099 191.37C45.4099 194.265 46.8499 196.11 48.8449 196.11C50.8549 196.11 52.2949 194.265 52.2949 191.37C52.2949 188.49 50.8549 186.645 48.8449 186.645ZM48.8449 187.77C50.1799 187.77 51.0949 189.18 51.0949 191.37C51.0949 193.575 50.1799 195.015 48.8449 195.015C47.5249 195.015 46.5949 193.575 46.5949 191.37C46.5949 189.18 47.5249 187.77 48.8449 187.77ZM59.9107 189.96V190.86H69.1057V189.96H59.9107ZM59.9107 185.955V190.38H61.1407V186.855H69.0457V185.955H59.9107ZM60.7807 187.935V188.805H68.6857V187.935H60.7807ZM58.3057 191.865V192.825H70.5457V191.865H58.3057ZM59.7757 193.86V194.775H67.7557V195.945H59.8057V198.51H61.0357V196.83H68.9857V193.86H59.7757ZM59.8057 198.105V199.02H69.3907V198.105H59.8057ZM76.0915 186.585C73.9765 186.585 72.4465 187.89 72.4465 189.78C72.4465 191.685 73.9765 192.99 76.0915 192.99C78.2065 192.99 79.7215 191.685 79.7215 189.78C79.7215 187.89 78.2065 186.585 76.0915 186.585ZM76.0915 187.665C77.4865 187.665 78.5065 188.52 78.5065 189.78C78.5065 191.04 77.4865 191.91 76.0915 191.91C74.6815 191.91 73.6615 191.04 73.6615 189.78C73.6615 188.52 74.6815 187.665 76.0915 187.665ZM81.4915 185.595V199.185H82.7365V185.595H81.4915ZM71.9365 196.215C74.3515 196.215 77.6665 196.2 80.7115 195.615L80.6065 194.7C77.6515 195.165 74.2315 195.18 71.7565 195.18L71.9365 196.215ZM98.4458 185.61V199.17H99.6908V185.61H98.4458ZM94.4708 187.065V187.275C94.4708 190.875 92.6558 193.755 88.7408 195.645L89.4008 196.65C93.9308 194.43 95.7008 190.995 95.7008 187.065H94.4708ZM89.3558 187.065V188.085H95.0108V187.065H89.3558ZM111.237 185.61V195.525H112.482V185.61H111.237ZM112.092 189.72V190.755H114.492V189.72H112.092ZM107.532 186.66V187.2C107.532 189.81 105.387 191.91 101.967 192.96L102.507 193.98C106.392 192.735 108.852 190.17 108.852 186.66H107.532ZM102.522 186.66V187.68H108.162V186.66H102.522ZM104.022 197.85V198.87H113.082V197.85H104.022ZM104.022 194.52V198.255H105.267V194.52H104.022ZM125.197 185.595V199.185H126.442V185.595H125.197ZM119.287 186.645C117.292 186.645 115.852 188.49 115.852 191.37C115.852 194.265 117.292 196.11 119.287 196.11C121.297 196.11 122.737 194.265 122.737 191.37C122.737 188.49 121.297 186.645 119.287 186.645ZM119.287 187.77C120.622 187.77 121.537 189.18 121.537 191.37C121.537 193.575 120.622 195.015 119.287 195.015C117.967 195.015 117.037 193.575 117.037 191.37C117.037 189.18 117.967 187.77 119.287 187.77ZM132.237 196.38V197.415H144.522V196.38H132.237ZM137.697 193.095V196.725H138.927V193.095H137.697ZM137.667 186.51V187.56C137.667 189.795 135.102 191.79 132.717 192.225L133.242 193.26C135.972 192.69 138.747 190.455 138.747 187.56V186.51H137.667ZM137.892 186.51V187.56C137.892 190.455 140.667 192.69 143.397 193.26L143.937 192.225C141.552 191.79 138.972 189.81 138.972 187.56V186.51H137.892ZM148.628 192.585V196.65H149.858V192.585H148.628ZM153.638 192.585V196.65H154.883V192.585H153.638ZM145.628 196.41V197.445H157.913V196.41H145.628ZM151.748 186.465C148.868 186.465 146.813 187.83 146.813 189.96C146.813 192.075 148.868 193.44 151.748 193.44C154.613 193.44 156.668 192.075 156.668 189.96C156.668 187.83 154.613 186.465 151.748 186.465ZM151.748 187.455C153.923 187.455 155.468 188.445 155.468 189.96C155.468 191.46 153.923 192.45 151.748 192.45C149.573 192.45 148.013 191.46 148.013 189.96C148.013 188.445 149.573 187.455 151.748 187.455ZM162.873 190.2V192.45H164.133V190.2H162.873ZM168.888 185.61V193.425H170.133V185.61H168.888ZM159.243 193.095C161.658 193.095 164.913 193.05 167.868 192.525L167.778 191.64C164.913 192.06 161.538 192.09 159.063 192.09L159.243 193.095ZM160.278 189.57V190.575H166.788V189.57H160.278ZM160.278 186.285V189.96H161.523V187.305H166.668V186.285H160.278ZM161.238 194.025V198.99H170.133V194.025H168.903V195.45H162.483V194.025H161.238ZM162.483 196.425H168.903V197.985H162.483V196.425ZM182.264 185.61V199.17H183.509V185.61H182.264ZM173.264 186.93V195.33H174.494V186.93H173.264ZM173.264 194.595V195.675H174.374C176.519 195.675 178.664 195.51 181.019 195.03L180.869 193.965C178.574 194.445 176.429 194.595 174.374 194.595H173.264ZM194.965 185.595V199.185H196.225V185.595H194.965ZM195.925 190.95V192H198.445V190.95H195.925ZM186.37 194.76V195.81H187.435C189.985 195.81 191.77 195.735 193.855 195.345L193.72 194.295C191.695 194.67 189.94 194.76 187.435 194.76H186.37ZM186.37 186.915V195.225H187.6V187.935H192.67V186.915H186.37ZM199.521 197.19C199.521 196.82 199.611 196.56 199.791 196.41C199.971 196.26 200.186 196.185 200.436 196.185C200.696 196.185 200.916 196.26 201.096 196.41C201.286 196.56 201.381 196.82 201.381 197.19C201.381 197.55 201.286 197.81 201.096 197.97C200.916 198.13 200.696 198.21 200.436 198.21C200.186 198.21 199.971 198.13 199.791 197.97C199.611 197.81 199.521 197.55 199.521 197.19ZM1.10391 218.89C1.10391 218.07 1.17891 217.27 1.32891 216.49C1.48891 215.71 1.73391 214.965 2.06391 214.255C2.39391 213.545 2.80891 212.89 3.30891 212.29H4.55391C4.09391 212.91 3.70391 213.58 3.38391 214.3C3.07391 215.02 2.83891 215.765 2.67891 216.535C2.51891 217.305 2.43891 218.085 2.43891 218.875C2.43891 219.645 2.51891 220.41 2.67891 221.17C2.83891 221.93 3.07391 222.66 3.38391 223.36C3.69391 224.07 4.07891 224.74 4.53891 225.37H3.30891C2.80891 224.78 2.39391 224.135 2.06391 223.435C1.73391 222.745 1.48891 222.015 1.32891 221.245C1.17891 220.475 1.10391 219.69 1.10391 218.89ZM15.198 210.625V220.555H16.458V210.625H15.198ZM7.74298 222.85V223.87H16.863V222.85H7.74298ZM7.74298 219.64V223.33H8.97298V219.64H7.74298ZM8.86798 211.36V212.74C8.86798 214.84 7.51798 216.82 5.47798 217.615L6.12298 218.62C8.40298 217.69 9.90298 215.38 9.90298 212.74V211.36H8.86798ZM9.09298 211.36V212.74C9.09298 215.32 10.593 217.495 12.843 218.365L13.503 217.36C11.478 216.625 10.113 214.78 10.113 212.74V211.36H9.09298ZM18.7188 217.765V218.785H31.0038V217.765H18.7188ZM24.3288 218.275V221.395H25.5738V218.275H24.3288ZM20.2788 222.85V223.87H29.6388V222.85H20.2788ZM20.2788 220.195V223.24H21.5088V220.195H20.2788ZM20.3538 211.03V216.46H29.3838V211.03H28.1388V212.755H21.5838V211.03H20.3538ZM21.5838 213.73H28.1388V215.455H21.5838V213.73ZM32.1096 217.06V218.065H44.3646V217.06H32.1096ZM38.2296 219.235C35.3346 219.235 33.5796 220.135 33.5796 221.695C33.5796 223.255 35.3346 224.14 38.2296 224.14C41.1246 224.14 42.8796 223.255 42.8796 221.695C42.8796 220.135 41.1246 219.235 38.2296 219.235ZM38.2296 220.225C40.3596 220.225 41.6196 220.75 41.6196 221.695C41.6196 222.625 40.3596 223.165 38.2296 223.165C36.1146 223.165 34.8396 222.625 34.8396 221.695C34.8396 220.75 36.1146 220.225 38.2296 220.225ZM37.4346 211.84V212.245C37.4346 213.775 35.2296 214.99 32.7996 215.26L33.2496 216.235C36.0546 215.905 38.5446 214.42 38.5446 212.245V211.84H37.4346ZM37.9596 211.84V212.245C37.9596 214.42 40.4346 215.905 43.2396 216.235L43.6896 215.26C41.2596 214.99 39.0546 213.775 39.0546 212.245V211.84H37.9596ZM33.2346 211.3V212.305H43.2696V211.3H33.2346ZM49.9105 211.585C47.7955 211.585 46.2655 212.89 46.2655 214.78C46.2655 216.685 47.7955 217.99 49.9105 217.99C52.0255 217.99 53.5405 216.685 53.5405 214.78C53.5405 212.89 52.0255 211.585 49.9105 211.585ZM49.9105 212.665C51.3055 212.665 52.3255 213.52 52.3255 214.78C52.3255 216.04 51.3055 216.91 49.9105 216.91C48.5005 216.91 47.4805 216.04 47.4805 214.78C47.4805 213.52 48.5005 212.665 49.9105 212.665ZM55.3105 210.595V224.185H56.5555V210.595H55.3105ZM45.7555 221.215C48.1705 221.215 51.4855 221.2 54.5305 220.615L54.4255 219.7C51.4705 220.165 48.0505 220.18 45.5755 220.18L45.7555 221.215ZM67.8248 211.945V212.515C67.8248 214.3 65.4998 215.86 63.1148 216.205L63.5948 217.195C66.3248 216.73 68.9048 214.945 68.9048 212.515V211.945H67.8248ZM68.1398 211.945V212.515C68.1398 214.945 70.7048 216.73 73.4498 217.195L73.9148 216.205C71.5448 215.86 69.2048 214.3 69.2048 212.515V211.945H68.1398ZM67.8698 218.995V224.17H69.0998V218.995H67.8698ZM62.3948 218.335V219.355H74.6498V218.335H62.3948ZM63.5348 211.45V212.455H73.4648V211.45H63.5348ZM76.4906 211.78V218.095H82.8056V211.78H76.4906ZM81.6056 212.785V217.09H77.6906V212.785H81.6056ZM85.6406 210.625V220.36H86.9006V210.625H85.6406ZM78.1856 222.7V223.735H87.3056V222.7H78.1856ZM78.1856 219.43V223.12H79.4156V219.43H78.1856ZM89.1764 217.06V218.095H101.431V217.06H89.1764ZM90.7214 214.765V215.77H100.006V214.765H90.7214ZM90.7214 211.15V215.245H91.9514V212.17H99.9014V211.15H90.7214ZM95.2814 219.265C92.3864 219.265 90.6314 220.15 90.6314 221.71C90.6314 223.27 92.3864 224.14 95.2814 224.14C98.1764 224.14 99.9314 223.27 99.9314 221.71C99.9314 220.15 98.1764 219.265 95.2814 219.265ZM95.2814 220.225C97.4114 220.225 98.6714 220.765 98.6714 221.71C98.6714 222.64 97.4114 223.165 95.2814 223.165C93.1664 223.165 91.8914 222.64 91.8914 221.71C91.8914 220.765 93.1664 220.225 95.2814 220.225ZM102.552 218.065V219.085H114.852V218.065H102.552ZM104.112 210.955V211.93H112.047V213.325H104.142V216.07H105.372V214.24H113.262V210.955H104.112ZM104.142 215.665V216.64H113.562V215.665H104.142ZM108.072 216.175V218.575H109.317V216.175H108.072ZM103.917 220.12V221.14H112.107V224.05H113.352V220.12H103.917ZM122.348 214.435V215.455H126.248V214.435H122.348ZM125.858 210.625V220.66H127.103V210.625H125.858ZM118.388 222.85V223.87H127.433V222.85H118.388ZM118.388 219.685V223.375H119.633V219.685H118.388ZM116.618 211.51V218.35H122.738V211.51H121.523V213.91H117.848V211.51H116.618ZM117.848 214.885H121.523V217.33H117.848V214.885ZM129.949 212.59V213.61H140.959V212.59H129.949ZM129.349 221.56V222.595H141.634V221.56H129.349ZM134.854 219.415V221.965H136.084V219.415H134.854ZM135.454 214.525C132.724 214.525 131.029 215.47 131.029 217.105C131.029 218.74 132.724 219.685 135.454 219.685C138.199 219.685 139.894 218.74 139.894 217.105C139.894 215.47 138.199 214.525 135.454 214.525ZM135.454 215.5C137.434 215.5 138.634 216.1 138.634 217.105C138.634 218.11 137.434 218.695 135.454 218.695C133.489 218.695 132.274 218.11 132.274 217.105C132.274 216.1 133.489 215.5 135.454 215.5ZM134.854 210.835V213.22H136.084V210.835H134.854ZM144.39 214.675V215.695H153.6V214.675H144.39ZM142.725 217.51V218.53H155.025V217.51H142.725ZM144.39 211.105V215.185H145.62V211.105H144.39ZM144.3 222.82V223.84H153.675V222.82H144.3ZM144.3 219.88V223.09H145.53V219.88H144.3ZM168.784 210.595V224.17H170.044V210.595H168.784ZM169.699 216.1V217.135H172.204V216.1H169.699ZM165.319 212.065V212.26C165.319 215.845 163.444 218.74 159.694 220.645L160.384 221.605C164.764 219.4 166.534 215.92 166.534 212.065H165.319ZM160.324 212.065V213.085H165.964V212.065H160.324ZM182.91 210.595V224.185H184.155V210.595H182.91ZM180.24 213.7V214.72H183.24V213.7H180.24ZM173.505 219.985V221.035H174.51C176.655 221.035 178.395 220.96 180.525 220.63L180.405 219.595C178.335 219.925 176.61 219.985 174.51 219.985H173.505ZM173.475 211.825V212.86H178.17V215.665H173.505V220.225H174.735V216.685H179.4V211.825H173.475ZM180.15 217.405V218.425H183.15V217.405H180.15ZM193.166 215.2V216.22H196.946V215.2H193.166ZM189.896 211.78V214.195C189.896 216.715 188.366 219.325 186.371 220.315L187.166 221.305C189.311 220.15 190.916 217.24 190.916 214.195V211.78H189.896ZM190.136 211.78V214.195C190.136 217.165 191.711 219.955 193.901 221.065L194.636 220.06C192.671 219.13 191.141 216.67 191.141 214.195V211.78H190.136ZM196.331 210.595V224.185H197.561V210.595H196.331ZM203.28 221.41V222.445H215.565V221.41H203.28ZM208.77 218.17V221.71H210.015V218.17H208.77ZM204.72 211.57V218.5H214.095V211.57H212.865V213.985H205.95V211.57H204.72ZM205.95 214.99H212.865V217.48H205.95V214.99ZM226.961 210.61V224.17H228.161V210.61H226.961ZM224.681 216.13V217.15H227.291V216.13H224.681ZM223.886 210.91V223.48H225.056V210.91H223.886ZM217.316 212.245V220.075H218.561V212.245H217.316ZM217.316 219.58V220.66H218.186C219.641 220.66 221.201 220.585 223.046 220.225L222.911 219.145C221.141 219.49 219.581 219.58 218.186 219.58H217.316ZM235.492 211.945V212.515C235.492 214.3 233.167 215.86 230.782 216.205L231.262 217.195C233.992 216.73 236.572 214.945 236.572 212.515V211.945H235.492ZM235.807 211.945V212.515C235.807 214.945 238.372 216.73 241.117 217.195L241.582 216.205C239.212 215.86 236.872 214.3 236.872 212.515V211.945H235.807ZM235.537 218.995V224.17H236.767V218.995H235.537ZM230.062 218.335V219.355H242.317V218.335H230.062ZM231.202 211.45V212.455H241.132V211.45H231.202ZM248.793 215.455V216.49H251.388V215.455H248.793ZM246.258 211.885V214.465C246.258 216.79 245.148 219.22 243.288 220.315L244.068 221.26C246.048 220.045 247.233 217.3 247.233 214.465V211.885H246.258ZM246.498 211.885V214.42C246.498 217.06 247.593 219.76 249.543 220.96L250.263 219.985C248.478 218.905 247.458 216.595 247.458 214.42V211.885H246.498ZM253.773 210.61V224.17H254.973V210.61H253.773ZM251.028 210.895V223.495H252.198V210.895H251.028ZM259.843 217.585V221.65H261.073V217.585H259.843ZM264.853 217.585V221.65H266.098V217.585H264.853ZM256.843 221.41V222.445H269.128V221.41H256.843ZM262.963 211.465C260.083 211.465 258.028 212.83 258.028 214.96C258.028 217.075 260.083 218.44 262.963 218.44C265.828 218.44 267.883 217.075 267.883 214.96C267.883 212.83 265.828 211.465 262.963 211.465ZM262.963 212.455C265.138 212.455 266.683 213.445 266.683 214.96C266.683 216.46 265.138 217.45 262.963 217.45C260.788 217.45 259.228 216.46 259.228 214.96C259.228 213.445 260.788 212.455 262.963 212.455ZM271.929 219.985H271.074L270.699 212.29H272.304L271.929 219.985ZM270.564 222.19C270.564 221.82 270.654 221.56 270.834 221.41C271.014 221.26 271.234 221.185 271.494 221.185C271.744 221.185 271.959 221.26 272.139 221.41C272.329 221.56 272.424 221.82 272.424 222.19C272.424 222.55 272.329 222.81 272.139 222.97C271.959 223.13 271.744 223.21 271.494 223.21C271.234 223.21 271.014 223.13 270.834 222.97C270.654 222.81 270.564 222.55 270.564 222.19ZM277.004 218.89C277.004 219.69 276.924 220.475 276.764 221.245C276.614 222.015 276.374 222.745 276.044 223.435C275.724 224.135 275.309 224.78 274.799 225.37H273.569C274.029 224.74 274.414 224.07 274.724 223.36C275.034 222.66 275.269 221.93 275.429 221.17C275.589 220.41 275.669 219.645 275.669 218.875C275.669 218.085 275.589 217.305 275.429 216.535C275.269 215.765 275.034 215.02 274.724 214.3C274.414 213.58 274.024 212.91 273.554 212.29H274.799C275.309 212.89 275.724 213.545 276.044 214.255C276.374 214.965 276.614 215.71 276.764 216.49C276.924 217.27 277.004 218.07 277.004 218.89Z" fill="#011E5F"/>
<path d="M2.91891 9.075V10.08H12.1289V9.075H2.91891ZM2.91891 5.91V9.72H4.14891V5.91H2.91891ZM1.25391 11.79V12.78H13.5089V11.79H1.25391ZM6.75891 9.735V12.465H7.98891V9.735H6.75891ZM2.61891 14.13V15.135H12.1589V14.13H2.61891ZM2.48391 17.985V18.99H12.2789V17.985H2.48391ZM4.67391 14.43V18.45H5.90391V14.43H4.67391ZM8.85891 14.43V18.45H10.0889V14.43H8.85891ZM14.6297 12.735V13.755H26.8847V12.735H14.6297ZM16.2197 17.85V18.87H25.5347V17.85H16.2197ZM16.2197 14.94V18.165H17.4647V14.94H16.2197ZM20.7647 6.06C17.8547 6.06 15.9947 7.08 15.9947 8.775C15.9947 10.455 17.8547 11.475 20.7647 11.475C23.6597 11.475 25.5347 10.455 25.5347 8.775C25.5347 7.08 23.6597 6.06 20.7647 6.06ZM20.7647 7.08C22.8947 7.08 24.2597 7.71 24.2597 8.775C24.2597 9.84 22.8947 10.47 20.7647 10.47C18.6347 10.47 17.2697 9.84 17.2697 8.775C17.2697 7.71 18.6347 7.08 20.7647 7.08ZM31.959 14.805V15.84H32.859C34.569 15.84 36.099 15.78 38.004 15.45L37.899 14.43C36.039 14.745 34.509 14.805 32.859 14.805H31.959ZM31.929 7.095V8.115H35.574V10.815H31.959V15.225H33.174V11.82H36.774V7.095H31.929ZM41.829 5.61V19.17H43.029V5.61H41.829ZM37.419 10.47V11.505H39.609V10.47H37.419ZM39.099 5.94V18.465H40.254V5.94H39.099ZM55.1449 5.625V12.735H56.3299V5.625H55.1449ZM52.4899 5.895V12.645H53.6749V5.895H52.4899ZM50.4049 8.685V9.69H52.9699V8.685H50.4049ZM47.3899 13.395V14.385H55.1149V15.675H47.4199V18.63H48.6649V16.605H56.3299V13.395H47.3899ZM47.4199 18.03V19.02H56.8549V18.03H47.4199ZM45.5149 6.39V12.105H50.7649V6.39H49.5799V8.175H46.6849V6.39H45.5149ZM46.6849 9.135H49.5799V11.13H46.6849V9.135ZM58.3057 16.47V17.505H70.5907V16.47H58.3057ZM63.7957 13.56V16.905H65.0407V13.56H63.7957ZM59.7907 6.615V7.62H67.8457V9.72H59.8357V13.44H61.0657V10.725H69.0757V6.615H59.7907ZM59.8357 12.915V13.935H69.3907V12.915H59.8357ZM76.0915 6.585C73.9765 6.585 72.4465 7.89 72.4465 9.78C72.4465 11.685 73.9765 12.99 76.0915 12.99C78.2065 12.99 79.7215 11.685 79.7215 9.78C79.7215 7.89 78.2065 6.585 76.0915 6.585ZM76.0915 7.665C77.4865 7.665 78.5065 8.52 78.5065 9.78C78.5065 11.04 77.4865 11.91 76.0915 11.91C74.6815 11.91 73.6615 11.04 73.6615 9.78C73.6615 8.52 74.6815 7.665 76.0915 7.665ZM81.4915 5.595V19.185H82.7365V5.595H81.4915ZM71.9365 16.215C74.3515 16.215 77.6665 16.2 80.7115 15.615L80.6065 14.7C77.6515 15.165 74.2315 15.18 71.7565 15.18L71.9365 16.215ZM95.7608 9.345V10.365H99.1808V9.345H95.7608ZM98.4758 5.625V15.555H99.7208V5.625H98.4758ZM91.0658 17.85V18.87H100.096V17.85H91.0658ZM91.0658 14.685V18.375H92.3108V14.685H91.0658ZM92.0258 7.305V8.4C92.0258 10.32 90.6308 12.12 88.6058 12.84L89.2508 13.83C91.5158 12.99 93.0458 10.86 93.0458 8.4V7.305H92.0258ZM92.2658 7.305V8.385C92.2658 10.68 93.7208 12.72 95.9258 13.515L96.5558 12.54C94.5908 11.85 93.2708 10.14 93.2708 8.385V7.305H92.2658ZM88.9958 6.72V7.725H96.2408V6.72H88.9958ZM111.222 5.61V16.23H112.467V5.61H111.222ZM111.942 10.335V11.37H114.447V10.335H111.942ZM103.887 17.85V18.87H112.947V17.85H103.887ZM103.887 15.525V18.165H105.132V15.525H103.887ZM105.507 12.24V14.085H106.752V12.24H105.507ZM102.042 14.67C104.397 14.655 107.652 14.595 110.517 14.07L110.412 13.185C107.622 13.62 104.277 13.665 101.877 13.665L102.042 14.67ZM102.222 6.93V7.875H110.007V6.93H102.222ZM106.122 8.43C104.217 8.43 102.957 9.225 102.957 10.515C102.957 11.82 104.217 12.615 106.122 12.615C108.027 12.615 109.272 11.82 109.272 10.515C109.272 9.225 108.027 8.43 106.122 8.43ZM106.122 9.315C107.322 9.315 108.102 9.78 108.102 10.515C108.102 11.265 107.322 11.715 106.122 11.715C104.907 11.715 104.127 11.265 104.127 10.515C104.127 9.78 104.907 9.315 106.122 9.315ZM105.507 5.55V7.35H106.752V5.55H105.507ZM121.477 5.835C118.477 5.835 116.707 6.675 116.707 8.19C116.707 9.705 118.477 10.545 121.477 10.545C124.462 10.545 126.247 9.705 126.247 8.19C126.247 6.675 124.462 5.835 121.477 5.835ZM121.477 6.78C123.682 6.78 124.957 7.29 124.957 8.19C124.957 9.09 123.682 9.6 121.477 9.6C119.257 9.6 117.982 9.09 117.982 8.19C117.982 7.29 119.257 6.78 121.477 6.78ZM115.342 11.445V12.45H127.597V11.445H115.342ZM116.827 13.605V14.565H124.807V15.765H116.857V18.315H118.087V16.665H126.037V13.605H116.827ZM116.857 18.045V19.02H126.442V18.045H116.857ZM136.077 12.435V15.45H137.322V12.435H136.077ZM142.092 5.61V15.93H143.337V5.61H142.092ZM134.082 17.85V18.87H143.667V17.85H134.082ZM134.082 14.925V18.135H135.327V14.925H134.082ZM132.327 12.9C134.787 12.9 138.072 12.855 140.997 12.39L140.907 11.475C138.027 11.85 134.667 11.88 132.162 11.88L132.327 12.9ZM139.332 13.62V14.535H142.407V13.62H139.332ZM136.572 6.165C134.577 6.165 133.227 7.095 133.227 8.52C133.227 9.96 134.577 10.89 136.572 10.89C138.552 10.89 139.902 9.96 139.902 8.52C139.902 7.095 138.552 6.165 136.572 6.165ZM136.572 7.095C137.832 7.095 138.717 7.65 138.717 8.52C138.717 9.39 137.832 9.945 136.572 9.945C135.297 9.945 134.412 9.39 134.412 8.52C134.412 7.65 135.297 7.095 136.572 7.095ZM154.808 5.61V19.17H156.053V5.61H154.808ZM155.753 11.175V12.225H158.273V11.175H155.753ZM145.553 7.77V8.79H153.548V7.77H145.553ZM149.603 9.915C147.698 9.915 146.303 11.205 146.303 13.035C146.303 14.865 147.698 16.155 149.603 16.155C151.523 16.155 152.903 14.865 152.903 13.035C152.903 11.205 151.523 9.915 149.603 9.915ZM149.603 10.95C150.833 10.95 151.718 11.805 151.718 13.035C151.718 14.25 150.833 15.12 149.603 15.12C148.373 15.12 147.488 14.25 147.488 13.035C147.488 11.805 148.373 10.95 149.603 10.95ZM148.958 5.775V8.235H150.203V5.775H148.958ZM162.588 6.78V9.21C162.588 11.775 160.953 14.37 158.943 15.33L159.708 16.35C161.928 15.225 163.608 12.33 163.608 9.21V6.78H162.588ZM162.798 6.78V9.21C162.798 12.225 164.493 15.015 166.698 16.095L167.448 15.105C165.438 14.175 163.818 11.685 163.818 9.21V6.78H162.798ZM168.858 5.595V19.185H170.103V5.595H168.858ZM182.489 11.01V12.06H184.994V11.01H182.489ZM181.574 5.595V19.17H182.834V5.595H181.574ZM172.934 6.93V15.33H174.179V6.93H172.934ZM172.934 14.685V15.735H174.014C176.069 15.735 178.154 15.6 180.464 15.12L180.314 14.085C178.079 14.55 176.024 14.685 174.014 14.685H172.934ZM188.8 12.585V16.65H190.03V12.585H188.8ZM193.81 12.585V16.65H195.055V12.585H193.81ZM185.8 16.41V17.445H198.085V16.41H185.8ZM191.92 6.465C189.04 6.465 186.985 7.83 186.985 9.96C186.985 12.075 189.04 13.44 191.92 13.44C194.785 13.44 196.84 12.075 196.84 9.96C196.84 7.83 194.785 6.465 191.92 6.465ZM191.92 7.455C194.095 7.455 195.64 8.445 195.64 9.96C195.64 11.46 194.095 12.45 191.92 12.45C189.745 12.45 188.185 11.46 188.185 9.96C188.185 8.445 189.745 7.455 191.92 7.455ZM200.541 14.58C200.541 14.2 200.576 13.875 200.646 13.605C200.726 13.325 200.856 13.06 201.036 12.81C201.226 12.56 201.481 12.3 201.801 12.03C202.191 11.7 202.491 11.425 202.701 11.205C202.921 10.985 203.076 10.77 203.166 10.56C203.256 10.35 203.301 10.095 203.301 9.795C203.301 9.315 203.146 8.945 202.836 8.685C202.526 8.425 202.076 8.295 201.486 8.295C200.996 8.295 200.561 8.36 200.181 8.49C199.801 8.61 199.436 8.755 199.086 8.925L198.621 7.875C199.021 7.665 199.461 7.49 199.941 7.35C200.431 7.21 200.976 7.14 201.576 7.14C202.526 7.14 203.261 7.375 203.781 7.845C204.301 8.315 204.561 8.955 204.561 9.765C204.561 10.215 204.486 10.6 204.336 10.92C204.196 11.23 203.991 11.52 203.721 11.79C203.461 12.05 203.151 12.33 202.791 12.63C202.461 12.91 202.206 13.155 202.026 13.365C201.856 13.575 201.741 13.785 201.681 13.995C201.621 14.195 201.591 14.44 201.591 14.73V14.985H200.541V14.58ZM200.196 17.19C200.196 16.82 200.281 16.56 200.451 16.41C200.631 16.26 200.856 16.185 201.126 16.185C201.376 16.185 201.591 16.26 201.771 16.41C201.951 16.56 202.041 16.82 202.041 17.19C202.041 17.55 201.951 17.81 201.771 17.97C201.591 18.13 201.376 18.21 201.126 18.21C200.856 18.21 200.631 18.13 200.451 17.97C200.281 17.81 200.196 17.55 200.196 17.19Z" fill="#011E5F"/>
<path d="M8.00391 64.375V65.38H11.7239V64.375H8.00391ZM11.1539 60.625V70.6H12.3989V60.625H11.1539ZM3.74391 72.85V73.87H12.7739V72.85H3.74391ZM3.74391 69.595V73.285H4.98891V69.595H3.74391ZM4.94391 61.48C2.94891 61.48 1.44891 62.875 1.44891 64.84C1.44891 66.805 2.94891 68.2 4.94391 68.2C6.93891 68.2 8.43891 66.805 8.43891 64.84C8.43891 62.875 6.93891 61.48 4.94391 61.48ZM4.94391 62.575C6.24891 62.575 7.23891 63.505 7.23891 64.84C7.23891 66.175 6.24891 67.105 4.94391 67.105C3.62391 67.105 2.64891 66.175 2.64891 64.84C2.64891 63.505 3.62391 62.575 4.94391 62.575ZM24.9497 60.61V74.17H26.1497V60.61H24.9497ZM20.0147 65.47V66.505H22.6097V65.47H20.0147ZM22.2347 60.925V73.48H23.4047V60.925H22.2347ZM17.4047 62.71V64.435C17.4047 66.925 16.3547 69.4 14.4647 70.54L15.2297 71.47C17.2247 70.21 18.3647 67.405 18.3647 64.435V62.71H17.4047ZM17.6597 62.71V64.435C17.6597 67.27 18.7547 69.94 20.7347 71.14L21.4997 70.225C19.6397 69.145 18.6197 66.79 18.6197 64.435V62.71H17.6597ZM14.8397 62.185V63.22H21.0347V62.185H14.8397ZM28.0356 67.45V68.47H40.2906V67.45H28.0356ZM29.5806 64.945V65.98H38.8806V64.945H29.5806ZM29.5806 61.195V65.29H30.8256V62.2H38.7606V61.195H29.5806ZM29.5956 72.835V73.87H39.0006V72.835H29.5956ZM29.5956 69.895V73.105H30.8406V69.895H29.5956ZM45.0114 62.545V64.75C45.0114 67.09 43.3764 69.64 41.4114 70.57L42.1314 71.56C44.2914 70.495 46.0164 67.615 46.0164 64.75V62.545H45.0114ZM45.2514 62.545V64.75C45.2514 67.57 46.9914 70.21 49.1814 71.23L49.8864 70.24C47.8914 69.385 46.2564 67.045 46.2564 64.75V62.545H45.2514ZM41.8614 61.99V63.04H49.4364V61.99H41.8614ZM51.2664 60.61V74.17H52.5114V60.61H51.2664ZM62.9857 66.295H61.0207V73H59.1307V66.295H57.8257V65.395L59.1307 64.855V64.3C59.1307 63.6 59.2407 63.05 59.4607 62.65C59.6807 62.25 60.0007 61.965 60.4207 61.795C60.8407 61.615 61.3357 61.525 61.9057 61.525C62.3057 61.525 62.6657 61.56 62.9857 61.63C63.3057 61.69 63.5707 61.76 63.7807 61.84L63.3007 63.25C63.1307 63.2 62.9407 63.155 62.7307 63.115C62.5307 63.065 62.3107 63.04 62.0707 63.04C61.7107 63.04 61.4457 63.155 61.2757 63.385C61.1057 63.615 61.0207 63.935 61.0207 64.345V64.87H62.9857V66.295ZM66.2257 64.87V73H64.3357V64.87H66.2257ZM65.2807 61.735C65.5607 61.735 65.8057 61.81 66.0157 61.96C66.2257 62.1 66.3307 62.355 66.3307 62.725C66.3307 63.085 66.2257 63.345 66.0157 63.505C65.8057 63.655 65.5607 63.73 65.2807 63.73C64.9907 63.73 64.7407 63.655 64.5307 63.505C64.3307 63.345 64.2307 63.085 64.2307 62.725C64.2307 62.355 64.3307 62.1 64.5307 61.96C64.7407 61.81 64.9907 61.735 65.2807 61.735ZM71.3858 71.635C71.6258 71.635 71.8558 71.615 72.0758 71.575C72.2958 71.525 72.5008 71.47 72.6908 71.41V72.82C72.4908 72.91 72.2308 72.985 71.9108 73.045C71.5908 73.115 71.2558 73.15 70.9058 73.15C70.4458 73.15 70.0258 73.075 69.6458 72.925C69.2758 72.765 68.9758 72.495 68.7458 72.115C68.5258 71.735 68.4158 71.205 68.4158 70.525V66.295H67.3208V65.47L68.5208 64.81L69.1208 63.085H70.3058V64.87H72.6158V66.295H70.3058V70.51C70.3058 70.89 70.4058 71.175 70.6058 71.365C70.8058 71.545 71.0658 71.635 71.3858 71.635ZM75.8115 64.87V73H73.9215V64.87H75.8115ZM74.8665 61.735C75.1465 61.735 75.3915 61.81 75.6015 61.96C75.8115 62.1 75.9165 62.355 75.9165 62.725C75.9165 63.085 75.8115 63.345 75.6015 63.505C75.3915 63.655 75.1465 63.73 74.8665 63.73C74.5765 63.73 74.3265 63.655 74.1165 63.505C73.9165 63.345 73.8165 63.085 73.8165 62.725C73.8165 62.355 73.9165 62.1 74.1165 61.96C74.3265 61.81 74.5765 61.735 74.8665 61.735ZM85.0801 68.92C85.0801 69.6 84.9901 70.2 84.8101 70.72C84.6301 71.24 84.3701 71.685 84.0301 72.055C83.7001 72.415 83.2901 72.69 82.8001 72.88C82.3201 73.06 81.7851 73.15 81.1951 73.15C80.6351 73.15 80.1201 73.06 79.6501 72.88C79.1801 72.69 78.7701 72.415 78.4201 72.055C78.0801 71.685 77.8151 71.24 77.6251 70.72C77.4351 70.2 77.3401 69.6 77.3401 68.92C77.3401 68.02 77.4951 67.26 77.8051 66.64C78.1151 66.01 78.5601 65.535 79.1401 65.215C79.7301 64.885 80.4251 64.72 81.2251 64.72C81.9851 64.72 82.6501 64.885 83.2201 65.215C83.8001 65.535 84.2551 66.01 84.5851 66.64C84.9151 67.26 85.0801 68.02 85.0801 68.92ZM79.2751 68.92C79.2751 69.49 79.3401 69.98 79.4701 70.39C79.6101 70.79 79.8201 71.095 80.1001 71.305C80.3901 71.515 80.7601 71.62 81.2101 71.62C81.6701 71.62 82.0401 71.515 82.3201 71.305C82.6101 71.095 82.8201 70.79 82.9501 70.39C83.0801 69.98 83.1451 69.49 83.1451 68.92C83.1451 68.34 83.0751 67.855 82.9351 67.465C82.8051 67.065 82.5951 66.765 82.3051 66.565C82.0251 66.355 81.6601 66.25 81.2101 66.25C80.5301 66.25 80.0351 66.48 79.7251 66.94C79.4251 67.4 79.2751 68.06 79.2751 68.92ZM90.976 64.72C91.886 64.72 92.596 64.955 93.106 65.425C93.626 65.895 93.886 66.655 93.886 67.705V73H91.996V68.08C91.996 67.47 91.876 67.015 91.636 66.715C91.396 66.405 91.016 66.25 90.496 66.25C89.736 66.25 89.216 66.49 88.936 66.97C88.656 67.44 88.516 68.125 88.516 69.025V73H86.626V64.87H88.081L88.351 65.935H88.456C88.636 65.655 88.856 65.425 89.116 65.245C89.376 65.065 89.666 64.935 89.986 64.855C90.306 64.765 90.636 64.72 90.976 64.72ZM97.732 73H95.842V61.6H97.732V73ZM98.5257 64.87H100.581L102.201 69.46C102.271 69.66 102.331 69.855 102.381 70.045C102.441 70.225 102.491 70.41 102.531 70.6C102.571 70.79 102.601 70.98 102.621 71.17H102.681C102.721 70.92 102.781 70.645 102.861 70.345C102.951 70.045 103.041 69.75 103.131 69.46L104.691 64.87H106.731L103.266 74.08C103.066 74.61 102.811 75.065 102.501 75.445C102.201 75.825 101.841 76.11 101.421 76.3C101.011 76.5 100.546 76.6 100.026 76.6C99.7857 76.6 99.5707 76.585 99.3807 76.555C99.2007 76.535 99.0407 76.51 98.9007 76.48V74.98C99.0107 75 99.1407 75.02 99.2907 75.04C99.4507 75.06 99.6157 75.07 99.7857 75.07C100.096 75.07 100.361 75.005 100.581 74.875C100.811 74.755 101.001 74.585 101.151 74.365C101.311 74.145 101.441 73.9 101.541 73.63L101.781 72.97L98.5257 64.87ZM111.751 66.295H109.786V73H107.896V66.295H106.591V65.395L107.896 64.855V64.3C107.896 63.6 108.006 63.05 108.226 62.65C108.446 62.25 108.766 61.965 109.186 61.795C109.606 61.615 110.101 61.525 110.671 61.525C111.071 61.525 111.431 61.56 111.751 61.63C112.071 61.69 112.336 61.76 112.546 61.84L112.066 63.25C111.896 63.2 111.706 63.155 111.496 63.115C111.296 63.065 111.076 63.04 110.836 63.04C110.476 63.04 110.211 63.155 110.041 63.385C109.871 63.615 109.786 63.935 109.786 64.345V64.87H111.751V66.295ZM119.954 68.92C119.954 69.6 119.864 70.2 119.684 70.72C119.504 71.24 119.244 71.685 118.904 72.055C118.574 72.415 118.164 72.69 117.674 72.88C117.194 73.06 116.659 73.15 116.069 73.15C115.509 73.15 114.994 73.06 114.524 72.88C114.054 72.69 113.644 72.415 113.294 72.055C112.954 71.685 112.689 71.24 112.499 70.72C112.309 70.2 112.214 69.6 112.214 68.92C112.214 68.02 112.369 67.26 112.679 66.64C112.989 66.01 113.434 65.535 114.014 65.215C114.604 64.885 115.299 64.72 116.099 64.72C116.859 64.72 117.524 64.885 118.094 65.215C118.674 65.535 119.129 66.01 119.459 66.64C119.789 67.26 119.954 68.02 119.954 68.92ZM114.149 68.92C114.149 69.49 114.214 69.98 114.344 70.39C114.484 70.79 114.694 71.095 114.974 71.305C115.264 71.515 115.634 71.62 116.084 71.62C116.544 71.62 116.914 71.515 117.194 71.305C117.484 71.095 117.694 70.79 117.824 70.39C117.954 69.98 118.019 69.49 118.019 68.92C118.019 68.34 117.949 67.855 117.809 67.465C117.679 67.065 117.469 66.765 117.179 66.565C116.899 66.355 116.534 66.25 116.084 66.25C115.404 66.25 114.909 66.48 114.599 66.94C114.299 67.4 114.149 68.06 114.149 68.92ZM125.76 64.72C125.88 64.72 126.02 64.725 126.18 64.735C126.34 64.745 126.475 64.765 126.585 64.795L126.42 66.55C126.33 66.53 126.21 66.515 126.06 66.505C125.92 66.485 125.795 66.475 125.685 66.475C125.385 66.475 125.095 66.525 124.815 66.625C124.545 66.715 124.3 66.855 124.08 67.045C123.87 67.225 123.7 67.46 123.57 67.75C123.45 68.04 123.39 68.385 123.39 68.785V73H121.5V64.87H122.955L123.225 66.28H123.315C123.475 65.99 123.675 65.73 123.915 65.5C124.155 65.26 124.43 65.07 124.74 64.93C125.06 64.79 125.4 64.72 125.76 64.72ZM126.469 64.87H128.524L130.144 69.46C130.214 69.66 130.274 69.855 130.324 70.045C130.384 70.225 130.434 70.41 130.474 70.6C130.514 70.79 130.544 70.98 130.564 71.17H130.624C130.664 70.92 130.724 70.645 130.804 70.345C130.894 70.045 130.984 69.75 131.074 69.46L132.634 64.87H134.674L131.209 74.08C131.009 74.61 130.754 75.065 130.444 75.445C130.144 75.825 129.784 76.11 129.364 76.3C128.954 76.5 128.489 76.6 127.969 76.6C127.729 76.6 127.514 76.585 127.324 76.555C127.144 76.535 126.984 76.51 126.844 76.48V74.98C126.954 75 127.084 75.02 127.234 75.04C127.394 75.06 127.559 75.07 127.729 75.07C128.039 75.07 128.304 75.005 128.524 74.875C128.754 74.755 128.944 74.585 129.094 74.365C129.254 74.145 129.384 73.9 129.484 73.63L129.724 72.97L126.469 64.87ZM142.739 68.92C142.739 69.6 142.649 70.2 142.469 70.72C142.289 71.24 142.029 71.685 141.689 72.055C141.359 72.415 140.949 72.69 140.459 72.88C139.979 73.06 139.444 73.15 138.854 73.15C138.294 73.15 137.779 73.06 137.309 72.88C136.839 72.69 136.429 72.415 136.079 72.055C135.739 71.685 135.474 71.24 135.284 70.72C135.094 70.2 134.999 69.6 134.999 68.92C134.999 68.02 135.154 67.26 135.464 66.64C135.774 66.01 136.219 65.535 136.799 65.215C137.389 64.885 138.084 64.72 138.884 64.72C139.644 64.72 140.309 64.885 140.879 65.215C141.459 65.535 141.914 66.01 142.244 66.64C142.574 67.26 142.739 68.02 142.739 68.92ZM136.934 68.92C136.934 69.49 136.999 69.98 137.129 70.39C137.269 70.79 137.479 71.095 137.759 71.305C138.049 71.515 138.419 71.62 138.869 71.62C139.329 71.62 139.699 71.515 139.979 71.305C140.269 71.095 140.479 70.79 140.609 70.39C140.739 69.98 140.804 69.49 140.804 68.92C140.804 68.34 140.734 67.855 140.594 67.465C140.464 67.065 140.254 66.765 139.964 66.565C139.684 66.355 139.319 66.25 138.869 66.25C138.189 66.25 137.694 66.48 137.384 66.94C137.084 67.4 136.934 68.06 136.934 68.92ZM151.5 64.87V73H150.015L149.76 71.95H149.67C149.5 72.23 149.28 72.46 149.01 72.64C148.74 72.81 148.445 72.935 148.125 73.015C147.805 73.105 147.475 73.15 147.135 73.15C146.535 73.15 146.015 73.045 145.575 72.835C145.135 72.625 144.8 72.305 144.57 71.875C144.34 71.435 144.225 70.87 144.225 70.18V64.87H146.115V69.805C146.115 70.405 146.235 70.86 146.475 71.17C146.715 71.47 147.095 71.62 147.615 71.62C148.125 71.62 148.525 71.515 148.815 71.305C149.105 71.085 149.31 70.77 149.43 70.36C149.55 69.95 149.61 69.445 149.61 68.845V64.87H151.5ZM164.961 67.63C164.961 68.09 164.906 68.545 164.796 68.995C164.686 69.445 164.516 69.85 164.286 70.21C164.066 70.57 163.791 70.86 163.461 71.08C163.131 71.29 162.741 71.395 162.291 71.395C161.881 71.395 161.536 71.295 161.256 71.095C160.986 70.885 160.806 70.625 160.716 70.315H160.626C160.426 70.615 160.156 70.87 159.816 71.08C159.476 71.29 159.061 71.395 158.571 71.395C157.731 71.395 157.081 71.135 156.621 70.615C156.161 70.085 155.931 69.395 155.931 68.545C155.931 67.875 156.071 67.285 156.351 66.775C156.631 66.265 157.026 65.865 157.536 65.575C158.046 65.275 158.646 65.125 159.336 65.125C159.796 65.125 160.261 65.165 160.731 65.245C161.211 65.325 161.581 65.415 161.841 65.515L161.691 68.575C161.681 68.705 161.676 68.82 161.676 68.92C161.676 69.01 161.676 69.07 161.676 69.1C161.676 69.55 161.746 69.85 161.886 70C162.036 70.15 162.201 70.225 162.381 70.225C162.641 70.225 162.856 70.105 163.026 69.865C163.206 69.625 163.341 69.31 163.431 68.92C163.521 68.53 163.566 68.095 163.566 67.615C163.566 66.745 163.386 66.005 163.026 65.395C162.676 64.785 162.196 64.32 161.586 64C160.976 63.68 160.281 63.52 159.501 63.52C158.681 63.52 157.961 63.65 157.341 63.91C156.721 64.17 156.196 64.535 155.766 65.005C155.346 65.465 155.026 66.01 154.806 66.64C154.596 67.27 154.491 67.96 154.491 68.71C154.491 69.64 154.656 70.43 154.986 71.08C155.326 71.72 155.816 72.21 156.456 72.55C157.106 72.88 157.901 73.045 158.841 73.045C159.431 73.045 160.026 72.98 160.626 72.85C161.226 72.72 161.771 72.565 162.261 72.385V73.645C161.801 73.835 161.286 73.99 160.716 74.11C160.146 74.23 159.531 74.29 158.871 74.29C157.651 74.29 156.611 74.07 155.751 73.63C154.891 73.19 154.231 72.56 153.771 71.74C153.311 70.91 153.081 69.915 153.081 68.755C153.081 67.835 153.226 66.985 153.516 66.205C153.816 65.415 154.246 64.73 154.806 64.15C155.366 63.56 156.041 63.105 156.831 62.785C157.621 62.455 158.506 62.29 159.486 62.29C160.276 62.29 161.006 62.415 161.676 62.665C162.346 62.905 162.926 63.26 163.416 63.73C163.906 64.19 164.286 64.75 164.556 65.41C164.826 66.06 164.961 66.8 164.961 67.63ZM157.431 68.575C157.431 69.155 157.551 69.575 157.791 69.835C158.031 70.095 158.351 70.225 158.751 70.225C159.271 70.225 159.641 70.035 159.861 69.655C160.081 69.265 160.211 68.76 160.251 68.14L160.341 66.415C160.221 66.385 160.081 66.36 159.921 66.34C159.761 66.32 159.586 66.31 159.396 66.31C158.916 66.31 158.531 66.42 158.241 66.64C157.951 66.86 157.741 67.145 157.611 67.495C157.491 67.835 157.431 68.195 157.431 68.575ZM170.919 64.72C171.829 64.72 172.539 64.955 173.049 65.425C173.569 65.895 173.829 66.655 173.829 67.705V73H171.939V68.08C171.939 67.47 171.819 67.015 171.579 66.715C171.339 66.405 170.959 66.25 170.439 66.25C169.679 66.25 169.159 66.49 168.879 66.97C168.599 67.44 168.459 68.125 168.459 69.025V73H166.569V64.87H168.024L168.294 65.935H168.399C168.579 65.655 168.799 65.425 169.059 65.245C169.319 65.065 169.609 64.935 169.929 64.855C170.249 64.765 170.579 64.72 170.919 64.72ZM179.025 64.72C180.075 64.72 180.87 64.95 181.41 65.41C181.96 65.86 182.235 66.57 182.235 67.54V73H180.9L180.525 71.875H180.465C180.235 72.165 179.995 72.41 179.745 72.61C179.505 72.8 179.225 72.935 178.905 73.015C178.595 73.105 178.215 73.15 177.765 73.15C177.285 73.15 176.85 73.06 176.46 72.88C176.08 72.7 175.78 72.425 175.56 72.055C175.34 71.675 175.23 71.2 175.23 70.63C175.23 69.79 175.535 69.16 176.145 68.74C176.765 68.31 177.7 68.075 178.95 68.035L180.36 67.99V67.585C180.36 67.065 180.235 66.695 179.985 66.475C179.735 66.255 179.385 66.145 178.935 66.145C178.525 66.145 178.13 66.205 177.75 66.325C177.37 66.445 177 66.585 176.64 66.745L176.04 65.425C176.44 65.215 176.895 65.045 177.405 64.915C177.925 64.785 178.465 64.72 179.025 64.72ZM179.37 69.19C178.54 69.22 177.965 69.365 177.645 69.625C177.325 69.875 177.165 70.215 177.165 70.645C177.165 71.025 177.28 71.3 177.51 71.47C177.74 71.64 178.035 71.725 178.395 71.725C178.945 71.725 179.41 71.57 179.79 71.26C180.17 70.94 180.36 70.47 180.36 69.85V69.16L179.37 69.19ZM186.071 73L182.981 64.87H184.976L186.596 69.565C186.666 69.755 186.731 69.965 186.791 70.195C186.851 70.415 186.901 70.635 186.941 70.855C186.991 71.065 187.021 71.25 187.031 71.41H187.091C187.111 71.24 187.146 71.05 187.196 70.84C187.246 70.62 187.301 70.4 187.361 70.18C187.431 69.96 187.496 69.755 187.556 69.565L189.176 64.87H191.171L188.081 73H186.071ZM195.246 64.72C195.976 64.72 196.601 64.87 197.121 65.17C197.651 65.46 198.061 65.88 198.351 66.43C198.641 66.97 198.786 67.63 198.786 68.41V69.37H193.416C193.436 70.11 193.641 70.685 194.031 71.095C194.421 71.495 194.961 71.695 195.651 71.695C196.181 71.695 196.651 71.645 197.061 71.545C197.481 71.435 197.911 71.28 198.351 71.08V72.595C197.951 72.785 197.536 72.925 197.106 73.015C196.676 73.105 196.161 73.15 195.561 73.15C194.771 73.15 194.066 73 193.446 72.7C192.836 72.39 192.356 71.925 192.006 71.305C191.666 70.685 191.496 69.915 191.496 68.995C191.496 68.065 191.651 67.285 191.961 66.655C192.281 66.015 192.721 65.535 193.281 65.215C193.841 64.885 194.496 64.72 195.246 64.72ZM195.246 66.115C194.746 66.115 194.336 66.28 194.016 66.61C193.706 66.93 193.521 67.41 193.461 68.05H196.956C196.956 67.67 196.891 67.335 196.761 67.045C196.641 66.755 196.456 66.53 196.206 66.37C195.956 66.2 195.636 66.115 195.246 66.115ZM204.544 64.72C204.664 64.72 204.804 64.725 204.964 64.735C205.124 64.745 205.259 64.765 205.369 64.795L205.204 66.55C205.114 66.53 204.994 66.515 204.844 66.505C204.704 66.485 204.579 66.475 204.469 66.475C204.169 66.475 203.879 66.525 203.599 66.625C203.329 66.715 203.084 66.855 202.864 67.045C202.654 67.225 202.484 67.46 202.354 67.75C202.234 68.04 202.174 68.385 202.174 68.785V73H200.284V64.87H201.739L202.009 66.28H202.099C202.259 65.99 202.459 65.73 202.699 65.5C202.939 65.26 203.214 65.07 203.524 64.93C203.844 64.79 204.184 64.72 204.544 64.72ZM203.796 72.04C203.796 71.62 203.906 71.325 204.126 71.155C204.346 70.975 204.616 70.885 204.936 70.885C205.256 70.885 205.526 70.97 205.746 71.14C205.976 71.31 206.091 71.61 206.091 72.04C206.091 72.45 205.976 72.745 205.746 72.925C205.526 73.105 205.256 73.195 204.936 73.195C204.616 73.195 204.346 73.105 204.126 72.925C203.906 72.745 203.796 72.45 203.796 72.04ZM211.132 73.15C210.362 73.15 209.692 73.005 209.122 72.715C208.562 72.415 208.127 71.96 207.817 71.35C207.517 70.73 207.367 69.94 207.367 68.98C207.367 67.98 207.532 67.17 207.862 66.55C208.202 65.92 208.667 65.46 209.257 65.17C209.847 64.87 210.522 64.72 211.282 64.72C211.792 64.72 212.247 64.77 212.647 64.87C213.047 64.97 213.387 65.09 213.667 65.23L213.112 66.715C212.802 66.595 212.492 66.495 212.182 66.415C211.872 66.325 211.572 66.28 211.282 66.28C210.832 66.28 210.457 66.38 210.157 66.58C209.867 66.78 209.652 67.08 209.512 67.48C209.372 67.87 209.302 68.365 209.302 68.965C209.302 69.545 209.372 70.03 209.512 70.42C209.662 70.81 209.882 71.105 210.172 71.305C210.462 71.495 210.822 71.59 211.252 71.59C211.712 71.59 212.117 71.535 212.467 71.425C212.817 71.315 213.147 71.165 213.457 70.975V72.61C213.147 72.8 212.812 72.935 212.452 73.015C212.102 73.105 211.662 73.15 211.132 73.15ZM222.214 68.92C222.214 69.6 222.124 70.2 221.944 70.72C221.764 71.24 221.504 71.685 221.164 72.055C220.834 72.415 220.424 72.69 219.934 72.88C219.454 73.06 218.919 73.15 218.329 73.15C217.769 73.15 217.254 73.06 216.784 72.88C216.314 72.69 215.904 72.415 215.554 72.055C215.214 71.685 214.949 71.24 214.759 70.72C214.569 70.2 214.474 69.6 214.474 68.92C214.474 68.02 214.629 67.26 214.939 66.64C215.249 66.01 215.694 65.535 216.274 65.215C216.864 64.885 217.559 64.72 218.359 64.72C219.119 64.72 219.784 64.885 220.354 65.215C220.934 65.535 221.389 66.01 221.719 66.64C222.049 67.26 222.214 68.02 222.214 68.92ZM216.409 68.92C216.409 69.49 216.474 69.98 216.604 70.39C216.744 70.79 216.954 71.095 217.234 71.305C217.524 71.515 217.894 71.62 218.344 71.62C218.804 71.62 219.174 71.515 219.454 71.305C219.744 71.095 219.954 70.79 220.084 70.39C220.214 69.98 220.279 69.49 220.279 68.92C220.279 68.34 220.209 67.855 220.069 67.465C219.939 67.065 219.729 66.765 219.439 66.565C219.159 66.355 218.794 66.25 218.344 66.25C217.664 66.25 217.169 66.48 216.859 66.94C216.559 67.4 216.409 68.06 216.409 68.92ZM233.075 64.72C233.995 64.72 234.685 64.955 235.145 65.425C235.615 65.895 235.85 66.655 235.85 67.705V73H233.96V68.065C233.96 67.465 233.85 67.015 233.63 66.715C233.41 66.405 233.06 66.25 232.58 66.25C231.92 66.25 231.45 66.465 231.17 66.895C230.89 67.325 230.75 67.95 230.75 68.77V73H228.86V68.065C228.86 67.665 228.81 67.33 228.71 67.06C228.61 66.79 228.455 66.59 228.245 66.46C228.045 66.32 227.785 66.25 227.465 66.25C227.015 66.25 226.655 66.36 226.385 66.58C226.115 66.79 225.925 67.1 225.815 67.51C225.705 67.92 225.65 68.425 225.65 69.025V73H223.76V64.87H225.215L225.485 65.935H225.59C225.76 65.655 225.965 65.425 226.205 65.245C226.455 65.065 226.73 64.935 227.03 64.855C227.34 64.765 227.65 64.72 227.96 64.72C228.57 64.72 229.085 64.825 229.505 65.035C229.925 65.235 230.24 65.55 230.45 65.98H230.6C230.85 65.54 231.2 65.22 231.65 65.02C232.11 64.82 232.585 64.72 233.075 64.72ZM243.465 61.465C240.645 61.465 238.53 62.965 238.53 65.215C238.53 67.48 240.645 68.965 243.465 68.965C246.285 68.965 248.385 67.48 248.385 65.215C248.385 62.965 246.285 61.465 243.465 61.465ZM243.465 62.485C245.61 62.485 247.2 63.58 247.2 65.215C247.2 66.835 245.61 67.945 243.465 67.945C241.32 67.945 239.73 66.835 239.73 65.215C239.73 63.58 241.32 62.485 243.465 62.485ZM237.345 71.335V72.385H249.63V71.335H237.345ZM250.735 71.47V72.505H263.02V71.47H250.735ZM256.225 68.56V71.905H257.47V68.56H256.225ZM252.22 61.615V62.62H260.275V64.72H252.265V68.44H253.495V65.725H261.505V61.615H252.22ZM252.265 67.915V68.935H261.82V67.915H252.265ZM2.87391 86.15V91.565H11.9039V86.15H10.6589V87.845H4.10391V86.15H2.87391ZM4.10391 88.835H10.6589V90.56H4.10391V88.835ZM1.23891 93.005V94.025H13.4939V93.005H1.23891ZM6.75891 90.98V93.455H7.98891V90.98H6.75891ZM2.82891 97.85V98.87H12.1439V97.85H2.82891ZM2.82891 95.12V98.195H4.07391V95.12H2.82891ZM24.4997 85.625V95.525H25.7597V85.625H24.4997ZM17.0447 97.85V98.87H26.1647V97.85H17.0447ZM17.0447 94.505V98.195H18.2747V94.505H17.0447ZM18.4847 86.555C16.4597 86.555 14.9447 87.935 14.9447 89.9C14.9447 91.85 16.4597 93.245 18.4847 93.245C20.5097 93.245 22.0097 91.85 22.0097 89.9C22.0097 87.935 20.5097 86.555 18.4847 86.555ZM18.4847 87.635C19.8047 87.635 20.8097 88.565 20.8097 89.9C20.8097 91.22 19.8047 92.15 18.4847 92.15C17.1647 92.15 16.1597 91.22 16.1597 89.9C16.1597 88.565 17.1647 87.635 18.4847 87.635ZM32.4306 86.585C30.3156 86.585 28.7856 87.89 28.7856 89.78C28.7856 91.685 30.3156 92.99 32.4306 92.99C34.5456 92.99 36.0606 91.685 36.0606 89.78C36.0606 87.89 34.5456 86.585 32.4306 86.585ZM32.4306 87.665C33.8256 87.665 34.8456 88.52 34.8456 89.78C34.8456 91.04 33.8256 91.91 32.4306 91.91C31.0206 91.91 30.0006 91.04 30.0006 89.78C30.0006 88.52 31.0206 87.665 32.4306 87.665ZM37.8306 85.595V99.185H39.0756V85.595H37.8306ZM28.2756 96.215C30.6906 96.215 34.0056 96.2 37.0506 95.615L36.9456 94.7C33.9906 95.165 30.5706 95.18 28.0956 95.18L28.2756 96.215ZM48.2599 87.545V89.75C48.2599 92.045 46.6249 94.625 44.6899 95.57L45.4099 96.56C47.5249 95.48 49.2499 92.57 49.2499 89.75V87.545H48.2599ZM48.4849 87.545V89.75C48.4849 92.435 50.1199 95.165 52.2649 96.23L52.9699 95.24C51.0049 94.31 49.4749 91.895 49.4749 89.75V87.545H48.4849ZM45.1699 86.99V88.04H52.4749V86.99H45.1699ZM54.0799 85.61V99.17H55.3399V85.61H54.0799ZM55.0399 91.085V92.135H57.5599V91.085H55.0399ZM64.0807 86.525V87.065C64.0807 89.585 61.9807 91.58 58.5007 92.54L58.9957 93.515C62.9407 92.435 65.3857 89.975 65.3857 86.525H64.0807ZM59.1907 86.525V87.53H64.8457V86.525H59.1907ZM60.4057 94.31V95.315H68.2057V99.14H69.4507V94.31H60.4057ZM68.2057 85.61V93.695H69.4507V85.61H68.2057ZM64.8307 88.025V89.045H68.4607V88.025H64.8307ZM64.6957 90.905V91.925H68.3707V90.905H64.6957ZM71.6815 92.06V93.065H83.9365V92.06H71.6815ZM77.8015 94.235C74.9065 94.235 73.1515 95.135 73.1515 96.695C73.1515 98.255 74.9065 99.14 77.8015 99.14C80.6965 99.14 82.4515 98.255 82.4515 96.695C82.4515 95.135 80.6965 94.235 77.8015 94.235ZM77.8015 95.225C79.9315 95.225 81.1915 95.75 81.1915 96.695C81.1915 97.625 79.9315 98.165 77.8015 98.165C75.6865 98.165 74.4115 97.625 74.4115 96.695C74.4115 95.75 75.6865 95.225 77.8015 95.225ZM77.0065 86.84V87.245C77.0065 88.775 74.8015 89.99 72.3715 90.26L72.8215 91.235C75.6265 90.905 78.1165 89.42 78.1165 87.245V86.84H77.0065ZM77.5315 86.84V87.245C77.5315 89.42 80.0065 90.905 82.8115 91.235L83.2615 90.26C80.8315 89.99 78.6265 88.775 78.6265 87.245V86.84H77.5315ZM72.8065 86.3V87.305H82.8415V86.3H72.8065ZM87.2174 96.425C87.1274 96.775 87.0124 97.155 86.8724 97.565C86.7324 97.975 86.5774 98.38 86.4074 98.78C86.2474 99.19 86.0874 99.575 85.9274 99.935H84.9524C85.0524 99.555 85.1474 99.145 85.2374 98.705C85.3374 98.275 85.4274 97.85 85.5074 97.43C85.5874 97 85.6524 96.61 85.7024 96.26H87.1124L87.2174 96.425ZM102.037 85.625V95.555H103.297V85.625H102.037ZM94.5815 97.85V98.87H103.702V97.85H94.5815ZM94.5815 94.64V98.33H95.8115V94.64H94.5815ZM95.7065 86.36V87.74C95.7065 89.84 94.3565 91.82 92.3165 92.615L92.9615 93.62C95.2415 92.69 96.7415 90.38 96.7415 87.74V86.36H95.7065ZM95.9315 86.36V87.74C95.9315 90.32 97.4315 92.495 99.6815 93.365L100.342 92.36C98.3165 91.625 96.9515 89.78 96.9515 87.74V86.36H95.9315ZM105.557 92.765V93.785H117.842V92.765H105.557ZM111.167 93.275V96.395H112.412V93.275H111.167ZM107.117 97.85V98.87H116.477V97.85H107.117ZM107.117 95.195V98.24H108.347V95.195H107.117ZM107.192 86.03V91.46H116.222V86.03H114.977V87.755H108.422V86.03H107.192ZM108.422 88.73H114.977V90.455H108.422V88.73ZM118.948 92.06V93.065H131.203V92.06H118.948ZM125.068 94.235C122.173 94.235 120.418 95.135 120.418 96.695C120.418 98.255 122.173 99.14 125.068 99.14C127.963 99.14 129.718 98.255 129.718 96.695C129.718 95.135 127.963 94.235 125.068 94.235ZM125.068 95.225C127.198 95.225 128.458 95.75 128.458 96.695C128.458 97.625 127.198 98.165 125.068 98.165C122.953 98.165 121.678 97.625 121.678 96.695C121.678 95.75 122.953 95.225 125.068 95.225ZM124.273 86.84V87.245C124.273 88.775 122.068 89.99 119.638 90.26L120.088 91.235C122.893 90.905 125.383 89.42 125.383 87.245V86.84H124.273ZM124.798 86.84V87.245C124.798 89.42 127.273 90.905 130.078 91.235L130.528 90.26C128.098 89.99 125.893 88.775 125.893 87.245V86.84H124.798ZM120.073 86.3V87.305H130.108V86.3H120.073ZM134.484 96.425C134.394 96.775 134.279 97.155 134.139 97.565C133.999 97.975 133.844 98.38 133.674 98.78C133.514 99.19 133.354 99.575 133.194 99.935H132.219C132.319 99.555 132.414 99.145 132.504 98.705C132.604 98.275 132.694 97.85 132.774 97.43C132.854 97 132.919 96.61 132.969 96.26H134.379L134.484 96.425ZM135.99 87.035V88.055H144V87.035H135.99ZM139.995 88.745C138.045 88.745 136.74 89.705 136.74 91.205C136.74 92.69 138.045 93.635 139.995 93.635C141.915 93.635 143.235 92.69 143.235 91.205C143.235 89.705 141.915 88.745 139.995 88.745ZM139.995 89.72C141.21 89.72 142.05 90.29 142.05 91.205C142.05 92.09 141.21 92.675 139.995 92.675C138.75 92.675 137.925 92.09 137.925 91.205C137.925 90.29 138.75 89.72 139.995 89.72ZM145.23 85.61V94.085H146.475V85.61H145.23ZM146.13 89.345V90.38H148.485V89.345H146.13ZM137.67 94.82V95.84H145.23V99.17H146.475V94.82H137.67ZM139.365 85.535V87.605H140.61V85.535H139.365ZM152.185 86.45V88.265C152.185 89.795 151.12 91.55 149.335 92.33L150.01 93.305C152.005 92.42 153.175 90.29 153.175 88.265V86.45H152.185ZM152.38 86.45V88.265C152.38 90.26 153.505 92.135 155.455 92.915L156.13 91.97C154.39 91.295 153.37 89.765 153.37 88.265V86.45H152.38ZM159.58 85.625V93.98H160.765V85.625H159.58ZM157.42 89.24V90.26H159.985V89.24H157.42ZM156.67 85.88V93.545H157.855V85.88H156.67ZM156.31 94.28C153.505 94.28 151.795 95.18 151.795 96.725C151.795 98.255 153.505 99.14 156.31 99.14C159.1 99.14 160.84 98.255 160.84 96.725C160.84 95.18 159.1 94.28 156.31 94.28ZM156.31 95.255C158.35 95.255 159.595 95.795 159.595 96.725C159.595 97.64 158.35 98.18 156.31 98.18C154.27 98.18 153.01 97.64 153.01 96.725C153.01 95.795 154.27 95.255 156.31 95.255ZM162.726 92.06V93.065H174.981V92.06H162.726ZM168.846 94.235C165.951 94.235 164.196 95.135 164.196 96.695C164.196 98.255 165.951 99.14 168.846 99.14C171.741 99.14 173.496 98.255 173.496 96.695C173.496 95.135 171.741 94.235 168.846 94.235ZM168.846 95.225C170.976 95.225 172.236 95.75 172.236 96.695C172.236 97.625 170.976 98.165 168.846 98.165C166.731 98.165 165.456 97.625 165.456 96.695C165.456 95.75 166.731 95.225 168.846 95.225ZM168.051 86.84V87.245C168.051 88.775 165.846 89.99 163.416 90.26L163.866 91.235C166.671 90.905 169.161 89.42 169.161 87.245V86.84H168.051ZM168.576 86.84V87.245C168.576 89.42 171.051 90.905 173.856 91.235L174.306 90.26C171.876 89.99 169.671 88.775 169.671 87.245V86.84H168.576ZM163.851 86.3V87.305H173.886V86.3H163.851ZM182.252 85.835C179.252 85.835 177.482 86.675 177.482 88.19C177.482 89.705 179.252 90.545 182.252 90.545C185.237 90.545 187.022 89.705 187.022 88.19C187.022 86.675 185.237 85.835 182.252 85.835ZM182.252 86.78C184.457 86.78 185.732 87.29 185.732 88.19C185.732 89.09 184.457 89.6 182.252 89.6C180.032 89.6 178.757 89.09 178.757 88.19C178.757 87.29 180.032 86.78 182.252 86.78ZM176.117 91.445V92.45H188.372V91.445H176.117ZM177.602 93.605V94.565H185.582V95.765H177.632V98.315H178.862V96.665H186.812V93.605H177.602ZM177.632 98.045V99.02H187.217V98.045H177.632ZM193.011 96.41V97.445H205.296V96.41H193.011ZM198.501 93.17V96.71H199.746V93.17H198.501ZM194.451 86.57V93.5H203.826V86.57H202.596V88.985H195.681V86.57H194.451ZM195.681 89.99H202.596V92.48H195.681V89.99ZM216.692 85.61V99.17H217.892V85.61H216.692ZM214.412 91.13V92.15H217.022V91.13H214.412ZM213.617 85.91V98.48H214.787V85.91H213.617ZM207.047 87.245V95.075H208.292V87.245H207.047ZM207.047 94.58V95.66H207.917C209.372 95.66 210.932 95.585 212.777 95.225L212.642 94.145C210.872 94.49 209.312 94.58 207.917 94.58H207.047ZM225.223 86.945V87.515C225.223 89.3 222.898 90.86 220.513 91.205L220.993 92.195C223.723 91.73 226.303 89.945 226.303 87.515V86.945H225.223ZM225.538 86.945V87.515C225.538 89.945 228.103 91.73 230.848 92.195L231.313 91.205C228.943 90.86 226.603 89.3 226.603 87.515V86.945H225.538ZM225.268 93.995V99.17H226.498V93.995H225.268ZM219.793 93.335V94.355H232.048V93.335H219.793ZM220.933 86.45V87.455H230.863V86.45H220.933ZM238.524 90.455V91.49H241.119V90.455H238.524ZM235.989 86.885V89.465C235.989 91.79 234.879 94.22 233.019 95.315L233.799 96.26C235.779 95.045 236.964 92.3 236.964 89.465V86.885H235.989ZM236.229 86.885V89.42C236.229 92.06 237.324 94.76 239.274 95.96L239.994 94.985C238.209 93.905 237.189 91.595 237.189 89.42V86.885H236.229ZM243.504 85.61V99.17H244.704V85.61H243.504ZM240.759 85.895V98.495H241.929V85.895H240.759ZM249.575 92.585V96.65H250.805V92.585H249.575ZM254.585 92.585V96.65H255.83V92.585H254.585ZM246.575 96.41V97.445H258.86V96.41H246.575ZM252.695 86.465C249.815 86.465 247.76 87.83 247.76 89.96C247.76 92.075 249.815 93.44 252.695 93.44C255.56 93.44 257.615 92.075 257.615 89.96C257.615 87.83 255.56 86.465 252.695 86.465ZM252.695 87.455C254.87 87.455 256.415 88.445 256.415 89.96C256.415 91.46 254.87 92.45 252.695 92.45C250.52 92.45 248.96 91.46 248.96 89.96C248.96 88.445 250.52 87.455 252.695 87.455ZM260.296 97.19C260.296 96.82 260.386 96.56 260.566 96.41C260.746 96.26 260.961 96.185 261.211 96.185C261.471 96.185 261.691 96.26 261.871 96.41C262.061 96.56 262.156 96.82 262.156 97.19C262.156 97.55 262.061 97.81 261.871 97.97C261.691 98.13 261.471 98.21 261.211 98.21C260.961 98.21 260.746 98.13 260.566 97.97C260.386 97.81 260.296 97.55 260.296 97.19ZM4.59891 112.545V114.75C4.59891 117.045 2.96391 119.625 1.02891 120.57L1.74891 121.56C3.86391 120.48 5.58891 117.57 5.58891 114.75V112.545H4.59891ZM4.82391 112.545V114.75C4.82391 117.435 6.45891 120.165 8.60391 121.23L9.30891 120.24C7.34391 119.31 5.81391 116.895 5.81391 114.75V112.545H4.82391ZM1.50891 111.99V113.04H8.81391V111.99H1.50891ZM10.4189 110.61V124.17H11.6789V110.61H10.4189ZM11.3789 116.085V117.135H13.8989V116.085H11.3789ZM20.1647 115.965V116.985H22.7297V115.965H20.1647ZM17.4047 114.075V114.78C17.4047 117 16.3547 119.385 14.5247 120.45L15.2597 121.395C17.2397 120.21 18.3647 117.48 18.3647 114.78V114.075H17.4047ZM17.6297 114.075V114.78C17.6297 117.42 18.7997 119.985 20.7947 121.095L21.4997 120.165C19.6697 119.175 18.5897 116.94 18.5897 114.78V114.075H17.6297ZM14.8997 113.1V114.135H21.0947V113.1H14.8997ZM17.4047 111.09V113.895H18.6047V111.09H17.4047ZM24.9497 110.61V124.17H26.1497V110.61H24.9497ZM22.2347 110.925V123.48H23.4047V110.925H22.2347ZM31.4856 111.99V113.085C31.4856 115.005 30.0906 116.805 28.0656 117.525L28.7106 118.515C30.9756 117.675 32.5056 115.56 32.5056 113.085V111.99H31.4856ZM31.7256 111.99V113.085C31.7256 115.35 33.1806 117.39 35.3856 118.2L36.0156 117.21C34.0506 116.52 32.7306 114.825 32.7306 113.085V111.99H31.7256ZM35.2806 114.135V115.17H38.2956V114.135H35.2806ZM28.4556 111.54V112.545H35.7006V111.54H28.4556ZM30.1356 119.46V120.48H37.9356V124.17H39.1806V119.46H30.1356ZM37.9356 110.61V118.725H39.1806V110.61H37.9356ZM51.2814 110.625V120.525H52.5414V110.625H51.2814ZM43.8264 122.85V123.87H52.9464V122.85H43.8264ZM43.8264 119.505V123.195H45.0564V119.505H43.8264ZM45.2664 111.555C43.2414 111.555 41.7264 112.935 41.7264 114.9C41.7264 116.85 43.2414 118.245 45.2664 118.245C47.2914 118.245 48.7914 116.85 48.7914 114.9C48.7914 112.935 47.2914 111.555 45.2664 111.555ZM45.2664 112.635C46.5864 112.635 47.5914 113.565 47.5914 114.9C47.5914 116.22 46.5864 117.15 45.2664 117.15C43.9464 117.15 42.9414 116.22 42.9414 114.9C42.9414 113.565 43.9464 112.635 45.2664 112.635ZM68.5957 110.61V124.17H69.7957V110.61H68.5957ZM66.3157 116.13V117.15H68.9257V116.13H66.3157ZM65.5207 110.91V123.48H66.6907V110.91H65.5207ZM58.9507 112.245V120.075H60.1957V112.245H58.9507ZM58.9507 119.58V120.66H59.8207C61.2757 120.66 62.8357 120.585 64.6807 120.225L64.5457 119.145C62.7757 119.49 61.2157 119.58 59.8207 119.58H58.9507ZM71.6815 118.635V119.655H83.9815V118.635H71.6815ZM77.1715 119.115V124.17H78.4015V119.115H77.1715ZM73.2265 111.15V117.015H82.4065V111.15H81.1765V113.01H74.4715V111.15H73.2265ZM74.4715 114.015H81.1765V116.01H74.4715V114.015ZM94.9424 110.625V118.32H96.2024V110.625H94.9424ZM87.4424 119.1V123.99H96.2024V119.1H87.4424ZM94.9724 120.09V122.985H88.6574V120.09H94.9724ZM88.6124 111.135V112.455C88.6124 114.435 87.2174 116.265 85.1774 117L85.7924 117.99C88.0874 117.135 89.6474 114.975 89.6474 112.455V111.135H88.6124ZM88.8374 111.135V112.455C88.8374 114.915 90.3974 116.94 92.6624 117.72L93.2774 116.745C91.2674 116.07 89.8574 114.375 89.8574 112.455V111.135H88.8374ZM101.793 111.78V114.21C101.793 116.685 100.248 119.295 98.2832 120.285L99.0482 121.275C101.193 120.135 102.813 117.21 102.813 114.21V111.78H101.793ZM102.018 111.78V114.21C102.018 117.12 103.593 119.895 105.693 121.02L106.458 120.03C104.538 119.07 103.023 116.595 103.023 114.21V111.78H102.018ZM107.643 110.61V124.17H108.903V110.61H107.643ZM108.603 116.1V117.15H111.123V116.1H108.603ZM111.854 116.91V117.855H124.154V116.91H111.854ZM113.309 118.95V119.835H121.394V120.99H113.354V123.435H114.584V121.845H122.609V118.95H113.309ZM113.354 123.105V124.005H123.044V123.105H113.354ZM113.414 111V111.885H121.349V112.98H113.444V115.29H114.674V113.82H122.564V111H113.414ZM113.444 114.99V115.89H122.819V114.99H113.444ZM128.733 117.795V118.8H140.988V117.795H128.733ZM134.238 116.04V118.215H135.468V116.04H134.238ZM130.353 115.485V116.46H139.548V115.485H130.353ZM130.353 111V116.01H131.583V111.975H139.488V111H130.353ZM131.223 113.22V114.18H139.128V113.22H131.223ZM134.853 119.805C131.898 119.805 130.203 120.555 130.203 121.98C130.203 123.39 131.898 124.14 134.853 124.14C137.808 124.14 139.503 123.39 139.503 121.98C139.503 120.555 137.808 119.805 134.853 119.805ZM134.853 120.75C137.028 120.75 138.243 121.185 138.243 121.98C138.243 122.79 137.028 123.21 134.853 123.21C132.678 123.21 131.463 122.79 131.463 121.98C131.463 121.185 132.678 120.75 134.853 120.75ZM142.109 112.92V113.94H148.829V112.92H142.109ZM145.469 114.84C143.789 114.84 142.559 116.115 142.559 117.945C142.559 119.76 143.789 121.035 145.469 121.035C147.164 121.035 148.394 119.76 148.394 117.945C148.394 116.115 147.164 114.84 145.469 114.84ZM145.469 115.905C146.519 115.905 147.284 116.745 147.284 117.945C147.284 119.145 146.519 119.985 145.469 119.985C144.434 119.985 143.684 119.145 143.684 117.945C143.684 116.745 144.434 115.905 145.469 115.905ZM152.414 110.61V124.17H153.614V110.61H152.414ZM150.254 116.31V117.345H152.819V116.31H150.254ZM149.519 110.91V123.51H150.689V110.91H149.519ZM144.869 111V113.55H146.099V111H144.869ZM159.453 119.805V120.84H160.353C162.063 120.84 163.593 120.78 165.498 120.45L165.393 119.43C163.533 119.745 162.003 119.805 160.353 119.805H159.453ZM159.423 112.095V113.115H163.068V115.815H159.453V120.225H160.668V116.82H164.268V112.095H159.423ZM169.323 110.61V124.17H170.523V110.61H169.323ZM164.913 115.47V116.505H167.103V115.47H164.913ZM166.593 110.94V123.465H167.748V110.94H166.593ZM182.639 110.625V117.735H183.824V110.625H182.639ZM179.984 110.895V117.645H181.169V110.895H179.984ZM177.899 113.685V114.69H180.464V113.685H177.899ZM174.884 118.395V119.385H182.609V120.675H174.914V123.63H176.159V121.605H183.824V118.395H174.884ZM174.914 123.03V124.02H184.349V123.03H174.914ZM173.009 111.39V117.105H178.259V111.39H177.074V113.175H174.179V111.39H173.009ZM174.179 114.135H177.074V116.13H174.179V114.135ZM191.92 110.835C188.92 110.835 187.15 111.675 187.15 113.19C187.15 114.705 188.92 115.545 191.92 115.545C194.905 115.545 196.69 114.705 196.69 113.19C196.69 111.675 194.905 110.835 191.92 110.835ZM191.92 111.78C194.125 111.78 195.4 112.29 195.4 113.19C195.4 114.09 194.125 114.6 191.92 114.6C189.7 114.6 188.425 114.09 188.425 113.19C188.425 112.29 189.7 111.78 191.92 111.78ZM185.785 116.445V117.45H198.04V116.445H185.785ZM187.27 118.605V119.565H195.25V120.765H187.3V123.315H188.53V121.665H196.48V118.605H187.27ZM187.3 123.045V124.02H196.885V123.045H187.3ZM208.169 115.095V116.925H209.399V115.095H208.169ZM208.799 110.775C205.799 110.775 204.029 111.6 204.029 113.115C204.029 114.63 205.799 115.47 208.799 115.47C211.784 115.47 213.569 114.63 213.569 113.115C213.569 111.6 211.784 110.775 208.799 110.775ZM208.799 111.72C211.004 111.72 212.279 112.23 212.279 113.115C212.279 114.015 211.004 114.525 208.799 114.525C206.579 114.525 205.304 114.015 205.304 113.115C205.304 112.23 206.579 111.72 208.799 111.72ZM202.664 116.475V117.495H214.919V116.475H202.664ZM204.149 118.605V119.58H212.129V120.765H204.179V123.33H205.409V121.68H213.359V118.605H204.149ZM204.179 123.045V124.02H213.764V123.045H204.179ZM225.97 110.595V124.185H227.215V110.595H225.97ZM223.3 113.7V114.72H226.3V113.7H223.3ZM216.565 119.985V121.035H217.57C219.715 121.035 221.455 120.96 223.585 120.63L223.465 119.595C221.395 119.925 219.67 119.985 217.57 119.985H216.565ZM216.535 111.825V112.86H221.23V115.665H216.565V120.225H217.795V116.685H222.46V111.825H216.535ZM223.21 117.405V118.425H226.21V117.405H223.21ZM231.006 117.105V118.125H240.321V117.105H231.006ZM229.461 121.305V122.34H241.746V121.305H229.461ZM231.006 111.855V117.555H232.251V112.89H240.186V111.855H231.006ZM252.707 110.61V118.065H253.967V110.61H252.707ZM243.542 116.76V117.78H244.637C247.157 117.78 248.987 117.705 251.222 117.36L251.087 116.325C248.912 116.685 247.097 116.76 244.637 116.76H243.542ZM243.512 111.27V112.275H248.447V113.97H243.542V117.435H244.757V114.945H249.662V111.27H243.512ZM245.192 118.74V123.99H253.967V118.74H252.737V120.33H246.422V118.74H245.192ZM246.422 121.32H252.737V122.97H246.422V121.32ZM266.098 110.61V124.17H267.343V110.61H266.098ZM257.098 111.93V120.33H258.328V111.93H257.098ZM257.098 119.595V120.675H258.208C260.353 120.675 262.498 120.51 264.853 120.03L264.703 118.965C262.408 119.445 260.263 119.595 258.208 119.595H257.098ZM278.799 110.595V124.185H280.059V110.595H278.799ZM279.759 115.95V117H282.279V115.95H279.759ZM270.204 119.76V120.81H271.269C273.819 120.81 275.604 120.735 277.689 120.345L277.554 119.295C275.529 119.67 273.774 119.76 271.269 119.76H270.204ZM270.204 111.915V120.225H271.434V112.935H276.504V111.915H270.204ZM283.354 122.19C283.354 121.82 283.444 121.56 283.624 121.41C283.804 121.26 284.019 121.185 284.269 121.185C284.529 121.185 284.749 121.26 284.929 121.41C285.119 121.56 285.214 121.82 285.214 122.19C285.214 122.55 285.119 122.81 284.929 122.97C284.749 123.13 284.529 123.21 284.269 123.21C284.019 123.21 283.804 123.13 283.624 122.97C283.444 122.81 283.354 122.55 283.354 122.19Z" fill="#011E5F"/>
</svg>
