<svg width="21" height="21" viewBox="0 0 21 21" fill="none" xmlns="http://www.w3.org/2000/svg">
<path d="M5.71616 20.1217C6.22022 20.1217 6.59495 19.8756 7.22235 19.3262L10.3222 16.5897H15.8037C18.5301 16.5897 20.0573 15.0282 20.0573 12.3482V5.34497C20.0573 2.66501 18.5301 1.10352 15.8037 1.10352H4.25198C1.52721 1.10352 0 2.65761 0 5.34497V12.3482C0 15.0356 1.5647 16.5897 4.19493 16.5897H4.56768V18.8156C4.56768 19.6133 4.9877 20.1217 5.71616 20.1217ZM6.15592 18.1328V15.5547C6.15592 15.0248 5.92825 14.8205 5.41966 14.8205H4.30251C2.59056 14.8205 1.77424 13.9521 1.77424 12.2921V5.39374C1.77424 3.73363 2.59056 2.87269 4.30251 2.87269H15.7548C17.4593 2.87269 18.2831 3.73363 18.2831 5.39374V12.2921C18.2831 13.9521 17.4593 14.8205 15.7548 14.8205H10.2255C9.67599 14.8205 9.41425 14.909 9.03103 15.2953L6.15592 18.1328Z" fill="#8EDDFF"/>
<path d="M5.42015 6.47163H14.5463C14.8573 6.47163 15.1033 6.22149 15.1033 5.90724C15.1033 5.60618 14.8573 5.35352 14.5463 5.35352H5.42015C5.11243 5.35352 4.8623 5.60618 4.8623 5.90724C4.8623 6.22149 5.11406 6.47163 5.42015 6.47163ZM5.42015 9.3521H14.5463C14.8573 9.3521 15.1033 9.0945 15.1033 8.78026C15.1033 8.47919 14.8573 8.2249 14.5463 8.2249H5.42015C5.11243 8.2249 4.8623 8.48081 4.8623 8.78026C4.8623 9.0945 5.11406 9.3521 5.42015 9.3521ZM5.42015 12.2251H11.3663C11.6774 12.2251 11.92 11.975 11.92 11.6681C11.92 11.3523 11.6774 11.098 11.3663 11.098H5.42015C5.11243 11.098 4.8623 11.3539 4.8623 11.6681C4.8623 11.975 5.11406 12.2251 5.42015 12.2251Z" fill="#8EDDFF"/>
</svg>
