<svg width="21" height="21" viewBox="0 0 21 21" fill="none" xmlns="http://www.w3.org/2000/svg">
<path d="M5.71616 20.1198C6.22022 20.1198 6.59495 19.8737 7.22235 19.3242L10.3222 16.5877H15.8037C18.5301 16.5877 20.0573 15.0262 20.0573 12.3462V5.34302C20.0573 2.66306 18.5301 1.10156 15.8037 1.10156H4.25198C1.52721 1.10156 0 2.65565 0 5.34302V12.3462C0 15.0336 1.5647 16.5877 4.19493 16.5877H4.56768V18.8137C4.56768 19.6113 4.9877 20.1198 5.71616 20.1198ZM6.15592 18.1308V15.5527C6.15592 15.0228 5.92825 14.8185 5.41966 14.8185H4.30251C2.59056 14.8185 1.77424 13.9502 1.77424 12.2901V5.39178C1.77424 3.73168 2.59056 2.87074 4.30251 2.87074H15.7548C17.4593 2.87074 18.2831 3.73168 18.2831 5.39178V12.2901C18.2831 13.9502 17.4593 14.8185 15.7548 14.8185H10.2255C9.67599 14.8185 9.41425 14.9071 9.03103 15.2934L6.15592 18.1308Z" fill="#0649DF"/>
<path d="M5.42113 6.46967H14.5473C14.8583 6.46967 15.1042 6.21954 15.1042 5.90529C15.1042 5.60423 14.8583 5.35156 14.5473 5.35156H5.42113C5.11341 5.35156 4.86328 5.60423 4.86328 5.90529C4.86328 6.21954 5.11504 6.46967 5.42113 6.46967ZM5.42113 9.35014H14.5473C14.8583 9.35014 15.1042 9.09254 15.1042 8.7783C15.1042 8.47724 14.8583 8.22295 14.5473 8.22295H5.42113C5.11341 8.22295 4.86328 8.47886 4.86328 8.7783C4.86328 9.09254 5.11504 9.35014 5.42113 9.35014ZM5.42113 12.2231H11.3673C11.6783 12.2231 11.921 11.973 11.921 11.6662C11.921 11.3503 11.6783 11.096 11.3673 11.096H5.42113C5.11341 11.096 4.86328 11.3519 4.86328 11.6662C4.86328 11.973 5.11504 12.2231 5.42113 12.2231Z" fill="#0649DF"/>
<path d="M5.71616 20.1198C6.22022 20.1198 6.59495 19.8737 7.22235 19.3242L10.3222 16.5877H15.8037C18.5301 16.5877 20.0573 15.0262 20.0573 12.3462V5.34302C20.0573 2.66306 18.5301 1.10156 15.8037 1.10156H4.25198C1.52721 1.10156 0 2.65565 0 5.34302V12.3462C0 15.0336 1.5647 16.5877 4.19493 16.5877H4.56768V18.8137C4.56768 19.6113 4.9877 20.1198 5.71616 20.1198ZM6.15592 18.1308V15.5527C6.15592 15.0228 5.92825 14.8185 5.41966 14.8185H4.30251C2.59056 14.8185 1.77424 13.9502 1.77424 12.2901V5.39178C1.77424 3.73168 2.59056 2.87074 4.30251 2.87074H15.7548C17.4593 2.87074 18.2831 3.73168 18.2831 5.39178V12.2901C18.2831 13.9502 17.4593 14.8185 15.7548 14.8185H10.2255C9.67599 14.8185 9.41425 14.9071 9.03103 15.2934L6.15592 18.1308Z" fill="#8EDDFF"/>
</svg>
