<svg width="20" height="20" viewBox="0 0 20 20" fill="none" xmlns="http://www.w3.org/2000/svg">
<path d="M3.5206 20H16.4794C18.8015 20 20 18.8015 20 16.5115V3.4885C20 1.1985 18.8015 0 16.4794 0H3.5206C1.2092 0 0 1.1878 0 3.4885V16.5115C0 18.8015 1.2092 20 3.5206 20ZM3.65971 17.8705C2.67523 17.8705 2.12948 17.3569 2.12948 16.3189V3.68111C2.12948 2.64312 2.67523 2.12948 3.65971 2.12948H16.3403C17.3141 2.12948 17.8705 2.64312 17.8705 3.68111V16.3189C17.8705 17.3569 17.3141 17.8705 16.3403 17.8705H3.65971ZM5.04013 6.31354C4.7405 6.60246 4.7405 7.1054 5.04013 7.39433L7.70466 9.99465C7.84377 10.1231 8.04708 10.2087 8.229 10.2087C8.64633 10.2087 8.94596 9.91974 8.94596 9.49171C8.94596 9.29909 8.87105 9.11718 8.73194 8.97806L7.61905 7.89727L7.25522 7.56554L7.77956 7.58695H14.4676C14.885 7.58695 15.1953 7.26592 15.1953 6.84858C15.1953 6.43125 14.885 6.12092 14.4676 6.12092H11.1289H7.79026L7.26592 6.13162L7.61905 5.81059L8.73194 4.7298C8.87105 4.60139 8.94596 4.40877 8.94596 4.21616C8.94596 3.78812 8.64633 3.4885 8.229 3.4885C8.03638 3.4885 7.83307 3.5848 7.70466 3.72392L5.04013 6.31354ZM14.9599 13.6758C15.2702 13.3761 15.2595 12.9053 14.9599 12.6057L12.306 10.0161C12.1776 9.87694 11.9636 9.79133 11.7817 9.79133C11.3537 9.79133 11.054 10.0803 11.054 10.5083C11.054 10.7009 11.1289 10.8828 11.2681 11.0219L12.3917 12.092L12.7555 12.4345L12.2204 12.4131H5.53237C5.12574 12.4131 4.81541 12.7234 4.81541 13.1407C4.81541 13.5581 5.12574 13.8791 5.53237 13.8791H12.2097L12.7555 13.8577L12.3917 14.1894L11.2788 15.2702C11.1396 15.4093 11.054 15.5805 11.054 15.7838C11.054 16.2012 11.3644 16.5115 11.7817 16.5115C11.9529 16.5115 12.1562 16.4152 12.306 16.2868L14.9599 13.6758Z" fill="#52BB00"/>
<path d="M3.5206 20H16.4794C18.8015 20 20 18.8015 20 16.5115V3.4885C20 1.1985 18.8015 0 16.4794 0H3.5206C1.2092 0 0 1.1878 0 3.4885V16.5115C0 18.8015 1.2092 20 3.5206 20ZM3.65971 17.8705C2.67523 17.8705 2.12948 17.3569 2.12948 16.3189V3.68111C2.12948 2.64312 2.67523 2.12948 3.65971 2.12948H16.3403C17.3141 2.12948 17.8705 2.64312 17.8705 3.68111V16.3189C17.8705 17.3569 17.3141 17.8705 16.3403 17.8705H3.65971Z" fill="#197E2F"/>
</svg>
