<svg width="134" height="20" viewBox="0 0 134 20" fill="none" xmlns="http://www.w3.org/2000/svg">
<path d="M38.772 9.156V10.464H40.728V9.156H38.772ZM37.584 4.944V16.056H39.192V4.944H37.584ZM30.816 6.012V12.912H32.412V6.012H30.816ZM30.816 12.024V13.344H31.776C33.408 13.344 35.196 13.248 37.032 12.864L36.864 11.556C35.076 11.916 33.36 12.024 31.776 12.024H30.816ZM44.8551 5.688C43.1151 5.688 41.7831 6.828 41.7831 8.424C41.7831 10.032 43.1151 11.172 44.8551 11.172C46.6071 11.172 47.9151 10.032 47.9151 8.424C47.9151 6.828 46.6071 5.688 44.8551 5.688ZM44.8551 7.056C45.7071 7.056 46.3551 7.56 46.3551 8.424C46.3551 9.3 45.7071 9.804 44.8551 9.804C44.0031 9.804 43.3551 9.3 43.3551 8.424C43.3551 7.56 44.0031 7.056 44.8551 7.056ZM48.9591 4.944V16.092H50.5551V4.944H48.9591ZM41.5191 13.836C43.4391 13.836 46.0551 13.812 48.4671 13.332L48.3471 12.18C46.0071 12.528 43.2831 12.552 41.3271 12.552L41.5191 13.836ZM54.9673 13.476V14.784H65.0233V13.476H54.9673ZM55.7353 5.916V7.188H64.1953V5.916H55.7353ZM55.7833 10.512V11.796H64.1593V10.512H55.7833ZM57.2473 7.092V10.632H58.8433V7.092H57.2473ZM61.0993 7.092V10.632H62.6833V7.092H61.0993ZM65.7664 13.548V14.844H75.8224V13.548H65.7664ZM69.9784 11.448V14.076H71.5744V11.448H69.9784ZM66.8944 5.676V6.936H73.1104V8.124H66.9184V11.244H68.5024V9.372H74.6944V5.676H66.8944ZM66.9184 10.608V11.892H74.9464V10.608H66.9184ZM84.2094 4.956V10.644H85.8174V4.956H84.2094ZM78.2934 11.088V12.312H84.2334V12.948H78.3174V15.432H79.8894V14.088H85.8174V11.088H78.2934ZM78.3174 14.76V15.996H86.1174V14.76H78.3174ZM77.0334 5.628V6.852H83.0214V5.628H77.0334ZM76.9014 10.452C78.8214 10.44 81.3174 10.392 83.5134 10.032L83.4294 8.892C81.2814 9.156 78.6894 9.192 76.7454 9.192L76.9014 10.452ZM77.9094 6.18V9.816H79.4334V6.18H77.9094ZM80.5974 6.18V9.816H82.1454V6.18H80.5974ZM90.7217 5.76V7.044H95.4737V5.76H90.7217ZM92.0897 8.352V11.136H93.6737V8.352H92.0897ZM94.8497 5.76V6.456C94.8497 7.224 94.8497 8.184 94.6097 9.552L96.1577 9.72C96.4217 8.34 96.4217 7.236 96.4217 6.456V5.76H94.8497ZM97.5017 4.956V13.272H99.1097V4.956H97.5017ZM98.4737 8.34V9.648H100.43V8.34H98.4737ZM91.6937 14.604V15.876H99.4577V14.604H91.6937ZM91.6937 12.528V15H93.2897V12.528H91.6937ZM90.2177 11.784C92.1257 11.784 94.7057 11.736 96.9977 11.304L96.9017 10.176C94.6697 10.488 91.9937 10.524 90.0737 10.524L90.2177 11.784ZM108.685 4.944V16.092H110.281V4.944H108.685ZM101.629 12.204V13.5H102.613C104.641 13.5 106.273 13.44 108.073 13.116L107.917 11.832C106.153 12.132 104.581 12.204 102.613 12.204H101.629ZM101.617 5.892V7.164H105.229V8.928H101.629V12.684H103.249V10.188H106.861V5.892H101.617ZM118.956 4.956V16.068H120.54V4.956H118.956ZM120.18 9.288V10.62H122.148V9.288H120.18ZM111.78 6.6V7.872H118.248V6.6H111.78ZM115.032 8.496C113.412 8.496 112.212 9.6 112.212 11.148C112.212 12.696 113.412 13.8 115.032 13.8C116.652 13.8 117.852 12.696 117.852 11.148C117.852 9.6 116.652 8.496 115.032 8.496ZM115.032 9.792C115.788 9.792 116.328 10.296 116.328 11.148C116.328 12 115.788 12.504 115.032 12.504C114.276 12.504 113.736 12 113.736 11.148C113.736 10.296 114.276 9.792 115.032 9.792ZM114.228 5.136V7.08H115.824V5.136H114.228ZM130.283 4.956V16.068H131.891V4.956H130.283ZM127.007 6.108V6.396C127.007 9.372 125.855 11.388 122.663 12.924L123.491 14.196C127.439 12.288 128.591 9.504 128.591 6.108H127.007ZM123.251 6.108V7.368H127.763V6.108H123.251Z" fill="#011E5F"/>
<path d="M18.9914 6.75744C19.647 6.75744 20 6.39435 20 5.73878V3.28795C20 1.1296 18.8704 0 16.6818 0H14.231C13.5754 0 13.2123 0.353 13.2123 1.00857C13.2123 1.65406 13.5754 2.00706 14.231 2.00706H16.5507C17.4685 2.00706 17.9929 2.49117 17.9929 3.46949V5.73878C17.9929 6.39435 18.3459 6.75744 18.9914 6.75744ZM1.00857 6.75744C1.66415 6.75744 2.00706 6.39435 2.00706 5.73878V3.46949C2.00706 2.49117 2.52143 2.00706 3.44932 2.00706H5.76904C6.42461 2.00706 6.78769 1.65406 6.78769 1.00857C6.78769 0.353 6.42461 0 5.76904 0H3.3182C1.13969 0 0 1.11952 0 3.28795V5.73878C0 6.39435 0.363086 6.75744 1.00857 6.75744ZM10.005 9.6117C11.5582 9.62179 12.819 8.29047 12.819 6.53555C12.819 4.89158 11.5582 3.53 10.005 3.53C8.44175 3.53 7.19112 4.89158 7.19112 6.53555C7.19112 8.29047 8.44175 9.60161 10.005 9.6117ZM5.11346 15.5421H14.8966C15.3807 15.5421 15.6228 15.2093 15.6228 14.7655C15.6228 13.5653 13.8477 10.4791 10.005 10.4791C6.16238 10.4791 4.38729 13.5653 4.38729 14.7655C4.38729 15.2093 4.62935 15.5421 5.11346 15.5421ZM3.3182 20H5.76904C6.42461 20 6.78769 19.6369 6.78769 18.9914C6.78769 18.3459 6.42461 17.9829 5.76904 17.9829H3.44932C2.52143 17.9829 2.00706 17.5088 2.00706 16.5305V14.2612C2.00706 13.6056 1.65406 13.2426 1.00857 13.2426C0.353 13.2426 0 13.6056 0 14.2612V16.7121C0 18.8704 1.13969 20 3.3182 20ZM14.231 20H16.6818C18.8704 20 20 18.8704 20 16.7121V14.2612C20 13.6056 19.6369 13.2426 18.9914 13.2426C18.3359 13.2426 17.9929 13.6056 17.9929 14.2612V16.5305C17.9929 17.5088 17.4685 17.9829 16.5507 17.9829H14.231C13.5754 17.9829 13.2123 18.3459 13.2123 18.9914C13.2123 19.6369 13.5754 20 14.231 20Z" fill="#007AFF"/>
</svg>
