<svg width="15" height="16" viewBox="0 0 15 16" fill="none" xmlns="http://www.w3.org/2000/svg">
<path d="M2.78656 12.6799C4.77653 14.6699 7.27109 15.2811 8.45086 15.4019C8.91992 15.473 9.21842 15.2242 9.23974 14.8618C9.26817 14.5277 9.06206 14.2577 8.64275 14.1724C7.56959 13.9947 5.3593 13.4759 3.68205 11.7844C0.960056 9.06954 0.419922 4.85507 2.66574 2.60215C4.46382 0.811177 7.44877 0.988852 9.65195 2.17573L10.583 1.25892C7.75437 -0.460981 4.00186 -0.517837 1.77736 1.70666C-0.880664 4.3718 -0.567955 9.32539 2.78656 12.6799ZM5.48723 10.5123C7.75437 12.8718 11.6561 13.7531 13.7882 11.6281C15.5224 9.88685 15.3731 6.79529 13.4826 4.12305L12.5729 5.03275C13.9659 7.08668 14.2218 9.40357 12.8927 10.7326C11.2581 12.3672 8.593 11.6281 6.85178 9.96503L5.48723 10.5123Z" fill="#011E5F"/>
</svg>
