<svg width="9" height="16" viewBox="0 0 9 16" fill="none" xmlns="http://www.w3.org/2000/svg">
<path d="M8.99934 8.08594C8.99053 7.77832 8.87595 7.51465 8.63796 7.27734L1.78048 0.588867C1.57775 0.395508 1.33977 0.290039 1.0489 0.290039C0.458341 0.290039 0 0.74707 0 1.33594C0 1.61719 0.114585 1.88086 0.317313 2.08301L6.48729 8.08594L0.317313 14.0889C0.114585 14.291 0 14.5459 0 14.8359C0 15.4248 0.458341 15.8818 1.0489 15.8818C1.33095 15.8818 1.57775 15.7764 1.78048 15.583L8.63796 8.88574C8.88476 8.65723 8.99934 8.39355 8.99934 8.08594Z" fill="#011E5F"/>
</svg>
