<svg width="20" height="14" viewBox="0 0 20 14" fill="none" xmlns="http://www.w3.org/2000/svg">
<path d="M15.7424 13.3306C15.9753 13.5562 16.3319 13.5708 16.5648 13.3306C16.8049 13.0832 16.7904 12.7338 16.5648 12.5082L4.22125 0.171954C3.99563 -0.0536646 3.61718 -0.0609426 3.39156 0.171954C3.17322 0.390295 3.17322 0.768752 3.39156 0.987092L15.7424 13.3306ZM10.0073 0.586801C8.73362 0.586801 7.5837 0.805142 6.51383 1.16176L7.69287 2.3408C8.42795 2.13702 9.18486 2.01329 10.0073 2.01329C14.6361 2.01329 18.3115 6.03804 18.3115 6.88957C18.3115 7.46453 17.147 8.94197 15.2911 10.1065L16.3828 11.2054C18.6681 9.70616 20 7.74837 20 6.88957C20 5.39757 15.9825 0.586801 10.0073 0.586801ZM10.0073 13.1996C11.3464 13.1996 12.5764 12.9667 13.69 12.581L12.5109 11.4019C11.7249 11.6348 10.8952 11.7731 10.0073 11.7731C5.3639 11.7731 1.6885 7.90849 1.6885 6.88957C1.6885 6.40194 2.91849 4.83716 4.89083 3.61446L3.77729 2.50092C1.40466 4.01475 0 6.02348 0 6.88957C0 8.38156 4.1048 13.1996 10.0073 13.1996ZM13.6245 8.27967C13.8137 7.85754 13.9156 7.37719 13.9156 6.88957C13.9156 4.71344 12.1761 2.98855 10.0073 2.98855C9.50509 2.98855 9.0393 3.09044 8.6099 3.26511L13.6245 8.27967ZM10.0073 10.7979C10.5604 10.7979 11.0844 10.6669 11.5575 10.4412L6.44105 5.32479C6.20815 5.79786 6.08442 6.32916 6.08442 6.89684C6.0917 9.01475 7.82387 10.7979 10.0073 10.7979Z" fill="#D9D9D9"/>
</svg>
