<svg width="20" height="14" viewBox="0 0 20 14" fill="none" xmlns="http://www.w3.org/2000/svg">
<path d="M10 0C5.45455 0 1.57273 2.82727 0 6.81818C1.57273 10.8091 5.45455 13.6364 10 13.6364C14.5455 13.6364 18.4273 10.8091 20 6.81818C18.4273 2.82727 14.5455 0 10 0ZM10 11.3636C7.49091 11.3636 5.45455 9.32727 5.45455 6.81818C5.45455 4.30909 7.49091 2.27273 10 2.27273C12.5091 2.27273 14.5455 4.30909 14.5455 6.81818C14.5455 9.32727 12.5091 11.3636 10 11.3636ZM10 4.09091C8.49091 4.09091 7.27273 5.30909 7.27273 6.81818C7.27273 8.32727 8.49091 9.54545 10 9.54545C11.5091 9.54545 12.7273 8.32727 12.7273 6.81818C12.7273 5.30909 11.5091 4.09091 10 4.09091Z" fill="#D9D9D9"/>
</svg>
