<svg width="22" height="20" viewBox="0 0 22 20" fill="none" xmlns="http://www.w3.org/2000/svg">
<path d="M16 15.6493V10.068C16 8.83439 15.4732 7.65134 14.5355 6.77908C13.5979 5.90682 12.3261 5.41679 11 5.41679C9.67392 5.41679 8.40215 5.90682 7.46447 6.77908C6.52678 7.65134 6 8.83439 6 10.068V15.6493M16 15.6493H6M16 15.6493C16.5304 15.6493 17.0391 15.8454 17.4142 16.1943C17.7893 16.5432 18 17.0164 18 17.5098V19.3703H4V17.5098C4 17.0164 4.21071 16.5432 4.58579 16.1943C4.96086 15.8454 5.46957 15.6493 6 15.6493M20 10.068H21M17.5 3.09121L17 3.55632M1 10.068H2M11 0.765625V1.69586M3.929 3.49028L4.636 4.14795M11 10.068V15.6493" stroke="black" stroke-linecap="round" stroke-linejoin="round"/>
</svg>
