<svg width="30" height="30" viewBox="0 0 30 30" fill="none" xmlns="http://www.w3.org/2000/svg">
<path d="M3.33333 30C2.41667 30 1.63167 29.6739 0.978333 29.0217C0.326111 28.3683 0 27.5833 0 26.6667V3.33333C0 2.41667 0.326111 1.63167 0.978333 0.978333C1.63167 0.326111 2.41667 0 3.33333 0H26.6667C27.5833 0 28.3683 0.326111 29.0217 0.978333C29.6739 1.63167 30 2.41667 30 3.33333V26.6667C30 27.5833 29.6739 28.3683 29.0217 29.0217C28.3683 29.6739 27.5833 30 26.6667 30H3.33333ZM12.6667 21.2917C12.8889 21.2917 13.0972 21.2572 13.2917 21.1883C13.4861 21.1183 13.6667 21 13.8333 20.8333L23.2917 11.375C23.5972 11.0694 23.75 10.6944 23.75 10.25C23.75 9.80555 23.5833 9.41667 23.25 9.08333C22.9444 8.77778 22.5556 8.625 22.0833 8.625C21.6111 8.625 21.2222 8.77778 20.9167 9.08333L12.6667 17.3333L9.04167 13.7083C8.73611 13.4028 8.36111 13.25 7.91667 13.25C7.47222 13.25 7.08333 13.4167 6.75 13.75C6.44444 14.0556 6.29167 14.4444 6.29167 14.9167C6.29167 15.3889 6.44444 15.7778 6.75 16.0833L11.5 20.8333C11.6667 21 11.8472 21.1183 12.0417 21.1883C12.2361 21.2572 12.4444 21.2917 12.6667 21.2917Z" fill="#BABABA"/>
</svg>
