<svg width="349" height="597" viewBox="0 0 349 597" fill="none" xmlns="http://www.w3.org/2000/svg">
<path d="M25.864 568.88L25.624 571.184L27.928 570.536L28.096 571.64L25.888 571.82L27.316 573.716L26.284 574.28L25.264 572.18L24.34 574.28L23.272 573.716L24.676 571.82L22.492 571.64L22.66 570.536L24.94 571.184L24.688 568.88H25.864ZM31.8854 569.636V571.4C31.8854 573.236 30.5774 575.3 29.0294 576.056L29.6054 576.848C31.2974 575.984 32.6774 573.656 32.6774 571.4V569.636H31.8854ZM32.0654 569.636V571.4C32.0654 573.548 33.3734 575.732 35.0894 576.584L35.6534 575.792C34.0814 575.048 32.8574 573.116 32.8574 571.4V569.636H32.0654ZM29.4134 569.192V570.032H35.2574V569.192H29.4134ZM36.5414 568.088V578.936H37.5494V568.088H36.5414ZM37.3094 572.468V573.308H39.3254V572.468H37.3094ZM44.8684 568.82V569.252C44.8684 571.268 43.1884 572.864 40.4044 573.632L40.8004 574.412C43.9564 573.548 45.9124 571.58 45.9124 568.82H44.8684ZM40.9564 568.82V569.624H45.4804V568.82H40.9564ZM41.9284 575.048V575.852H48.1684V578.912H49.1644V575.048H41.9284ZM48.1684 568.088V574.556H49.1644V568.088H48.1684ZM45.4684 570.02V570.836H48.3724V570.02H45.4684ZM45.3604 572.324V573.14H48.3004V572.324H45.3604ZM51.2755 573.248V574.052H61.0795V573.248H51.2755ZM56.1715 574.988C53.8555 574.988 52.4515 575.708 52.4515 576.956C52.4515 578.204 53.8555 578.912 56.1715 578.912C58.4875 578.912 59.8915 578.204 59.8915 576.956C59.8915 575.708 58.4875 574.988 56.1715 574.988ZM56.1715 575.78C57.8755 575.78 58.8835 576.2 58.8835 576.956C58.8835 577.7 57.8755 578.132 56.1715 578.132C54.4795 578.132 53.4595 577.7 53.4595 576.956C53.4595 576.2 54.4795 575.78 56.1715 575.78ZM55.5355 569.072V569.396C55.5355 570.62 53.7715 571.592 51.8275 571.808L52.1875 572.588C54.4315 572.324 56.4235 571.136 56.4235 569.396V569.072H55.5355ZM55.9555 569.072V569.396C55.9555 571.136 57.9355 572.324 60.1795 572.588L60.5395 571.808C58.5955 571.592 56.8315 570.62 56.8315 569.396V569.072H55.9555ZM52.1755 568.64V569.444H60.2035V568.64H52.1755ZM70.8918 570.668V571.496H73.8078V570.668H70.8918ZM68.3958 568.58C66.7758 568.58 65.5998 569.612 65.5998 571.1C65.5998 572.588 66.7758 573.608 68.3958 573.608C70.0158 573.608 71.1918 572.588 71.1918 571.1C71.1918 569.612 70.0158 568.58 68.3958 568.58ZM68.3958 569.42C69.4638 569.42 70.2318 570.104 70.2318 571.1C70.2318 572.084 69.4638 572.78 68.3958 572.78C67.3278 572.78 66.5598 572.084 66.5598 571.1C66.5598 570.104 67.3278 569.42 68.3958 569.42ZM73.3638 568.088V573.908H74.3598V568.088H73.3638ZM67.4118 574.448V578.792H74.3598V574.448H73.3758V575.816H68.4078V574.448H67.4118ZM68.4078 576.608H73.3758V577.988H68.4078V576.608ZM84.7268 568.088V578.936H85.6868V568.088H84.7268ZM80.2268 572.228V573.044H82.9508V572.228H80.2268ZM82.5428 568.34V578.384H83.4908V568.34H82.5428ZM76.8788 575.492V576.332H77.5748C79.3028 576.332 80.3468 576.284 81.5828 576.02L81.4868 575.192C80.2868 575.444 79.2668 575.492 77.5748 575.492H76.8788ZM76.8788 569.408V575.816H77.8628V570.224H80.9588V569.408H76.8788ZM95.3939 568.076V578.948H96.3899V568.076H95.3939ZM90.6659 568.916C89.0699 568.916 87.9179 570.392 87.9179 572.696C87.9179 575.012 89.0699 576.488 90.6659 576.488C92.2739 576.488 93.4259 575.012 93.4259 572.696C93.4259 570.392 92.2739 568.916 90.6659 568.916ZM90.6659 569.816C91.7339 569.816 92.4659 570.944 92.4659 572.696C92.4659 574.46 91.7339 575.612 90.6659 575.612C89.6099 575.612 88.8659 574.46 88.8659 572.696C88.8659 570.944 89.6099 569.816 90.6659 569.816ZM99.8209 573.932V574.736H107.273V573.932H99.8209ZM98.5609 576.716V577.544H108.389V576.716H98.5609ZM99.8209 569.012V574.184H100.829V569.828H107.153V569.012H99.8209ZM100.505 571.436V572.228H106.925V571.436H100.505ZM109.588 573.128V573.884H119.428V573.128H109.588ZM110.752 574.76V575.468H117.22V576.392H110.788V578.348H111.772V577.076H118.192V574.76H110.752ZM110.788 578.084V578.804H118.54V578.084H110.788ZM110.836 568.4V569.108H117.184V569.984H110.86V571.832H111.844V570.656H118.156V568.4H110.836ZM110.86 571.592V572.312H118.36V571.592H110.86ZM123.744 573.836V574.64H133.548V573.836H123.744ZM128.148 572.432V574.172H129.132V572.432H128.148ZM125.04 571.988V572.768H132.396V571.988H125.04ZM125.04 568.4V572.408H126.024V569.18H132.348V568.4H125.04ZM125.736 570.176V570.944H132.06V570.176H125.736ZM128.64 575.444C126.276 575.444 124.92 576.044 124.92 577.184C124.92 578.312 126.276 578.912 128.64 578.912C131.004 578.912 132.36 578.312 132.36 577.184C132.36 576.044 131.004 575.444 128.64 575.444ZM128.64 576.2C130.38 576.2 131.352 576.548 131.352 577.184C131.352 577.832 130.38 578.168 128.64 578.168C126.9 578.168 125.928 577.832 125.928 577.184C125.928 576.548 126.9 576.2 128.64 576.2ZM134.771 569.936V570.752H140.147V569.936H134.771ZM137.459 571.472C136.115 571.472 135.131 572.492 135.131 573.956C135.131 575.408 136.115 576.428 137.459 576.428C138.815 576.428 139.799 575.408 139.799 573.956C139.799 572.492 138.815 571.472 137.459 571.472ZM137.459 572.324C138.299 572.324 138.911 572.996 138.911 573.956C138.911 574.916 138.299 575.588 137.459 575.588C136.631 575.588 136.031 574.916 136.031 573.956C136.031 572.996 136.631 572.324 137.459 572.324ZM143.015 568.088V578.936H143.975V568.088H143.015ZM141.287 572.648V573.476H143.339V572.648H141.287ZM140.699 568.328V578.408H141.635V568.328H140.699ZM136.979 568.4V570.44H137.963V568.4H136.979ZM154.352 571.1V571.904H157.328V571.1H154.352ZM156.872 568.1V576.08H157.868V568.1H156.872ZM150.944 577.88V578.696H158.168V577.88H150.944ZM150.944 575.276V578.228H151.94V575.276H150.944ZM151.904 568.784C150.308 568.784 149.108 569.9 149.108 571.472C149.108 573.044 150.308 574.16 151.904 574.16C153.5 574.16 154.7 573.044 154.7 571.472C154.7 569.9 153.5 568.784 151.904 568.784ZM151.904 569.66C152.948 569.66 153.74 570.404 153.74 571.472C153.74 572.54 152.948 573.284 151.904 573.284C150.848 573.284 150.068 572.54 150.068 571.472C150.068 570.404 150.848 569.66 151.904 569.66ZM168.235 568.088V578.936H169.195V568.088H168.235ZM164.287 571.976V572.804H166.363V571.976H164.287ZM166.063 568.34V578.384H166.999V568.34H166.063ZM162.199 569.768V571.148C162.199 573.14 161.359 575.12 159.847 576.032L160.459 576.776C162.055 575.768 162.967 573.524 162.967 571.148V569.768H162.199ZM162.403 569.768V571.148C162.403 573.416 163.279 575.552 164.863 576.512L165.475 575.78C163.987 574.916 163.171 573.032 163.171 571.148V569.768H162.403ZM160.147 569.348V570.176H165.103V569.348H160.147ZM171.03 573.56V574.376H180.834V573.56H171.03ZM172.266 571.556V572.384H179.706V571.556H172.266ZM172.266 568.556V571.832H173.262V569.36H179.61V568.556H172.266ZM172.278 577.868V578.696H179.802V577.868H172.278ZM172.278 575.516V578.084H173.274V575.516H172.278ZM184.937 569.636V571.4C184.937 573.272 183.629 575.312 182.057 576.056L182.633 576.848C184.361 575.996 185.741 573.692 185.741 571.4V569.636H184.937ZM185.129 569.636V571.4C185.129 573.656 186.521 575.768 188.273 576.584L188.837 575.792C187.241 575.108 185.933 573.236 185.933 571.4V569.636H185.129ZM182.417 569.192V570.032H188.477V569.192H182.417ZM189.941 568.088V578.936H190.937V568.088H189.941ZM196.789 578V569.432H197.869V577.04H201.613V578H196.789ZM205.422 571.448C205.974 571.448 206.446 571.568 206.838 571.808C207.238 572.048 207.542 572.388 207.75 572.828C207.966 573.26 208.074 573.768 208.074 574.352V574.988H203.67C203.686 575.716 203.87 576.272 204.222 576.656C204.582 577.032 205.082 577.22 205.722 577.22C206.13 577.22 206.49 577.184 206.802 577.112C207.122 577.032 207.45 576.92 207.786 576.776V577.7C207.458 577.844 207.134 577.948 206.814 578.012C206.494 578.084 206.114 578.12 205.674 578.12C205.066 578.12 204.526 577.996 204.054 577.748C203.59 577.5 203.226 577.132 202.962 576.644C202.706 576.148 202.578 575.544 202.578 574.832C202.578 574.128 202.694 573.524 202.926 573.02C203.166 572.516 203.498 572.128 203.922 571.856C204.354 571.584 204.854 571.448 205.422 571.448ZM205.41 572.312C204.906 572.312 204.506 572.476 204.21 572.804C203.922 573.124 203.75 573.572 203.694 574.148H206.97C206.97 573.78 206.914 573.46 206.802 573.188C206.69 572.916 206.518 572.704 206.286 572.552C206.062 572.392 205.77 572.312 205.41 572.312ZM210.893 578L208.457 571.568H209.585L210.953 575.36C211.017 575.536 211.085 575.732 211.157 575.948C211.229 576.164 211.293 576.372 211.349 576.572C211.405 576.764 211.445 576.928 211.469 577.064H211.517C211.549 576.928 211.593 576.76 211.649 576.56C211.713 576.36 211.781 576.152 211.853 575.936C211.933 575.72 212.001 575.528 212.057 575.36L213.425 571.568H214.553L212.105 578H210.893ZM218.055 571.448C218.607 571.448 219.079 571.568 219.471 571.808C219.871 572.048 220.175 572.388 220.383 572.828C220.599 573.26 220.707 573.768 220.707 574.352V574.988H216.303C216.319 575.716 216.503 576.272 216.855 576.656C217.215 577.032 217.715 577.22 218.355 577.22C218.763 577.22 219.123 577.184 219.435 577.112C219.755 577.032 220.083 576.92 220.419 576.776V577.7C220.091 577.844 219.767 577.948 219.447 578.012C219.127 578.084 218.747 578.12 218.307 578.12C217.699 578.12 217.159 577.996 216.687 577.748C216.223 577.5 215.859 577.132 215.595 576.644C215.339 576.148 215.211 575.544 215.211 574.832C215.211 574.128 215.327 573.524 215.559 573.02C215.799 572.516 216.131 572.128 216.555 571.856C216.987 571.584 217.487 571.448 218.055 571.448ZM218.043 572.312C217.539 572.312 217.139 572.476 216.843 572.804C216.555 573.124 216.383 573.572 216.327 574.148H219.603C219.603 573.78 219.547 573.46 219.435 573.188C219.323 572.916 219.151 572.704 218.919 572.552C218.695 572.392 218.403 572.312 218.043 572.312ZM223.4 578H222.344V568.88H223.4V578ZM224.898 575.252V574.316H227.802V575.252H224.898ZM235.965 574.976C235.965 575.568 235.845 576.104 235.605 576.584C235.365 577.056 234.997 577.432 234.501 577.712C234.013 577.984 233.389 578.12 232.629 578.12C231.565 578.12 230.753 577.832 230.193 577.256C229.641 576.672 229.365 575.904 229.365 574.952V569.432H230.445V574.988C230.445 575.684 230.629 576.224 230.997 576.608C231.373 576.992 231.937 577.184 232.689 577.184C233.209 577.184 233.629 577.092 233.949 576.908C234.277 576.716 234.517 576.456 234.669 576.128C234.821 575.792 234.897 575.408 234.897 574.976V569.432H235.965V574.976ZM240.495 569.432C241.615 569.432 242.431 569.652 242.943 570.092C243.455 570.532 243.711 571.152 243.711 571.952C243.711 572.304 243.651 572.644 243.531 572.972C243.419 573.292 243.231 573.58 242.967 573.836C242.703 574.092 242.351 574.296 241.911 574.448C241.471 574.592 240.931 574.664 240.291 574.664H239.307V578H238.227V569.432H240.495ZM240.399 570.356H239.307V573.74H240.171C240.715 573.74 241.167 573.684 241.527 573.572C241.887 573.452 242.155 573.264 242.331 573.008C242.507 572.752 242.595 572.416 242.595 572C242.595 571.448 242.419 571.036 242.067 570.764C241.715 570.492 241.159 570.356 240.399 570.356ZM255.461 568.052V574.04H256.457V568.052H255.461ZM256.037 570.656V571.496H258.065V570.656H256.037ZM249.569 574.592V575.348H255.485V576.296H249.593V578.336H250.577V577.016H256.457V574.592H249.569ZM249.593 578.048V578.816H256.853V578.048H249.593ZM248.069 569.06V569.84H254.477V569.06H248.069ZM251.273 570.32C249.689 570.32 248.669 571.004 248.669 572.108C248.669 573.2 249.689 573.872 251.273 573.872C252.833 573.872 253.865 573.2 253.865 572.108C253.865 571.004 252.833 570.32 251.273 570.32ZM251.273 571.052C252.269 571.052 252.917 571.46 252.917 572.108C252.917 572.744 252.269 573.152 251.273 573.152C250.265 573.152 249.617 572.744 249.617 572.108C249.617 571.46 250.265 571.052 251.273 571.052ZM250.769 567.968V569.6H251.765V567.968H250.769ZM266.582 568.472V569.072C266.582 570.62 264.674 571.916 262.694 572.216L263.09 573.02C265.346 572.636 267.458 571.148 267.458 569.072V568.472H266.582ZM266.762 568.472V569.072C266.762 571.124 268.886 572.636 271.118 573.02L271.514 572.216C269.558 571.916 267.626 570.584 267.626 569.072V568.472H266.762ZM266.582 574.808V578.936H267.566V574.808H266.582ZM262.202 574.196V575.024H272.006V574.196H262.202ZM279.058 574.76V575.348C279.058 576.392 278.242 577.556 276.874 578.048L277.378 578.792C278.938 578.192 279.826 576.764 279.826 575.348V574.76H279.058ZM279.274 574.76V575.348C279.274 576.788 279.982 578.276 281.542 578.888L281.962 578.132C280.666 577.604 280.018 576.44 280.018 575.348V574.76H279.274ZM283.066 574.76V575.348C283.066 576.284 282.406 577.544 281.122 578.132L281.542 578.888C283.09 578.228 283.81 576.62 283.81 575.348V574.76H283.066ZM283.27 574.76V575.348C283.27 576.848 284.134 578.216 285.718 578.792L286.222 578.048C284.842 577.58 284.038 576.464 284.038 575.348V574.76H283.27ZM284.242 568.1V574.292H285.25V568.1H284.242ZM279.43 568.724C277.786 568.724 276.598 569.756 276.598 571.256C276.598 572.756 277.786 573.776 279.43 573.776C281.074 573.776 282.25 572.756 282.25 571.256C282.25 569.756 281.074 568.724 279.43 568.724ZM279.43 569.552C280.51 569.552 281.29 570.248 281.29 571.256C281.29 572.264 280.51 572.948 279.43 572.948C278.35 572.948 277.57 572.264 277.57 571.256C277.57 570.248 278.35 569.552 279.43 569.552ZM288.633 574.592V578.792H295.917V574.592H294.921V575.852H289.617V574.592H288.633ZM289.617 576.62H294.921V577.988H289.617V576.62ZM287.385 573.032V573.836H297.189V573.032H287.385ZM291.789 568.208V568.688C291.789 570.056 289.905 571.22 287.949 571.484L288.309 572.264C290.541 571.928 292.641 570.572 292.641 568.688V568.208H291.789ZM291.945 568.208V568.688C291.945 570.548 294.057 571.928 296.265 572.264L296.637 571.484C294.705 571.22 292.797 570.032 292.797 568.688V568.208H291.945ZM306.32 568.088V578.936H307.316V568.088H306.32ZM299.12 569.144V575.864H300.104V569.144H299.12ZM299.12 575.276V576.14H300.008C301.724 576.14 303.44 576.008 305.324 575.624L305.204 574.772C303.368 575.156 301.652 575.276 300.008 575.276H299.12ZM316.807 568.076V578.948H317.815V568.076H316.807ZM317.575 572.36V573.2H319.591V572.36H317.575ZM309.931 575.408V576.248H310.783C312.823 576.248 314.251 576.188 315.919 575.876L315.811 575.036C314.191 575.336 312.787 575.408 310.783 575.408H309.931ZM309.931 569.132V575.78H310.915V569.948H314.971V569.132H309.931ZM320.778 577.352C320.778 577.056 320.85 576.848 320.994 576.728C321.138 576.608 321.31 576.548 321.51 576.548C321.718 576.548 321.894 576.608 322.038 576.728C322.19 576.848 322.266 577.056 322.266 577.352C322.266 577.64 322.19 577.848 322.038 577.976C321.894 578.104 321.718 578.168 321.51 578.168C321.31 578.168 321.138 578.104 320.994 577.976C320.85 577.848 320.778 577.64 320.778 577.352ZM33.1784 594L30.3584 586.488H30.3104C30.3264 586.648 30.3384 586.852 30.3464 587.1C30.3624 587.348 30.3744 587.62 30.3824 587.916C30.3904 588.204 30.3944 588.5 30.3944 588.804V594H29.3984V585.432H30.9944L33.6344 592.452H33.6824L36.3704 585.432H37.9544V594H36.8864V588.732C36.8864 588.452 36.8904 588.176 36.8984 587.904C36.9064 587.624 36.9184 587.364 36.9344 587.124C36.9504 586.876 36.9624 586.668 36.9704 586.5H36.9224L34.0664 594H33.1784ZM39.1331 587.568H40.2611L41.6531 591.228C41.7331 591.444 41.8051 591.652 41.8691 591.852C41.9411 592.052 42.0051 592.248 42.0611 592.44C42.1171 592.624 42.1611 592.804 42.1931 592.98H42.2411C42.2891 592.78 42.3651 592.52 42.4691 592.2C42.5731 591.872 42.6811 591.544 42.7931 591.216L44.1011 587.568H45.2411L42.4691 594.888C42.3171 595.288 42.1371 595.636 41.9291 595.932C41.7291 596.236 41.4811 596.468 41.1851 596.628C40.8971 596.796 40.5451 596.88 40.1291 596.88C39.9371 596.88 39.7691 596.868 39.6251 596.844C39.4811 596.828 39.3571 596.808 39.2531 596.784V595.944C39.3411 595.96 39.4451 595.976 39.5651 595.992C39.6931 596.008 39.8251 596.016 39.9611 596.016C40.2091 596.016 40.4211 595.968 40.5971 595.872C40.7811 595.784 40.9371 595.652 41.0651 595.476C41.1931 595.308 41.3011 595.108 41.3891 594.876L41.7251 594.024L39.1331 587.568ZM52.4355 587.448C53.2275 587.448 53.8635 587.724 54.3435 588.276C54.8315 588.828 55.0755 589.66 55.0755 590.772C55.0755 591.5 54.9635 592.116 54.7395 592.62C54.5235 593.116 54.2155 593.492 53.8155 593.748C53.4235 593.996 52.9595 594.12 52.4235 594.12C52.0955 594.12 51.8035 594.076 51.5475 593.988C51.2915 593.9 51.0715 593.788 50.8875 593.652C50.7115 593.508 50.5595 593.352 50.4315 593.184H50.3595C50.3755 593.32 50.3915 593.492 50.4075 593.7C50.4235 593.908 50.4315 594.088 50.4315 594.24V596.88H49.3755V587.568H50.2395L50.3835 588.444H50.4315C50.5595 588.26 50.7115 588.092 50.8875 587.94C51.0715 587.788 51.2875 587.668 51.5355 587.58C51.7915 587.492 52.0915 587.448 52.4355 587.448ZM52.2435 588.336C51.8115 588.336 51.4635 588.42 51.1995 588.588C50.9355 588.748 50.7435 588.992 50.6235 589.32C50.5035 589.648 50.4395 590.064 50.4315 590.568V590.772C50.4315 591.3 50.4875 591.748 50.5995 592.116C50.7115 592.484 50.8995 592.764 51.1635 592.956C51.4355 593.148 51.8035 593.244 52.2675 593.244C52.6595 593.244 52.9795 593.136 53.2275 592.92C53.4835 592.704 53.6715 592.412 53.7915 592.044C53.9195 591.668 53.9835 591.24 53.9835 590.76C53.9835 590.024 53.8395 589.436 53.5515 588.996C53.2715 588.556 52.8355 588.336 52.2435 588.336ZM59.1943 587.46C59.9783 587.46 60.5583 587.632 60.9343 587.976C61.3103 588.32 61.4983 588.868 61.4983 589.62V594H60.7303L60.5263 593.088H60.4783C60.2943 593.32 60.1023 593.516 59.9023 593.676C59.7103 593.828 59.4863 593.94 59.2303 594.012C58.9823 594.084 58.6783 594.12 58.3183 594.12C57.9343 594.12 57.5863 594.052 57.2743 593.916C56.9703 593.78 56.7303 593.572 56.5543 593.292C56.3783 593.004 56.2903 592.644 56.2903 592.212C56.2903 591.572 56.5423 591.08 57.0463 590.736C57.5503 590.384 58.3263 590.192 59.3743 590.16L60.4663 590.124V589.74C60.4663 589.204 60.3503 588.832 60.1183 588.624C59.8863 588.416 59.5583 588.312 59.1343 588.312C58.7983 588.312 58.4783 588.364 58.1743 588.468C57.8703 588.564 57.5863 588.676 57.3223 588.804L56.9983 588.012C57.2783 587.86 57.6103 587.732 57.9943 587.628C58.3783 587.516 58.7783 587.46 59.1943 587.46ZM59.5063 590.892C58.7063 590.924 58.1503 591.052 57.8383 591.276C57.5343 591.5 57.3823 591.816 57.3823 592.224C57.3823 592.584 57.4903 592.848 57.7063 593.016C57.9303 593.184 58.2143 593.268 58.5583 593.268C59.1023 593.268 59.5543 593.12 59.9143 592.824C60.2743 592.52 60.4543 592.056 60.4543 591.432V590.856L59.5063 590.892ZM65.7648 587.448C66.1888 587.448 66.5688 587.528 66.9048 587.688C67.2488 587.848 67.5408 588.092 67.7808 588.42H67.8408L67.9848 587.568H68.8248V594.108C68.8248 594.716 68.7208 595.224 68.5128 595.632C68.3048 596.048 67.9888 596.36 67.5648 596.568C67.1408 596.776 66.6008 596.88 65.9448 596.88C65.4808 596.88 65.0528 596.844 64.6608 596.772C64.2768 596.708 63.9328 596.608 63.6288 596.472V595.5C63.8368 595.604 64.0648 595.692 64.3128 595.764C64.5608 595.844 64.8288 595.904 65.1168 595.944C65.4048 595.984 65.7008 596.004 66.0048 596.004C66.5568 596.004 66.9888 595.84 67.3008 595.512C67.6208 595.192 67.7808 594.752 67.7808 594.192V593.94C67.7808 593.844 67.7848 593.708 67.7928 593.532C67.8008 593.348 67.8088 593.22 67.8168 593.148H67.7688C67.5448 593.476 67.2648 593.72 66.9288 593.88C66.6008 594.04 66.2168 594.12 65.7768 594.12C64.9448 594.12 64.2928 593.828 63.8208 593.244C63.3568 592.66 63.1248 591.844 63.1248 590.796C63.1248 590.108 63.2288 589.516 63.4368 589.02C63.6528 588.516 63.9568 588.128 64.3488 587.856C64.7408 587.584 65.2128 587.448 65.7648 587.448ZM65.9088 588.336C65.5488 588.336 65.2408 588.432 64.9848 588.624C64.7368 588.816 64.5448 589.096 64.4088 589.464C64.2808 589.832 64.2168 590.28 64.2168 590.808C64.2168 591.6 64.3608 592.208 64.6488 592.632C64.9448 593.048 65.3728 593.256 65.9328 593.256C66.2608 593.256 66.5408 593.216 66.7728 593.136C67.0048 593.048 67.1968 592.916 67.3488 592.74C67.5008 592.556 67.6128 592.324 67.6848 592.044C67.7568 591.764 67.7928 591.432 67.7928 591.048V590.796C67.7928 590.212 67.7248 589.74 67.5888 589.38C67.4608 589.02 67.2568 588.756 66.9768 588.588C66.6968 588.42 66.3408 588.336 65.9088 588.336ZM73.3517 587.448C73.9037 587.448 74.3757 587.568 74.7677 587.808C75.1677 588.048 75.4717 588.388 75.6797 588.828C75.8957 589.26 76.0037 589.768 76.0037 590.352V590.988H71.5997C71.6157 591.716 71.7997 592.272 72.1517 592.656C72.5117 593.032 73.0117 593.22 73.6517 593.22C74.0597 593.22 74.4197 593.184 74.7317 593.112C75.0517 593.032 75.3797 592.92 75.7157 592.776V593.7C75.3877 593.844 75.0637 593.948 74.7437 594.012C74.4237 594.084 74.0437 594.12 73.6037 594.12C72.9957 594.12 72.4557 593.996 71.9837 593.748C71.5197 593.5 71.1557 593.132 70.8917 592.644C70.6357 592.148 70.5077 591.544 70.5077 590.832C70.5077 590.128 70.6237 589.524 70.8557 589.02C71.0957 588.516 71.4277 588.128 71.8517 587.856C72.2837 587.584 72.7837 587.448 73.3517 587.448ZM73.3397 588.312C72.8357 588.312 72.4357 588.476 72.1397 588.804C71.8517 589.124 71.6797 589.572 71.6237 590.148H74.8997C74.8997 589.78 74.8437 589.46 74.7317 589.188C74.6197 588.916 74.4477 588.704 74.2157 588.552C73.9917 588.392 73.6997 588.312 73.3397 588.312ZM85.4531 584.088V594.936H86.4131V584.088H85.4531ZM83.6291 588.504V589.32H85.7171V588.504H83.6291ZM82.9931 584.328V594.384H83.9291V584.328H82.9931ZM77.7371 585.396V591.66H78.7331V585.396H77.7371ZM77.7371 591.264V592.128H78.4331C79.5971 592.128 80.8451 592.068 82.3211 591.78L82.2131 590.916C80.7971 591.192 79.5491 591.264 78.4331 591.264H77.7371ZM91.7762 584.868C90.0842 584.868 88.8602 585.912 88.8602 587.424C88.8602 588.948 90.0842 589.992 91.7762 589.992C93.4682 589.992 94.6802 588.948 94.6802 587.424C94.6802 585.912 93.4682 584.868 91.7762 584.868ZM91.7762 585.732C92.8922 585.732 93.7082 586.416 93.7082 587.424C93.7082 588.432 92.8922 589.128 91.7762 589.128C90.6482 589.128 89.8322 588.432 89.8322 587.424C89.8322 586.416 90.6482 585.732 91.7762 585.732ZM96.0962 584.076V594.948H97.0922V584.076H96.0962ZM88.4522 592.572C90.3842 592.572 93.0362 592.56 95.4722 592.092L95.3882 591.36C93.0242 591.732 90.2882 591.744 88.3082 591.744L88.4522 592.572ZM105.092 585.636V587.4C105.092 589.236 103.784 591.3 102.236 592.056L102.812 592.848C104.504 591.984 105.884 589.656 105.884 587.4V585.636H105.092ZM105.272 585.636V587.4C105.272 589.548 106.58 591.732 108.296 592.584L108.86 591.792C107.288 591.048 106.064 589.116 106.064 587.4V585.636H105.272ZM102.62 585.192V586.032H108.464V585.192H102.62ZM109.748 584.088V594.936H110.756V584.088H109.748ZM110.516 588.468V589.308H112.532V588.468H110.516ZM118.075 584.82V585.252C118.075 587.268 116.395 588.864 113.611 589.632L114.007 590.412C117.163 589.548 119.119 587.58 119.119 584.82H118.075ZM114.163 584.82V585.624H118.687V584.82H114.163ZM115.135 591.048V591.852H121.375V594.912H122.371V591.048H115.135ZM121.375 584.088V590.556H122.371V584.088H121.375ZM118.675 586.02V586.836H121.579V586.02H118.675ZM118.567 588.324V589.14H121.507V588.324H118.567ZM124.483 589.248V590.052H134.287V589.248H124.483ZM129.379 590.988C127.063 590.988 125.659 591.708 125.659 592.956C125.659 594.204 127.063 594.912 129.379 594.912C131.695 594.912 133.099 594.204 133.099 592.956C133.099 591.708 131.695 590.988 129.379 590.988ZM129.379 591.78C131.083 591.78 132.091 592.2 132.091 592.956C132.091 593.7 131.083 594.132 129.379 594.132C127.687 594.132 126.667 593.7 126.667 592.956C126.667 592.2 127.687 591.78 129.379 591.78ZM128.743 585.072V585.396C128.743 586.62 126.979 587.592 125.035 587.808L125.395 588.588C127.639 588.324 129.631 587.136 129.631 585.396V585.072H128.743ZM129.163 585.072V585.396C129.163 587.136 131.143 588.324 133.387 588.588L133.747 587.808C131.803 587.592 130.039 586.62 130.039 585.396V585.072H129.163ZM125.383 584.64V585.444H133.411V584.64H125.383ZM144.099 586.668V587.496H147.015V586.668H144.099ZM141.603 584.58C139.983 584.58 138.807 585.612 138.807 587.1C138.807 588.588 139.983 589.608 141.603 589.608C143.223 589.608 144.399 588.588 144.399 587.1C144.399 585.612 143.223 584.58 141.603 584.58ZM141.603 585.42C142.671 585.42 143.439 586.104 143.439 587.1C143.439 588.084 142.671 588.78 141.603 588.78C140.535 588.78 139.767 588.084 139.767 587.1C139.767 586.104 140.535 585.42 141.603 585.42ZM146.571 584.088V589.908H147.567V584.088H146.571ZM140.619 590.448V594.792H147.567V590.448H146.583V591.816H141.615V590.448H140.619ZM141.615 592.608H146.583V593.988H141.615V592.608ZM157.934 584.088V594.936H158.894V584.088H157.934ZM153.434 588.228V589.044H156.158V588.228H153.434ZM155.75 584.34V594.384H156.698V584.34H155.75ZM150.086 591.492V592.332H150.782C152.51 592.332 153.554 592.284 154.79 592.02L154.694 591.192C153.494 591.444 152.474 591.492 150.782 591.492H150.086ZM150.086 585.408V591.816H151.07V586.224H154.166V585.408H150.086ZM168.601 584.076V594.948H169.597V584.076H168.601ZM163.873 584.916C162.277 584.916 161.125 586.392 161.125 588.696C161.125 591.012 162.277 592.488 163.873 592.488C165.481 592.488 166.633 591.012 166.633 588.696C166.633 586.392 165.481 584.916 163.873 584.916ZM163.873 585.816C164.941 585.816 165.673 586.944 165.673 588.696C165.673 590.46 164.941 591.612 163.873 591.612C162.817 591.612 162.073 590.46 162.073 588.696C162.073 586.944 162.817 585.816 163.873 585.816ZM173.028 589.932V590.736H180.48V589.932H173.028ZM171.768 592.716V593.544H181.596V592.716H171.768ZM173.028 585.012V590.184H174.036V585.828H180.36V585.012H173.028ZM173.712 587.436V588.228H180.132V587.436H173.712ZM190.4 584.904V585.264C190.4 587.472 189.14 589.2 186.116 590.208L186.524 591.012C189.956 589.848 191.408 587.724 191.408 584.904H190.4ZM186.584 584.904V585.72H190.964V584.904H186.584ZM190.376 587.028L186.044 587.22L186.212 588.048L190.376 587.724V587.028ZM193.34 584.088V592.176H194.336V584.088H193.34ZM194.024 587.448V588.288H195.944V587.448H194.024ZM187.568 593.88V594.696H194.816V593.88H187.568ZM187.568 591.408V594.408H188.564V591.408H187.568ZM201.859 584.268C199.459 584.268 198.043 584.94 198.043 586.152C198.043 587.364 199.459 588.036 201.859 588.036C204.247 588.036 205.675 587.364 205.675 586.152C205.675 584.94 204.247 584.268 201.859 584.268ZM201.859 585.024C203.623 585.024 204.643 585.432 204.643 586.152C204.643 586.872 203.623 587.28 201.859 587.28C200.083 587.28 199.063 586.872 199.063 586.152C199.063 585.432 200.083 585.024 201.859 585.024ZM196.951 588.756V589.56H206.755V588.756H196.951ZM198.139 590.484V591.252H204.523V592.212H198.163V594.252H199.147V592.932H205.507V590.484H198.139ZM198.163 594.036V594.816H205.831V594.036H198.163ZM218.992 584.076V594.948H219.988V584.076H218.992ZM214.264 584.916C212.668 584.916 211.516 586.392 211.516 588.696C211.516 591.012 212.668 592.488 214.264 592.488C215.872 592.488 217.024 591.012 217.024 588.696C217.024 586.392 215.872 584.916 214.264 584.916ZM214.264 585.816C215.332 585.816 216.064 586.944 216.064 588.696C216.064 590.46 215.332 591.612 214.264 591.612C213.208 591.612 212.464 590.46 212.464 588.696C212.464 586.944 213.208 585.816 214.264 585.816ZM224.571 587.76V589.812H225.555V587.76H224.571ZM228.555 587.76V589.812H229.539V587.76H228.555ZM222.147 589.452V590.256H231.951V589.452H222.147ZM227.043 591.072C224.715 591.072 223.323 591.756 223.323 592.992C223.323 594.228 224.715 594.924 227.043 594.924C229.371 594.924 230.763 594.228 230.763 592.992C230.763 591.756 229.371 591.072 227.043 591.072ZM227.043 591.84C228.747 591.84 229.755 592.26 229.755 592.992C229.755 593.736 228.747 594.144 227.043 594.144C225.351 594.144 224.331 593.736 224.331 592.992C224.331 592.26 225.351 591.84 227.043 591.84ZM227.055 584.28C224.691 584.28 223.239 585.036 223.239 586.308C223.239 587.568 224.691 588.312 227.055 588.312C229.407 588.312 230.871 587.568 230.871 586.308C230.871 585.036 229.407 584.28 227.055 584.28ZM227.055 585.06C228.783 585.06 229.851 585.516 229.851 586.308C229.851 587.088 228.783 587.544 227.055 587.544C225.327 587.544 224.259 587.088 224.259 586.308C224.259 585.516 225.327 585.06 227.055 585.06ZM233.174 585.936V586.752H238.55V585.936H233.174ZM235.862 587.472C234.518 587.472 233.534 588.492 233.534 589.956C233.534 591.408 234.518 592.428 235.862 592.428C237.218 592.428 238.202 591.408 238.202 589.956C238.202 588.492 237.218 587.472 235.862 587.472ZM235.862 588.324C236.702 588.324 237.314 588.996 237.314 589.956C237.314 590.916 236.702 591.588 235.862 591.588C235.034 591.588 234.434 590.916 234.434 589.956C234.434 588.996 235.034 588.324 235.862 588.324ZM241.418 584.088V594.936H242.378V584.088H241.418ZM239.69 588.648V589.476H241.742V588.648H239.69ZM239.102 584.328V594.408H240.038V584.328H239.102ZM235.382 584.4V586.44H236.366V584.4H235.382ZM248.581 585.156V585.612C248.581 587.04 246.721 588.288 244.813 588.564L245.197 589.356C247.381 588.984 249.445 587.556 249.445 585.612V585.156H248.581ZM248.833 585.156V585.612C248.833 587.556 250.885 588.984 253.081 589.356L253.453 588.564C251.557 588.288 249.685 587.04 249.685 585.612V585.156H248.833ZM248.617 590.796V594.936H249.601V590.796H248.617ZM244.237 590.268V591.084H254.041V590.268H244.237ZM245.149 584.76V585.564H253.093V584.76H245.149ZM259.548 587.964V588.792H261.624V587.964H259.548ZM257.52 585.108V587.172C257.52 589.032 256.632 590.976 255.144 591.852L255.768 592.608C257.352 591.636 258.3 589.44 258.3 587.172V585.108H257.52ZM257.712 585.108V587.136C257.712 589.248 258.588 591.408 260.148 592.368L260.724 591.588C259.296 590.724 258.48 588.876 258.48 587.136V585.108H257.712ZM263.532 584.088V594.936H264.492V584.088H263.532ZM261.336 584.316V594.396H262.272V584.316H261.336ZM268.715 589.668V592.92H269.699V589.668H268.715ZM272.723 589.668V592.92H273.719V589.668H272.723ZM266.315 592.728V593.556H276.143V592.728H266.315ZM271.211 584.772C268.907 584.772 267.263 585.864 267.263 587.568C267.263 589.26 268.907 590.352 271.211 590.352C273.503 590.352 275.147 589.26 275.147 587.568C275.147 585.864 273.503 584.772 271.211 584.772ZM271.211 585.564C272.951 585.564 274.187 586.356 274.187 587.568C274.187 588.768 272.951 589.56 271.211 589.56C269.471 589.56 268.223 588.768 268.223 587.568C268.223 586.356 269.471 585.564 271.211 585.564ZM277.618 593.352C277.618 593.056 277.69 592.848 277.834 592.728C277.978 592.608 278.15 592.548 278.35 592.548C278.558 592.548 278.734 592.608 278.878 592.728C279.03 592.848 279.106 593.056 279.106 593.352C279.106 593.64 279.03 593.848 278.878 593.976C278.734 594.104 278.558 594.168 278.35 594.168C278.15 594.168 277.978 594.104 277.834 593.976C277.69 593.848 277.618 593.64 277.618 593.352Z" fill="#011E5F"/>
<rect width="349" height="395" rx="8" fill="#F8F8F8"/>
<rect x="98" y="255.23" width="15.1923" height="1" transform="rotate(-90 98 255.23)" fill="#D9D9D9"/>
<path d="M140.56 77H134.6V48.44H150.96V53.4H140.56V60.76H150.24V65.72H140.56V77ZM166.833 55.16V77H160.873V55.16H166.833ZM163.873 46.6C164.753 46.6 165.513 46.8133 166.153 47.24C166.793 47.64 167.113 48.4 167.113 49.52C167.113 50.6133 166.793 51.3733 166.153 51.8C165.513 52.2267 164.753 52.44 163.873 52.44C162.966 52.44 162.193 52.2267 161.553 51.8C160.94 51.3733 160.633 50.6133 160.633 49.52C160.633 48.4 160.94 47.64 161.553 47.24C162.193 46.8133 162.966 46.6 163.873 46.6ZM187.061 72.64C187.727 72.64 188.367 72.5733 188.981 72.44C189.594 72.3067 190.207 72.1467 190.821 71.96V76.4C190.181 76.6667 189.381 76.8933 188.421 77.08C187.487 77.2933 186.461 77.4 185.341 77.4C184.034 77.4 182.861 77.1867 181.821 76.76C180.807 76.3333 179.994 75.6 179.381 74.56C178.794 73.4933 178.501 72.0267 178.501 70.16V59.64H175.661V57.12L178.941 55.12L180.661 50.52H184.461V55.16H190.581V59.64H184.461V70.16C184.461 70.9867 184.701 71.6133 185.181 72.04C185.661 72.44 186.287 72.64 187.061 72.64ZM198.084 68.72V63.84H208.564V68.72H198.084ZM223.655 55.16V77H217.695V55.16H223.655ZM220.695 46.6C221.575 46.6 222.335 46.8133 222.975 47.24C223.615 47.64 223.935 48.4 223.935 49.52C223.935 50.6133 223.615 51.3733 222.975 51.8C222.335 52.2267 221.575 52.44 220.695 52.44C219.788 52.44 219.015 52.2267 218.375 51.8C217.762 51.3733 217.455 50.6133 217.455 49.52C217.455 48.4 217.762 47.64 218.375 47.24C219.015 46.8133 219.788 46.6 220.695 46.6Z" fill="#011E5F"/>
<path d="M130.357 46.463C128.488 44.9204 119.359 38.8206 125.168 39.4351C126.022 39.5254 136.149 40.254 135.998 41.2502C135.994 41.2764 122.675 44.1579 121.106 45.2529C120.061 45.9826 127.036 41.2651 128.552 39.0627C129.875 37.1425 131.753 31.3923 132.783 33.431C134.495 36.8222 127.703 49.623 127.311 48.9764" stroke="#FF4E4E" stroke-linecap="round"/>
<path d="M50.44 114.96H61.76V129.76C60.2667 130.267 58.7067 130.667 57.08 130.96C55.48 131.253 53.6533 131.4 51.6 131.4C48.7733 131.4 46.36 130.84 44.36 129.72C42.3867 128.6 40.88 126.947 39.84 124.76C38.8267 122.573 38.32 119.88 38.32 116.68C38.32 113.693 38.8933 111.107 40.04 108.92C41.2133 106.733 42.9067 105.04 45.12 103.84C47.3333 102.64 50.04 102.04 53.24 102.04C54.76 102.04 56.2533 102.2 57.72 102.52C59.1867 102.84 60.52 103.267 61.72 103.8L59.72 108.64C58.84 108.187 57.84 107.813 56.72 107.52C55.6 107.227 54.4267 107.08 53.2 107.08C51.44 107.08 49.9067 107.48 48.6 108.28C47.32 109.08 46.32 110.213 45.6 111.68C44.9067 113.12 44.56 114.827 44.56 116.8C44.56 118.667 44.8133 120.32 45.32 121.76C45.8267 123.2 46.6267 124.333 47.72 125.16C48.8133 125.96 50.24 126.36 52 126.36C52.5867 126.36 53.0933 126.347 53.52 126.32C53.9733 126.267 54.3867 126.213 54.76 126.16C55.1333 126.08 55.4933 126.013 55.84 125.96V120H50.44V114.96ZM84.2653 108.76C84.5586 108.76 84.9053 108.773 85.3053 108.8C85.7053 108.827 86.0253 108.867 86.2653 108.92L85.8253 114.52C85.6386 114.467 85.3586 114.427 84.9853 114.4C84.6386 114.347 84.332 114.32 84.0653 114.32C83.292 114.32 82.5453 114.427 81.8253 114.64C81.1053 114.827 80.452 115.133 79.8653 115.56C79.3053 115.987 78.852 116.56 78.5053 117.28C78.1853 117.973 78.0253 118.84 78.0253 119.88V131H72.0653V109.16H76.5853L77.4653 112.84H77.7453C78.172 112.093 78.7053 111.413 79.3453 110.8C79.9853 110.187 80.7186 109.693 81.5453 109.32C82.3986 108.947 83.3053 108.76 84.2653 108.76ZM102.408 108.72C105.341 108.72 107.581 109.36 109.128 110.64C110.701 111.893 111.488 113.827 111.488 116.44V131H107.328L106.168 128.04H106.008C105.395 128.813 104.755 129.453 104.088 129.96C103.448 130.467 102.701 130.827 101.848 131.04C101.021 131.28 99.9948 131.4 98.7681 131.4C97.4881 131.4 96.3281 131.16 95.2881 130.68C94.2748 130.173 93.4748 129.413 92.8881 128.4C92.3015 127.36 92.0081 126.053 92.0081 124.48C92.0081 122.16 92.8215 120.453 94.4481 119.36C96.0748 118.24 98.5148 117.627 101.768 117.52L105.568 117.4V116.44C105.568 115.293 105.261 114.453 104.648 113.92C104.061 113.387 103.235 113.12 102.168 113.12C101.101 113.12 100.061 113.28 99.0481 113.6C98.0348 113.893 97.0215 114.267 96.0081 114.72L94.0481 110.68C95.2215 110.067 96.5148 109.587 97.9281 109.24C99.3681 108.893 100.861 108.72 102.408 108.72ZM103.248 120.96C101.328 121.013 99.9948 121.36 99.2481 122C98.5015 122.64 98.1281 123.48 98.1281 124.52C98.1281 125.427 98.3948 126.08 98.9281 126.48C99.4615 126.853 100.155 127.04 101.008 127.04C102.288 127.04 103.368 126.667 104.248 125.92C105.128 125.147 105.568 124.067 105.568 122.68V120.88L103.248 120.96ZM128.509 131.4C126.082 131.4 124.095 130.453 122.549 128.56C121.029 126.64 120.269 123.827 120.269 120.12C120.269 116.387 121.042 113.56 122.589 111.64C124.135 109.72 126.162 108.76 128.669 108.76C129.709 108.76 130.629 108.907 131.429 109.2C132.229 109.467 132.909 109.84 133.469 110.32C134.055 110.8 134.549 111.347 134.949 111.96H135.149C135.069 111.533 134.975 110.92 134.869 110.12C134.762 109.293 134.709 108.453 134.709 107.6V100.6H140.669V131H136.109L134.949 128.16H134.709C134.335 128.747 133.855 129.293 133.269 129.8C132.709 130.28 132.042 130.667 131.269 130.96C130.495 131.253 129.575 131.4 128.509 131.4ZM130.589 126.64C132.242 126.64 133.402 126.16 134.069 125.2C134.735 124.213 135.082 122.747 135.109 120.8V120.16C135.109 118.027 134.775 116.4 134.109 115.28C133.469 114.16 132.269 113.6 130.509 113.6C129.202 113.6 128.175 114.173 127.429 115.32C126.682 116.44 126.309 118.067 126.309 120.2C126.309 122.333 126.682 123.947 127.429 125.04C128.175 126.107 129.229 126.64 130.589 126.64ZM159.901 108.76C161.928 108.76 163.661 109.147 165.101 109.92C166.568 110.693 167.701 111.813 168.501 113.28C169.301 114.747 169.701 116.547 169.701 118.68V121.56H155.621C155.675 123.24 156.168 124.56 157.101 125.52C158.061 126.48 159.381 126.96 161.061 126.96C162.475 126.96 163.755 126.827 164.901 126.56C166.048 126.267 167.235 125.827 168.461 125.24V129.84C167.395 130.373 166.261 130.76 165.061 131C163.888 131.267 162.461 131.4 160.781 131.4C158.595 131.4 156.661 131 154.981 130.2C153.301 129.373 151.981 128.133 151.021 126.48C150.061 124.827 149.581 122.747 149.581 120.24C149.581 117.68 150.008 115.56 150.861 113.88C151.741 112.173 152.955 110.893 154.501 110.04C156.048 109.187 157.848 108.76 159.901 108.76ZM159.941 113C158.795 113 157.835 113.373 157.061 114.12C156.315 114.867 155.875 116.027 155.741 117.6H164.101C164.101 116.72 163.941 115.933 163.621 115.24C163.328 114.547 162.875 114 162.261 113.6C161.648 113.2 160.875 113 159.941 113ZM204.405 131H198.365V107.48H190.605V102.44H212.165V107.48H204.405V131ZM225.846 108.72C228.779 108.72 231.019 109.36 232.566 110.64C234.139 111.893 234.926 113.827 234.926 116.44V131H230.766L229.606 128.04H229.446C228.832 128.813 228.192 129.453 227.526 129.96C226.886 130.467 226.139 130.827 225.286 131.04C224.459 131.28 223.432 131.4 222.206 131.4C220.926 131.4 219.766 131.16 218.726 130.68C217.712 130.173 216.912 129.413 216.326 128.4C215.739 127.36 215.446 126.053 215.446 124.48C215.446 122.16 216.259 120.453 217.886 119.36C219.512 118.24 221.952 117.627 225.206 117.52L229.006 117.4V116.44C229.006 115.293 228.699 114.453 228.086 113.92C227.499 113.387 226.672 113.12 225.606 113.12C224.539 113.12 223.499 113.28 222.486 113.6C221.472 113.893 220.459 114.267 219.446 114.72L217.486 110.68C218.659 110.067 219.952 109.587 221.366 109.24C222.806 108.893 224.299 108.72 225.846 108.72ZM226.686 120.96C224.766 121.013 223.432 121.36 222.686 122C221.939 122.64 221.566 123.48 221.566 124.52C221.566 125.427 221.832 126.08 222.366 126.48C222.899 126.853 223.592 127.04 224.446 127.04C225.726 127.04 226.806 126.667 227.686 125.92C228.566 125.147 229.006 124.067 229.006 122.68V120.88L226.686 120.96ZM250.986 107.68C250.986 108.507 250.96 109.32 250.906 110.12C250.853 110.92 250.8 111.547 250.746 112H250.986C251.573 111.093 252.36 110.333 253.346 109.72C254.333 109.08 255.613 108.76 257.186 108.76C259.64 108.76 261.626 109.72 263.146 111.64C264.666 113.533 265.426 116.333 265.426 120.04C265.426 122.52 265.066 124.613 264.346 126.32C263.653 128 262.68 129.267 261.426 130.12C260.173 130.973 258.706 131.4 257.026 131.4C255.426 131.4 254.16 131.12 253.226 130.56C252.32 129.973 251.573 129.32 250.986 128.6H250.586L249.586 131H245.026V100.6H250.986V107.68ZM255.266 113.52C254.226 113.52 253.4 113.733 252.786 114.16C252.173 114.587 251.72 115.24 251.426 116.12C251.16 116.973 251.013 118.053 250.986 119.36V120C250.986 122.107 251.293 123.733 251.906 124.88C252.546 126 253.693 126.56 255.346 126.56C256.573 126.56 257.546 126 258.266 124.88C258.986 123.733 259.346 122.093 259.346 119.96C259.346 117.827 258.973 116.227 258.226 115.16C257.506 114.067 256.52 113.52 255.266 113.52ZM280.299 131H274.339V100.6H280.299V131ZM299.526 108.76C301.553 108.76 303.286 109.147 304.726 109.92C306.193 110.693 307.326 111.813 308.126 113.28C308.926 114.747 309.326 116.547 309.326 118.68V121.56H295.246C295.3 123.24 295.793 124.56 296.726 125.52C297.686 126.48 299.006 126.96 300.686 126.96C302.1 126.96 303.38 126.827 304.526 126.56C305.673 126.267 306.86 125.827 308.086 125.24V129.84C307.02 130.373 305.886 130.76 304.686 131C303.513 131.267 302.086 131.4 300.406 131.4C298.22 131.4 296.286 131 294.606 130.2C292.926 129.373 291.606 128.133 290.646 126.48C289.686 124.827 289.206 122.747 289.206 120.24C289.206 117.68 289.633 115.56 290.486 113.88C291.366 112.173 292.58 110.893 294.126 110.04C295.673 109.187 297.473 108.76 299.526 108.76ZM299.566 113C298.42 113 297.46 113.373 296.686 114.12C295.94 114.867 295.5 116.027 295.366 117.6H303.726C303.726 116.72 303.566 115.933 303.246 115.24C302.953 114.547 302.5 114 301.886 113.6C301.273 113.2 300.5 113 299.566 113Z" fill="#011E5F"/>
<path d="M40.86 215.26V216.9C40.86 219.42 39.6 221.9 36.5 222.94L37.92 225.04C41.44 223.82 43.04 220.58 43.04 216.9V215.26H40.86ZM41.4 215.26V217.16C41.4 220.5 42.98 223.38 46.32 224.5L47.7 222.44C44.8 221.54 43.56 219.38 43.56 217.16V215.26H41.4ZM48.72 214.26V225.2H51.38V214.26H48.72ZM50.64 218.54V220.74H53.84V218.54H50.64ZM45.34 225.62C41.48 225.62 39.06 226.96 39.06 229.2C39.06 231.46 41.48 232.78 45.34 232.78C49.18 232.78 51.6 231.46 51.6 229.2C51.6 226.96 49.18 225.62 45.34 225.62ZM45.34 227.68C47.7 227.68 48.96 228.18 48.96 229.2C48.96 230.24 47.7 230.72 45.34 230.72C42.98 230.72 41.7 230.24 41.7 229.2C41.7 228.18 42.98 227.68 45.34 227.68ZM61.1984 215C58.3984 215 56.3584 216.62 56.3584 218.96C56.3584 221.26 58.3984 222.92 61.1984 222.92C64.0184 222.92 66.0584 221.26 66.0584 218.96C66.0584 216.62 64.0184 215 61.1984 215ZM61.1984 217.16C62.5584 217.16 63.5184 217.8 63.5184 218.96C63.5184 220.1 62.5584 220.74 61.1984 220.74C59.8584 220.74 58.8984 220.1 58.8984 218.96C58.8984 217.8 59.8584 217.16 61.1984 217.16ZM59.9584 224.76V232.22H62.6184V224.76H59.9584ZM68.0584 214.26V232.78H70.6984V214.26H68.0584ZM55.5784 226.16C58.7784 226.14 63.1584 226.1 67.1784 225.3L66.9984 223.36C63.0784 223.96 58.4984 224 55.2584 224L55.5784 226.16ZM83.9922 221.88C84.8589 221.88 85.6322 222.047 86.3122 222.38C86.9922 222.713 87.5255 223.2 87.9122 223.84C88.3122 224.48 88.5122 225.273 88.5122 226.22C88.5122 227.247 88.2989 228.133 87.8722 228.88C87.4455 229.627 86.8055 230.2 85.9522 230.6C85.1122 231 84.0655 231.2 82.8122 231.2C82.0655 231.2 81.3589 231.133 80.6922 231C80.0389 230.867 79.4655 230.673 78.9722 230.42V227.82C79.4655 228.073 80.0589 228.293 80.7522 228.48C81.4455 228.653 82.0989 228.74 82.7122 228.74C83.3122 228.74 83.8122 228.66 84.2122 228.5C84.6255 228.34 84.9389 228.093 85.1522 227.76C85.3655 227.427 85.4722 227 85.4722 226.48C85.4722 225.773 85.2389 225.24 84.7722 224.88C84.3055 224.507 83.5855 224.32 82.6122 224.32C82.2389 224.32 81.8522 224.36 81.4522 224.44C81.0522 224.507 80.7189 224.573 80.4522 224.64L79.2522 224L79.7922 216.72H87.5322V219.28H82.4322L82.1722 222.08C82.3989 222.04 82.6389 222 82.8922 221.96C83.1589 221.907 83.5255 221.88 83.9922 221.88ZM93.4175 216.52C94.5375 216.52 95.3842 216.913 95.9575 217.7C96.5442 218.473 96.8375 219.567 96.8375 220.98C96.8375 222.393 96.5642 223.5 96.0175 224.3C95.4708 225.087 94.6042 225.48 93.4175 225.48C92.6842 225.48 92.0642 225.3 91.5575 224.94C91.0642 224.58 90.6908 224.067 90.4375 223.4C90.1842 222.72 90.0575 221.913 90.0575 220.98C90.0575 219.567 90.3242 218.473 90.8575 217.7C91.3908 216.913 92.2442 216.52 93.4175 216.52ZM93.4375 218.56C93.1175 218.56 92.8842 218.76 92.7375 219.16C92.5908 219.56 92.5175 220.173 92.5175 221C92.5175 221.813 92.5908 222.427 92.7375 222.84C92.8842 223.253 93.1175 223.46 93.4375 223.46C93.7575 223.46 93.9908 223.253 94.1375 222.84C94.2975 222.427 94.3775 221.813 94.3775 221C94.3775 220.173 94.2975 219.56 94.1375 219.16C93.9908 218.76 93.7575 218.56 93.4375 218.56ZM103.558 216.72L95.6375 231H93.2975L101.218 216.72H103.558ZM103.418 222.22C104.164 222.22 104.791 222.4 105.298 222.76C105.804 223.107 106.184 223.613 106.438 224.28C106.704 224.933 106.838 225.733 106.838 226.68C106.838 228.093 106.564 229.2 106.018 230C105.471 230.787 104.604 231.18 103.418 231.18C102.684 231.18 102.064 231 101.558 230.64C101.064 230.28 100.691 229.767 100.438 229.1C100.184 228.42 100.058 227.613 100.058 226.68C100.058 225.267 100.324 224.173 100.858 223.4C101.391 222.613 102.244 222.22 103.418 222.22ZM103.438 224.26C103.118 224.26 102.884 224.46 102.738 224.86C102.591 225.26 102.518 225.873 102.518 226.7C102.518 227.513 102.591 228.127 102.738 228.54C102.884 228.953 103.118 229.16 103.438 229.16C103.758 229.16 103.991 228.96 104.138 228.56C104.298 228.147 104.378 227.527 104.378 226.7C104.378 225.873 104.298 225.26 104.138 224.86C103.991 224.46 103.758 224.26 103.438 224.26Z" fill="#011E5F"/>
<path d="M40.86 272.26V273.9C40.86 276.42 39.6 278.9 36.5 279.94L37.92 282.04C41.44 280.82 43.04 277.58 43.04 273.9V272.26H40.86ZM41.4 272.26V274.16C41.4 277.5 42.98 280.38 46.32 281.5L47.7 279.44C44.8 278.54 43.56 276.38 43.56 274.16V272.26H41.4ZM48.72 271.26V282.2H51.38V271.26H48.72ZM50.64 275.54V277.74H53.84V275.54H50.64ZM45.34 282.62C41.48 282.62 39.06 283.96 39.06 286.2C39.06 288.46 41.48 289.78 45.34 289.78C49.18 289.78 51.6 288.46 51.6 286.2C51.6 283.96 49.18 282.62 45.34 282.62ZM45.34 284.68C47.7 284.68 48.96 285.18 48.96 286.2C48.96 287.24 47.7 287.72 45.34 287.72C42.98 287.72 41.7 287.24 41.7 286.2C41.7 285.18 42.98 284.68 45.34 284.68ZM61.1984 272C58.3984 272 56.3584 273.62 56.3584 275.96C56.3584 278.26 58.3984 279.92 61.1984 279.92C64.0184 279.92 66.0584 278.26 66.0584 275.96C66.0584 273.62 64.0184 272 61.1984 272ZM61.1984 274.16C62.5584 274.16 63.5184 274.8 63.5184 275.96C63.5184 277.1 62.5584 277.74 61.1984 277.74C59.8584 277.74 58.8984 277.1 58.8984 275.96C58.8984 274.8 59.8584 274.16 61.1984 274.16ZM59.9584 281.76V289.22H62.6184V281.76H59.9584ZM68.0584 271.26V289.78H70.6984V271.26H68.0584ZM55.5784 283.16C58.7784 283.14 63.1584 283.1 67.1784 282.3L66.9984 280.36C63.0784 280.96 58.4984 281 55.2584 281L55.5784 283.16ZM88.7722 288H78.7922V285.9L82.3722 282.28C83.0922 281.533 83.6722 280.913 84.1122 280.42C84.5522 279.913 84.8722 279.46 85.0722 279.06C85.2722 278.647 85.3722 278.207 85.3722 277.74C85.3722 277.167 85.2122 276.74 84.8922 276.46C84.5855 276.18 84.1655 276.04 83.6322 276.04C83.0855 276.04 82.5522 276.167 82.0322 276.42C81.5122 276.673 80.9655 277.033 80.3922 277.5L78.7522 275.56C79.1655 275.2 79.5989 274.867 80.0522 274.56C80.5189 274.253 81.0522 274.007 81.6522 273.82C82.2655 273.62 82.9989 273.52 83.8522 273.52C84.7855 273.52 85.5855 273.693 86.2522 274.04C86.9322 274.373 87.4522 274.833 87.8122 275.42C88.1855 275.993 88.3722 276.647 88.3722 277.38C88.3722 277.98 88.2789 278.533 88.0922 279.04C87.9189 279.547 87.6589 280.04 87.3122 280.52C86.9789 280.987 86.5655 281.473 86.0722 281.98C85.5789 282.473 85.0189 283.013 84.3922 283.6L82.5522 285.32V285.46H88.7722V288ZM100.138 280.86C100.138 282.007 100.044 283.033 99.8575 283.94C99.6842 284.847 99.3975 285.62 98.9975 286.26C98.6108 286.887 98.0975 287.367 97.4575 287.7C96.8308 288.033 96.0575 288.2 95.1375 288.2C93.9908 288.2 93.0508 287.907 92.3175 287.32C91.5842 286.733 91.0375 285.893 90.6775 284.8C90.3308 283.707 90.1575 282.393 90.1575 280.86C90.1575 279.313 90.3175 277.993 90.6375 276.9C90.9575 275.807 91.4842 274.967 92.2175 274.38C92.9508 273.793 93.9242 273.5 95.1375 273.5C96.2842 273.5 97.2242 273.793 97.9575 274.38C98.6908 274.953 99.2375 275.793 99.5975 276.9C99.9575 277.993 100.138 279.313 100.138 280.86ZM93.1575 280.86C93.1575 281.94 93.2175 282.847 93.3375 283.58C93.4575 284.3 93.6575 284.847 93.9375 285.22C94.2308 285.58 94.6308 285.76 95.1375 285.76C95.6442 285.76 96.0375 285.58 96.3175 285.22C96.6108 284.86 96.8175 284.32 96.9375 283.6C97.0708 282.867 97.1375 281.953 97.1375 280.86C97.1375 279.767 97.0708 278.86 96.9375 278.14C96.8175 277.407 96.6108 276.86 96.3175 276.5C96.0375 276.127 95.6442 275.94 95.1375 275.94C94.6308 275.94 94.2308 276.127 93.9375 276.5C93.6575 276.86 93.4575 277.407 93.3375 278.14C93.2175 278.86 93.1575 279.767 93.1575 280.86ZM104.863 273.52C105.983 273.52 106.829 273.913 107.403 274.7C107.989 275.473 108.283 276.567 108.283 277.98C108.283 279.393 108.009 280.5 107.463 281.3C106.916 282.087 106.049 282.48 104.863 282.48C104.129 282.48 103.509 282.3 103.003 281.94C102.509 281.58 102.136 281.067 101.883 280.4C101.629 279.72 101.503 278.913 101.503 277.98C101.503 276.567 101.769 275.473 102.303 274.7C102.836 273.913 103.689 273.52 104.863 273.52ZM104.883 275.56C104.563 275.56 104.329 275.76 104.183 276.16C104.036 276.56 103.963 277.173 103.963 278C103.963 278.813 104.036 279.427 104.183 279.84C104.329 280.253 104.563 280.46 104.883 280.46C105.203 280.46 105.436 280.253 105.583 279.84C105.743 279.427 105.823 278.813 105.823 278C105.823 277.173 105.743 276.56 105.583 276.16C105.436 275.76 105.203 275.56 104.883 275.56ZM115.003 273.72L107.083 288H104.743L112.663 273.72H115.003ZM114.863 279.22C115.609 279.22 116.236 279.4 116.743 279.76C117.249 280.107 117.629 280.613 117.883 281.28C118.149 281.933 118.283 282.733 118.283 283.68C118.283 285.093 118.009 286.2 117.463 287C116.916 287.787 116.049 288.18 114.863 288.18C114.129 288.18 113.509 288 113.003 287.64C112.509 287.28 112.136 286.767 111.883 286.1C111.629 285.42 111.503 284.613 111.503 283.68C111.503 282.267 111.769 281.173 112.303 280.4C112.836 279.613 113.689 279.22 114.863 279.22ZM114.883 281.26C114.563 281.26 114.329 281.46 114.183 281.86C114.036 282.26 113.963 282.873 113.963 283.7C113.963 284.513 114.036 285.127 114.183 285.54C114.329 285.953 114.563 286.16 114.883 286.16C115.203 286.16 115.436 285.96 115.583 285.56C115.743 285.147 115.823 284.527 115.823 283.7C115.823 282.873 115.743 282.26 115.583 281.86C115.436 281.46 115.203 281.26 114.883 281.26Z" fill="#011E5F"/>
<path d="M40.86 331.26V332.9C40.86 335.42 39.6 337.9 36.5 338.94L37.92 341.04C41.44 339.82 43.04 336.58 43.04 332.9V331.26H40.86ZM41.4 331.26V333.16C41.4 336.5 42.98 339.38 46.32 340.5L47.7 338.44C44.8 337.54 43.56 335.38 43.56 333.16V331.26H41.4ZM48.72 330.26V341.2H51.38V330.26H48.72ZM50.64 334.54V336.74H53.84V334.54H50.64ZM45.34 341.62C41.48 341.62 39.06 342.96 39.06 345.2C39.06 347.46 41.48 348.78 45.34 348.78C49.18 348.78 51.6 347.46 51.6 345.2C51.6 342.96 49.18 341.62 45.34 341.62ZM45.34 343.68C47.7 343.68 48.96 344.18 48.96 345.2C48.96 346.24 47.7 346.72 45.34 346.72C42.98 346.72 41.7 346.24 41.7 345.2C41.7 344.18 42.98 343.68 45.34 343.68ZM61.1984 331C58.3984 331 56.3584 332.62 56.3584 334.96C56.3584 337.26 58.3984 338.92 61.1984 338.92C64.0184 338.92 66.0584 337.26 66.0584 334.96C66.0584 332.62 64.0184 331 61.1984 331ZM61.1984 333.16C62.5584 333.16 63.5184 333.8 63.5184 334.96C63.5184 336.1 62.5584 336.74 61.1984 336.74C59.8584 336.74 58.8984 336.1 58.8984 334.96C58.8984 333.8 59.8584 333.16 61.1984 333.16ZM59.9584 340.76V348.22H62.6184V340.76H59.9584ZM68.0584 330.26V348.78H70.6984V330.26H68.0584ZM55.5784 342.16C58.7784 342.14 63.1584 342.1 67.1784 341.3L66.9984 339.36C63.0784 339.96 58.4984 340 55.2584 340L55.5784 342.16ZM89.0922 344.04H87.3722V347H84.4322V344.04H78.3322V341.94L84.5922 332.72H87.3722V341.7H89.0922V344.04ZM84.4322 339.28C84.4322 339.053 84.4322 338.787 84.4322 338.48C84.4455 338.16 84.4589 337.847 84.4722 337.54C84.4855 337.22 84.4989 336.94 84.5122 336.7C84.5255 336.447 84.5389 336.273 84.5522 336.18H84.4722C84.3522 336.447 84.2255 336.707 84.0922 336.96C83.9589 337.213 83.7989 337.473 83.6122 337.74L80.9922 341.7H84.4322V339.28ZM100.138 339.86C100.138 341.007 100.044 342.033 99.8575 342.94C99.6842 343.847 99.3975 344.62 98.9975 345.26C98.6108 345.887 98.0975 346.367 97.4575 346.7C96.8308 347.033 96.0575 347.2 95.1375 347.2C93.9908 347.2 93.0508 346.907 92.3175 346.32C91.5842 345.733 91.0375 344.893 90.6775 343.8C90.3308 342.707 90.1575 341.393 90.1575 339.86C90.1575 338.313 90.3175 336.993 90.6375 335.9C90.9575 334.807 91.4842 333.967 92.2175 333.38C92.9508 332.793 93.9242 332.5 95.1375 332.5C96.2842 332.5 97.2242 332.793 97.9575 333.38C98.6908 333.953 99.2375 334.793 99.5975 335.9C99.9575 336.993 100.138 338.313 100.138 339.86ZM93.1575 339.86C93.1575 340.94 93.2175 341.847 93.3375 342.58C93.4575 343.3 93.6575 343.847 93.9375 344.22C94.2308 344.58 94.6308 344.76 95.1375 344.76C95.6442 344.76 96.0375 344.58 96.3175 344.22C96.6108 343.86 96.8175 343.32 96.9375 342.6C97.0708 341.867 97.1375 340.953 97.1375 339.86C97.1375 338.767 97.0708 337.86 96.9375 337.14C96.8175 336.407 96.6108 335.86 96.3175 335.5C96.0375 335.127 95.6442 334.94 95.1375 334.94C94.6308 334.94 94.2308 335.127 93.9375 335.5C93.6575 335.86 93.4575 336.407 93.3375 337.14C93.2175 337.86 93.1575 338.767 93.1575 339.86ZM104.863 332.52C105.983 332.52 106.829 332.913 107.403 333.7C107.989 334.473 108.283 335.567 108.283 336.98C108.283 338.393 108.009 339.5 107.463 340.3C106.916 341.087 106.049 341.48 104.863 341.48C104.129 341.48 103.509 341.3 103.003 340.94C102.509 340.58 102.136 340.067 101.883 339.4C101.629 338.72 101.503 337.913 101.503 336.98C101.503 335.567 101.769 334.473 102.303 333.7C102.836 332.913 103.689 332.52 104.863 332.52ZM104.883 334.56C104.563 334.56 104.329 334.76 104.183 335.16C104.036 335.56 103.963 336.173 103.963 337C103.963 337.813 104.036 338.427 104.183 338.84C104.329 339.253 104.563 339.46 104.883 339.46C105.203 339.46 105.436 339.253 105.583 338.84C105.743 338.427 105.823 337.813 105.823 337C105.823 336.173 105.743 335.56 105.583 335.16C105.436 334.76 105.203 334.56 104.883 334.56ZM115.003 332.72L107.083 347H104.743L112.663 332.72H115.003ZM114.863 338.22C115.609 338.22 116.236 338.4 116.743 338.76C117.249 339.107 117.629 339.613 117.883 340.28C118.149 340.933 118.283 341.733 118.283 342.68C118.283 344.093 118.009 345.2 117.463 346C116.916 346.787 116.049 347.18 114.863 347.18C114.129 347.18 113.509 347 113.003 346.64C112.509 346.28 112.136 345.767 111.883 345.1C111.629 344.42 111.503 343.613 111.503 342.68C111.503 341.267 111.769 340.173 112.303 339.4C112.836 338.613 113.689 338.22 114.863 338.22ZM114.883 340.26C114.563 340.26 114.329 340.46 114.183 340.86C114.036 341.26 113.963 341.873 113.963 342.7C113.963 343.513 114.036 344.127 114.183 344.54C114.329 344.953 114.563 345.16 114.883 345.16C115.203 345.16 115.436 344.96 115.583 344.56C115.743 344.147 115.823 343.527 115.823 342.7C115.823 341.873 115.743 341.26 115.583 340.86C115.436 340.46 115.203 340.26 114.883 340.26Z" fill="#011E5F"/>
<path d="M307.496 213.75L308.996 207.75C309.246 207 310.246 203.5 308.246 200.5C306.746 198.25 303.746 197 299.496 197H294.496C290.246 197 287.246 198.25 285.746 200.5C283.746 203.5 284.746 206.75 284.996 207.75L286.496 213.75C283.746 216.5 281.996 220.25 281.996 224.5C281.996 229.75 284.746 234.25 288.746 237H305.246C309.246 234.25 311.996 229.75 311.996 224.5C311.996 220.25 310.246 216.5 307.496 213.75ZM290.996 210.75L289.746 206.5V206.25C289.746 206.25 289.246 204.5 289.996 203.5C290.496 202.5 291.996 202 294.496 202H299.496C301.746 202 303.496 202.5 304.246 203.25C304.996 204.25 304.496 206 304.496 206L303.246 210.75C301.246 210 299.246 209.5 296.996 209.5C294.746 209.5 292.746 210 290.996 210.75Z" fill="#FFB02E"/>
<path d="M216.129 222.375H224.979L222.842 233.481C221.65 233.854 220.372 234.159 219.006 234.394C217.665 234.61 216.224 234.718 214.684 234.718C212.584 234.718 210.851 234.316 209.486 233.51C208.121 232.705 207.184 231.497 206.673 229.887C206.183 228.276 206.169 226.273 206.63 223.877C207.053 221.677 207.849 219.772 209.019 218.162C210.189 216.551 211.689 215.304 213.519 214.421C215.369 213.537 217.504 213.095 219.924 213.095C221.144 213.095 222.301 213.213 223.396 213.448C224.511 213.684 225.47 213.998 226.275 214.391L223.859 218.368C223.227 218.015 222.51 217.74 221.708 217.543C220.906 217.347 220.045 217.249 219.125 217.249C217.825 217.249 216.668 217.543 215.655 218.132C214.665 218.702 213.852 219.497 213.216 220.519C212.583 221.52 212.142 222.669 211.893 223.966C211.632 225.321 211.597 226.489 211.788 227.471C211.979 228.453 212.402 229.219 213.056 229.769C213.734 230.299 214.673 230.565 215.873 230.565C216.213 230.565 216.545 230.555 216.869 230.535C217.196 230.496 217.504 230.456 217.791 230.417C218.079 230.378 218.336 230.339 218.564 230.299L219.312 226.411H215.352L216.129 222.375ZM243.948 226.293C243.687 227.648 243.267 228.846 242.687 229.887C242.126 230.928 241.416 231.812 240.557 232.538C239.717 233.265 238.761 233.815 237.689 234.188C236.641 234.542 235.477 234.718 234.197 234.718C233.037 234.718 231.991 234.542 231.059 234.188C230.151 233.815 229.405 233.275 228.821 232.568C228.261 231.841 227.881 230.957 227.681 229.916C227.485 228.856 227.517 227.648 227.778 226.293C228.122 224.506 228.733 222.993 229.611 221.756C230.509 220.519 231.63 219.576 232.975 218.928C234.32 218.28 235.832 217.956 237.512 217.956C239.092 217.956 240.42 218.28 241.495 218.928C242.57 219.576 243.329 220.519 243.771 221.756C244.233 222.993 244.292 224.506 243.948 226.293ZM232.908 226.293C232.715 227.294 232.653 228.139 232.721 228.826C232.789 229.514 233.008 230.034 233.38 230.388C233.756 230.722 234.294 230.889 234.994 230.889C235.714 230.889 236.316 230.722 236.8 230.388C237.288 230.034 237.699 229.514 238.031 228.826C238.363 228.139 238.625 227.294 238.818 226.293C239.011 225.291 239.071 224.457 239 223.789C238.928 223.121 238.705 222.62 238.329 222.286C237.973 221.952 237.435 221.786 236.715 221.786C235.695 221.786 234.872 222.168 234.244 222.934C233.641 223.681 233.195 224.8 232.908 226.293ZM250.932 234.424H245.862L250.17 212.034H255.24L250.932 234.424ZM260.4 234.718C258.64 234.718 257.326 234.011 256.458 232.597C255.61 231.183 255.451 229.101 255.98 226.352C256.512 223.583 257.485 221.491 258.897 220.077C260.309 218.663 261.935 217.956 263.775 217.956C264.535 217.956 265.184 218.064 265.723 218.28C266.265 218.476 266.702 218.751 267.034 219.105C267.386 219.458 267.669 219.861 267.882 220.313H268.002C268.01 219.959 268.036 219.458 268.081 218.81C268.149 218.142 268.246 217.484 268.37 216.836L269.294 212.034H274.364L270.057 234.424H266.217L265.599 232.332H265.389C265.046 232.764 264.629 233.167 264.137 233.54C263.649 233.893 263.094 234.178 262.472 234.394C261.871 234.61 261.18 234.718 260.4 234.718ZM263.08 230.771C264.18 230.771 265.012 230.447 265.577 229.799C266.141 229.15 266.56 228.168 266.833 226.853L266.918 226.411C267.194 224.977 267.186 223.877 266.893 223.111C266.621 222.345 265.894 221.962 264.714 221.962C263.874 221.962 263.122 222.335 262.459 223.082C261.815 223.828 261.35 224.948 261.063 226.44C260.779 227.913 260.82 229.003 261.184 229.71C261.568 230.417 262.2 230.771 263.08 230.771Z" fill="black"/>
<path d="M309.896 338.817L310.596 336.017C310.713 335.667 311.179 334.033 310.246 332.633C309.546 331.583 308.146 331 306.163 331H303.829C301.846 331 300.446 331.583 299.746 332.633C298.813 334.033 299.279 335.55 299.396 336.017L300.096 338.817C298.813 340.1 297.996 341.85 297.996 343.833C297.996 346.283 299.279 348.383 301.146 349.667H308.846C310.713 348.383 311.996 346.283 311.996 343.833C311.996 341.85 311.179 340.1 309.896 338.817ZM302.196 337.417L301.613 335.433V335.317C301.613 335.317 301.379 334.5 301.729 334.033C301.963 333.567 302.663 333.333 303.829 333.333H306.163C307.213 333.333 308.029 333.567 308.379 333.917C308.729 334.383 308.496 335.2 308.496 335.2L307.913 337.417C306.979 337.067 306.046 336.833 304.996 336.833C303.946 336.833 303.013 337.067 302.196 337.417Z" fill="#D3883E"/>
<path d="M196.537 329.389C198.517 329.389 200.111 329.576 201.32 329.949C202.528 330.322 203.366 330.902 203.835 331.687C204.308 332.453 204.425 333.455 204.187 334.692C204.025 335.537 203.731 336.283 203.306 336.931C202.885 337.56 202.385 338.08 201.806 338.493C201.23 338.885 200.621 339.141 199.979 339.258L199.95 339.406C200.564 339.543 201.127 339.789 201.639 340.142C202.154 340.476 202.528 340.977 202.76 341.645C203.011 342.312 203.031 343.196 202.819 344.296C202.574 345.573 202.032 346.673 201.195 347.596C200.377 348.519 199.321 349.226 198.027 349.717C196.736 350.188 195.271 350.424 193.631 350.424H185.471L189.517 329.389H196.537ZM195.286 337.609C196.426 337.609 197.264 337.412 197.799 337.02C198.339 336.607 198.674 336.057 198.807 335.37C198.939 334.682 198.767 334.172 198.291 333.838C197.836 333.504 197.038 333.337 195.898 333.337H193.858L193.036 337.609H195.286ZM192.299 341.439L191.341 346.417H193.891C195.091 346.417 195.967 346.182 196.517 345.71C197.088 345.239 197.447 344.62 197.594 343.854C197.685 343.383 197.664 342.97 197.532 342.617C197.404 342.244 197.109 341.959 196.647 341.763C196.208 341.547 195.569 341.439 194.729 341.439H192.299ZM218.034 333.956C218.294 333.956 218.581 333.975 218.893 334.015C219.209 334.034 219.454 334.064 219.626 334.103L218.31 338.758C218.138 338.718 217.914 338.689 217.637 338.669C217.365 338.63 217.059 338.61 216.719 338.61C216.239 338.61 215.747 338.669 215.245 338.787C214.746 338.885 214.27 339.072 213.817 339.347C213.368 339.602 212.976 339.975 212.642 340.466C212.311 340.938 212.072 341.556 211.925 342.322L210.366 350.424H205.296L208.408 334.25H212.218L212.488 336.902H212.698C213.123 336.352 213.618 335.861 214.181 335.429C214.748 334.977 215.356 334.623 216.005 334.368C216.678 334.093 217.354 333.956 218.034 333.956ZM235.433 342.293C235.172 343.648 234.751 344.846 234.171 345.887C233.611 346.928 232.901 347.812 232.041 348.538C231.201 349.265 230.245 349.815 229.174 350.188C228.126 350.542 226.962 350.718 225.682 350.718C224.522 350.718 223.476 350.542 222.544 350.188C221.635 349.815 220.889 349.275 220.305 348.568C219.745 347.841 219.365 346.957 219.165 345.916C218.969 344.856 219.002 343.648 219.263 342.293C219.606 340.506 220.217 338.993 221.095 337.756C221.993 336.519 223.115 335.576 224.459 334.928C225.804 334.28 227.317 333.956 228.997 333.956C230.577 333.956 231.904 334.28 232.979 334.928C234.055 335.576 234.813 336.519 235.255 337.756C235.717 338.993 235.776 340.506 235.433 342.293ZM224.393 342.293C224.2 343.294 224.137 344.139 224.205 344.826C224.273 345.514 224.493 346.034 224.865 346.388C225.241 346.722 225.778 346.889 226.478 346.889C227.198 346.889 227.801 346.722 228.285 346.388C228.773 346.034 229.183 345.514 229.515 344.826C229.847 344.139 230.11 343.294 230.303 342.293C230.495 341.291 230.556 340.457 230.484 339.789C230.413 339.121 230.189 338.62 229.813 338.286C229.458 337.952 228.92 337.786 228.2 337.786C227.18 337.786 226.356 338.168 225.729 338.934C225.125 339.681 224.68 340.8 224.393 342.293ZM250.325 333.956C252.065 333.956 253.374 334.427 254.253 335.37C255.155 336.293 255.406 337.795 255.006 339.877L252.977 350.424H247.937L249.7 341.262C249.915 340.142 249.887 339.298 249.617 338.728C249.347 338.159 248.801 337.874 247.981 337.874C246.761 337.874 245.844 338.326 245.231 339.229C244.621 340.113 244.155 341.389 243.834 343.059L242.417 350.424H237.347L240.458 334.25H244.298L244.586 336.342H244.826C245.288 335.812 245.803 335.37 246.371 335.016C246.939 334.663 247.56 334.398 248.234 334.221C248.908 334.044 249.605 333.956 250.325 333.956ZM269.149 350.424H255.859L256.415 347.537L265.5 338.051H258.66L259.391 334.25H271.961L271.36 337.373L262.591 346.623H269.881L269.149 350.424ZM282.43 333.956C283.99 333.956 285.275 334.241 286.285 334.81C287.32 335.36 288.031 336.185 288.419 337.285C288.832 338.365 288.883 339.71 288.573 341.321L288.131 343.619H277.721C277.557 344.679 277.744 345.524 278.283 346.152C278.822 346.781 279.702 347.095 280.922 347.095C281.982 347.095 282.961 346.997 283.859 346.8C284.756 346.604 285.707 346.29 286.71 345.857L286.002 349.54C285.122 349.952 284.206 350.247 283.252 350.424C282.294 350.62 281.145 350.718 279.805 350.718C278.145 350.718 276.722 350.424 275.535 349.835C274.368 349.245 273.532 348.342 273.026 347.124C272.544 345.887 272.485 344.326 272.847 342.44C273.218 340.515 273.852 338.934 274.75 337.697C275.652 336.44 276.761 335.507 278.078 334.898C279.399 334.27 280.85 333.956 282.43 333.956ZM281.857 337.403C281.077 337.403 280.379 337.648 279.765 338.139C279.174 338.61 278.729 339.367 278.429 340.407H284.099C284.208 339.838 284.196 339.327 284.063 338.876C283.95 338.424 283.708 338.07 283.337 337.815C282.97 337.54 282.477 337.403 281.857 337.403Z" fill="black"/>
<path d="M211.904 286.326C211.673 287.524 211.164 288.614 210.375 289.596C209.589 290.558 208.542 291.324 207.233 291.893C205.927 292.443 204.364 292.718 202.544 292.718C201.704 292.718 200.933 292.669 200.232 292.571C199.531 292.473 198.868 292.335 198.242 292.159C197.639 291.962 197.057 291.717 196.493 291.422L197.372 286.856C198.357 287.347 199.378 287.759 200.434 288.093C201.509 288.427 202.567 288.594 203.607 288.594C204.267 288.594 204.812 288.515 205.243 288.358C205.697 288.182 206.04 287.956 206.273 287.681C206.53 287.386 206.694 287.052 206.766 286.679C206.853 286.227 206.766 285.844 206.507 285.53C206.271 285.196 205.881 284.882 205.338 284.587C204.799 284.273 204.137 283.92 203.352 283.527C202.765 283.252 202.196 282.938 201.644 282.584C201.115 282.211 200.647 281.789 200.237 281.317C199.852 280.826 199.573 280.247 199.402 279.579C199.254 278.892 199.269 278.087 199.446 277.164C199.7 275.848 200.221 274.748 201.011 273.864C201.825 272.961 202.847 272.273 204.078 271.802C205.309 271.331 206.694 271.095 208.234 271.095C209.494 271.095 210.628 271.232 211.635 271.507C212.642 271.782 213.604 272.136 214.521 272.568L212.147 276.486C211.266 276.074 210.427 275.759 209.628 275.543C208.853 275.308 208.076 275.19 207.296 275.19C206.756 275.19 206.291 275.268 205.901 275.425C205.514 275.563 205.205 275.769 204.972 276.044C204.743 276.299 204.594 276.604 204.526 276.957C204.447 277.37 204.517 277.733 204.736 278.047C204.96 278.342 205.341 278.646 205.881 278.961C206.42 279.275 207.137 279.658 208.03 280.11C208.999 280.581 209.811 281.092 210.465 281.641C211.119 282.191 211.574 282.839 211.831 283.586C212.091 284.312 212.115 285.226 211.904 286.326ZM219.085 292.424H214.015L218.322 270.034H223.392L219.085 292.424ZM231.601 276.25L228.489 292.424H223.449L226.561 276.25H231.601ZM230.346 269.828C231.066 269.828 231.666 269.985 232.146 270.299C232.625 270.614 232.778 271.223 232.604 272.126C232.434 273.01 232.047 273.619 231.443 273.952C230.842 274.267 230.182 274.424 229.462 274.424C228.702 274.424 228.082 274.267 227.603 273.952C227.147 273.619 227.004 273.01 227.174 272.126C227.348 271.223 227.725 270.614 228.306 270.299C228.906 269.985 229.586 269.828 230.346 269.828ZM236.963 292.424L233.804 276.25H239.084L240.282 285.619C240.3 285.835 240.309 286.1 240.309 286.414C240.332 286.709 240.334 287.013 240.313 287.327C240.317 287.622 240.294 287.897 240.245 288.152H240.365C240.417 287.877 240.492 287.592 240.589 287.298C240.706 287.003 240.82 286.718 240.933 286.443C241.07 286.149 241.201 285.884 241.326 285.648L246.194 276.25H251.444L242.063 292.424H236.963ZM260.768 275.956C262.328 275.956 263.613 276.241 264.623 276.81C265.658 277.36 266.369 278.185 266.757 279.285C267.169 280.365 267.221 281.71 266.911 283.321L266.469 285.619H256.059C255.895 286.679 256.082 287.524 256.621 288.152C257.16 288.781 258.04 289.095 259.26 289.095C260.32 289.095 261.299 288.997 262.197 288.8C263.094 288.604 264.045 288.29 265.048 287.857L264.339 291.54C263.46 291.952 262.543 292.247 261.589 292.424C260.632 292.62 259.483 292.718 258.143 292.718C256.483 292.718 255.059 292.424 253.873 291.835C252.706 291.245 251.87 290.342 251.364 289.124C250.882 287.887 250.823 286.326 251.185 284.44C251.556 282.515 252.19 280.934 253.088 279.697C253.99 278.44 255.099 277.507 256.416 276.898C257.737 276.27 259.188 275.956 260.768 275.956ZM260.195 279.403C259.415 279.403 258.717 279.648 258.103 280.139C257.512 280.61 257.067 281.367 256.766 282.407H262.436C262.546 281.838 262.534 281.327 262.401 280.876C262.288 280.424 262.046 280.07 261.675 279.815C261.308 279.54 260.815 279.403 260.195 279.403ZM281.304 275.956C281.564 275.956 281.85 275.975 282.163 276.015C282.479 276.034 282.723 276.064 282.896 276.103L281.58 280.758C281.408 280.718 281.183 280.689 280.907 280.669C280.635 280.63 280.328 280.61 279.988 280.61C279.508 280.61 279.017 280.669 278.514 280.787C278.015 280.885 277.54 281.072 277.087 281.347C276.638 281.602 276.246 281.975 275.911 282.466C275.581 282.938 275.342 283.556 275.194 284.322L273.636 292.424H268.566L271.677 276.25H275.487L275.757 278.902H275.967C276.393 278.352 276.887 277.861 277.45 277.429C278.017 276.977 278.625 276.623 279.275 276.368C279.947 276.093 280.624 275.956 281.304 275.956Z" fill="black"/>
<path d="M308.696 279.283L309.796 274.883C309.979 274.333 310.713 271.767 309.246 269.567C308.146 267.917 305.946 267 302.829 267H299.163C296.046 267 293.846 267.917 292.746 269.567C291.279 271.767 292.013 274.15 292.196 274.883L293.296 279.283C291.279 281.3 289.996 284.05 289.996 287.167C289.996 291.017 292.013 294.317 294.946 296.333H307.046C309.979 294.317 311.996 291.017 311.996 287.167C311.996 284.05 310.713 281.3 308.696 279.283ZM296.596 277.083L295.679 273.967V273.783C295.679 273.783 295.313 272.5 295.863 271.767C296.229 271.033 297.329 270.667 299.163 270.667H302.829C304.479 270.667 305.763 271.033 306.313 271.583C306.863 272.317 306.496 273.6 306.496 273.6L305.579 277.083C304.113 276.533 302.646 276.167 300.996 276.167C299.346 276.167 297.879 276.533 296.596 277.083Z" fill="#BEBEBE"/>
</svg>
