<svg width="349" height="597" viewBox="0 0 349 597" fill="none" xmlns="http://www.w3.org/2000/svg">
<path d="M7.244 578H6.164V569.432H10.952V570.38H7.244V573.416H10.724V574.364H7.244V578ZM13.2987 571.568V578H12.2427V571.568H13.2987ZM12.7827 569.156C12.9427 569.156 13.0827 569.212 13.2027 569.324C13.3307 569.428 13.3947 569.596 13.3947 569.828C13.3947 570.052 13.3307 570.22 13.2027 570.332C13.0827 570.444 12.9427 570.5 12.7827 570.5C12.6067 570.5 12.4587 570.444 12.3387 570.332C12.2187 570.22 12.1587 570.052 12.1587 569.828C12.1587 569.596 12.2187 569.428 12.3387 569.324C12.4587 569.212 12.6067 569.156 12.7827 569.156ZM17.4844 577.256C17.6444 577.256 17.8084 577.244 17.9764 577.22C18.1444 577.188 18.2804 577.156 18.3844 577.124V577.928C18.2724 577.984 18.1124 578.028 17.9044 578.06C17.6964 578.1 17.4964 578.12 17.3044 578.12C16.9684 578.12 16.6564 578.064 16.3684 577.952C16.0884 577.832 15.8604 577.628 15.6844 577.34C15.5084 577.052 15.4204 576.648 15.4204 576.128V572.384H14.5084V571.88L15.4324 571.46L15.8524 570.092H16.4764V571.568H18.3364V572.384H16.4764V576.104C16.4764 576.496 16.5684 576.788 16.7524 576.98C16.9444 577.164 17.1884 577.256 17.4844 577.256ZM19.1323 575.252V574.316H22.0363V575.252H19.1323ZM24.5955 571.568V578H23.5395V571.568H24.5955ZM24.0795 569.156C24.2395 569.156 24.3795 569.212 24.4995 569.324C24.6275 569.428 24.6915 569.596 24.6915 569.828C24.6915 570.052 24.6275 570.22 24.4995 570.332C24.3795 570.444 24.2395 570.5 24.0795 570.5C23.9035 570.5 23.7555 570.444 23.6355 570.332C23.5155 570.22 23.4555 570.052 23.4555 569.828C23.4555 569.596 23.5155 569.428 23.6355 569.324C23.7555 569.212 23.9035 569.156 24.0795 569.156ZM29.7293 568.868C28.0373 568.868 26.8133 569.912 26.8133 571.424C26.8133 572.948 28.0373 573.992 29.7293 573.992C31.4213 573.992 32.6333 572.948 32.6333 571.424C32.6333 569.912 31.4213 568.868 29.7293 568.868ZM29.7293 569.732C30.8453 569.732 31.6613 570.416 31.6613 571.424C31.6613 572.432 30.8453 573.128 29.7293 573.128C28.6013 573.128 27.7853 572.432 27.7853 571.424C27.7853 570.416 28.6013 569.732 29.7293 569.732ZM34.0493 568.076V578.948H35.0453V568.076H34.0493ZM26.4053 576.572C28.3373 576.572 30.9893 576.56 33.4253 576.092L33.3413 575.36C30.9773 575.732 28.2413 575.744 26.2613 575.744L26.4053 576.572ZM43.0455 569.636V571.4C43.0455 573.236 41.7375 575.3 40.1895 576.056L40.7655 576.848C42.4575 575.984 43.8375 573.656 43.8375 571.4V569.636H43.0455ZM43.2255 569.636V571.4C43.2255 573.548 44.5335 575.732 46.2495 576.584L46.8135 575.792C45.2415 575.048 44.0175 573.116 44.0175 571.4V569.636H43.2255ZM40.5735 569.192V570.032H46.4175V569.192H40.5735ZM47.7015 568.088V578.936H48.7095V568.088H47.7015ZM48.4695 572.468V573.308H50.4855V572.468H48.4695ZM55.8246 572.372V573.188H57.8766V572.372H55.8246ZM53.6166 570.86V571.424C53.6166 573.2 52.7766 575.108 51.3126 575.96L51.9006 576.716C53.4846 575.768 54.3846 573.584 54.3846 571.424V570.86H53.6166ZM53.7966 570.86V571.424C53.7966 573.536 54.7326 575.588 56.3286 576.476L56.8926 575.732C55.4286 574.94 54.5646 573.152 54.5646 571.424V570.86H53.7966ZM51.6126 570.08V570.908H56.5686V570.08H51.6126ZM53.6166 568.472V570.716H54.5766V568.472H53.6166ZM59.6526 568.088V578.936H60.6126V568.088H59.6526ZM57.4806 568.34V578.384H58.4166V568.34H57.4806ZM65.2077 569.192V570.068C65.2077 571.604 64.0917 573.044 62.4717 573.62L62.9877 574.412C64.7997 573.74 66.0237 572.048 66.0237 570.068V569.192H65.2077ZM65.3997 569.192V570.068C65.3997 571.88 66.5637 573.512 68.3277 574.16L68.8317 573.368C67.2597 572.816 66.2037 571.46 66.2037 570.068V569.192H65.3997ZM68.2437 570.908V571.736H70.6557V570.908H68.2437ZM62.7837 568.832V569.636H68.5797V568.832H62.7837ZM64.1277 575.168V575.984H70.3677V578.936H71.3637V575.168H64.1277ZM70.3677 568.088V574.58H71.3637V568.088H70.3677ZM81.3707 568.1V576.02H82.3787V568.1H81.3707ZM75.4067 577.88V578.696H82.7027V577.88H75.4067ZM75.4067 575.204V578.156H76.3907V575.204H75.4067ZM76.5587 568.844C74.9387 568.844 73.7267 569.948 73.7267 571.52C73.7267 573.08 74.9387 574.196 76.5587 574.196C78.1787 574.196 79.3787 573.08 79.3787 571.52C79.3787 569.948 78.1787 568.844 76.5587 568.844ZM76.5587 569.708C77.6147 569.708 78.4187 570.452 78.4187 571.52C78.4187 572.576 77.6147 573.32 76.5587 573.32C75.5027 573.32 74.6987 572.576 74.6987 571.52C74.6987 570.452 75.5027 569.708 76.5587 569.708ZM95.875 568.088V578.936H96.835V568.088H95.875ZM94.051 572.504V573.32H96.139V572.504H94.051ZM93.415 568.328V578.384H94.351V568.328H93.415ZM88.159 569.396V575.66H89.155V569.396H88.159ZM88.159 575.264V576.128H88.855C90.019 576.128 91.267 576.068 92.743 575.78L92.635 574.916C91.219 575.192 89.971 575.264 88.855 575.264H88.159ZM98.67 574.508V575.324H108.51V574.508H98.67ZM103.062 574.892V578.936H104.046V574.892H103.062ZM99.906 568.52V573.212H107.25V568.52H106.266V570.008H100.902V568.52H99.906ZM100.902 570.812H106.266V572.408H100.902V570.812ZM120.722 568.1V574.256H121.73V568.1H120.722ZM114.722 574.88V578.792H121.73V574.88H114.722ZM120.746 575.672V577.988H115.694V575.672H120.746ZM115.658 568.508V569.564C115.658 571.148 114.542 572.612 112.91 573.2L113.402 573.992C115.238 573.308 116.486 571.58 116.486 569.564V568.508H115.658ZM115.838 568.508V569.564C115.838 571.532 117.086 573.152 118.898 573.776L119.39 572.996C117.782 572.456 116.654 571.1 116.654 569.564V568.508H115.838ZM126.529 569.024V570.968C126.529 572.948 125.293 575.036 123.721 575.828L124.333 576.62C126.049 575.708 127.345 573.368 127.345 570.968V569.024H126.529ZM126.709 569.024V570.968C126.709 573.296 127.969 575.516 129.649 576.416L130.261 575.624C128.725 574.856 127.513 572.876 127.513 570.968V569.024H126.709ZM131.209 568.088V578.936H132.217V568.088H131.209ZM131.977 572.48V573.32H133.993V572.48H131.977ZM134.904 573.128V573.884H144.744V573.128H134.904ZM136.068 574.76V575.468H142.536V576.392H136.104V578.348H137.088V577.076H143.508V574.76H136.068ZM136.104 578.084V578.804H143.856V578.084H136.104ZM136.152 568.4V569.108H142.5V569.984H136.176V571.832H137.16V570.656H143.472V568.4H136.152ZM136.176 571.592V572.312H143.676V571.592H136.176ZM149.061 573.836V574.64H158.865V573.836H149.061ZM153.465 572.432V574.172H154.449V572.432H153.465ZM150.357 571.988V572.768H157.713V571.988H150.357ZM150.357 568.4V572.408H151.341V569.18H157.665V568.4H150.357ZM151.053 570.176V570.944H157.377V570.176H151.053ZM153.957 575.444C151.593 575.444 150.237 576.044 150.237 577.184C150.237 578.312 151.593 578.912 153.957 578.912C156.321 578.912 157.677 578.312 157.677 577.184C157.677 576.044 156.321 575.444 153.957 575.444ZM153.957 576.2C155.697 576.2 156.669 576.548 156.669 577.184C156.669 577.832 155.697 578.168 153.957 578.168C152.217 578.168 151.245 577.832 151.245 577.184C151.245 576.548 152.217 576.2 153.957 576.2ZM160.088 569.936V570.752H165.464V569.936H160.088ZM162.776 571.472C161.432 571.472 160.448 572.492 160.448 573.956C160.448 575.408 161.432 576.428 162.776 576.428C164.132 576.428 165.116 575.408 165.116 573.956C165.116 572.492 164.132 571.472 162.776 571.472ZM162.776 572.324C163.616 572.324 164.228 572.996 164.228 573.956C164.228 574.916 163.616 575.588 162.776 575.588C161.948 575.588 161.348 574.916 161.348 573.956C161.348 572.996 161.948 572.324 162.776 572.324ZM168.332 568.088V578.936H169.292V568.088H168.332ZM166.604 572.648V573.476H168.656V572.648H166.604ZM166.016 568.328V578.408H166.952V568.328H166.016ZM162.296 568.4V570.44H163.28V568.4H162.296ZM174.832 578V569.432H175.912V577.04H179.656V578H174.832ZM183.465 571.448C184.017 571.448 184.489 571.568 184.881 571.808C185.281 572.048 185.585 572.388 185.793 572.828C186.009 573.26 186.117 573.768 186.117 574.352V574.988H181.713C181.729 575.716 181.913 576.272 182.265 576.656C182.625 577.032 183.125 577.22 183.765 577.22C184.173 577.22 184.533 577.184 184.845 577.112C185.165 577.032 185.493 576.92 185.829 576.776V577.7C185.501 577.844 185.177 577.948 184.857 578.012C184.537 578.084 184.157 578.12 183.717 578.12C183.109 578.12 182.569 577.996 182.097 577.748C181.633 577.5 181.269 577.132 181.005 576.644C180.749 576.148 180.621 575.544 180.621 574.832C180.621 574.128 180.737 573.524 180.969 573.02C181.209 572.516 181.541 572.128 181.965 571.856C182.397 571.584 182.897 571.448 183.465 571.448ZM183.453 572.312C182.949 572.312 182.549 572.476 182.253 572.804C181.965 573.124 181.793 573.572 181.737 574.148H185.013C185.013 573.78 184.957 573.46 184.845 573.188C184.733 572.916 184.561 572.704 184.329 572.552C184.105 572.392 183.813 572.312 183.453 572.312ZM188.936 578L186.5 571.568H187.628L188.996 575.36C189.06 575.536 189.128 575.732 189.2 575.948C189.272 576.164 189.336 576.372 189.392 576.572C189.448 576.764 189.488 576.928 189.512 577.064H189.56C189.592 576.928 189.636 576.76 189.692 576.56C189.756 576.36 189.824 576.152 189.896 575.936C189.976 575.72 190.044 575.528 190.1 575.36L191.468 571.568H192.596L190.148 578H188.936ZM196.098 571.448C196.65 571.448 197.122 571.568 197.514 571.808C197.914 572.048 198.218 572.388 198.426 572.828C198.642 573.26 198.75 573.768 198.75 574.352V574.988H194.346C194.362 575.716 194.546 576.272 194.898 576.656C195.258 577.032 195.758 577.22 196.398 577.22C196.806 577.22 197.166 577.184 197.478 577.112C197.798 577.032 198.126 576.92 198.462 576.776V577.7C198.134 577.844 197.81 577.948 197.49 578.012C197.17 578.084 196.79 578.12 196.35 578.12C195.742 578.12 195.202 577.996 194.73 577.748C194.266 577.5 193.902 577.132 193.638 576.644C193.382 576.148 193.254 575.544 193.254 574.832C193.254 574.128 193.37 573.524 193.602 573.02C193.842 572.516 194.174 572.128 194.598 571.856C195.03 571.584 195.53 571.448 196.098 571.448ZM196.086 572.312C195.582 572.312 195.182 572.476 194.886 572.804C194.598 573.124 194.426 573.572 194.37 574.148H197.646C197.646 573.78 197.59 573.46 197.478 573.188C197.366 572.916 197.194 572.704 196.962 572.552C196.738 572.392 196.446 572.312 196.086 572.312ZM201.443 578H200.387V568.88H201.443V578ZM207.957 568.268C205.557 568.268 204.141 568.94 204.141 570.152C204.141 571.364 205.557 572.036 207.957 572.036C210.345 572.036 211.773 571.364 211.773 570.152C211.773 568.94 210.345 568.268 207.957 568.268ZM207.957 569.024C209.721 569.024 210.741 569.432 210.741 570.152C210.741 570.872 209.721 571.28 207.957 571.28C206.181 571.28 205.161 570.872 205.161 570.152C205.161 569.432 206.181 569.024 207.957 569.024ZM203.049 572.756V573.56H212.853V572.756H203.049ZM204.237 574.484V575.252H210.621V576.212H204.261V578.252H205.245V576.932H211.605V574.484H204.237ZM204.261 578.036V578.816H211.929V578.036H204.261ZM217.205 574.508V575.324H227.045V574.508H217.205ZM221.597 574.892V578.936H222.581V574.892H221.597ZM218.441 568.52V573.212H225.785V568.52H224.801V570.008H219.437V568.52H218.441ZM219.437 570.812H224.801V572.408H219.437V570.812ZM233.14 570.5V571.328H236.416V570.5H233.14ZM233.14 573.932V574.76H236.416V573.932H233.14ZM231.148 568.916C229.564 568.916 228.448 570.392 228.448 572.696C228.448 575.012 229.564 576.488 231.148 576.488C232.72 576.488 233.848 575.012 233.848 572.696C233.848 570.392 232.72 568.916 231.148 568.916ZM231.148 569.816C232.192 569.816 232.912 570.944 232.912 572.696C232.912 574.46 232.192 575.612 231.148 575.612C230.104 575.612 229.384 574.46 229.384 572.696C229.384 570.944 230.104 569.816 231.148 569.816ZM236.2 568.076V578.948H237.184V568.076H236.2ZM246.711 568.088V574.388H247.707V568.088H246.711ZM247.275 570.848V571.688H249.315V570.848H247.275ZM240.891 574.868V578.792H247.707V574.868H246.723V576.02H241.863V574.868H240.891ZM241.863 576.788H246.723V577.988H241.863V576.788ZM239.319 569.192V570.008H245.727V569.192H239.319ZM242.523 570.5C240.963 570.5 239.919 571.256 239.919 572.408C239.919 573.56 240.963 574.316 242.523 574.316C244.071 574.316 245.115 573.56 245.115 572.408C245.115 571.256 244.071 570.5 242.523 570.5ZM242.523 571.256C243.495 571.256 244.167 571.712 244.167 572.408C244.167 573.104 243.495 573.56 242.523 573.56C241.527 573.56 240.867 573.104 240.867 572.408C240.867 571.712 241.527 571.256 242.523 571.256ZM242.019 567.98V569.636H243.015V567.98H242.019ZM258.218 568.088V578.936H259.214V568.088H258.218ZM251.018 569.144V575.864H252.002V569.144H251.018ZM251.018 575.276V576.14H251.906C253.622 576.14 255.338 576.008 257.222 575.624L257.102 574.772C255.266 575.156 253.55 575.276 251.906 575.276H251.018ZM268.705 568.076V578.948H269.713V568.076H268.705ZM269.473 572.36V573.2H271.489V572.36H269.473ZM261.829 575.408V576.248H262.681C264.721 576.248 266.149 576.188 267.817 575.876L267.709 575.036C266.089 575.336 264.685 575.408 262.681 575.408H261.829ZM261.829 569.132V575.78H262.813V569.948H266.869V569.132H261.829ZM272.677 577.352C272.677 577.056 272.749 576.848 272.893 576.728C273.037 576.608 273.209 576.548 273.409 576.548C273.617 576.548 273.793 576.608 273.937 576.728C274.089 576.848 274.165 577.056 274.165 577.352C274.165 577.64 274.089 577.848 273.937 577.976C273.793 578.104 273.617 578.168 273.409 578.168C273.209 578.168 273.037 578.104 272.893 577.976C272.749 577.848 272.677 577.64 272.677 577.352ZM6.632 585.168V585.996H13.616V585.168H6.632ZM5.6 592.596V593.424H15.404V592.596H5.6ZM9.404 588.72V593.004H10.4V588.72H9.404ZM13.244 585.168V586.248C13.244 587.544 13.244 589.068 12.836 591.144L13.832 591.276C14.228 589.08 14.228 587.592 14.228 586.248V585.168H13.244ZM24.8231 584.088V590.484H25.7711V584.088H24.8231ZM23.0951 586.812V587.64H25.1471V586.812H23.0951ZM22.4591 584.292V590.424H23.3951V584.292H22.4591ZM18.4871 591V591.816H24.7871V594.936H25.7711V591H18.4871ZM20.3471 584.892V585.228C20.3471 587.256 19.0991 588.876 16.6871 589.86L17.1791 590.592C19.9151 589.44 21.3551 587.484 21.3551 584.892H20.3471ZM17.1191 584.892V585.708H20.7071V584.892H17.1191ZM35.5621 584.088V590.232H36.5581V584.088H35.5621ZM28.3501 584.712V589.128H29.3341V584.712H28.3501ZM28.3501 588.576V589.416H29.2261C31.0981 589.416 32.7301 589.296 34.5301 588.912L34.3861 588.096C32.6581 588.456 31.0381 588.576 29.2261 588.576H28.3501ZM29.5501 590.76V594.792H36.5581V590.76H29.5501ZM35.5861 591.552V593.976H30.5221V591.552H35.5861ZM38.7172 588.612V589.428H48.5212V588.612H38.7172ZM40.0132 586.932V587.736H47.3572V586.932H40.0132ZM40.0132 584.436V587.58H40.9972V585.252H47.2372V584.436H40.0132ZM39.8932 590.364V591.144H46.2772V592.176H39.9172V594.288H40.9012V592.92H47.2612V590.364H39.8932ZM39.9172 594.024V594.816H47.5852V594.024H39.9172ZM49.7443 589.788V590.604H59.5483V589.788H49.7443ZM51.0163 593.88V594.696H58.4683V593.88H51.0163ZM51.0163 591.552V594.132H52.0123V591.552H51.0163ZM54.6523 584.448C52.3242 584.448 50.8363 585.264 50.8363 586.62C50.8363 587.964 52.3242 588.78 54.6523 588.78C56.9683 588.78 58.4683 587.964 58.4683 586.62C58.4683 585.264 56.9683 584.448 54.6523 584.448ZM54.6523 585.264C56.3563 585.264 57.4483 585.768 57.4483 586.62C57.4483 587.472 56.3563 587.976 54.6523 587.976C52.9483 587.976 51.8563 587.472 51.8563 586.62C51.8563 585.768 52.9483 585.264 54.6523 585.264ZM67.7045 585.372V585.528C67.7045 588.096 66.8765 590.388 63.9605 591.972L64.5245 592.692C67.8005 590.856 68.6405 588.18 68.6405 585.372H67.7045ZM64.4885 585.372V586.188H68.0765V585.372H64.4885ZM67.5845 587.88L63.9485 588.12L64.1045 588.984L67.5845 588.624V587.88ZM67.8005 588.372V589.176H70.2965V588.372H67.8005ZM72.1685 584.088V594.936H73.1285V584.088H72.1685ZM69.9245 584.364V594.384H70.8605V584.364H69.9245ZM76.2356 587.568V588.288H83.5916V587.568H76.2356ZM76.2356 584.364V587.904H77.2196V585.084H83.5436V584.364H76.2356ZM76.9316 585.948V586.644H83.2556V585.948H76.9316ZM74.9516 589.092V589.86H84.7436V589.092H74.9516ZM76.1276 590.688V591.42H82.5116V592.356H76.1516V594.408H77.1356V593.064H83.4956V590.688H76.1276ZM76.1516 594.084V594.816H83.8196V594.084H76.1516ZM94.1746 584.1V589.788H95.1226V584.1H94.1746ZM92.0506 584.316V589.716H92.9986V584.316H92.0506ZM90.3826 586.548V587.352H92.4346V586.548H90.3826ZM87.9706 590.316V591.108H94.1506V592.14H87.9946V594.504H88.9906V592.884H95.1226V590.316H87.9706ZM87.9946 594.024V594.816H95.5426V594.024H87.9946ZM86.4706 584.712V589.284H90.6706V584.712H89.7226V586.14H87.4066V584.712H86.4706ZM87.4066 586.908H89.7226V588.504H87.4066V586.908ZM102.415 584.736V586.188C102.415 587.424 101.563 588.852 100.147 589.488L100.687 590.268C102.283 589.536 103.207 587.82 103.207 586.188V584.736H102.415ZM102.571 584.736V586.188C102.571 587.808 103.459 589.332 105.031 589.992L105.559 589.224C104.167 588.66 103.363 587.424 103.363 586.188V584.736H102.571ZM108.331 584.1V590.652H109.279V584.1H108.331ZM106.579 586.908V587.736H108.631V586.908H106.579ZM106.003 584.28V590.592H106.951V584.28H106.003ZM102.007 591.24V592.056H108.295V594.936H109.279V591.24H102.007ZM113.814 584.652V585.756C113.814 587.412 112.758 588.876 111.126 589.476L111.654 590.28C113.466 589.572 114.642 587.844 114.642 585.756V584.652H113.814ZM113.994 584.652V585.828C113.994 587.712 115.182 589.32 116.922 589.968L117.45 589.188C115.89 588.648 114.81 587.292 114.81 585.828V584.652H113.994ZM118.602 584.088V590.664H119.598V584.088H118.602ZM119.322 586.884V587.724H121.206V586.884H119.322ZM116.142 590.964C113.922 590.964 112.578 591.696 112.578 592.944C112.578 594.192 113.922 594.912 116.142 594.912C118.362 594.912 119.706 594.192 119.706 592.944C119.706 591.696 118.362 590.964 116.142 590.964ZM116.142 591.756C117.75 591.756 118.734 592.188 118.734 592.944C118.734 593.7 117.75 594.132 116.142 594.132C114.534 594.132 113.55 593.7 113.55 592.944C113.55 592.188 114.534 591.756 116.142 591.756ZM127.121 584.268C124.721 584.268 123.305 584.94 123.305 586.152C123.305 587.364 124.721 588.036 127.121 588.036C129.509 588.036 130.937 587.364 130.937 586.152C130.937 584.94 129.509 584.268 127.121 584.268ZM127.121 585.024C128.885 585.024 129.905 585.432 129.905 586.152C129.905 586.872 128.885 587.28 127.121 587.28C125.345 587.28 124.325 586.872 124.325 586.152C124.325 585.432 125.345 585.024 127.121 585.024ZM122.213 588.756V589.56H132.017V588.756H122.213ZM123.401 590.484V591.252H129.785V592.212H123.425V594.252H124.409V592.932H130.769V590.484H123.401ZM123.425 594.036V594.816H131.093V594.036H123.425ZM136.369 589.836V590.64H146.173V589.836H136.369ZM140.773 588.432V590.172H141.757V588.432H140.773ZM137.665 587.988V588.768H145.021V587.988H137.665ZM137.665 584.4V588.408H138.649V585.18H144.973V584.4H137.665ZM138.361 586.176V586.944H144.685V586.176H138.361ZM141.265 591.444C138.901 591.444 137.545 592.044 137.545 593.184C137.545 594.312 138.901 594.912 141.265 594.912C143.629 594.912 144.985 594.312 144.985 593.184C144.985 592.044 143.629 591.444 141.265 591.444ZM141.265 592.2C143.005 592.2 143.977 592.548 143.977 593.184C143.977 593.832 143.005 594.168 141.265 594.168C139.525 594.168 138.553 593.832 138.553 593.184C138.553 592.548 139.525 592.2 141.265 592.2ZM147.396 585.936V586.752H152.772V585.936H147.396ZM150.084 587.472C148.74 587.472 147.756 588.492 147.756 589.956C147.756 591.408 148.74 592.428 150.084 592.428C151.44 592.428 152.424 591.408 152.424 589.956C152.424 588.492 151.44 587.472 150.084 587.472ZM150.084 588.324C150.924 588.324 151.536 588.996 151.536 589.956C151.536 590.916 150.924 591.588 150.084 591.588C149.256 591.588 148.656 590.916 148.656 589.956C148.656 588.996 149.256 588.324 150.084 588.324ZM155.64 584.088V594.936H156.6V584.088H155.64ZM153.912 588.648V589.476H155.964V588.648H153.912ZM153.324 584.328V594.408H154.26V584.328H153.324ZM149.604 584.4V586.44H150.588V584.4H149.604ZM162.837 589.932V590.736H170.289V589.932H162.837ZM161.577 592.716V593.544H171.405V592.716H161.577ZM162.837 585.012V590.184H163.845V585.828H170.169V585.012H162.837ZM163.521 587.436V588.228H169.941V587.436H163.521ZM172.964 591.444V592.272H173.684C175.052 592.272 176.276 592.224 177.8 591.96L177.716 591.144C176.228 591.396 175.004 591.444 173.684 591.444H172.964ZM172.94 585.276V586.092H175.856V588.252H172.964V591.78H173.936V589.056H176.816V585.276H172.94ZM180.86 584.088V594.936H181.82V584.088H180.86ZM177.332 587.976V588.804H179.084V587.976H177.332ZM178.676 584.352V594.372H179.6V584.352H178.676ZM191.527 584.076V594.948H192.523V584.076H191.527ZM186.799 584.916C185.203 584.916 184.051 586.392 184.051 588.696C184.051 591.012 185.203 592.488 186.799 592.488C188.407 592.488 189.559 591.012 189.559 588.696C189.559 586.392 188.407 584.916 186.799 584.916ZM186.799 585.816C187.867 585.816 188.599 586.944 188.599 588.696C188.599 590.46 187.867 591.612 186.799 591.612C185.743 591.612 184.999 590.46 184.999 588.696C184.999 586.944 185.743 585.816 186.799 585.816ZM202.638 584.088V594.96H203.634V584.088H202.638ZM199.302 587.664V588.48H202.962V587.664H199.302ZM195.282 585.3V592.02H196.266V585.3H195.282ZM195.282 591.492V592.332H196.122C197.838 592.332 199.362 592.224 201.09 591.888L200.97 591.048C199.302 591.396 197.802 591.492 196.122 591.492H195.282ZM217.106 584.088V594.936H218.066V584.088H217.106ZM215.39 588.384V589.2H217.466V588.384H215.39ZM214.706 584.316V594.396H215.654V584.316H214.706ZM209.234 585.336V592.032H213.374V585.336H209.234ZM212.438 586.128V591.24H210.17V586.128H212.438ZM222.829 585.876V586.344C222.829 587.82 221.713 589.14 220.093 589.668L220.573 590.436C222.409 589.836 223.645 588.252 223.645 586.344V585.876H222.829ZM222.997 585.876V586.344C222.997 588.156 224.269 589.632 226.117 590.184L226.573 589.392C224.965 588.936 223.813 587.712 223.813 586.344V585.876H222.997ZM220.357 585.42V586.224H226.261V585.42H220.357ZM222.829 584.088V585.768H223.813V584.088H222.829ZM227.773 584.1V590.736H228.781V584.1H227.773ZM225.169 590.964C222.901 590.964 221.533 591.684 221.533 592.932C221.533 594.192 222.901 594.912 225.169 594.912C227.437 594.912 228.817 594.192 228.817 592.932C228.817 591.684 227.437 590.964 225.169 590.964ZM225.169 591.756C226.825 591.756 227.821 592.188 227.821 592.932C227.821 593.7 226.825 594.132 225.169 594.132C223.525 594.132 222.529 593.7 222.529 592.932C222.529 592.188 223.525 591.756 225.169 591.756ZM235.824 584.268C233.424 584.268 232.008 584.94 232.008 586.152C232.008 587.364 233.424 588.036 235.824 588.036C238.212 588.036 239.64 587.364 239.64 586.152C239.64 584.94 238.212 584.268 235.824 584.268ZM235.824 585.024C237.588 585.024 238.608 585.432 238.608 586.152C238.608 586.872 237.588 587.28 235.824 587.28C234.048 587.28 233.028 586.872 233.028 586.152C233.028 585.432 234.048 585.024 235.824 585.024ZM230.916 588.756V589.56H240.72V588.756H230.916ZM232.104 590.484V591.252H238.488V592.212H232.128V594.252H233.112V592.932H239.472V590.484H232.104ZM232.128 594.036V594.816H239.796V594.036H232.128ZM247.484 589.668V592.92H248.468V589.668H247.484ZM251.492 589.668V592.92H252.488V589.668H251.492ZM245.084 592.728V593.556H254.912V592.728H245.084ZM249.98 584.772C247.676 584.772 246.032 585.864 246.032 587.568C246.032 589.26 247.676 590.352 249.98 590.352C252.272 590.352 253.916 589.26 253.916 587.568C253.916 585.864 252.272 584.772 249.98 584.772ZM249.98 585.564C251.72 585.564 252.956 586.356 252.956 587.568C252.956 588.768 251.72 589.56 249.98 589.56C248.24 589.56 246.992 588.768 246.992 587.568C246.992 586.356 248.24 585.564 249.98 585.564ZM258.823 585.936V586.404C258.823 587.868 257.743 589.188 256.147 589.704L256.627 590.484C258.439 589.872 259.639 588.288 259.639 586.404V585.936H258.823ZM259.003 585.936V586.404C259.003 588.18 260.251 589.644 262.075 590.208L262.531 589.428C260.935 588.96 259.819 587.748 259.819 586.404V585.936H259.003ZM256.423 585.396V586.2H262.207V585.396H256.423ZM258.823 584.04V585.684H259.819V584.04H258.823ZM261.883 587.172V588H264.331V587.172H261.883ZM264.043 584.088V590.652H265.039V584.088H264.043ZM261.475 590.94C259.219 590.94 257.851 591.672 257.851 592.932C257.851 594.18 259.219 594.912 261.475 594.912C263.719 594.912 265.087 594.18 265.087 592.932C265.087 591.672 263.719 590.94 261.475 590.94ZM261.475 591.72C263.107 591.72 264.103 592.164 264.103 592.932C264.103 593.688 263.107 594.132 261.475 594.132C259.831 594.132 258.847 593.688 258.847 592.932C258.847 592.164 259.831 591.72 261.475 591.72ZM274.579 584.052V590.04H275.575V584.052H274.579ZM275.155 586.656V587.496H277.183V586.656H275.155ZM268.687 590.592V591.348H274.603V592.296H268.711V594.336H269.695V593.016H275.575V590.592H268.687ZM268.711 594.048V594.816H275.971V594.048H268.711ZM267.187 585.06V585.84H273.595V585.06H267.187ZM270.391 586.32C268.807 586.32 267.787 587.004 267.787 588.108C267.787 589.2 268.807 589.872 270.391 589.872C271.951 589.872 272.983 589.2 272.983 588.108C272.983 587.004 271.951 586.32 270.391 586.32ZM270.391 587.052C271.387 587.052 272.035 587.46 272.035 588.108C272.035 588.744 271.387 589.152 270.391 589.152C269.383 589.152 268.735 588.744 268.735 588.108C268.735 587.46 269.383 587.052 270.391 587.052ZM269.887 583.968V585.6H270.883V583.968H269.887ZM285.699 584.472V585.072C285.699 586.62 283.791 587.916 281.811 588.216L282.207 589.02C284.463 588.636 286.575 587.148 286.575 585.072V584.472H285.699ZM285.879 584.472V585.072C285.879 587.124 288.003 588.636 290.235 589.02L290.631 588.216C288.675 587.916 286.743 586.584 286.743 585.072V584.472H285.879ZM285.699 590.808V594.936H286.683V590.808H285.699ZM281.319 590.196V591.024H291.123V590.196H281.319ZM298.175 590.76V591.348C298.175 592.392 297.359 593.556 295.991 594.048L296.495 594.792C298.055 594.192 298.943 592.764 298.943 591.348V590.76H298.175ZM298.391 590.76V591.348C298.391 592.788 299.099 594.276 300.659 594.888L301.079 594.132C299.783 593.604 299.135 592.44 299.135 591.348V590.76H298.391ZM302.183 590.76V591.348C302.183 592.284 301.523 593.544 300.239 594.132L300.659 594.888C302.207 594.228 302.927 592.62 302.927 591.348V590.76H302.183ZM302.387 590.76V591.348C302.387 592.848 303.251 594.216 304.835 594.792L305.339 594.048C303.959 593.58 303.155 592.464 303.155 591.348V590.76H302.387ZM303.359 584.1V590.292H304.367V584.1H303.359ZM298.547 584.724C296.903 584.724 295.715 585.756 295.715 587.256C295.715 588.756 296.903 589.776 298.547 589.776C300.191 589.776 301.367 588.756 301.367 587.256C301.367 585.756 300.191 584.724 298.547 584.724ZM298.547 585.552C299.627 585.552 300.407 586.248 300.407 587.256C300.407 588.264 299.627 588.948 298.547 588.948C297.467 588.948 296.687 588.264 296.687 587.256C296.687 586.248 297.467 585.552 298.547 585.552ZM307.75 590.592V594.792H315.034V590.592H314.038V591.852H308.734V590.592H307.75ZM308.734 592.62H314.038V593.988H308.734V592.62ZM306.502 589.032V589.836H316.306V589.032H306.502ZM310.906 584.208V584.688C310.906 586.056 309.022 587.22 307.066 587.484L307.426 588.264C309.658 587.928 311.758 586.572 311.758 584.688V584.208H310.906ZM311.062 584.208V584.688C311.062 586.548 313.174 587.928 315.382 588.264L315.754 587.484C313.822 587.22 311.914 586.032 311.914 584.688V584.208H311.062ZM325.437 584.088V594.936H326.433V584.088H325.437ZM318.237 585.144V591.864H319.221V585.144H318.237ZM318.237 591.276V592.14H319.125C320.841 592.14 322.557 592.008 324.441 591.624L324.321 590.772C322.485 591.156 320.769 591.276 319.125 591.276H318.237ZM335.924 584.076V594.948H336.932V584.076H335.924ZM336.692 588.36V589.2H338.708V588.36H336.692ZM329.048 591.408V592.248H329.9C331.94 592.248 333.368 592.188 335.036 591.876L334.928 591.036C333.308 591.336 331.904 591.408 329.9 591.408H329.048ZM329.048 585.132V591.78H330.032V585.948H334.088V585.132H329.048ZM339.895 593.352C339.895 593.056 339.967 592.848 340.111 592.728C340.255 592.608 340.427 592.548 340.627 592.548C340.835 592.548 341.011 592.608 341.155 592.728C341.307 592.848 341.383 593.056 341.383 593.352C341.383 593.64 341.307 593.848 341.155 593.976C341.011 594.104 340.835 594.168 340.627 594.168C340.427 594.168 340.255 594.104 340.111 593.976C339.967 593.848 339.895 593.64 339.895 593.352Z" fill="#011E5F"/>
<rect width="349" height="395" rx="8" fill="#F8F8F8"/>
<path d="M140.56 77H134.6V48.44H150.96V53.4H140.56V60.76H150.24V65.72H140.56V77ZM166.833 55.16V77H160.873V55.16H166.833ZM163.873 46.6C164.753 46.6 165.513 46.8133 166.153 47.24C166.793 47.64 167.113 48.4 167.113 49.52C167.113 50.6133 166.793 51.3733 166.153 51.8C165.513 52.2267 164.753 52.44 163.873 52.44C162.966 52.44 162.193 52.2267 161.553 51.8C160.94 51.3733 160.633 50.6133 160.633 49.52C160.633 48.4 160.94 47.64 161.553 47.24C162.193 46.8133 162.966 46.6 163.873 46.6ZM187.061 72.64C187.727 72.64 188.367 72.5733 188.981 72.44C189.594 72.3067 190.207 72.1467 190.821 71.96V76.4C190.181 76.6667 189.381 76.8933 188.421 77.08C187.487 77.2933 186.461 77.4 185.341 77.4C184.034 77.4 182.861 77.1867 181.821 76.76C180.807 76.3333 179.994 75.6 179.381 74.56C178.794 73.4933 178.501 72.0267 178.501 70.16V59.64H175.661V57.12L178.941 55.12L180.661 50.52H184.461V55.16H190.581V59.64H184.461V70.16C184.461 70.9867 184.701 71.6133 185.181 72.04C185.661 72.44 186.287 72.64 187.061 72.64ZM198.084 68.72V63.84H208.564V68.72H198.084ZM223.655 55.16V77H217.695V55.16H223.655ZM220.695 46.6C221.575 46.6 222.335 46.8133 222.975 47.24C223.615 47.64 223.935 48.4 223.935 49.52C223.935 50.6133 223.615 51.3733 222.975 51.8C222.335 52.2267 221.575 52.44 220.695 52.44C219.788 52.44 219.015 52.2267 218.375 51.8C217.762 51.3733 217.455 50.6133 217.455 49.52C217.455 48.4 217.762 47.64 218.375 47.24C219.015 46.8133 219.788 46.6 220.695 46.6Z" fill="#011E5F"/>
<path d="M130.357 46.463C128.488 44.9204 119.359 38.8206 125.168 39.4351C126.022 39.5254 136.149 40.254 135.998 41.2502C135.994 41.2764 122.675 44.1579 121.106 45.2529C120.061 45.9826 127.036 41.2651 128.552 39.0627C129.875 37.1425 131.753 31.3923 132.783 33.431C134.495 36.8222 127.703 49.623 127.311 48.9764" stroke="#FF4E4E" stroke-linecap="round"/>
<path d="M50.44 114.96H61.76V129.76C60.2667 130.267 58.7067 130.667 57.08 130.96C55.48 131.253 53.6533 131.4 51.6 131.4C48.7733 131.4 46.36 130.84 44.36 129.72C42.3867 128.6 40.88 126.947 39.84 124.76C38.8267 122.573 38.32 119.88 38.32 116.68C38.32 113.693 38.8933 111.107 40.04 108.92C41.2133 106.733 42.9067 105.04 45.12 103.84C47.3333 102.64 50.04 102.04 53.24 102.04C54.76 102.04 56.2533 102.2 57.72 102.52C59.1867 102.84 60.52 103.267 61.72 103.8L59.72 108.64C58.84 108.187 57.84 107.813 56.72 107.52C55.6 107.227 54.4267 107.08 53.2 107.08C51.44 107.08 49.9067 107.48 48.6 108.28C47.32 109.08 46.32 110.213 45.6 111.68C44.9067 113.12 44.56 114.827 44.56 116.8C44.56 118.667 44.8133 120.32 45.32 121.76C45.8267 123.2 46.6267 124.333 47.72 125.16C48.8133 125.96 50.24 126.36 52 126.36C52.5867 126.36 53.0933 126.347 53.52 126.32C53.9733 126.267 54.3867 126.213 54.76 126.16C55.1333 126.08 55.4933 126.013 55.84 125.96V120H50.44V114.96ZM84.2653 108.76C84.5586 108.76 84.9053 108.773 85.3053 108.8C85.7053 108.827 86.0253 108.867 86.2653 108.92L85.8253 114.52C85.6386 114.467 85.3586 114.427 84.9853 114.4C84.6386 114.347 84.332 114.32 84.0653 114.32C83.292 114.32 82.5453 114.427 81.8253 114.64C81.1053 114.827 80.452 115.133 79.8653 115.56C79.3053 115.987 78.852 116.56 78.5053 117.28C78.1853 117.973 78.0253 118.84 78.0253 119.88V131H72.0653V109.16H76.5853L77.4653 112.84H77.7453C78.172 112.093 78.7053 111.413 79.3453 110.8C79.9853 110.187 80.7186 109.693 81.5453 109.32C82.3986 108.947 83.3053 108.76 84.2653 108.76ZM102.408 108.72C105.341 108.72 107.581 109.36 109.128 110.64C110.701 111.893 111.488 113.827 111.488 116.44V131H107.328L106.168 128.04H106.008C105.395 128.813 104.755 129.453 104.088 129.96C103.448 130.467 102.701 130.827 101.848 131.04C101.021 131.28 99.9948 131.4 98.7681 131.4C97.4881 131.4 96.3281 131.16 95.2881 130.68C94.2748 130.173 93.4748 129.413 92.8881 128.4C92.3015 127.36 92.0081 126.053 92.0081 124.48C92.0081 122.16 92.8215 120.453 94.4481 119.36C96.0748 118.24 98.5148 117.627 101.768 117.52L105.568 117.4V116.44C105.568 115.293 105.261 114.453 104.648 113.92C104.061 113.387 103.235 113.12 102.168 113.12C101.101 113.12 100.061 113.28 99.0481 113.6C98.0348 113.893 97.0215 114.267 96.0081 114.72L94.0481 110.68C95.2215 110.067 96.5148 109.587 97.9281 109.24C99.3681 108.893 100.861 108.72 102.408 108.72ZM103.248 120.96C101.328 121.013 99.9948 121.36 99.2481 122C98.5015 122.64 98.1281 123.48 98.1281 124.52C98.1281 125.427 98.3948 126.08 98.9281 126.48C99.4615 126.853 100.155 127.04 101.008 127.04C102.288 127.04 103.368 126.667 104.248 125.92C105.128 125.147 105.568 124.067 105.568 122.68V120.88L103.248 120.96ZM128.509 131.4C126.082 131.4 124.095 130.453 122.549 128.56C121.029 126.64 120.269 123.827 120.269 120.12C120.269 116.387 121.042 113.56 122.589 111.64C124.135 109.72 126.162 108.76 128.669 108.76C129.709 108.76 130.629 108.907 131.429 109.2C132.229 109.467 132.909 109.84 133.469 110.32C134.055 110.8 134.549 111.347 134.949 111.96H135.149C135.069 111.533 134.975 110.92 134.869 110.12C134.762 109.293 134.709 108.453 134.709 107.6V100.6H140.669V131H136.109L134.949 128.16H134.709C134.335 128.747 133.855 129.293 133.269 129.8C132.709 130.28 132.042 130.667 131.269 130.96C130.495 131.253 129.575 131.4 128.509 131.4ZM130.589 126.64C132.242 126.64 133.402 126.16 134.069 125.2C134.735 124.213 135.082 122.747 135.109 120.8V120.16C135.109 118.027 134.775 116.4 134.109 115.28C133.469 114.16 132.269 113.6 130.509 113.6C129.202 113.6 128.175 114.173 127.429 115.32C126.682 116.44 126.309 118.067 126.309 120.2C126.309 122.333 126.682 123.947 127.429 125.04C128.175 126.107 129.229 126.64 130.589 126.64ZM159.901 108.76C161.928 108.76 163.661 109.147 165.101 109.92C166.568 110.693 167.701 111.813 168.501 113.28C169.301 114.747 169.701 116.547 169.701 118.68V121.56H155.621C155.675 123.24 156.168 124.56 157.101 125.52C158.061 126.48 159.381 126.96 161.061 126.96C162.475 126.96 163.755 126.827 164.901 126.56C166.048 126.267 167.235 125.827 168.461 125.24V129.84C167.395 130.373 166.261 130.76 165.061 131C163.888 131.267 162.461 131.4 160.781 131.4C158.595 131.4 156.661 131 154.981 130.2C153.301 129.373 151.981 128.133 151.021 126.48C150.061 124.827 149.581 122.747 149.581 120.24C149.581 117.68 150.008 115.56 150.861 113.88C151.741 112.173 152.955 110.893 154.501 110.04C156.048 109.187 157.848 108.76 159.901 108.76ZM159.941 113C158.795 113 157.835 113.373 157.061 114.12C156.315 114.867 155.875 116.027 155.741 117.6H164.101C164.101 116.72 163.941 115.933 163.621 115.24C163.328 114.547 162.875 114 162.261 113.6C161.648 113.2 160.875 113 159.941 113ZM204.405 131H198.365V107.48H190.605V102.44H212.165V107.48H204.405V131ZM225.846 108.72C228.779 108.72 231.019 109.36 232.566 110.64C234.139 111.893 234.926 113.827 234.926 116.44V131H230.766L229.606 128.04H229.446C228.832 128.813 228.192 129.453 227.526 129.96C226.886 130.467 226.139 130.827 225.286 131.04C224.459 131.28 223.432 131.4 222.206 131.4C220.926 131.4 219.766 131.16 218.726 130.68C217.712 130.173 216.912 129.413 216.326 128.4C215.739 127.36 215.446 126.053 215.446 124.48C215.446 122.16 216.259 120.453 217.886 119.36C219.512 118.24 221.952 117.627 225.206 117.52L229.006 117.4V116.44C229.006 115.293 228.699 114.453 228.086 113.92C227.499 113.387 226.672 113.12 225.606 113.12C224.539 113.12 223.499 113.28 222.486 113.6C221.472 113.893 220.459 114.267 219.446 114.72L217.486 110.68C218.659 110.067 219.952 109.587 221.366 109.24C222.806 108.893 224.299 108.72 225.846 108.72ZM226.686 120.96C224.766 121.013 223.432 121.36 222.686 122C221.939 122.64 221.566 123.48 221.566 124.52C221.566 125.427 221.832 126.08 222.366 126.48C222.899 126.853 223.592 127.04 224.446 127.04C225.726 127.04 226.806 126.667 227.686 125.92C228.566 125.147 229.006 124.067 229.006 122.68V120.88L226.686 120.96ZM250.986 107.68C250.986 108.507 250.96 109.32 250.906 110.12C250.853 110.92 250.8 111.547 250.746 112H250.986C251.573 111.093 252.36 110.333 253.346 109.72C254.333 109.08 255.613 108.76 257.186 108.76C259.64 108.76 261.626 109.72 263.146 111.64C264.666 113.533 265.426 116.333 265.426 120.04C265.426 122.52 265.066 124.613 264.346 126.32C263.653 128 262.68 129.267 261.426 130.12C260.173 130.973 258.706 131.4 257.026 131.4C255.426 131.4 254.16 131.12 253.226 130.56C252.32 129.973 251.573 129.32 250.986 128.6H250.586L249.586 131H245.026V100.6H250.986V107.68ZM255.266 113.52C254.226 113.52 253.4 113.733 252.786 114.16C252.173 114.587 251.72 115.24 251.426 116.12C251.16 116.973 251.013 118.053 250.986 119.36V120C250.986 122.107 251.293 123.733 251.906 124.88C252.546 126 253.693 126.56 255.346 126.56C256.573 126.56 257.546 126 258.266 124.88C258.986 123.733 259.346 122.093 259.346 119.96C259.346 117.827 258.973 116.227 258.226 115.16C257.506 114.067 256.52 113.52 255.266 113.52ZM280.299 131H274.339V100.6H280.299V131ZM299.526 108.76C301.553 108.76 303.286 109.147 304.726 109.92C306.193 110.693 307.326 111.813 308.126 113.28C308.926 114.747 309.326 116.547 309.326 118.68V121.56H295.246C295.3 123.24 295.793 124.56 296.726 125.52C297.686 126.48 299.006 126.96 300.686 126.96C302.1 126.96 303.38 126.827 304.526 126.56C305.673 126.267 306.86 125.827 308.086 125.24V129.84C307.02 130.373 305.886 130.76 304.686 131C303.513 131.267 302.086 131.4 300.406 131.4C298.22 131.4 296.286 131 294.606 130.2C292.926 129.373 291.606 128.133 290.646 126.48C289.686 124.827 289.206 122.747 289.206 120.24C289.206 117.68 289.633 115.56 290.486 113.88C291.366 112.173 292.58 110.893 294.126 110.04C295.673 109.187 297.473 108.76 299.526 108.76ZM299.566 113C298.42 113 297.46 113.373 296.686 114.12C295.94 114.867 295.5 116.027 295.366 117.6H303.726C303.726 116.72 303.566 115.933 303.246 115.24C302.953 114.547 302.5 114 301.886 113.6C301.273 113.2 300.5 113 299.566 113Z" fill="#011E5F"/>
<path d="M40.86 215.26V216.9C40.86 219.42 39.6 221.9 36.5 222.94L37.92 225.04C41.44 223.82 43.04 220.58 43.04 216.9V215.26H40.86ZM41.4 215.26V217.16C41.4 220.5 42.98 223.38 46.32 224.5L47.7 222.44C44.8 221.54 43.56 219.38 43.56 217.16V215.26H41.4ZM48.72 214.26V225.2H51.38V214.26H48.72ZM50.64 218.54V220.74H53.84V218.54H50.64ZM45.34 225.62C41.48 225.62 39.06 226.96 39.06 229.2C39.06 231.46 41.48 232.78 45.34 232.78C49.18 232.78 51.6 231.46 51.6 229.2C51.6 226.96 49.18 225.62 45.34 225.62ZM45.34 227.68C47.7 227.68 48.96 228.18 48.96 229.2C48.96 230.24 47.7 230.72 45.34 230.72C42.98 230.72 41.7 230.24 41.7 229.2C41.7 228.18 42.98 227.68 45.34 227.68ZM61.1984 215C58.3984 215 56.3584 216.62 56.3584 218.96C56.3584 221.26 58.3984 222.92 61.1984 222.92C64.0184 222.92 66.0584 221.26 66.0584 218.96C66.0584 216.62 64.0184 215 61.1984 215ZM61.1984 217.16C62.5584 217.16 63.5184 217.8 63.5184 218.96C63.5184 220.1 62.5584 220.74 61.1984 220.74C59.8584 220.74 58.8984 220.1 58.8984 218.96C58.8984 217.8 59.8584 217.16 61.1984 217.16ZM59.9584 224.76V232.22H62.6184V224.76H59.9584ZM68.0584 214.26V232.78H70.6984V214.26H68.0584ZM55.5784 226.16C58.7784 226.14 63.1584 226.1 67.1784 225.3L66.9984 223.36C63.0784 223.96 58.4984 224 55.2584 224L55.5784 226.16ZM83.9922 221.88C84.8589 221.88 85.6322 222.047 86.3122 222.38C86.9922 222.713 87.5255 223.2 87.9122 223.84C88.3122 224.48 88.5122 225.273 88.5122 226.22C88.5122 227.247 88.2989 228.133 87.8722 228.88C87.4455 229.627 86.8055 230.2 85.9522 230.6C85.1122 231 84.0655 231.2 82.8122 231.2C82.0655 231.2 81.3589 231.133 80.6922 231C80.0389 230.867 79.4655 230.673 78.9722 230.42V227.82C79.4655 228.073 80.0589 228.293 80.7522 228.48C81.4455 228.653 82.0989 228.74 82.7122 228.74C83.3122 228.74 83.8122 228.66 84.2122 228.5C84.6255 228.34 84.9389 228.093 85.1522 227.76C85.3655 227.427 85.4722 227 85.4722 226.48C85.4722 225.773 85.2389 225.24 84.7722 224.88C84.3055 224.507 83.5855 224.32 82.6122 224.32C82.2389 224.32 81.8522 224.36 81.4522 224.44C81.0522 224.507 80.7189 224.573 80.4522 224.64L79.2522 224L79.7922 216.72H87.5322V219.28H82.4322L82.1722 222.08C82.3989 222.04 82.6389 222 82.8922 221.96C83.1589 221.907 83.5255 221.88 83.9922 221.88ZM93.4175 216.52C94.5375 216.52 95.3842 216.913 95.9575 217.7C96.5442 218.473 96.8375 219.567 96.8375 220.98C96.8375 222.393 96.5642 223.5 96.0175 224.3C95.4708 225.087 94.6042 225.48 93.4175 225.48C92.6842 225.48 92.0642 225.3 91.5575 224.94C91.0642 224.58 90.6908 224.067 90.4375 223.4C90.1842 222.72 90.0575 221.913 90.0575 220.98C90.0575 219.567 90.3242 218.473 90.8575 217.7C91.3908 216.913 92.2442 216.52 93.4175 216.52ZM93.4375 218.56C93.1175 218.56 92.8842 218.76 92.7375 219.16C92.5908 219.56 92.5175 220.173 92.5175 221C92.5175 221.813 92.5908 222.427 92.7375 222.84C92.8842 223.253 93.1175 223.46 93.4375 223.46C93.7575 223.46 93.9908 223.253 94.1375 222.84C94.2975 222.427 94.3775 221.813 94.3775 221C94.3775 220.173 94.2975 219.56 94.1375 219.16C93.9908 218.76 93.7575 218.56 93.4375 218.56ZM103.558 216.72L95.6375 231H93.2975L101.218 216.72H103.558ZM103.418 222.22C104.164 222.22 104.791 222.4 105.298 222.76C105.804 223.107 106.184 223.613 106.438 224.28C106.704 224.933 106.838 225.733 106.838 226.68C106.838 228.093 106.564 229.2 106.018 230C105.471 230.787 104.604 231.18 103.418 231.18C102.684 231.18 102.064 231 101.558 230.64C101.064 230.28 100.691 229.767 100.438 229.1C100.184 228.42 100.058 227.613 100.058 226.68C100.058 225.267 100.324 224.173 100.858 223.4C101.391 222.613 102.244 222.22 103.418 222.22ZM103.438 224.26C103.118 224.26 102.884 224.46 102.738 224.86C102.591 225.26 102.518 225.873 102.518 226.7C102.518 227.513 102.591 228.127 102.738 228.54C102.884 228.953 103.118 229.16 103.438 229.16C103.758 229.16 103.991 228.96 104.138 228.56C104.298 228.147 104.378 227.527 104.378 226.7C104.378 225.873 104.298 225.26 104.138 224.86C103.991 224.46 103.758 224.26 103.438 224.26Z" fill="#011E5F"/>
<path d="M40.86 272.26V273.9C40.86 276.42 39.6 278.9 36.5 279.94L37.92 282.04C41.44 280.82 43.04 277.58 43.04 273.9V272.26H40.86ZM41.4 272.26V274.16C41.4 277.5 42.98 280.38 46.32 281.5L47.7 279.44C44.8 278.54 43.56 276.38 43.56 274.16V272.26H41.4ZM48.72 271.26V282.2H51.38V271.26H48.72ZM50.64 275.54V277.74H53.84V275.54H50.64ZM45.34 282.62C41.48 282.62 39.06 283.96 39.06 286.2C39.06 288.46 41.48 289.78 45.34 289.78C49.18 289.78 51.6 288.46 51.6 286.2C51.6 283.96 49.18 282.62 45.34 282.62ZM45.34 284.68C47.7 284.68 48.96 285.18 48.96 286.2C48.96 287.24 47.7 287.72 45.34 287.72C42.98 287.72 41.7 287.24 41.7 286.2C41.7 285.18 42.98 284.68 45.34 284.68ZM61.1984 272C58.3984 272 56.3584 273.62 56.3584 275.96C56.3584 278.26 58.3984 279.92 61.1984 279.92C64.0184 279.92 66.0584 278.26 66.0584 275.96C66.0584 273.62 64.0184 272 61.1984 272ZM61.1984 274.16C62.5584 274.16 63.5184 274.8 63.5184 275.96C63.5184 277.1 62.5584 277.74 61.1984 277.74C59.8584 277.74 58.8984 277.1 58.8984 275.96C58.8984 274.8 59.8584 274.16 61.1984 274.16ZM59.9584 281.76V289.22H62.6184V281.76H59.9584ZM68.0584 271.26V289.78H70.6984V271.26H68.0584ZM55.5784 283.16C58.7784 283.14 63.1584 283.1 67.1784 282.3L66.9984 280.36C63.0784 280.96 58.4984 281 55.2584 281L55.5784 283.16ZM88.7722 288H78.7922V285.9L82.3722 282.28C83.0922 281.533 83.6722 280.913 84.1122 280.42C84.5522 279.913 84.8722 279.46 85.0722 279.06C85.2722 278.647 85.3722 278.207 85.3722 277.74C85.3722 277.167 85.2122 276.74 84.8922 276.46C84.5855 276.18 84.1655 276.04 83.6322 276.04C83.0855 276.04 82.5522 276.167 82.0322 276.42C81.5122 276.673 80.9655 277.033 80.3922 277.5L78.7522 275.56C79.1655 275.2 79.5989 274.867 80.0522 274.56C80.5189 274.253 81.0522 274.007 81.6522 273.82C82.2655 273.62 82.9989 273.52 83.8522 273.52C84.7855 273.52 85.5855 273.693 86.2522 274.04C86.9322 274.373 87.4522 274.833 87.8122 275.42C88.1855 275.993 88.3722 276.647 88.3722 277.38C88.3722 277.98 88.2789 278.533 88.0922 279.04C87.9189 279.547 87.6589 280.04 87.3122 280.52C86.9789 280.987 86.5655 281.473 86.0722 281.98C85.5789 282.473 85.0189 283.013 84.3922 283.6L82.5522 285.32V285.46H88.7722V288ZM100.138 280.86C100.138 282.007 100.044 283.033 99.8575 283.94C99.6842 284.847 99.3975 285.62 98.9975 286.26C98.6108 286.887 98.0975 287.367 97.4575 287.7C96.8308 288.033 96.0575 288.2 95.1375 288.2C93.9908 288.2 93.0508 287.907 92.3175 287.32C91.5842 286.733 91.0375 285.893 90.6775 284.8C90.3308 283.707 90.1575 282.393 90.1575 280.86C90.1575 279.313 90.3175 277.993 90.6375 276.9C90.9575 275.807 91.4842 274.967 92.2175 274.38C92.9508 273.793 93.9242 273.5 95.1375 273.5C96.2842 273.5 97.2242 273.793 97.9575 274.38C98.6908 274.953 99.2375 275.793 99.5975 276.9C99.9575 277.993 100.138 279.313 100.138 280.86ZM93.1575 280.86C93.1575 281.94 93.2175 282.847 93.3375 283.58C93.4575 284.3 93.6575 284.847 93.9375 285.22C94.2308 285.58 94.6308 285.76 95.1375 285.76C95.6442 285.76 96.0375 285.58 96.3175 285.22C96.6108 284.86 96.8175 284.32 96.9375 283.6C97.0708 282.867 97.1375 281.953 97.1375 280.86C97.1375 279.767 97.0708 278.86 96.9375 278.14C96.8175 277.407 96.6108 276.86 96.3175 276.5C96.0375 276.127 95.6442 275.94 95.1375 275.94C94.6308 275.94 94.2308 276.127 93.9375 276.5C93.6575 276.86 93.4575 277.407 93.3375 278.14C93.2175 278.86 93.1575 279.767 93.1575 280.86ZM104.863 273.52C105.983 273.52 106.829 273.913 107.403 274.7C107.989 275.473 108.283 276.567 108.283 277.98C108.283 279.393 108.009 280.5 107.463 281.3C106.916 282.087 106.049 282.48 104.863 282.48C104.129 282.48 103.509 282.3 103.003 281.94C102.509 281.58 102.136 281.067 101.883 280.4C101.629 279.72 101.503 278.913 101.503 277.98C101.503 276.567 101.769 275.473 102.303 274.7C102.836 273.913 103.689 273.52 104.863 273.52ZM104.883 275.56C104.563 275.56 104.329 275.76 104.183 276.16C104.036 276.56 103.963 277.173 103.963 278C103.963 278.813 104.036 279.427 104.183 279.84C104.329 280.253 104.563 280.46 104.883 280.46C105.203 280.46 105.436 280.253 105.583 279.84C105.743 279.427 105.823 278.813 105.823 278C105.823 277.173 105.743 276.56 105.583 276.16C105.436 275.76 105.203 275.56 104.883 275.56ZM115.003 273.72L107.083 288H104.743L112.663 273.72H115.003ZM114.863 279.22C115.609 279.22 116.236 279.4 116.743 279.76C117.249 280.107 117.629 280.613 117.883 281.28C118.149 281.933 118.283 282.733 118.283 283.68C118.283 285.093 118.009 286.2 117.463 287C116.916 287.787 116.049 288.18 114.863 288.18C114.129 288.18 113.509 288 113.003 287.64C112.509 287.28 112.136 286.767 111.883 286.1C111.629 285.42 111.503 284.613 111.503 283.68C111.503 282.267 111.769 281.173 112.303 280.4C112.836 279.613 113.689 279.22 114.863 279.22ZM114.883 281.26C114.563 281.26 114.329 281.46 114.183 281.86C114.036 282.26 113.963 282.873 113.963 283.7C113.963 284.513 114.036 285.127 114.183 285.54C114.329 285.953 114.563 286.16 114.883 286.16C115.203 286.16 115.436 285.96 115.583 285.56C115.743 285.147 115.823 284.527 115.823 283.7C115.823 282.873 115.743 282.26 115.583 281.86C115.436 281.46 115.203 281.26 114.883 281.26Z" fill="#011E5F"/>
<path d="M40.86 331.26V332.9C40.86 335.42 39.6 337.9 36.5 338.94L37.92 341.04C41.44 339.82 43.04 336.58 43.04 332.9V331.26H40.86ZM41.4 331.26V333.16C41.4 336.5 42.98 339.38 46.32 340.5L47.7 338.44C44.8 337.54 43.56 335.38 43.56 333.16V331.26H41.4ZM48.72 330.26V341.2H51.38V330.26H48.72ZM50.64 334.54V336.74H53.84V334.54H50.64ZM45.34 341.62C41.48 341.62 39.06 342.96 39.06 345.2C39.06 347.46 41.48 348.78 45.34 348.78C49.18 348.78 51.6 347.46 51.6 345.2C51.6 342.96 49.18 341.62 45.34 341.62ZM45.34 343.68C47.7 343.68 48.96 344.18 48.96 345.2C48.96 346.24 47.7 346.72 45.34 346.72C42.98 346.72 41.7 346.24 41.7 345.2C41.7 344.18 42.98 343.68 45.34 343.68ZM61.1984 331C58.3984 331 56.3584 332.62 56.3584 334.96C56.3584 337.26 58.3984 338.92 61.1984 338.92C64.0184 338.92 66.0584 337.26 66.0584 334.96C66.0584 332.62 64.0184 331 61.1984 331ZM61.1984 333.16C62.5584 333.16 63.5184 333.8 63.5184 334.96C63.5184 336.1 62.5584 336.74 61.1984 336.74C59.8584 336.74 58.8984 336.1 58.8984 334.96C58.8984 333.8 59.8584 333.16 61.1984 333.16ZM59.9584 340.76V348.22H62.6184V340.76H59.9584ZM68.0584 330.26V348.78H70.6984V330.26H68.0584ZM55.5784 342.16C58.7784 342.14 63.1584 342.1 67.1784 341.3L66.9984 339.36C63.0784 339.96 58.4984 340 55.2584 340L55.5784 342.16ZM89.0922 344.04H87.3722V347H84.4322V344.04H78.3322V341.94L84.5922 332.72H87.3722V341.7H89.0922V344.04ZM84.4322 339.28C84.4322 339.053 84.4322 338.787 84.4322 338.48C84.4455 338.16 84.4589 337.847 84.4722 337.54C84.4855 337.22 84.4989 336.94 84.5122 336.7C84.5255 336.447 84.5389 336.273 84.5522 336.18H84.4722C84.3522 336.447 84.2255 336.707 84.0922 336.96C83.9589 337.213 83.7989 337.473 83.6122 337.74L80.9922 341.7H84.4322V339.28ZM100.138 339.86C100.138 341.007 100.044 342.033 99.8575 342.94C99.6842 343.847 99.3975 344.62 98.9975 345.26C98.6108 345.887 98.0975 346.367 97.4575 346.7C96.8308 347.033 96.0575 347.2 95.1375 347.2C93.9908 347.2 93.0508 346.907 92.3175 346.32C91.5842 345.733 91.0375 344.893 90.6775 343.8C90.3308 342.707 90.1575 341.393 90.1575 339.86C90.1575 338.313 90.3175 336.993 90.6375 335.9C90.9575 334.807 91.4842 333.967 92.2175 333.38C92.9508 332.793 93.9242 332.5 95.1375 332.5C96.2842 332.5 97.2242 332.793 97.9575 333.38C98.6908 333.953 99.2375 334.793 99.5975 335.9C99.9575 336.993 100.138 338.313 100.138 339.86ZM93.1575 339.86C93.1575 340.94 93.2175 341.847 93.3375 342.58C93.4575 343.3 93.6575 343.847 93.9375 344.22C94.2308 344.58 94.6308 344.76 95.1375 344.76C95.6442 344.76 96.0375 344.58 96.3175 344.22C96.6108 343.86 96.8175 343.32 96.9375 342.6C97.0708 341.867 97.1375 340.953 97.1375 339.86C97.1375 338.767 97.0708 337.86 96.9375 337.14C96.8175 336.407 96.6108 335.86 96.3175 335.5C96.0375 335.127 95.6442 334.94 95.1375 334.94C94.6308 334.94 94.2308 335.127 93.9375 335.5C93.6575 335.86 93.4575 336.407 93.3375 337.14C93.2175 337.86 93.1575 338.767 93.1575 339.86ZM104.863 332.52C105.983 332.52 106.829 332.913 107.403 333.7C107.989 334.473 108.283 335.567 108.283 336.98C108.283 338.393 108.009 339.5 107.463 340.3C106.916 341.087 106.049 341.48 104.863 341.48C104.129 341.48 103.509 341.3 103.003 340.94C102.509 340.58 102.136 340.067 101.883 339.4C101.629 338.72 101.503 337.913 101.503 336.98C101.503 335.567 101.769 334.473 102.303 333.7C102.836 332.913 103.689 332.52 104.863 332.52ZM104.883 334.56C104.563 334.56 104.329 334.76 104.183 335.16C104.036 335.56 103.963 336.173 103.963 337C103.963 337.813 104.036 338.427 104.183 338.84C104.329 339.253 104.563 339.46 104.883 339.46C105.203 339.46 105.436 339.253 105.583 338.84C105.743 338.427 105.823 337.813 105.823 337C105.823 336.173 105.743 335.56 105.583 335.16C105.436 334.76 105.203 334.56 104.883 334.56ZM115.003 332.72L107.083 347H104.743L112.663 332.72H115.003ZM114.863 338.22C115.609 338.22 116.236 338.4 116.743 338.76C117.249 339.107 117.629 339.613 117.883 340.28C118.149 340.933 118.283 341.733 118.283 342.68C118.283 344.093 118.009 345.2 117.463 346C116.916 346.787 116.049 347.18 114.863 347.18C114.129 347.18 113.509 347 113.003 346.64C112.509 346.28 112.136 345.767 111.883 345.1C111.629 344.42 111.503 343.613 111.503 342.68C111.503 341.267 111.769 340.173 112.303 339.4C112.836 338.613 113.689 338.22 114.863 338.22ZM114.883 340.26C114.563 340.26 114.329 340.46 114.183 340.86C114.036 341.26 113.963 341.873 113.963 342.7C113.963 343.513 114.036 344.127 114.183 344.54C114.329 344.953 114.563 345.16 114.883 345.16C115.203 345.16 115.436 344.96 115.583 344.56C115.743 344.147 115.823 343.527 115.823 342.7C115.823 341.873 115.743 341.26 115.583 340.86C115.436 340.46 115.203 340.26 114.883 340.26Z" fill="#011E5F"/>
<path d="M307.496 213.75L308.996 207.75C309.246 207 310.246 203.5 308.246 200.5C306.746 198.25 303.746 197 299.496 197H294.496C290.246 197 287.246 198.25 285.746 200.5C283.746 203.5 284.746 206.75 284.996 207.75L286.496 213.75C283.746 216.5 281.996 220.25 281.996 224.5C281.996 229.75 284.746 234.25 288.746 237H305.246C309.246 234.25 311.996 229.75 311.996 224.5C311.996 220.25 310.246 216.5 307.496 213.75ZM290.996 210.75L289.746 206.5V206.25C289.746 206.25 289.246 204.5 289.996 203.5C290.496 202.5 291.996 202 294.496 202H299.496C301.746 202 303.496 202.5 304.246 203.25C304.996 204.25 304.496 206 304.496 206L303.246 210.75C301.246 210 299.246 209.5 296.996 209.5C294.746 209.5 292.746 210 290.996 210.75Z" fill="#FFB02E"/>
<path d="M216.129 222.375H224.979L222.842 233.481C221.65 233.854 220.372 234.159 219.006 234.394C217.665 234.61 216.224 234.718 214.684 234.718C212.584 234.718 210.851 234.316 209.486 233.51C208.121 232.705 207.184 231.497 206.673 229.887C206.183 228.276 206.169 226.273 206.63 223.877C207.053 221.677 207.849 219.772 209.019 218.162C210.189 216.551 211.689 215.304 213.519 214.421C215.369 213.537 217.504 213.095 219.924 213.095C221.144 213.095 222.301 213.213 223.396 213.448C224.511 213.684 225.47 213.998 226.275 214.391L223.859 218.368C223.227 218.015 222.51 217.74 221.708 217.543C220.906 217.347 220.045 217.249 219.125 217.249C217.825 217.249 216.668 217.543 215.655 218.132C214.665 218.702 213.852 219.497 213.216 220.519C212.583 221.52 212.142 222.669 211.893 223.966C211.632 225.321 211.597 226.489 211.788 227.471C211.979 228.453 212.402 229.219 213.056 229.769C213.734 230.299 214.673 230.565 215.873 230.565C216.213 230.565 216.545 230.555 216.869 230.535C217.196 230.496 217.504 230.456 217.791 230.417C218.079 230.378 218.336 230.339 218.564 230.299L219.312 226.411H215.352L216.129 222.375ZM243.948 226.293C243.687 227.648 243.267 228.846 242.687 229.887C242.126 230.928 241.416 231.812 240.557 232.538C239.717 233.265 238.761 233.815 237.689 234.188C236.641 234.542 235.477 234.718 234.197 234.718C233.037 234.718 231.991 234.542 231.059 234.188C230.151 233.815 229.405 233.275 228.821 232.568C228.261 231.841 227.881 230.957 227.681 229.916C227.485 228.856 227.517 227.648 227.778 226.293C228.122 224.506 228.733 222.993 229.611 221.756C230.509 220.519 231.63 219.576 232.975 218.928C234.32 218.28 235.832 217.956 237.512 217.956C239.092 217.956 240.42 218.28 241.495 218.928C242.57 219.576 243.329 220.519 243.771 221.756C244.233 222.993 244.292 224.506 243.948 226.293ZM232.908 226.293C232.715 227.294 232.653 228.139 232.721 228.826C232.789 229.514 233.008 230.034 233.38 230.388C233.756 230.722 234.294 230.889 234.994 230.889C235.714 230.889 236.316 230.722 236.8 230.388C237.288 230.034 237.699 229.514 238.031 228.826C238.363 228.139 238.625 227.294 238.818 226.293C239.011 225.291 239.071 224.457 239 223.789C238.928 223.121 238.705 222.62 238.329 222.286C237.973 221.952 237.435 221.786 236.715 221.786C235.695 221.786 234.872 222.168 234.244 222.934C233.641 223.681 233.195 224.8 232.908 226.293ZM250.932 234.424H245.862L250.17 212.034H255.24L250.932 234.424ZM260.4 234.718C258.64 234.718 257.326 234.011 256.458 232.597C255.61 231.183 255.451 229.101 255.98 226.352C256.512 223.583 257.485 221.491 258.897 220.077C260.309 218.663 261.935 217.956 263.775 217.956C264.535 217.956 265.184 218.064 265.723 218.28C266.265 218.476 266.702 218.751 267.034 219.105C267.386 219.458 267.669 219.861 267.882 220.313H268.002C268.01 219.959 268.036 219.458 268.081 218.81C268.149 218.142 268.246 217.484 268.37 216.836L269.294 212.034H274.364L270.057 234.424H266.217L265.599 232.332H265.389C265.046 232.764 264.629 233.167 264.137 233.54C263.649 233.893 263.094 234.178 262.472 234.394C261.871 234.61 261.18 234.718 260.4 234.718ZM263.08 230.771C264.18 230.771 265.012 230.447 265.577 229.799C266.141 229.15 266.56 228.168 266.833 226.853L266.918 226.411C267.194 224.977 267.186 223.877 266.893 223.111C266.621 222.345 265.894 221.962 264.714 221.962C263.874 221.962 263.122 222.335 262.459 223.082C261.815 223.828 261.35 224.948 261.063 226.44C260.779 227.913 260.82 229.003 261.184 229.71C261.568 230.417 262.2 230.771 263.08 230.771Z" fill="black"/>
<path d="M309.896 338.817L310.596 336.017C310.713 335.667 311.179 334.033 310.246 332.633C309.546 331.583 308.146 331 306.163 331H303.829C301.846 331 300.446 331.583 299.746 332.633C298.813 334.033 299.279 335.55 299.396 336.017L300.096 338.817C298.813 340.1 297.996 341.85 297.996 343.833C297.996 346.283 299.279 348.383 301.146 349.667H308.846C310.713 348.383 311.996 346.283 311.996 343.833C311.996 341.85 311.179 340.1 309.896 338.817ZM302.196 337.417L301.613 335.433V335.317C301.613 335.317 301.379 334.5 301.729 334.033C301.963 333.567 302.663 333.333 303.829 333.333H306.163C307.213 333.333 308.029 333.567 308.379 333.917C308.729 334.383 308.496 335.2 308.496 335.2L307.913 337.417C306.979 337.067 306.046 336.833 304.996 336.833C303.946 336.833 303.013 337.067 302.196 337.417Z" fill="#D3883E"/>
<path d="M196.537 329.389C198.517 329.389 200.111 329.576 201.32 329.949C202.528 330.322 203.366 330.902 203.835 331.687C204.308 332.453 204.425 333.455 204.187 334.692C204.025 335.537 203.731 336.283 203.306 336.931C202.885 337.56 202.385 338.08 201.806 338.493C201.23 338.885 200.621 339.141 199.979 339.258L199.95 339.406C200.564 339.543 201.127 339.789 201.639 340.142C202.154 340.476 202.528 340.977 202.76 341.645C203.011 342.312 203.031 343.196 202.819 344.296C202.574 345.573 202.032 346.673 201.195 347.596C200.377 348.519 199.321 349.226 198.027 349.717C196.736 350.188 195.271 350.424 193.631 350.424H185.471L189.517 329.389H196.537ZM195.286 337.609C196.426 337.609 197.264 337.412 197.799 337.02C198.339 336.607 198.674 336.057 198.807 335.37C198.939 334.682 198.767 334.172 198.291 333.838C197.836 333.504 197.038 333.337 195.898 333.337H193.858L193.036 337.609H195.286ZM192.299 341.439L191.341 346.417H193.891C195.091 346.417 195.967 346.182 196.517 345.71C197.088 345.239 197.447 344.62 197.594 343.854C197.685 343.383 197.664 342.97 197.532 342.617C197.404 342.244 197.109 341.959 196.647 341.763C196.208 341.547 195.569 341.439 194.729 341.439H192.299ZM218.034 333.956C218.294 333.956 218.581 333.975 218.893 334.015C219.209 334.034 219.454 334.064 219.626 334.103L218.31 338.758C218.138 338.718 217.914 338.689 217.637 338.669C217.365 338.63 217.059 338.61 216.719 338.61C216.239 338.61 215.747 338.669 215.245 338.787C214.746 338.885 214.27 339.072 213.817 339.347C213.368 339.602 212.976 339.975 212.642 340.466C212.311 340.938 212.072 341.556 211.925 342.322L210.366 350.424H205.296L208.408 334.25H212.218L212.488 336.902H212.698C213.123 336.352 213.618 335.861 214.181 335.429C214.748 334.977 215.356 334.623 216.005 334.368C216.678 334.093 217.354 333.956 218.034 333.956ZM235.433 342.293C235.172 343.648 234.751 344.846 234.171 345.887C233.611 346.928 232.901 347.812 232.041 348.538C231.201 349.265 230.245 349.815 229.174 350.188C228.126 350.542 226.962 350.718 225.682 350.718C224.522 350.718 223.476 350.542 222.544 350.188C221.635 349.815 220.889 349.275 220.305 348.568C219.745 347.841 219.365 346.957 219.165 345.916C218.969 344.856 219.002 343.648 219.263 342.293C219.606 340.506 220.217 338.993 221.095 337.756C221.993 336.519 223.115 335.576 224.459 334.928C225.804 334.28 227.317 333.956 228.997 333.956C230.577 333.956 231.904 334.28 232.979 334.928C234.055 335.576 234.813 336.519 235.255 337.756C235.717 338.993 235.776 340.506 235.433 342.293ZM224.393 342.293C224.2 343.294 224.137 344.139 224.205 344.826C224.273 345.514 224.493 346.034 224.865 346.388C225.241 346.722 225.778 346.889 226.478 346.889C227.198 346.889 227.801 346.722 228.285 346.388C228.773 346.034 229.183 345.514 229.515 344.826C229.847 344.139 230.11 343.294 230.303 342.293C230.495 341.291 230.556 340.457 230.484 339.789C230.413 339.121 230.189 338.62 229.813 338.286C229.458 337.952 228.92 337.786 228.2 337.786C227.18 337.786 226.356 338.168 225.729 338.934C225.125 339.681 224.68 340.8 224.393 342.293ZM250.325 333.956C252.065 333.956 253.374 334.427 254.253 335.37C255.155 336.293 255.406 337.795 255.006 339.877L252.977 350.424H247.937L249.7 341.262C249.915 340.142 249.887 339.298 249.617 338.728C249.347 338.159 248.801 337.874 247.981 337.874C246.761 337.874 245.844 338.326 245.231 339.229C244.621 340.113 244.155 341.389 243.834 343.059L242.417 350.424H237.347L240.458 334.25H244.298L244.586 336.342H244.826C245.288 335.812 245.803 335.37 246.371 335.016C246.939 334.663 247.56 334.398 248.234 334.221C248.908 334.044 249.605 333.956 250.325 333.956ZM269.149 350.424H255.859L256.415 347.537L265.5 338.051H258.66L259.391 334.25H271.961L271.36 337.373L262.591 346.623H269.881L269.149 350.424ZM282.43 333.956C283.99 333.956 285.275 334.241 286.285 334.81C287.32 335.36 288.031 336.185 288.419 337.285C288.832 338.365 288.883 339.71 288.573 341.321L288.131 343.619H277.721C277.557 344.679 277.744 345.524 278.283 346.152C278.822 346.781 279.702 347.095 280.922 347.095C281.982 347.095 282.961 346.997 283.859 346.8C284.756 346.604 285.707 346.29 286.71 345.857L286.002 349.54C285.122 349.952 284.206 350.247 283.252 350.424C282.294 350.62 281.145 350.718 279.805 350.718C278.145 350.718 276.722 350.424 275.535 349.835C274.368 349.245 273.532 348.342 273.026 347.124C272.544 345.887 272.485 344.326 272.847 342.44C273.218 340.515 273.852 338.934 274.75 337.697C275.652 336.44 276.761 335.507 278.078 334.898C279.399 334.27 280.85 333.956 282.43 333.956ZM281.857 337.403C281.077 337.403 280.379 337.648 279.765 338.139C279.174 338.61 278.729 339.367 278.429 340.407H284.099C284.208 339.838 284.196 339.327 284.063 338.876C283.95 338.424 283.708 338.07 283.337 337.815C282.97 337.54 282.477 337.403 281.857 337.403Z" fill="black"/>
<path d="M211.904 286.326C211.673 287.524 211.164 288.614 210.375 289.596C209.589 290.558 208.542 291.324 207.233 291.893C205.927 292.443 204.364 292.718 202.544 292.718C201.704 292.718 200.933 292.669 200.232 292.571C199.531 292.473 198.868 292.335 198.242 292.159C197.639 291.962 197.057 291.717 196.493 291.422L197.372 286.856C198.357 287.347 199.378 287.759 200.434 288.093C201.509 288.427 202.567 288.594 203.607 288.594C204.267 288.594 204.812 288.515 205.243 288.358C205.697 288.182 206.04 287.956 206.273 287.681C206.53 287.386 206.694 287.052 206.766 286.679C206.853 286.227 206.766 285.844 206.507 285.53C206.271 285.196 205.881 284.882 205.338 284.587C204.799 284.273 204.137 283.92 203.352 283.527C202.765 283.252 202.196 282.938 201.644 282.584C201.115 282.211 200.647 281.789 200.237 281.317C199.852 280.826 199.573 280.247 199.402 279.579C199.254 278.892 199.269 278.087 199.446 277.164C199.7 275.848 200.221 274.748 201.011 273.864C201.825 272.961 202.847 272.273 204.078 271.802C205.309 271.331 206.694 271.095 208.234 271.095C209.494 271.095 210.628 271.232 211.635 271.507C212.642 271.782 213.604 272.136 214.521 272.568L212.147 276.486C211.266 276.074 210.427 275.759 209.628 275.543C208.853 275.308 208.076 275.19 207.296 275.19C206.756 275.19 206.291 275.268 205.901 275.425C205.514 275.563 205.205 275.769 204.972 276.044C204.743 276.299 204.594 276.604 204.526 276.957C204.447 277.37 204.517 277.733 204.736 278.047C204.96 278.342 205.341 278.646 205.881 278.961C206.42 279.275 207.137 279.658 208.03 280.11C208.999 280.581 209.811 281.092 210.465 281.641C211.119 282.191 211.574 282.839 211.831 283.586C212.091 284.312 212.115 285.226 211.904 286.326ZM219.085 292.424H214.015L218.322 270.034H223.392L219.085 292.424ZM231.601 276.25L228.489 292.424H223.449L226.561 276.25H231.601ZM230.346 269.828C231.066 269.828 231.666 269.985 232.146 270.299C232.625 270.614 232.778 271.223 232.604 272.126C232.434 273.01 232.047 273.619 231.443 273.952C230.842 274.267 230.182 274.424 229.462 274.424C228.702 274.424 228.082 274.267 227.603 273.952C227.147 273.619 227.004 273.01 227.174 272.126C227.348 271.223 227.725 270.614 228.306 270.299C228.906 269.985 229.586 269.828 230.346 269.828ZM236.963 292.424L233.804 276.25H239.084L240.282 285.619C240.3 285.835 240.309 286.1 240.309 286.414C240.332 286.709 240.334 287.013 240.313 287.327C240.317 287.622 240.294 287.897 240.245 288.152H240.365C240.417 287.877 240.492 287.592 240.589 287.298C240.706 287.003 240.82 286.718 240.933 286.443C241.07 286.149 241.201 285.884 241.326 285.648L246.194 276.25H251.444L242.063 292.424H236.963ZM260.768 275.956C262.328 275.956 263.613 276.241 264.623 276.81C265.658 277.36 266.369 278.185 266.757 279.285C267.169 280.365 267.221 281.71 266.911 283.321L266.469 285.619H256.059C255.895 286.679 256.082 287.524 256.621 288.152C257.16 288.781 258.04 289.095 259.26 289.095C260.32 289.095 261.299 288.997 262.197 288.8C263.094 288.604 264.045 288.29 265.048 287.857L264.339 291.54C263.46 291.952 262.543 292.247 261.589 292.424C260.632 292.62 259.483 292.718 258.143 292.718C256.483 292.718 255.059 292.424 253.873 291.835C252.706 291.245 251.87 290.342 251.364 289.124C250.882 287.887 250.823 286.326 251.185 284.44C251.556 282.515 252.19 280.934 253.088 279.697C253.99 278.44 255.099 277.507 256.416 276.898C257.737 276.27 259.188 275.956 260.768 275.956ZM260.195 279.403C259.415 279.403 258.717 279.648 258.103 280.139C257.512 280.61 257.067 281.367 256.766 282.407H262.436C262.546 281.838 262.534 281.327 262.401 280.876C262.288 280.424 262.046 280.07 261.675 279.815C261.308 279.54 260.815 279.403 260.195 279.403ZM281.304 275.956C281.564 275.956 281.85 275.975 282.163 276.015C282.479 276.034 282.723 276.064 282.896 276.103L281.58 280.758C281.408 280.718 281.183 280.689 280.907 280.669C280.635 280.63 280.328 280.61 279.988 280.61C279.508 280.61 279.017 280.669 278.514 280.787C278.015 280.885 277.54 281.072 277.087 281.347C276.638 281.602 276.246 281.975 275.911 282.466C275.581 282.938 275.342 283.556 275.194 284.322L273.636 292.424H268.566L271.677 276.25H275.487L275.757 278.902H275.967C276.393 278.352 276.887 277.861 277.45 277.429C278.017 276.977 278.625 276.623 279.275 276.368C279.947 276.093 280.624 275.956 281.304 275.956Z" fill="black"/>
<path d="M308.696 279.283L309.796 274.883C309.979 274.333 310.713 271.767 309.246 269.567C308.146 267.917 305.946 267 302.829 267H299.163C296.046 267 293.846 267.917 292.746 269.567C291.279 271.767 292.013 274.15 292.196 274.883L293.296 279.283C291.279 281.3 289.996 284.05 289.996 287.167C289.996 291.017 292.013 294.317 294.946 296.333H307.046C309.979 294.317 311.996 291.017 311.996 287.167C311.996 284.05 310.713 281.3 308.696 279.283ZM296.596 277.083L295.679 273.967V273.783C295.679 273.783 295.313 272.5 295.863 271.767C296.229 271.033 297.329 270.667 299.163 270.667H302.829C304.479 270.667 305.763 271.033 306.313 271.583C306.863 272.317 306.496 273.6 306.496 273.6L305.579 277.083C304.113 276.533 302.646 276.167 300.996 276.167C299.346 276.167 297.879 276.533 296.596 277.083Z" fill="#BEBEBE"/>
</svg>
