<svg width="7" height="7" viewBox="0 0 7 7" fill="none" xmlns="http://www.w3.org/2000/svg">
<path d="M3.28423 5.34375L1.74256 6.52083C1.66617 6.58333 1.58284 6.61278 1.49256 6.60917C1.40228 6.60583 1.32242 6.57986 1.25298 6.53125C1.18353 6.48264 1.12978 6.41667 1.09173 6.33333C1.05339 6.25 1.05159 6.15972 1.08631 6.0625L1.68006 4.13542L0.169643 3.0625C0.0863095 3.00694 0.0342262 2.93403 0.0133928 2.84375C-0.00744049 2.75347 -0.00396823 2.67014 0.0238095 2.59375C0.0515873 2.51736 0.100198 2.44958 0.169643 2.39042C0.239087 2.33153 0.322421 2.30208 0.419643 2.30208H2.28423L2.88839 0.302083C2.92312 0.204861 2.977 0.130139 3.05006 0.0779168C3.12284 0.0259723 3.20089 0 3.28423 0C3.36756 0 3.44562 0.0259723 3.51839 0.0779168C3.59145 0.130139 3.64534 0.204861 3.68006 0.302083L4.28423 2.30208H6.14881C6.24603 2.30208 6.32937 2.33153 6.39881 2.39042C6.46825 2.44958 6.51687 2.51736 6.54464 2.59375C6.57242 2.67014 6.57589 2.75347 6.55506 2.84375C6.53423 2.93403 6.48214 3.00694 6.39881 3.0625L4.88839 4.13542L5.48214 6.0625C5.51686 6.15972 5.5152 6.25 5.47714 6.33333C5.43881 6.41667 5.38492 6.48264 5.31548 6.53125C5.24603 6.57986 5.16617 6.60583 5.07589 6.60917C4.98561 6.61278 4.90228 6.58333 4.82589 6.52083L3.28423 5.34375Z" fill="#FECE22"/>
</svg>
