<svg width="20" height="20" viewBox="0 0 20 20" fill="none" xmlns="http://www.w3.org/2000/svg">
<path d="M9.54492 19.0986H11.3291C12.0586 19.0986 12.6299 18.6416 12.8057 17.9385L13.1572 16.4004L13.3857 16.3125L14.7305 17.1475C15.3457 17.5342 16.0752 17.4287 16.5938 16.9102L17.8242 15.6797C18.3516 15.1523 18.4395 14.4316 18.0527 13.8252L17.2178 12.4805L17.3057 12.2695L18.8438 11.9092C19.5381 11.7334 19.9951 11.1621 19.9951 10.4326V8.70117C19.9951 7.97168 19.5469 7.40039 18.8438 7.22461L17.3145 6.85547L17.2266 6.62695L18.0615 5.29102C18.4482 4.68457 18.3604 3.96387 17.833 3.42773L16.6025 2.19727C16.0928 1.67871 15.3633 1.58203 14.748 1.95996L13.4033 2.78613L13.1572 2.69824L12.8057 1.15137C12.6299 0.448242 12.0586 0 11.3291 0H9.54492C8.80664 0 8.23535 0.448242 8.06836 1.15137L7.7168 2.69824L7.4707 2.78613L6.12598 1.95996C5.50195 1.58203 4.78125 1.67871 4.27148 2.19727L3.03223 3.42773C2.51367 3.96387 2.41699 4.68457 2.80371 5.29102L3.63867 6.62695L3.55078 6.85547L2.03027 7.22461C1.32715 7.40039 0.878906 7.97168 0.878906 8.70117V10.4326C0.878906 11.1621 1.33594 11.7334 2.03027 11.9092L3.56836 12.2695L3.64746 12.4805L2.8125 13.8252C2.42578 14.4316 2.52246 15.1523 3.04102 15.6797L4.28027 16.9102C4.79004 17.4287 5.51953 17.5342 6.13477 17.1475L7.47949 16.3125L7.7168 16.4004L8.06836 17.9385C8.23535 18.6416 8.80664 19.0986 9.54492 19.0986ZM9.77344 17.4814C9.62402 17.4814 9.54492 17.4199 9.52734 17.2881L9 15.126C8.44629 14.9941 7.91016 14.7656 7.47949 14.4932L5.58105 15.6621C5.4668 15.7324 5.36133 15.7236 5.25586 15.6182L4.33301 14.6953C4.22754 14.5986 4.22754 14.4932 4.29785 14.3789L5.4668 12.4805C5.2207 12.0586 4.99219 11.5312 4.86035 10.9775L2.68945 10.459C2.55762 10.4414 2.4873 10.3623 2.4873 10.2129V8.91211C2.4873 8.75391 2.54883 8.69238 2.68945 8.65723L4.85156 8.14746C4.9834 7.55859 5.23828 7.01367 5.45801 6.61816L4.28906 4.7373C4.21875 4.61426 4.21875 4.50879 4.31543 4.40332L5.24707 3.48926C5.35254 3.39258 5.44922 3.375 5.58105 3.4541L7.46191 4.60547C7.85742 4.35938 8.44629 4.11328 9.00879 3.97266L9.52734 1.81055C9.54492 1.67871 9.62402 1.6084 9.77344 1.6084H11.1006C11.25 1.6084 11.3203 1.66992 11.3467 1.81055L11.874 3.98145C12.4453 4.12207 12.9639 4.35938 13.4033 4.60547L15.2842 3.4541C15.416 3.38379 15.5127 3.39258 15.6182 3.49805L16.5498 4.41211C16.6553 4.50879 16.6553 4.61426 16.5762 4.7373L15.416 6.61816C15.627 7.01367 15.8906 7.55859 16.0225 8.14746L18.1846 8.65723C18.3252 8.69238 18.3779 8.75391 18.3779 8.91211V10.2129C18.3779 10.3623 18.3164 10.4414 18.1846 10.459L16.0137 10.9775C15.8818 11.5312 15.6445 12.0674 15.3984 12.4805L16.5674 14.3701C16.6377 14.4932 16.6377 14.5898 16.5322 14.6865L15.6094 15.6182C15.5039 15.7236 15.3984 15.7324 15.2842 15.6621L13.3945 14.4932C12.9551 14.7656 12.4541 14.9854 11.874 15.126L11.3467 17.2881C11.3203 17.4199 11.25 17.4814 11.1006 17.4814H9.77344ZM10.4414 12.8848C12.2695 12.8848 13.7725 11.3818 13.7725 9.54492C13.7725 7.72559 12.2695 6.22266 10.4414 6.22266C8.60449 6.22266 7.09277 7.72559 7.09277 9.54492C7.09277 11.3818 8.60449 12.8848 10.4414 12.8848ZM10.4414 11.3643C9.43945 11.3643 8.62207 10.5469 8.62207 9.54492C8.62207 8.56055 9.44824 7.74316 10.4414 7.74316C11.417 7.74316 12.2344 8.56055 12.2344 9.54492C12.2344 10.5381 11.417 11.3643 10.4414 11.3643Z" fill="#1C1C1E"/>
</svg>
