<svg width="74" height="20" viewBox="0 0 74 20" fill="none" xmlns="http://www.w3.org/2000/svg">
<path d="M10.74 3.445V17.335H12.63V3.445H10.74ZM9.075 8.77V10.39H11.385V8.77H9.075ZM7.755 3.655V16.705H9.615V3.655H7.755ZM3.075 5.605V6.835C3.075 9.505 2.415 11.965 0.33 13.165L1.53 14.695C3.84 13.3 4.59 10.27 4.59 6.835V5.605H3.075ZM3.48 5.605V6.835C3.48 10.06 4.305 12.925 6.645 14.185L7.785 12.67C5.715 11.59 5.01 9.28 5.01 6.835V5.605H3.48ZM0.78 4.855V6.46H7.095V4.855H0.78ZM23.1888 3.445V11.605H25.1838V3.445H23.1888ZM24.4788 6.715V8.35H26.9238V6.715H24.4788ZM15.8388 12.115V13.435H23.2188V14.035H15.8538V16.375H17.8338V15.265H25.1838V12.115H15.8388ZM15.8538 15.925V17.245H25.6638V15.925H15.8538ZM17.3088 8.995V10.975H19.3038V8.995H17.3088ZM14.2038 11.485C16.6038 11.485 19.7988 11.47 22.7238 10.96L22.5738 9.745C19.7688 10.12 16.4538 10.135 13.9938 10.135L14.2038 11.485ZM14.3538 4.315V5.635H22.2288V4.315H14.3538ZM18.2988 5.89C16.2288 5.89 14.9088 6.565 14.9088 7.705C14.9088 8.86 16.2288 9.535 18.2988 9.535C20.3538 9.535 21.6738 8.86 21.6738 7.705C21.6738 6.565 20.3538 5.89 18.2988 5.89ZM18.2988 7.12C19.2438 7.12 19.7838 7.3 19.7838 7.705C19.7838 8.11 19.2438 8.305 18.2988 8.305C17.3538 8.305 16.7988 8.11 16.7988 7.705C16.7988 7.3 17.3538 7.12 18.2988 7.12ZM17.3088 3.325V5.05H19.3038V3.325H17.3088ZM37.2577 3.445V17.335H39.2677V3.445H37.2577ZM31.1377 7.045V7.765C31.1377 9.865 30.0577 12.22 27.7777 13.24L28.8427 14.77C31.4077 13.66 32.7127 10.705 32.7127 7.765V7.045H31.1377ZM31.5727 7.045V7.765C31.5727 10.615 32.8927 13.48 35.4577 14.545L36.5227 13.015C34.2277 12.04 33.1327 9.76 33.1327 7.765V7.045H31.5727ZM28.2427 5.71V7.285H35.9677V5.71H28.2427ZM31.1377 3.76V6.52H33.1327V3.76H31.1377ZM44.4715 11.545V14.815H46.4215V11.545H44.4715ZM48.8665 11.53V14.815H50.8165V11.53H48.8665ZM41.2915 14.185V15.805H53.8615V14.185H41.2915ZM42.7015 4.345V5.92H50.4715V7.39H42.7315V11.305H44.7115V8.95H52.4515V4.345H42.7015ZM42.7315 10.465V12.07H52.7665V10.465H42.7315Z" fill="#011E5F"/>
<path d="M61.0578 16.5369H71.9422C73.3035 16.5369 74 15.8531 74 14.5044V8.29928C74 6.95694 73.3035 6.26678 71.9422 6.26678H70.3402V5.76657C70.3402 4.56986 69.6944 4 68.4977 4H64.496C63.3563 4 62.6598 4.56986 62.6598 5.76657V6.26678H61.0578C59.7028 6.26678 59 6.95694 59 8.29928V14.5044C59 15.8531 59.7028 16.5369 61.0578 16.5369ZM63.8185 5.71591C63.8185 5.29168 64.0718 5.05108 64.515 5.05108H68.485C68.9282 5.05108 69.1752 5.29168 69.1752 5.71591V6.26678H63.8185V5.71591ZM61.1085 15.3212C60.5576 15.3212 60.26 15.0426 60.26 14.4664V8.33727C60.26 7.76741 60.5576 7.48248 61.1085 7.48248H71.8915C72.4424 7.48248 72.74 7.76741 72.74 8.33727V14.4664C72.74 15.0426 72.4424 15.3212 71.8915 15.3212H61.1085ZM63.4323 11.9654C63.4323 12.339 63.6919 12.5922 64.0654 12.5922H65.3128V13.8396C65.3128 14.2132 65.5597 14.4664 65.9333 14.4664H67.0604C67.4339 14.4664 67.6872 14.2132 67.6872 13.8396V12.5922H68.9346C69.3081 12.5922 69.5614 12.339 69.5614 11.9654V10.8383C69.5614 10.4648 69.3081 10.2178 68.9346 10.2178H67.6872V8.97045C67.6872 8.59688 67.4339 8.34361 67.0604 8.34361H65.9333C65.5597 8.34361 65.3128 8.59688 65.3128 8.97045V10.2178H64.0654C63.6855 10.2178 63.4323 10.4648 63.4323 10.8383V11.9654Z" fill="#990404"/>
</svg>
