<svg width="22" height="18" viewBox="0 0 22 18" fill="none" xmlns="http://www.w3.org/2000/svg">
<path d="M2.92681 17.1961H19.0643C20.9858 17.1961 22 16.1998 22 14.296V4.95512C22 3.05135 20.9858 2.05499 19.0643 2.05499H16.6357C15.9418 2.05499 15.7194 1.93934 15.2835 1.48564L14.5807 0.729478C14.1181 0.240194 13.6466 0 12.7392 0H9.20744C8.30004 0 7.83744 0.240194 7.36595 0.729478L6.66316 1.48564C6.23615 1.93045 6.00485 2.05499 5.31096 2.05499H2.92681C1.00526 2.05499 0 3.05135 0 4.95512V14.296C0 16.1998 1.00526 17.1961 2.92681 17.1961ZM3.04246 15.4258C2.23292 15.4258 1.77032 14.9988 1.77032 14.1359V5.11524C1.77032 4.26122 2.23292 3.83421 3.04246 3.83421H5.82693C6.62758 3.83421 7.0368 3.69187 7.4905 3.20259L8.1666 2.45532C8.66478 1.91266 8.93166 1.77032 9.71452 1.77032H12.2321C13.015 1.77032 13.2818 1.91266 13.7711 2.44642L14.4561 3.20259C14.9098 3.69187 15.319 3.83421 16.1197 3.83421H18.9486C19.7671 3.83421 20.2208 4.26122 20.2208 5.11524V14.1359C20.2208 14.9988 19.7671 15.4258 18.9486 15.4258H3.04246ZM10.9956 14.2515C13.6644 14.2515 15.7994 12.1165 15.7994 9.43874C15.7994 6.76102 13.6644 4.62596 10.9956 4.62596C8.33562 4.62596 6.20057 6.76102 6.20057 9.43874C6.20057 12.1165 8.33562 14.2515 10.9956 14.2515ZM16.1019 6.25394C16.1019 6.90336 16.6268 7.41043 17.2673 7.40154C17.89 7.40154 18.4149 6.89446 18.4149 6.25394C18.4149 5.63122 17.8811 5.09745 17.2673 5.09745C16.6268 5.09745 16.1019 5.63122 16.1019 6.25394ZM10.9956 12.6324C9.24302 12.6324 7.81076 11.2091 7.81076 9.43874C7.81076 7.65952 9.23413 6.24505 10.9956 6.24505C12.7659 6.24505 14.1892 7.65952 14.1892 9.43874C14.1892 11.2091 12.7659 12.6324 10.9956 12.6324Z" fill="black"/>
</svg>
