<svg width="20" height="20" viewBox="0 0 20 20" fill="none" xmlns="http://www.w3.org/2000/svg">
<path d="M9.99517 20C15.4761 20 20 15.4739 20 10C20 4.52611 15.4664 0 9.9855 0C4.51426 0 0 4.52611 0 10C0 15.4739 4.52392 20 9.99517 20ZM9.99517 18.0077C5.55824 18.0077 2.01063 14.4391 2.01063 10C2.01063 5.56093 5.55824 2.00193 9.9855 2.00193C14.4224 2.00193 17.9894 5.56093 17.999 10C18.0087 14.4391 14.4321 18.0077 9.99517 18.0077ZM6.33156 10.9284H13.6491C14.2291 10.9284 14.6448 10.5899 14.6448 10.029C14.6448 9.45841 14.2484 9.11025 13.6491 9.11025H6.33156C5.7419 9.11025 5.33591 9.45841 5.33591 10.029C5.33591 10.5899 5.75157 10.9284 6.33156 10.9284Z" fill="#D9D9D9"/>
</svg>
