<svg width="30" height="30" viewBox="0 0 30 30" fill="none" xmlns="http://www.w3.org/2000/svg">
<circle cx="15" cy="15" r="14.5" fill="white" stroke="#D9D9D9"/>
<path d="M8.39466 22.4699H21.5981C23.1702 22.4699 24 21.6547 24 20.0971V12.4546C24 10.897 23.1702 10.0817 21.5981 10.0817H19.611C19.0433 10.0817 18.8613 9.98713 18.5047 9.61592L17.9296 8.99724C17.5512 8.59691 17.1654 8.40039 16.423 8.40039H13.5334C12.7909 8.40039 12.4125 8.59691 12.0267 8.99724L11.4517 9.61592C11.1023 9.97985 10.9131 10.0817 10.3453 10.0817H8.39466C6.82248 10.0817 6 10.897 6 12.4546V20.0971C6 21.6547 6.82248 22.4699 8.39466 22.4699ZM8.48928 21.0215C7.82693 21.0215 7.44844 20.6721 7.44844 19.9661V12.5856C7.44844 11.8868 7.82693 11.5375 8.48928 11.5375H10.7675C11.4226 11.5375 11.7574 11.421 12.1286 11.0207L12.6818 10.4093C13.0894 9.96529 13.3077 9.84883 13.9482 9.84883H16.0081C16.6486 9.84883 16.867 9.96529 17.2673 10.402L17.8277 11.0207C18.1989 11.421 18.5338 11.5375 19.1888 11.5375H21.5034C22.1731 11.5375 22.5443 11.8868 22.5443 12.5856V19.9661C22.5443 20.6721 22.1731 21.0215 21.5034 21.0215H8.48928ZM14.9964 20.0607C17.1799 20.0607 18.9268 18.3139 18.9268 16.123C18.9268 13.9321 17.1799 12.1853 14.9964 12.1853C12.8201 12.1853 11.0732 13.9321 11.0732 16.123C11.0732 18.3139 12.8201 20.0607 14.9964 20.0607ZM19.1743 13.5173C19.1743 14.0486 19.6037 14.4635 20.1278 14.4562C20.6373 14.4562 21.0667 14.0413 21.0667 13.5173C21.0667 13.0077 20.63 12.571 20.1278 12.571C19.6037 12.571 19.1743 13.0077 19.1743 13.5173ZM14.9964 18.736C13.5625 18.736 12.3906 17.5714 12.3906 16.123C12.3906 14.6673 13.5552 13.51 14.9964 13.51C16.4448 13.51 17.6094 14.6673 17.6094 16.123C17.6094 17.5714 16.4448 18.736 14.9964 18.736Z" fill="#011E5F"/>
</svg>
