<svg width="20" height="25" viewBox="0 0 20 25" fill="none" xmlns="http://www.w3.org/2000/svg">
<path d="M3.44196 23.0695H9.42733C8.80754 22.4972 8.30772 21.7808 8.00184 20.9912H3.6251C2.60403 20.9912 2.07644 20.4752 2.07644 19.4879V3.72793C2.07644 2.75795 2.59343 2.20535 3.6251 2.20535H14.5594C15.5543 2.20535 16.0974 2.74926 16.0974 3.72793V12.8831C16.8869 13.1871 17.6034 13.6783 18.1738 14.3067V3.60754C18.1738 1.30936 17.004 0.128906 14.7338 0.128906H3.44196C1.18046 0.128906 0 1.31805 0 3.60754V19.5909C0 21.8891 1.18046 23.0695 3.44196 23.0695ZM5.21995 6.5219H12.9751C13.3575 6.5219 13.6513 6.21751 13.6513 5.83512C13.6513 5.46523 13.3575 5.18013 12.9751 5.18013H5.21995C4.81827 5.18013 4.53317 5.46523 4.53317 5.83512C4.53317 6.21751 4.81827 6.5219 5.21995 6.5219ZM5.21995 10.1377H12.9751C13.3575 10.1377 13.6513 9.84195 13.6513 9.45957C13.6513 9.08966 13.3575 8.79591 12.9751 8.79591H5.21995C4.81827 8.79591 4.53317 9.08966 4.53317 9.45957C4.53317 9.84195 4.81827 10.1377 5.21995 10.1377Z" fill="#D9D9D9"/>
<path d="M13.5048 23.0703C16.0837 23.0703 18.1776 20.9763 18.1776 18.3974C18.1776 15.8069 16.0856 13.7109 13.5048 13.7109C10.9317 13.7109 8.81836 15.8243 8.81836 18.3974C8.81836 20.9763 10.9317 23.0703 13.5048 23.0703ZM13.5048 21.4593C11.8061 21.4593 10.4274 20.0826 10.4274 18.3974C10.4274 16.718 11.8061 15.3306 13.5048 15.3306C15.1794 15.3306 16.558 16.718 16.558 18.3974C16.558 20.0826 15.188 21.4593 13.5048 21.4593ZM19.0499 24.9947C19.589 24.9947 20 24.5751 20 23.9888C20 23.7327 19.8853 23.4805 19.6861 23.2793L16.8158 20.4023L15.3515 21.7478L18.2324 24.6355C18.4925 24.8936 18.7485 24.9947 19.0499 24.9947Z" fill="#D9D9D9"/>
</svg>
