<svg width="74" height="20" viewBox="0 0 74 20" fill="none" xmlns="http://www.w3.org/2000/svg">
<path d="M3.855 4.075V5.41C3.855 7.165 2.88 8.965 0.54 9.715L1.515 11.29C4.23 10.42 5.505 8.035 5.505 5.41V4.075H3.855ZM4.26 4.075V5.41C4.26 7.99 5.49 10.21 8.145 11.05L9.12 9.49C6.855 8.8 5.895 7.12 5.895 5.41V4.075H4.26ZM2.67 12.34V13.93H10.14V17.335H12.15V12.34H2.67ZM10.14 3.445V11.725H12.15V3.445H10.14ZM23.0988 3.445V13.48H25.0938V3.445H23.0988ZM24.5238 7.225V8.86H26.9388V7.225H24.5238ZM14.6838 9.61V11.215H15.8388C18.9288 11.215 20.5188 11.14 22.2138 10.765L22.0188 9.19C20.3538 9.55 18.8538 9.61 15.8388 9.61H14.6838ZM14.6838 4.54V10.465H16.6638V6.145H20.8938V4.54H14.6838ZM16.1388 15.505V17.095H25.5888V15.505H16.1388ZM16.1388 12.43V16.315H18.1338V12.43H16.1388ZM28.3327 4.45V6.055H34.2727V4.45H28.3327ZM30.0427 7.69V11.17H32.0227V7.69H30.0427ZM33.4927 4.45V5.32C33.4927 6.28 33.4927 7.48 33.1927 9.19L35.1277 9.4C35.4577 7.675 35.4577 6.295 35.4577 5.32V4.45H33.4927ZM36.8077 3.445V13.84H38.8177V3.445H36.8077ZM38.0227 7.675V9.31H40.4677V7.675H38.0227ZM29.5477 15.505V17.095H39.2527V15.505H29.5477ZM29.5477 12.91V16H31.5427V12.91H29.5477ZM27.7027 11.98C30.0877 11.98 33.3127 11.92 36.1777 11.38L36.0577 9.97C33.2677 10.36 29.9227 10.405 27.5227 10.405L27.7027 11.98ZM50.8465 3.43V17.365H52.8415V3.43H50.8465ZM42.0265 12.505V14.125H43.2565C45.7915 14.125 47.8315 14.05 50.0815 13.645L49.8865 12.04C47.6815 12.415 45.7165 12.505 43.2565 12.505H42.0265ZM42.0115 4.615V6.205H46.5265V8.41H42.0265V13.105H44.0515V9.985H48.5665V4.615H42.0115Z" fill="#011E5F"/>
<path d="M61.6404 17H71.3596C73.1011 17 74 16.1011 74 14.3836V4.61637C74 2.89888 73.1011 2 71.3596 2H61.6404C59.9069 2 59 2.89085 59 4.61637V14.3836C59 16.1011 59.9069 17 61.6404 17ZM61.7448 15.4029C61.0064 15.4029 60.5971 15.0177 60.5971 14.2392V4.76083C60.5971 3.98234 61.0064 3.59711 61.7448 3.59711H71.2552C71.9856 3.59711 72.4029 3.98234 72.4029 4.76083V14.2392C72.4029 15.0177 71.9856 15.4029 71.2552 15.4029H61.7448ZM63.2697 4.98555C62.6356 4.98555 62.1541 5.49117 62.1541 6.18138C62.1541 7.2488 63.3258 8.13965 64.008 8.60514C64.0803 8.66132 64.1605 8.69342 64.2167 8.69342C64.2729 8.69342 64.3451 8.65329 64.4173 8.60514C65.1075 8.19583 66.2632 7.2488 66.2632 6.18138C66.2632 5.49117 65.7817 4.98555 65.1316 4.98555C64.7223 4.98555 64.3933 5.23435 64.2087 5.57945C64.0241 5.23435 63.703 4.98555 63.2697 4.98555ZM62.6758 11.0048H70.3323C70.6292 11.0048 70.8459 10.7801 70.8459 10.4912C70.8459 10.2103 70.6292 9.99358 70.3323 9.99358H62.6758C62.3788 9.99358 62.1541 10.2103 62.1541 10.4912C62.1541 10.7801 62.3788 11.0048 62.6758 11.0048ZM62.6758 13.6372H68.3419C68.6308 13.6372 68.8475 13.4205 68.8475 13.1396C68.8475 12.8507 68.6308 12.618 68.3419 12.618H62.6758C62.3788 12.618 62.1541 12.8507 62.1541 13.1396C62.1541 13.4205 62.3788 13.6372 62.6758 13.6372Z" fill="#2B8F5A"/>
</svg>
