<svg width="57" height="24" viewBox="0 0 57 24" fill="none" xmlns="http://www.w3.org/2000/svg">
<path d="M54.5283 8.375L55.2783 5.375C55.4033 5 55.9033 3.25 54.9033 1.75C54.1533 0.625 52.6533 0 50.5283 0H48.0283C45.9033 0 44.4033 0.625 43.6533 1.75C42.6533 3.25 43.1533 4.875 43.2783 5.375L44.0283 8.375C42.6533 9.75 41.7783 11.625 41.7783 13.75C41.7783 16.375 43.1533 18.625 45.1533 20H53.4033C55.4033 18.625 56.7783 16.375 56.7783 13.75C56.7783 11.625 55.9033 9.75 54.5283 8.375ZM46.2783 6.875L45.6533 4.75V4.625C45.6533 4.625 45.4033 3.75 45.7783 3.25C46.0283 2.75 46.7783 2.5 48.0283 2.5H50.5283C51.6533 2.5 52.5283 2.75 52.9033 3.125C53.2783 3.625 53.0283 4.5 53.0283 4.5L52.4033 6.875C51.4033 6.5 50.4033 6.25 49.2783 6.25C48.1533 6.25 47.1533 6.5 46.2783 6.875Z" fill="#FFB02E"/>
<path d="M7.34458 13.6873H11.7696L10.7012 19.2405C10.1053 19.4271 9.46604 19.5793 8.78337 19.6971C8.11259 19.8052 7.3922 19.8592 6.6222 19.8592C5.5722 19.8592 4.70593 19.6579 4.02339 19.2552C3.34084 18.8526 2.87203 18.2487 2.61695 17.4435C2.37187 16.6382 2.36457 15.6366 2.59506 14.4386C2.80665 13.3387 3.20491 12.3862 3.78983 11.581C4.37474 10.7757 5.12471 10.1522 6.03973 9.71028C6.96474 9.26839 8.03225 9.04744 9.24225 9.04744C9.85225 9.04744 10.4309 9.10636 10.9782 9.2242C11.5356 9.34203 12.0153 9.49915 12.4176 9.69555L11.21 11.6841C10.894 11.5073 10.5354 11.3698 10.1343 11.2716C9.73323 11.1734 9.30268 11.1243 8.84268 11.1243C8.19268 11.1243 7.61434 11.2716 7.10766 11.5662C6.61287 11.851 6.20636 12.2487 5.88812 12.7594C5.57177 13.2602 5.35125 13.8346 5.22656 14.4828C5.0962 15.1603 5.07879 15.7446 5.17433 16.2356C5.26986 16.7266 5.48118 17.1096 5.80829 17.3845C6.14728 17.6497 6.61677 17.7823 7.21677 17.7823C7.38677 17.7823 7.55272 17.7773 7.71461 17.7675C7.87838 17.7479 8.03216 17.7282 8.17594 17.7086C8.31972 17.689 8.4485 17.6693 8.56228 17.6497L8.93635 15.7053H6.95635L7.34458 13.6873ZM21.2544 15.6464C21.124 16.324 20.9138 16.923 20.6236 17.4435C20.3435 17.9639 19.9885 18.4058 19.5586 18.7692C19.1387 19.1325 18.6608 19.4074 18.1249 19.594C17.6009 19.7708 17.0189 19.8592 16.3789 19.8592C15.7989 19.8592 15.2759 19.7708 14.8099 19.594C14.3558 19.4074 13.9827 19.1374 13.6907 18.7839C13.4107 18.4205 13.2207 17.9787 13.1208 17.4582C13.0228 16.9279 13.039 16.324 13.1694 15.6464C13.3413 14.7528 13.6468 13.9967 14.0858 13.378C14.5348 12.7594 15.0955 12.288 15.7678 11.964C16.4402 11.6399 17.1963 11.4779 18.0363 11.4779C18.8263 11.4779 19.4902 11.6399 20.0278 11.964C20.5655 12.288 20.9448 12.7594 21.1658 13.378C21.3968 13.9967 21.4263 14.7528 21.2544 15.6464ZM15.7344 15.6464C15.638 16.1472 15.6068 16.5695 15.6406 16.9132C15.6745 17.2569 15.7845 17.5171 15.9705 17.6939C16.1583 17.8608 16.4273 17.9443 16.7773 17.9443C17.1373 17.9443 17.4383 17.8608 17.6805 17.6939C17.9245 17.5171 18.1295 17.2569 18.2956 16.9132C18.4618 16.5695 18.593 16.1472 18.6894 15.6464C18.7857 15.1456 18.816 14.7283 18.7802 14.3944C18.7445 14.0605 18.6326 13.8101 18.4448 13.6432C18.2669 13.4762 17.9979 13.3928 17.6379 13.3928C17.1279 13.3928 16.7161 13.5842 16.4024 13.9672C16.1006 14.3404 15.8779 14.9001 15.7344 15.6464ZM24.7465 19.7119H22.2115L24.3652 8.51716H26.9002L24.7465 19.7119ZM29.4803 19.8592C28.6003 19.8592 27.9433 19.5056 27.5094 18.7986C27.0854 18.0916 27.0056 17.0507 27.2701 15.6759C27.5365 14.2913 28.0227 13.2455 28.7288 12.5384C29.4348 11.8314 30.2478 11.4779 31.1678 11.4779C31.5478 11.4779 31.8724 11.5319 32.1416 11.6399C32.4127 11.7381 32.6313 11.8756 32.7973 12.0523C32.9733 12.2291 33.1145 12.4304 33.2211 12.6563H33.2811C33.2851 12.4795 33.2983 12.2291 33.3206 11.905C33.3548 11.5712 33.4031 11.2422 33.4655 10.9181L33.9274 8.51716H36.4624L34.3087 19.7119H32.3887L32.0799 18.666H31.9749C31.8033 18.8821 31.5946 19.0834 31.3487 19.27C31.1047 19.4467 30.8273 19.5891 30.5165 19.6971C30.2157 19.8052 29.8703 19.8592 29.4803 19.8592ZM30.8201 17.8854C31.3701 17.8854 31.7862 17.7233 32.0686 17.3993C32.3509 17.0752 32.5604 16.5842 32.697 15.9263L32.7395 15.7053C32.8774 14.9885 32.8732 14.4386 32.7269 14.0556C32.5905 13.6726 32.2274 13.4811 31.6374 13.4811C31.2174 13.4811 30.8415 13.6677 30.5097 14.0409C30.1879 14.414 29.9552 14.9738 29.8116 15.7201C29.6699 16.4566 29.6901 17.0016 29.8721 17.3551C30.0641 17.7086 30.3801 17.8854 30.8201 17.8854Z" fill="black"/>
</svg>
