<svg width="21" height="26" viewBox="0 0 21 26" fill="none" xmlns="http://www.w3.org/2000/svg">
<path d="M3.45182 24.0695H9.45434C8.83278 23.4972 8.33153 22.7808 8.02477 21.9912H3.63548C2.61149 21.9912 2.08239 21.4752 2.08239 20.4879V4.72793C2.08239 3.75795 2.60086 3.20535 3.63548 3.20535H14.6011C15.5989 3.20535 16.1435 3.74926 16.1435 4.72793V13.8831C16.9353 14.1871 17.6539 14.6783 18.2259 15.3067V4.60754C18.2259 2.30936 17.0527 1.12891 14.7761 1.12891H3.45182C1.18384 1.12891 0 2.31805 0 4.60754V20.5909C0 22.8891 1.18384 24.0695 3.45182 24.0695ZM5.23491 7.5219H13.0123C13.3958 7.5219 13.6904 7.21751 13.6904 6.83512C13.6904 6.46523 13.3958 6.18013 13.0123 6.18013H5.23491C4.83207 6.18013 4.54616 6.46523 4.54616 6.83512C4.54616 7.21751 4.83207 7.5219 5.23491 7.5219ZM5.23491 11.1377H13.0123C13.3958 11.1377 13.6904 10.8419 13.6904 10.4596C13.6904 10.0897 13.3958 9.79591 13.0123 9.79591H5.23491C4.83207 9.79591 4.54616 10.0897 4.54616 10.4596C4.54616 10.8419 4.83207 11.1377 5.23491 11.1377Z" fill="#FFA3A3"/>
<path d="M13.5436 24.0703C16.1299 24.0703 18.2299 21.9763 18.2299 19.3974C18.2299 16.8069 16.1318 14.7109 13.5436 14.7109C10.9632 14.7109 8.84375 16.8243 8.84375 19.3974C8.84375 21.9763 10.9632 24.0703 13.5436 24.0703ZM13.5436 22.4593C11.8401 22.4593 10.4574 21.0826 10.4574 19.3974C10.4574 17.718 11.8401 16.3306 13.5436 16.3306C15.223 16.3306 16.6056 17.718 16.6056 19.3974C16.6056 21.0826 15.2317 22.4593 13.5436 22.4593ZM19.1046 25.9947C19.6452 25.9947 20.0574 25.5751 20.0574 24.9888C20.0574 24.7327 19.9424 24.4805 19.7426 24.2793L16.8641 21.4023L15.3956 22.7478L18.2847 25.6355C18.5456 25.8936 18.8023 25.9947 19.1046 25.9947Z" fill="#FFA3A3"/>
</svg>
