<svg width="21" height="26" viewBox="0 0 21 26" fill="none" xmlns="http://www.w3.org/2000/svg">
<path d="M3.45182 24.0734H9.45434C8.83278 23.5011 8.33153 22.7847 8.02477 21.9951H3.63548C2.61149 21.9951 2.08239 21.4791 2.08239 20.4918V4.73184C2.08239 3.76185 2.60086 3.20925 3.63548 3.20925H14.6011C15.5989 3.20925 16.1435 3.75317 16.1435 4.73184V13.887C16.9353 14.191 17.6539 14.6822 18.2259 15.3106V4.61144C18.2259 2.31327 17.0527 1.13281 14.7761 1.13281H3.45182C1.18384 1.13281 0 2.32196 0 4.61144V20.5948C0 22.893 1.18384 24.0734 3.45182 24.0734ZM5.23491 7.5258H13.0123C13.3958 7.5258 13.6904 7.22142 13.6904 6.83903C13.6904 6.46913 13.3958 6.18404 13.0123 6.18404H5.23491C4.83207 6.18404 4.54616 6.46913 4.54616 6.83903C4.54616 7.22142 4.83207 7.5258 5.23491 7.5258ZM5.23491 11.1416H13.0123C13.3958 11.1416 13.6904 10.8459 13.6904 10.4635C13.6904 10.0936 13.3958 9.79982 13.0123 9.79982H5.23491C4.83207 9.79982 4.54616 10.0936 4.54616 10.4635C4.54616 10.8459 4.83207 11.1416 5.23491 11.1416Z" fill="#FFA3A3"/>
<path d="M13.5436 24.0703C16.1299 24.0703 18.2299 21.9763 18.2299 19.3974C18.2299 16.8069 16.1318 14.7109 13.5436 14.7109C10.9632 14.7109 8.84375 16.8243 8.84375 19.3974C8.84375 21.9763 10.9632 24.0703 13.5436 24.0703ZM13.5436 22.4593C11.8401 22.4593 10.4574 21.0826 10.4574 19.3974C10.4574 17.718 11.8401 16.3306 13.5436 16.3306C15.223 16.3306 16.6056 17.718 16.6056 19.3974C16.6056 21.0826 15.2317 22.4593 13.5436 22.4593ZM19.1046 25.9947C19.6452 25.9947 20.0574 25.5751 20.0574 24.9888C20.0574 24.7327 19.9424 24.4805 19.7426 24.2793L16.8641 21.4023L15.3956 22.7478L18.2847 25.6355C18.5456 25.8936 18.8023 25.9947 19.1046 25.9947Z" fill="#FFA3A3"/>
<path d="M13.5436 24.0703C16.1299 24.0703 18.2299 21.9763 18.2299 19.3974C18.2299 16.8069 16.1318 14.7109 13.5436 14.7109C10.9632 14.7109 8.84375 16.8243 8.84375 19.3974C8.84375 21.9763 10.9632 24.0703 13.5436 24.0703ZM13.5436 22.4593C11.8401 22.4593 10.4574 21.0826 10.4574 19.3974C10.4574 17.718 11.8401 16.3306 13.5436 16.3306C15.223 16.3306 16.6056 17.718 16.6056 19.3974C16.6056 21.0826 15.2317 22.4593 13.5436 22.4593ZM19.1046 25.9947C19.6452 25.9947 20.0574 25.5751 20.0574 24.9888C20.0574 24.7327 19.9424 24.4805 19.7426 24.2793L16.8641 21.4023L15.3956 22.7478L18.2847 25.6355C18.5456 25.8936 18.8023 25.9947 19.1046 25.9947Z" fill="#011E5F"/>
</svg>
