<svg width="69" height="20" viewBox="0 0 69 20" fill="none" xmlns="http://www.w3.org/2000/svg">
<path d="M67.4283 9.025L67.8783 7.225C67.9533 7 68.2533 5.95 67.6533 5.05C67.2033 4.375 66.3033 4 65.0283 4H63.5283C62.2533 4 61.3533 4.375 60.9033 5.05C60.3033 5.95 60.6033 6.925 60.6783 7.225L61.1283 9.025C60.3033 9.85 59.7783 10.975 59.7783 12.25C59.7783 13.825 60.6033 15.175 61.8033 16H66.7533C67.9533 15.175 68.7783 13.825 68.7783 12.25C68.7783 10.975 68.2533 9.85 67.4283 9.025ZM62.4783 8.125L62.1033 6.85V6.775C62.1033 6.775 61.9533 6.25 62.1783 5.95C62.3283 5.65 62.7783 5.5 63.5283 5.5H65.0283C65.7033 5.5 66.2283 5.65 66.4533 5.875C66.6783 6.175 66.5283 6.7 66.5283 6.7L66.1533 8.125C65.5533 7.9 64.9533 7.75 64.2783 7.75C63.6033 7.75 63.0033 7.9 62.4783 8.125Z" fill="#D3883E"/>
<path d="M7.54891 5.19474C8.53891 5.19474 9.33596 5.28802 9.94007 5.4746C10.5442 5.66118 10.9634 5.95087 11.1979 6.34367C11.4342 6.72664 11.4928 7.22746 11.3738 7.84611C11.2926 8.26837 11.1458 8.64153 10.9334 8.96558C10.723 9.27982 10.4729 9.54005 10.1832 9.74627C9.89546 9.94267 9.5909 10.0703 9.26957 10.1292L9.2554 10.2029C9.56217 10.2716 9.84356 10.3944 10.0996 10.5711C10.3574 10.7381 10.5443 10.9885 10.66 11.3224C10.7858 11.6562 10.7958 12.0981 10.69 12.6481C10.5672 13.2863 10.2964 13.8363 9.87759 14.2978C9.46879 14.7593 8.94078 15.1129 8.29355 15.3584C7.64821 15.594 6.91554 15.7119 6.09554 15.7119H2.01554L4.03891 5.19474H7.54891ZM6.92327 9.30437C7.49327 9.30437 7.91216 9.20617 8.17994 9.00977C8.44962 8.80356 8.61752 8.5286 8.68364 8.1849C8.74976 7.8412 8.66388 7.58589 8.426 7.41895C8.19812 7.25201 7.79918 7.16854 7.22918 7.16854H6.20917L5.79827 9.30437H6.92327ZM5.42986 11.2193L4.95094 13.7086H6.22594C6.82594 13.7086 7.26361 13.5908 7.53895 13.3551C7.8243 13.1194 8.00381 12.8101 8.07749 12.4271C8.12283 12.1914 8.1125 11.9852 8.04651 11.8085C7.9824 11.6219 7.8348 11.4795 7.60369 11.3813C7.38447 11.2733 7.06486 11.2193 6.64486 11.2193H5.42986ZM18.2974 7.47787C18.4274 7.47787 18.5705 7.48769 18.7268 7.50733C18.8849 7.51715 19.007 7.53188 19.0933 7.55152L18.4355 9.87884C18.3493 9.8592 18.2371 9.84447 18.099 9.83465C17.9628 9.81501 17.8097 9.80519 17.6397 9.80519C17.3997 9.80519 17.154 9.83465 16.9027 9.89357C16.6532 9.94267 16.4153 10.036 16.1888 10.1734C15.9643 10.3011 15.7684 10.4877 15.6012 10.7332C15.4358 10.9688 15.3163 11.2782 15.2426 11.6612L14.4633 15.7119H11.9283L13.4841 7.62517H15.3891L15.5241 8.95085H15.6291C15.8419 8.6759 16.0892 8.4304 16.3707 8.21436C16.6542 7.9885 16.9582 7.81174 17.2828 7.68408C17.6192 7.54661 17.9574 7.47787 18.2974 7.47787ZM26.9965 11.6464C26.8662 12.324 26.6559 12.923 26.3658 13.4435C26.0857 13.9639 25.7307 14.4058 25.3008 14.7692C24.8809 15.1325 24.403 15.4074 23.8671 15.594C23.3431 15.7708 22.7611 15.8592 22.1211 15.8592C21.5411 15.8592 21.0181 15.7708 20.5521 15.594C20.098 15.4074 19.7249 15.1374 19.4329 14.7839C19.1528 14.4205 18.9629 13.9787 18.863 13.4582C18.765 12.9279 18.7812 12.324 18.9115 11.6464C19.0835 10.7528 19.3889 9.99668 19.828 9.37802C20.277 8.75937 20.8377 8.28801 21.51 7.96395C22.1824 7.6399 22.9385 7.47787 23.7785 7.47787C24.5685 7.47787 25.2324 7.6399 25.77 7.96395C26.3077 8.28801 26.687 8.75937 26.908 9.37802C27.1389 9.99668 27.1685 10.7528 26.9965 11.6464ZM21.4765 11.6464C21.3802 12.1472 21.349 12.5695 21.3828 12.9132C21.4167 13.2569 21.5266 13.5171 21.7126 13.6939C21.9005 13.8608 22.1695 13.9443 22.5195 13.9443C22.8795 13.9443 23.1805 13.8608 23.4226 13.6939C23.6666 13.5171 23.8717 13.2569 24.0378 12.9132C24.204 12.5695 24.3352 12.1472 24.4315 11.6464C24.5279 11.1456 24.5582 10.7283 24.5224 10.3944C24.4867 10.0605 24.3748 9.8101 24.187 9.64316C24.0091 9.47622 23.7401 9.39275 23.3801 9.39275C22.8701 9.39275 22.4583 9.58424 22.1446 9.96722C21.8428 10.3404 21.6201 10.9001 21.4765 11.6464ZM34.4428 7.47787C35.3128 7.47787 35.9675 7.71354 36.4068 8.1849C36.858 8.64644 36.9835 9.39766 36.7832 10.4386L35.7687 15.7119H33.2487L34.13 11.1309C34.2377 10.5711 34.224 10.1489 34.0887 9.86411C33.9535 9.57933 33.6809 9.43694 33.2709 9.43694C32.6609 9.43694 32.2025 9.6628 31.8956 10.1145C31.5906 10.5564 31.3578 11.1947 31.1972 12.0294L30.4887 15.7119H27.9537L29.5095 7.62517H31.4295L31.5733 8.67099H31.6933C31.9243 8.40585 32.1818 8.1849 32.4658 8.00814C32.7498 7.83138 33.0603 7.69881 33.3973 7.61044C33.7343 7.52206 34.0828 7.47787 34.4428 7.47787ZM43.855 15.7119H37.21L37.4877 14.2683L42.0302 9.52532H38.6102L38.9758 7.62517H45.2608L44.9604 9.18653L40.5756 13.8117H44.2206L43.855 15.7119ZM50.4952 7.47787C51.2752 7.47787 51.9178 7.62026 52.423 7.90503C52.9401 8.17999 53.2957 8.59243 53.4899 9.14234C53.696 9.68244 53.7216 10.3551 53.5667 11.1603L53.3457 12.3093H48.1407C48.0586 12.8395 48.1524 13.2618 48.422 13.576C48.6915 13.8903 49.1313 14.0474 49.7413 14.0474C50.2713 14.0474 50.7607 13.9983 51.2096 13.9001C51.6585 13.8019 52.1337 13.6448 52.6353 13.4287L52.2811 15.27C51.8414 15.4762 51.383 15.6235 50.906 15.7119C50.4272 15.8101 49.8527 15.8592 49.1827 15.8592C48.3527 15.8592 47.641 15.7119 47.0477 15.4173C46.4644 15.1227 46.0463 14.671 45.7934 14.0621C45.5525 13.4435 45.5227 12.6628 45.704 11.7201C45.8892 10.7577 46.2062 9.96722 46.6553 9.34856C47.1062 8.72009 47.6609 8.25364 48.3195 7.94922C48.9799 7.63499 49.7052 7.47787 50.4952 7.47787ZM50.2086 9.20126C49.8186 9.20126 49.47 9.32401 49.1628 9.56951C48.8674 9.80519 48.6447 10.1833 48.4946 10.7037H51.3296C51.3843 10.4189 51.3785 10.1636 51.3119 9.93776C51.2554 9.7119 51.1344 9.53514 50.9489 9.40748C50.7654 9.27 50.5186 9.20126 50.2086 9.20126Z" fill="black"/>
</svg>
