<svg width="163" height="40" viewBox="0 0 163 40" fill="none" xmlns="http://www.w3.org/2000/svg">
<path d="M1.32102 14V3.09091H5.0071C5.86293 3.09091 6.5625 3.24538 7.10582 3.55433C7.6527 3.85973 8.05753 4.27344 8.32031 4.79545C8.5831 5.31747 8.71449 5.89986 8.71449 6.54261C8.71449 7.18537 8.5831 7.76953 8.32031 8.2951C8.06108 8.82067 7.6598 9.2397 7.11648 9.5522C6.57315 9.86115 5.87713 10.0156 5.02841 10.0156H2.38636V8.84375H4.9858C5.57173 8.84375 6.04226 8.74254 6.39737 8.54013C6.75249 8.33771 7.00994 8.06428 7.16974 7.71982C7.3331 7.3718 7.41477 6.9794 7.41477 6.54261C7.41477 6.10582 7.3331 5.7152 7.16974 5.37074C7.00994 5.02628 6.75071 4.75639 6.39205 4.56108C6.03338 4.36222 5.55753 4.26278 4.96449 4.26278H2.64205V14H1.32102ZM10.2459 4.26278V3.09091H18.4277V4.26278H14.9973V14H13.6763V4.26278H10.2459ZM30.3103 7.65057L29.181 7.97017C29.11 7.78196 29.0052 7.59908 28.8667 7.42152C28.7318 7.24041 28.5471 7.09126 28.3128 6.97408C28.0784 6.85689 27.7783 6.7983 27.4126 6.7983C26.9118 6.7983 26.4946 6.91371 26.1608 7.14453C25.8305 7.3718 25.6654 7.66122 25.6654 8.01278C25.6654 8.32528 25.779 8.57209 26.0063 8.7532C26.2336 8.9343 26.5887 9.08523 27.0716 9.20597L28.2861 9.50426C29.0177 9.68182 29.5628 9.95348 29.9214 10.3192C30.2801 10.6815 30.4594 11.1484 30.4594 11.7202C30.4594 12.1889 30.3245 12.608 30.0546 12.9773C29.7883 13.3466 29.4154 13.6378 28.936 13.8509C28.4566 14.0639 27.8991 14.1705 27.2634 14.1705C26.4289 14.1705 25.7382 13.9893 25.1913 13.6271C24.6444 13.2649 24.2982 12.7358 24.1526 12.0398L25.3458 11.7415C25.4594 12.1818 25.6743 12.5121 25.9903 12.7322C26.3099 12.9524 26.7272 13.0625 27.2421 13.0625C27.828 13.0625 28.2932 12.9382 28.6377 12.6896C28.9857 12.4375 29.1597 12.1357 29.1597 11.7841C29.1597 11.5 29.0603 11.2621 28.8614 11.0703C28.6626 10.875 28.3572 10.7294 27.9452 10.6335L26.5816 10.3139C25.8323 10.1364 25.2819 9.86115 24.9303 9.48828C24.5823 9.11186 24.4083 8.64134 24.4083 8.0767C24.4083 7.61506 24.5379 7.20668 24.7971 6.85156C25.0599 6.49645 25.4168 6.21768 25.8678 6.01527C26.3224 5.81286 26.8373 5.71165 27.4126 5.71165C28.2222 5.71165 28.8579 5.8892 29.3195 6.24432C29.7847 6.59943 30.115 7.06818 30.3103 7.65057ZM35.7821 14.1705C34.9938 14.1705 34.3137 13.9964 33.742 13.6484C33.1738 13.2969 32.7353 12.8068 32.4263 12.1783C32.1209 11.5462 31.9682 10.8111 31.9682 9.97301C31.9682 9.13494 32.1209 8.39631 32.4263 7.7571C32.7353 7.11435 33.165 6.61364 33.7154 6.25497C34.2694 5.89276 34.9157 5.71165 35.6543 5.71165C36.0804 5.71165 36.5012 5.78267 36.9167 5.92472C37.3322 6.06676 37.7104 6.29759 38.0513 6.61719C38.3922 6.93324 38.6639 7.35227 38.8663 7.87429C39.0687 8.39631 39.1699 9.03906 39.1699 9.80256V10.3352H32.8631V9.24858H37.8915C37.8915 8.78693 37.7992 8.375 37.6145 8.01278C37.4334 7.65057 37.1742 7.3647 36.8368 7.15518C36.503 6.94567 36.1088 6.84091 35.6543 6.84091C35.1536 6.84091 34.7203 6.9652 34.3546 7.21378C33.9924 7.45881 33.7136 7.77841 33.5183 8.17258C33.323 8.56676 33.2253 8.98935 33.2253 9.44034V10.1648C33.2253 10.7827 33.3319 11.3065 33.5449 11.7362C33.7615 12.1623 34.0616 12.4872 34.4451 12.7109C34.8287 12.9311 35.2743 13.0412 35.7821 13.0412C36.1124 13.0412 36.4107 12.995 36.677 12.9027C36.9469 12.8068 37.1795 12.6648 37.3748 12.4766C37.5701 12.2848 37.7211 12.0469 37.8276 11.7628L39.0421 12.1037C38.9142 12.5156 38.6994 12.8778 38.3975 13.1903C38.0957 13.4993 37.7228 13.7408 37.2789 13.9148C36.835 14.0852 36.3361 14.1705 35.7821 14.1705ZM41.0822 14V5.81818H42.2967V7.05398H42.3819C42.5311 6.64915 42.801 6.32067 43.1916 6.06854C43.5822 5.81641 44.0225 5.69034 44.5126 5.69034C44.6049 5.69034 44.7203 5.69212 44.8588 5.69567C44.9973 5.69922 45.1021 5.70455 45.1731 5.71165V6.99006C45.1305 6.9794 45.0328 6.96342 44.8801 6.94212C44.731 6.91726 44.573 6.90483 44.4061 6.90483C44.0083 6.90483 43.6532 6.98828 43.3407 7.15518C43.0318 7.31854 42.7868 7.54581 42.6056 7.837C42.4281 8.12464 42.3393 8.45312 42.3393 8.82244V14H41.0822ZM53.6026 5.81818L50.5771 14H49.2987L46.2731 5.81818H47.6367L49.8952 12.3381H49.9805L52.239 5.81818H53.6026ZM55.2619 14V5.81818H56.519V14H55.2619ZM55.9011 4.45455C55.6561 4.45455 55.4448 4.37109 55.2672 4.20419C55.0932 4.03729 55.0062 3.83665 55.0062 3.60227C55.0062 3.3679 55.0932 3.16726 55.2672 3.00035C55.4448 2.83345 55.6561 2.75 55.9011 2.75C56.1461 2.75 56.3556 2.83345 56.5297 3.00035C56.7072 3.16726 56.796 3.3679 56.796 3.60227C56.796 3.83665 56.7072 4.03729 56.5297 4.20419C56.3556 4.37109 56.1461 4.45455 55.9011 4.45455ZM62.1453 14.1705C61.3783 14.1705 60.7178 13.9893 60.1638 13.6271C59.6098 13.2649 59.1837 12.766 58.8854 12.1303C58.5871 11.4947 58.4379 10.7685 58.4379 9.9517C58.4379 9.12074 58.5906 8.38743 58.896 7.75178C59.205 7.11257 59.6347 6.61364 60.1851 6.25497C60.7391 5.89276 61.3854 5.71165 62.124 5.71165C62.6993 5.71165 63.2178 5.81818 63.6794 6.03125C64.1411 6.24432 64.5193 6.54261 64.814 6.92614C65.1088 7.30966 65.2916 7.7571 65.3627 8.26847H64.1056C64.0097 7.8956 63.7966 7.56534 63.4664 7.2777C63.1396 6.98651 62.6993 6.84091 62.1453 6.84091C61.6553 6.84091 61.2256 6.96875 60.8563 7.22443C60.4905 7.47656 60.2046 7.83345 59.9987 8.2951C59.7963 8.7532 59.695 9.29119 59.695 9.90909C59.695 10.5412 59.7945 11.0916 59.9933 11.5604C60.1958 12.0291 60.4798 12.3931 60.8456 12.6523C61.2149 12.9116 61.6482 13.0412 62.1453 13.0412C62.472 13.0412 62.7686 12.9844 63.0349 12.8707C63.3012 12.7571 63.5267 12.5938 63.7114 12.3807C63.896 12.1676 64.0274 11.9119 64.1056 11.6136H65.3627C65.2916 12.0966 65.1159 12.5316 64.8353 12.9187C64.5583 13.3022 64.1908 13.6076 63.7327 13.8349C63.2781 14.0586 62.749 14.1705 62.1453 14.1705ZM70.6308 14.1705C69.8424 14.1705 69.1624 13.9964 68.5906 13.6484C68.0225 13.2969 67.5839 12.8068 67.2749 12.1783C66.9695 11.5462 66.8169 10.8111 66.8169 9.97301C66.8169 9.13494 66.9695 8.39631 67.2749 7.7571C67.5839 7.11435 68.0136 6.61364 68.564 6.25497C69.118 5.89276 69.7643 5.71165 70.5029 5.71165C70.9291 5.71165 71.3499 5.78267 71.7654 5.92472C72.1808 6.06676 72.559 6.29759 72.8999 6.61719C73.2409 6.93324 73.5125 7.35227 73.7149 7.87429C73.9173 8.39631 74.0186 9.03906 74.0186 9.80256V10.3352H67.7117V9.24858H72.7401C72.7401 8.78693 72.6478 8.375 72.4632 8.01278C72.282 7.65057 72.0228 7.3647 71.6855 7.15518C71.3517 6.94567 70.9575 6.84091 70.5029 6.84091C70.0022 6.84091 69.569 6.9652 69.2032 7.21378C68.841 7.45881 68.5622 7.77841 68.3669 8.17258C68.1716 8.56676 68.074 8.98935 68.074 9.44034V10.1648C68.074 10.7827 68.1805 11.3065 68.3936 11.7362C68.6102 12.1623 68.9102 12.4872 69.2938 12.7109C69.6773 12.9311 70.123 13.0412 70.6308 13.0412C70.961 13.0412 71.2593 12.995 71.5257 12.9027C71.7955 12.8068 72.0281 12.6648 72.2235 12.4766C72.4188 12.2848 72.5697 12.0469 72.6762 11.7628L73.8907 12.1037C73.7629 12.5156 73.548 12.8778 73.2462 13.1903C72.9443 13.4993 72.5715 13.7408 72.1276 13.9148C71.6837 14.0852 71.1847 14.1705 70.6308 14.1705ZM83.4735 14.1705C82.7348 14.1705 82.0867 13.9947 81.5292 13.6431C80.9752 13.2915 80.542 12.7997 80.2295 12.1676C79.9205 11.5355 79.7661 10.7969 79.7661 9.9517C79.7661 9.09943 79.9205 8.35547 80.2295 7.71982C80.542 7.08416 80.9752 6.59055 81.5292 6.23899C82.0867 5.88743 82.7348 5.71165 83.4735 5.71165C84.2121 5.71165 84.8584 5.88743 85.4124 6.23899C85.9699 6.59055 86.4031 7.08416 86.7121 7.71982C87.0246 8.35547 87.1808 9.09943 87.1808 9.9517C87.1808 10.7969 87.0246 11.5355 86.7121 12.1676C86.4031 12.7997 85.9699 13.2915 85.4124 13.6431C84.8584 13.9947 84.2121 14.1705 83.4735 14.1705ZM83.4735 13.0412C84.0345 13.0412 84.4962 12.8974 84.8584 12.6097C85.2206 12.3221 85.4887 11.9439 85.6627 11.4751C85.8367 11.0064 85.9237 10.4986 85.9237 9.9517C85.9237 9.40483 85.8367 8.89524 85.6627 8.42294C85.4887 7.95064 85.2206 7.56889 84.8584 7.2777C84.4962 6.98651 84.0345 6.84091 83.4735 6.84091C82.9124 6.84091 82.4507 6.98651 82.0885 7.2777C81.7263 7.56889 81.4582 7.95064 81.2842 8.42294C81.1102 8.89524 81.0232 9.40483 81.0232 9.9517C81.0232 10.4986 81.1102 11.0064 81.2842 11.4751C81.4582 11.9439 81.7263 12.3221 82.0885 12.6097C82.4507 12.8974 82.9124 13.0412 83.4735 13.0412ZM90.3569 9.07812V14H89.0998V5.81818H90.3143V7.09659H90.4208C90.6126 6.68111 90.9038 6.3473 91.2944 6.09517C91.685 5.83949 92.1893 5.71165 92.8072 5.71165C93.3612 5.71165 93.8459 5.82528 94.2614 6.05256C94.6768 6.27628 95 6.61719 95.2308 7.07528C95.4616 7.52983 95.5771 8.10511 95.5771 8.80114V14H94.32V8.88636C94.32 8.24361 94.1531 7.7429 93.8192 7.38423C93.4854 7.02202 93.0273 6.84091 92.445 6.84091C92.0437 6.84091 91.685 6.92791 91.369 7.10192C91.0565 7.27592 90.8097 7.52983 90.6286 7.86364C90.4474 8.19744 90.3569 8.60227 90.3569 9.07812ZM99.1313 3.09091V14H97.8742V3.09091H99.1313ZM102.243 17.0682C102.03 17.0682 101.84 17.0504 101.673 17.0149C101.507 16.983 101.391 16.951 101.327 16.919L101.647 15.8111C101.952 15.8892 102.222 15.9176 102.456 15.8963C102.691 15.875 102.899 15.7702 103.08 15.582C103.264 15.3974 103.433 15.0973 103.586 14.6818L103.82 14.0426L100.795 5.81818H102.158L104.417 12.3381H104.502L106.76 5.81818H108.124L104.651 15.1932C104.495 15.6158 104.301 15.9656 104.07 16.2425C103.84 16.5231 103.572 16.7308 103.266 16.8658C102.964 17.0007 102.623 17.0682 102.243 17.0682ZM117.646 5.81818V6.88352H113.235V5.81818H117.646ZM114.556 14V4.68892C114.556 4.22017 114.666 3.82954 114.886 3.51704C115.107 3.20454 115.392 2.97017 115.744 2.81392C116.096 2.65767 116.467 2.57954 116.857 2.57954C117.166 2.57954 117.418 2.6044 117.614 2.65412C117.809 2.70383 117.955 2.75 118.05 2.79261L117.688 3.87926C117.624 3.85795 117.536 3.83132 117.422 3.79936C117.312 3.7674 117.166 3.75142 116.985 3.75142C116.57 3.75142 116.27 3.85618 116.085 4.0657C115.904 4.27521 115.813 4.58239 115.813 4.98722V14H114.556ZM122.394 14.1705C121.656 14.1705 121.008 13.9947 120.45 13.6431C119.896 13.2915 119.463 12.7997 119.15 12.1676C118.841 11.5355 118.687 10.7969 118.687 9.9517C118.687 9.09943 118.841 8.35547 119.15 7.71982C119.463 7.08416 119.896 6.59055 120.45 6.23899C121.008 5.88743 121.656 5.71165 122.394 5.71165C123.133 5.71165 123.779 5.88743 124.333 6.23899C124.891 6.59055 125.324 7.08416 125.633 7.71982C125.945 8.35547 126.102 9.09943 126.102 9.9517C126.102 10.7969 125.945 11.5355 125.633 12.1676C125.324 12.7997 124.891 13.2915 124.333 13.6431C123.779 13.9947 123.133 14.1705 122.394 14.1705ZM122.394 13.0412C122.955 13.0412 123.417 12.8974 123.779 12.6097C124.142 12.3221 124.41 11.9439 124.584 11.4751C124.758 11.0064 124.845 10.4986 124.845 9.9517C124.845 9.40483 124.758 8.89524 124.584 8.42294C124.41 7.95064 124.142 7.56889 123.779 7.2777C123.417 6.98651 122.955 6.84091 122.394 6.84091C121.833 6.84091 121.372 6.98651 121.009 7.2777C120.647 7.56889 120.379 7.95064 120.205 8.42294C120.031 8.89524 119.944 9.40483 119.944 9.9517C119.944 10.4986 120.031 11.0064 120.205 11.4751C120.379 11.9439 120.647 12.3221 121.009 12.6097C121.372 12.8974 121.833 13.0412 122.394 13.0412ZM128.021 14V5.81818H129.235V7.05398H129.32C129.47 6.64915 129.739 6.32067 130.13 6.06854C130.521 5.81641 130.961 5.69034 131.451 5.69034C131.543 5.69034 131.659 5.69212 131.797 5.69567C131.936 5.69922 132.041 5.70455 132.112 5.71165V6.99006C132.069 6.9794 131.971 6.96342 131.819 6.94212C131.669 6.91726 131.511 6.90483 131.345 6.90483C130.947 6.90483 130.592 6.98828 130.279 7.15518C129.97 7.31854 129.725 7.54581 129.544 7.837C129.367 8.12464 129.278 8.45312 129.278 8.82244V14H128.021ZM138.63 17.0682C138.417 17.0682 138.227 17.0504 138.06 17.0149C137.893 16.983 137.778 16.951 137.714 16.919L138.034 15.8111C138.339 15.8892 138.609 15.9176 138.843 15.8963C139.078 15.875 139.285 15.7702 139.466 15.582C139.651 15.3974 139.82 15.0973 139.972 14.6818L140.207 14.0426L137.181 5.81818H138.545L140.803 12.3381H140.889L143.147 5.81818H144.511L141.038 15.1932C140.882 15.6158 140.688 15.9656 140.457 16.2425C140.226 16.5231 139.958 16.7308 139.653 16.8658C139.351 17.0007 139.01 17.0682 138.63 17.0682ZM149.201 14.1705C148.462 14.1705 147.814 13.9947 147.257 13.6431C146.703 13.2915 146.27 12.7997 145.957 12.1676C145.648 11.5355 145.494 10.7969 145.494 9.9517C145.494 9.09943 145.648 8.35547 145.957 7.71982C146.27 7.08416 146.703 6.59055 147.257 6.23899C147.814 5.88743 148.462 5.71165 149.201 5.71165C149.94 5.71165 150.586 5.88743 151.14 6.23899C151.697 6.59055 152.131 7.08416 152.44 7.71982C152.752 8.35547 152.908 9.09943 152.908 9.9517C152.908 10.7969 152.752 11.5355 152.44 12.1676C152.131 12.7997 151.697 13.2915 151.14 13.6431C150.586 13.9947 149.94 14.1705 149.201 14.1705ZM149.201 13.0412C149.762 13.0412 150.224 12.8974 150.586 12.6097C150.948 12.3221 151.216 11.9439 151.39 11.4751C151.564 11.0064 151.651 10.4986 151.651 9.9517C151.651 9.40483 151.564 8.89524 151.39 8.42294C151.216 7.95064 150.948 7.56889 150.586 7.2777C150.224 6.98651 149.762 6.84091 149.201 6.84091C148.64 6.84091 148.178 6.98651 147.816 7.2777C147.454 7.56889 147.186 7.95064 147.012 8.42294C146.838 8.89524 146.751 9.40483 146.751 9.9517C146.751 10.4986 146.838 11.0064 147.012 11.4751C147.186 11.9439 147.454 12.3221 147.816 12.6097C148.178 12.8974 148.64 13.0412 149.201 13.0412ZM159.984 10.6548V5.81818H161.241V14H159.984V12.6151H159.898C159.707 13.0305 159.408 13.3839 159.003 13.6751C158.599 13.9627 158.087 14.1065 157.469 14.1065C156.958 14.1065 156.503 13.9947 156.106 13.771C155.708 13.5437 155.396 13.2028 155.168 12.7482C154.941 12.2901 154.827 11.7131 154.827 11.017V5.81818H156.084V10.9318C156.084 11.5284 156.251 12.0043 156.585 12.3594C156.922 12.7145 157.352 12.892 157.874 12.892C158.187 12.892 158.505 12.8121 158.828 12.6523C159.154 12.4925 159.428 12.2475 159.648 11.9173C159.872 11.587 159.984 11.1662 159.984 10.6548Z" fill="#011E5F"/>
<path d="M68.6144 26.4144C67.4926 25.4503 62.0154 21.6379 65.5006 22.0219C66.0131 22.0784 72.0896 22.5337 71.999 23.1564C71.9966 23.1728 64.0048 24.9737 63.0637 25.6581C62.4366 26.1141 66.6214 23.1657 67.5314 21.7892C68.3248 20.589 69.4521 16.9952 70.0698 18.2694C71.0973 20.3889 67.0219 28.3893 66.7868 27.9852" stroke="#FF4E4E" stroke-linecap="round"/>
<path d="M72.321 36V25.0909H78.8622V26.2628H73.642V29.9489H78.3722V31.1207H73.642V36H72.321ZM80.9543 36V27.8182H82.2114V36H80.9543ZM81.5935 26.4545C81.3485 26.4545 81.1372 26.3711 80.9596 26.2042C80.7856 26.0373 80.6986 25.8366 80.6986 25.6023C80.6986 25.3679 80.7856 25.1673 80.9596 25.0004C81.1372 24.8335 81.3485 24.75 81.5935 24.75C81.8385 24.75 82.048 24.8335 82.222 25.0004C82.3996 25.1673 82.4884 25.3679 82.4884 25.6023C82.4884 25.8366 82.3996 26.0373 82.222 26.2042C82.048 26.3711 81.8385 26.4545 81.5935 26.4545ZM88.0721 27.8182V28.8835H83.832V27.8182H88.0721ZM85.0678 25.858H86.3249V33.6562C86.3249 34.0114 86.3764 34.2777 86.4794 34.4553C86.5859 34.6293 86.7209 34.7464 86.8842 34.8068C87.0511 34.8636 87.2269 34.892 87.4116 34.892C87.5501 34.892 87.6637 34.8849 87.7525 34.8707C87.8413 34.853 87.9123 34.8388 87.9656 34.8281L88.2212 35.9574C88.136 35.9893 88.017 36.0213 87.8643 36.0533C87.7116 36.0888 87.5181 36.1065 87.2837 36.1065C86.9286 36.1065 86.5806 36.0302 86.2397 35.8775C85.9023 35.7248 85.6218 35.4922 85.3981 35.1797C85.1779 34.8672 85.0678 34.473 85.0678 33.9972V25.858ZM94.3576 30.7372V31.9091H89.5849V30.7372H94.3576ZM96.5695 36V27.8182H97.8266V36H96.5695ZM97.2087 26.4545C96.9637 26.4545 96.7524 26.3711 96.5748 26.2042C96.4008 26.0373 96.3138 25.8366 96.3138 25.6023C96.3138 25.3679 96.4008 25.1673 96.5748 25.0004C96.7524 24.8335 96.9637 24.75 97.2087 24.75C97.4537 24.75 97.6633 24.8335 97.8373 25.0004C98.0148 25.1673 98.1036 25.3679 98.1036 25.6023C98.1036 25.8366 98.0148 26.0373 97.8373 26.2042C97.6633 26.3711 97.4537 26.4545 97.2087 26.4545Z" fill="#011E5F"/>
</svg>
