<svg width="74" height="20" viewBox="0 0 74 20" fill="none" xmlns="http://www.w3.org/2000/svg">
<path d="M9.48 3.43V17.365H11.49V3.43H9.48ZM11.04 8.575V10.21H13.5V8.575H11.04ZM1.14 12.37V14.02H2.31C4.725 14.02 6.63 13.96 8.73 13.585L8.535 11.935C6.495 12.295 4.65 12.37 2.31 12.37H1.14ZM1.14 4.72V13.165H3.12V6.325H7.62V4.72H1.14ZM23.6838 3.43V17.365H25.6938V3.43H23.6838ZM18.2088 4.405C16.1088 4.405 14.5638 6.325 14.5638 9.355C14.5638 12.415 16.1088 14.335 18.2088 14.335C20.3088 14.335 21.8538 12.415 21.8538 9.355C21.8538 6.325 20.3088 4.405 18.2088 4.405ZM18.2088 6.22C19.2438 6.22 19.9338 7.315 19.9338 9.355C19.9338 11.425 19.2438 12.535 18.2088 12.535C17.1738 12.535 16.4688 11.425 16.4688 9.355C16.4688 7.315 17.1738 6.22 18.2088 6.22ZM31.5277 4.405C29.4427 4.405 27.9427 6.325 27.9427 9.355C27.9427 12.415 29.4427 14.335 31.5277 14.335C33.5977 14.335 35.1127 12.415 35.1127 9.355C35.1127 6.325 33.5977 4.405 31.5277 4.405ZM31.5277 6.22C32.5477 6.22 33.2077 7.315 33.2077 9.355C33.2077 11.425 32.5477 12.535 31.5277 12.535C30.5227 12.535 29.8477 11.425 29.8477 9.355C29.8477 7.315 30.5227 6.22 31.5277 6.22ZM37.3927 3.43V17.365H39.3727V3.43H37.3927ZM34.5277 8.44V10.045H38.2327V8.44H34.5277ZM42.7615 10.6V12.16H52.5265V10.6H42.7615ZM41.2915 14.125V15.745H53.8615V14.125H41.2915ZM42.7615 4.45V11.035H44.7865V6.055H52.4065V4.45H42.7615ZM44.1715 7.51V9.055H52.0915V7.51H44.1715Z" fill="#011E5F"/>
<path d="M68.3758 3.95428C69.4714 3.95428 70.3537 3.07192 70.3537 1.97634C70.3537 0.880768 69.4714 0 68.3758 0C67.2803 0 66.3995 0.880768 66.3995 1.97634C66.3995 3.07192 67.2803 3.95428 68.3758 3.95428ZM65.2949 11.7325L68.6723 13.63L66.5005 15.4947C66.0237 15.8979 66.015 16.4452 66.3194 16.7864C66.6327 17.1365 67.1767 17.2016 67.6744 16.7792L70.7532 14.1549C71.1883 13.7831 71.1202 12.993 70.5969 12.6525L67.2679 10.4705L67.9221 8.18018C68.0054 7.87451 68.3577 7.832 68.5405 8.09988L69.5233 9.53872C69.762 9.88081 70.2003 10.0147 70.5922 9.83355L73.4225 8.57433C73.9369 8.34279 74.1317 7.88686 73.9089 7.4165C73.6806 6.95812 73.235 6.81791 72.7206 7.04631L70.5024 8.02674L68.9721 5.9144C68.1594 4.79395 67.148 4.34104 65.5032 4.4645L62.3683 4.68654C61.857 4.72341 61.5045 5.05674 61.4308 5.58724L61.0099 8.76464C60.929 9.33517 61.2166 9.73497 61.7286 9.79111C62.2431 9.83678 62.5764 9.5403 62.6517 8.96976L63.0309 6.39728L64.2648 6.3091C64.5286 6.28582 64.7797 6.46871 64.6891 6.7904L63.9597 9.34255C63.5237 10.8773 64.5254 11.2956 65.2949 11.7325ZM59.3177 19.4372C59.6678 19.7344 60.1958 19.7554 60.6535 19.3137L63.544 16.4497C63.7916 16.2037 63.8461 16.1445 63.996 15.7677L65.1842 12.6923L64.8566 12.5129C64.1769 12.1451 63.6969 11.7667 63.3699 11.3635L62.3269 15.0554L59.3322 18.0381C58.8537 18.5062 58.9308 19.1007 59.3177 19.4372Z" fill="#FF7979"/>
</svg>
