<svg width="198" height="183" viewBox="0 0 198 183" fill="none" xmlns="http://www.w3.org/2000/svg">
<path d="M20.792 11.152C23.7573 11.152 25.912 11.7707 27.256 13.008C28.6213 14.2453 29.304 15.952 29.304 18.128C29.304 19.1093 29.1547 20.048 28.856 20.944C28.5573 21.8187 28.056 22.608 27.352 23.312C26.648 24.016 25.72 24.5707 24.568 24.976C23.4373 25.3813 22.0293 25.584 20.344 25.584H18.072V34H13.976V11.152H20.792ZM20.536 14.544H18.072V22.192H19.928C21.0373 22.192 21.976 22.064 22.744 21.808C23.5333 21.5307 24.1307 21.104 24.536 20.528C24.9413 19.952 25.144 19.2053 25.144 18.288C25.144 17.0293 24.7707 16.0907 24.024 15.472C23.2773 14.8533 22.1147 14.544 20.536 14.544ZM40.1245 31.088C40.6365 31.088 41.1272 31.0453 41.5965 30.96C42.0658 30.8533 42.5032 30.736 42.9085 30.608V33.616C42.4818 33.808 41.9272 33.968 41.2445 34.096C40.5618 34.2453 39.8472 34.32 39.1005 34.32C38.1192 34.32 37.2232 34.16 36.4125 33.84C35.6232 33.4987 34.9832 32.9227 34.4925 32.112C34.0232 31.3013 33.7885 30.1707 33.7885 28.72V19.696H31.4525V17.936L34.0125 16.528L35.2925 12.848H37.8205V16.656H42.7485V19.696H37.8205V28.688C37.8205 29.4987 38.0338 30.1067 38.4605 30.512C38.8872 30.896 39.4418 31.088 40.1245 31.088ZM66.525 28.976C66.525 30.128 66.2477 31.1093 65.693 31.92C65.1383 32.7093 64.317 33.3067 63.229 33.712C62.1623 34.1173 60.8503 34.32 59.293 34.32C58.077 34.32 57.0317 34.2347 56.157 34.064C55.2823 33.8933 54.4503 33.6267 53.661 33.264V29.84C54.5143 30.2453 55.4637 30.5867 56.509 30.864C57.5543 31.1413 58.525 31.28 59.421 31.28C60.5303 31.28 61.3303 31.1093 61.821 30.768C62.3117 30.4267 62.557 29.968 62.557 29.392C62.557 29.0507 62.461 28.7413 62.269 28.464C62.077 28.1867 61.7037 27.8987 61.149 27.6C60.5943 27.28 59.7517 26.8853 58.621 26.416C57.5117 25.968 56.5837 25.52 55.837 25.072C55.1117 24.624 54.557 24.0907 54.173 23.472C53.8103 22.832 53.629 22.032 53.629 21.072C53.629 19.5147 54.2477 18.3413 55.485 17.552C56.7223 16.7413 58.3543 16.336 60.381 16.336C61.4477 16.336 62.4503 16.4427 63.389 16.656C64.349 16.848 65.309 17.168 66.269 17.616L64.989 20.592C64.4557 20.3573 63.9223 20.1547 63.389 19.984C62.877 19.792 62.3543 19.6427 61.821 19.536C61.309 19.4293 60.7863 19.376 60.253 19.376C59.3783 19.376 58.717 19.5147 58.269 19.792C57.821 20.048 57.597 20.4107 57.597 20.88C57.597 21.2427 57.7037 21.5627 57.917 21.84C58.1517 22.096 58.5463 22.3627 59.101 22.64C59.677 22.896 60.4877 23.2373 61.533 23.664C62.5783 24.0693 63.4637 24.496 64.189 24.944C64.9357 25.3707 65.5117 25.904 65.917 26.544C66.3223 27.184 66.525 27.9947 66.525 28.976ZM77.3805 16.336C78.9378 16.336 80.2712 16.656 81.3805 17.296C82.5112 17.9147 83.3858 18.8107 84.0045 19.984C84.6232 21.136 84.9325 22.544 84.9325 24.208V26.256H73.4765C73.5192 27.8347 73.9565 29.0613 74.7885 29.936C75.6205 30.7893 76.7725 31.216 78.2445 31.216C79.3752 31.216 80.3778 31.1093 81.2525 30.896C82.1485 30.6613 83.0658 30.3307 84.0045 29.904V33.136C83.1512 33.5413 82.2658 33.84 81.3485 34.032C80.4312 34.224 79.3325 34.32 78.0525 34.32C76.3672 34.32 74.8632 34 73.5405 33.36C72.2392 32.6987 71.2152 31.7067 70.4685 30.384C69.7432 29.0613 69.3805 27.4187 69.3805 25.456C69.3805 23.472 69.7112 21.808 70.3725 20.464C71.0552 19.0987 71.9938 18.0747 73.1885 17.392C74.3832 16.688 75.7805 16.336 77.3805 16.336ZM77.3805 19.312C76.3138 19.312 75.4392 19.664 74.7565 20.368C74.0952 21.0507 73.7005 22.0747 73.5725 23.44H81.0285C81.0285 22.6293 80.8898 21.9147 80.6125 21.296C80.3565 20.6773 79.9618 20.1973 79.4285 19.856C78.8952 19.4933 78.2125 19.312 77.3805 19.312ZM98.0863 16.336C98.3423 16.336 98.6409 16.3467 98.9823 16.368C99.3236 16.3893 99.6116 16.432 99.8463 16.496L99.4943 20.24C99.3023 20.1973 99.0463 20.1653 98.7263 20.144C98.4276 20.1013 98.1609 20.08 97.9263 20.08C97.2863 20.08 96.6676 20.1867 96.0703 20.4C95.4943 20.592 94.9716 20.8907 94.5023 21.296C94.0543 21.68 93.6916 22.1813 93.4143 22.8C93.1583 23.4187 93.0303 24.1547 93.0303 25.008V34H88.9983V16.656H92.1023L92.6783 19.664H92.8703C93.2116 19.0453 93.6383 18.4907 94.1503 18C94.6623 17.488 95.2489 17.0827 95.9103 16.784C96.5929 16.4853 97.3183 16.336 98.0863 16.336ZM107.061 34L100.469 16.656H104.725L108.181 26.672C108.33 27.0773 108.469 27.5253 108.597 28.016C108.725 28.4853 108.831 28.9547 108.917 29.424C109.023 29.872 109.087 30.2667 109.109 30.608H109.237C109.279 30.2453 109.354 29.84 109.461 29.392C109.567 28.9227 109.685 28.4533 109.813 27.984C109.962 27.5147 110.101 27.0773 110.229 26.672L113.685 16.656H117.941L111.349 34H107.061ZM124.562 16.656V34H120.53V16.656H124.562ZM122.546 9.968C123.143 9.968 123.666 10.128 124.114 10.448C124.562 10.7467 124.786 11.2907 124.786 12.08C124.786 12.848 124.562 13.4027 124.114 13.744C123.666 14.064 123.143 14.224 122.546 14.224C121.927 14.224 121.394 14.064 120.946 13.744C120.519 13.4027 120.306 12.848 120.306 12.08C120.306 11.2907 120.519 10.7467 120.946 10.448C121.394 10.128 121.927 9.968 122.546 9.968ZM136.725 34.32C135.082 34.32 133.653 34.0107 132.437 33.392C131.242 32.752 130.314 31.7813 129.653 30.48C129.013 29.1573 128.693 27.472 128.693 25.424C128.693 23.2907 129.045 21.5627 129.749 20.24C130.474 18.896 131.466 17.9147 132.725 17.296C133.984 16.656 135.424 16.336 137.045 16.336C138.133 16.336 139.104 16.4427 139.957 16.656C140.81 16.8693 141.536 17.1253 142.133 17.424L140.949 20.592C140.288 20.336 139.626 20.1227 138.965 19.952C138.304 19.76 137.664 19.664 137.045 19.664C136.085 19.664 135.285 19.8773 134.645 20.304C134.026 20.7307 133.568 21.3707 133.269 22.224C132.97 23.056 132.821 24.112 132.821 25.392C132.821 26.6293 132.97 27.664 133.269 28.496C133.589 29.328 134.058 29.9573 134.677 30.384C135.296 30.7893 136.064 30.992 136.981 30.992C137.962 30.992 138.826 30.8747 139.573 30.64C140.32 30.4053 141.024 30.0853 141.685 29.68V33.168C141.024 33.5733 140.309 33.8613 139.541 34.032C138.794 34.224 137.856 34.32 136.725 34.32ZM152.724 16.336C154.282 16.336 155.615 16.656 156.724 17.296C157.855 17.9147 158.73 18.8107 159.348 19.984C159.967 21.136 160.276 22.544 160.276 24.208V26.256H148.82C148.863 27.8347 149.3 29.0613 150.132 29.936C150.964 30.7893 152.116 31.216 153.588 31.216C154.719 31.216 155.722 31.1093 156.596 30.896C157.492 30.6613 158.41 30.3307 159.348 29.904V33.136C158.495 33.5413 157.61 33.84 156.692 34.032C155.775 34.224 154.676 34.32 153.396 34.32C151.711 34.32 150.207 34 148.884 33.36C147.583 32.6987 146.559 31.7067 145.812 30.384C145.087 29.0613 144.724 27.4187 144.724 25.456C144.724 23.472 145.055 21.808 145.716 20.464C146.399 19.0987 147.338 18.0747 148.532 17.392C149.727 16.688 151.124 16.336 152.724 16.336ZM152.724 19.312C151.658 19.312 150.783 19.664 150.1 20.368C149.439 21.0507 149.044 22.0747 148.916 23.44H156.372C156.372 22.6293 156.234 21.9147 155.956 21.296C155.7 20.6773 155.306 20.1973 154.772 19.856C154.239 19.4933 153.556 19.312 152.724 19.312ZM29.08 69.296C29.08 70.7467 28.888 72.0267 28.504 73.136C28.12 74.2453 27.5653 75.1947 26.84 75.984C26.136 76.752 25.2613 77.3387 24.216 77.744C23.192 78.128 22.0507 78.32 20.792 78.32C19.5973 78.32 18.4987 78.128 17.496 77.744C16.4933 77.3387 15.6187 76.752 14.872 75.984C14.1467 75.1947 13.5813 74.2453 13.176 73.136C12.7707 72.0267 12.568 70.7467 12.568 69.296C12.568 67.376 12.8987 65.7547 13.56 64.432C14.2213 63.088 15.1707 62.0747 16.408 61.392C17.6667 60.688 19.1493 60.336 20.856 60.336C22.4773 60.336 23.896 60.688 25.112 61.392C26.3493 62.0747 27.32 63.088 28.024 64.432C28.728 65.7547 29.08 67.376 29.08 69.296ZM16.696 69.296C16.696 70.512 16.8347 71.5573 17.112 72.432C17.4107 73.2853 17.8587 73.936 18.456 74.384C19.0747 74.832 19.864 75.056 20.824 75.056C21.8053 75.056 22.5947 74.832 23.192 74.384C23.8107 73.936 24.2587 73.2853 24.536 72.432C24.8133 71.5573 24.952 70.512 24.952 69.296C24.952 68.0587 24.8027 67.024 24.504 66.192C24.2267 65.3387 23.7787 64.6987 23.16 64.272C22.5627 63.824 21.784 63.6 20.824 63.6C19.3733 63.6 18.3173 64.0907 17.656 65.072C17.016 66.0533 16.696 67.4613 16.696 69.296ZM42.5283 60.336C44.4696 60.336 45.9843 60.8373 47.0723 61.84C48.1816 62.8427 48.7362 64.464 48.7362 66.704V78H44.7043V67.504C44.7043 66.2027 44.4483 65.232 43.9363 64.592C43.4243 63.9307 42.6136 63.6 41.5043 63.6C39.8829 63.6 38.7736 64.112 38.1763 65.136C37.5789 66.1387 37.2803 67.6 37.2803 69.52V78H33.2483V60.656H36.3523L36.9283 62.928H37.1523C37.5363 62.3307 38.0056 61.84 38.5603 61.456C39.1149 61.072 39.7336 60.7947 40.4163 60.624C41.0989 60.432 41.8029 60.336 42.5283 60.336ZM57.8115 78H53.7795V53.68H57.8115V78ZM60.375 60.656H64.759L68.215 70.448C68.3643 70.8747 68.4923 71.2907 68.599 71.696C68.727 72.08 68.8337 72.4747 68.919 72.88C69.0043 73.2853 69.0683 73.6907 69.111 74.096H69.239C69.3243 73.5627 69.4523 72.976 69.623 72.336C69.815 71.696 70.007 71.0667 70.199 70.448L73.527 60.656H77.879L70.487 80.304C70.0603 81.4347 69.5163 82.4053 68.855 83.216C68.215 84.0267 67.447 84.6347 66.551 85.04C65.6763 85.4667 64.6843 85.68 63.575 85.68C63.063 85.68 62.6043 85.648 62.199 85.584C61.815 85.5413 61.4737 85.488 61.175 85.424V82.224C61.4097 82.2667 61.687 82.3093 62.007 82.352C62.3483 82.3947 62.7003 82.416 63.063 82.416C63.7243 82.416 64.2897 82.2773 64.759 82C65.2497 81.744 65.655 81.3813 65.975 80.912C66.3163 80.4427 66.5937 79.92 66.807 79.344L67.319 77.936L60.375 60.656ZM97.7715 63.696H93.5795V78H89.5475V63.696H86.7635V61.776L89.5475 60.624V59.44C89.5475 57.9467 89.7822 56.7733 90.2515 55.92C90.7208 55.0667 91.4035 54.4587 92.2995 54.096C93.1955 53.712 94.2515 53.52 95.4675 53.52C96.3208 53.52 97.0888 53.5947 97.7715 53.744C98.4542 53.872 99.0195 54.0213 99.4675 54.192L98.4435 57.2C98.0808 57.0933 97.6755 56.9973 97.2275 56.912C96.8008 56.8053 96.3315 56.752 95.8195 56.752C95.0515 56.752 94.4862 56.9973 94.1235 57.488C93.7608 57.9787 93.5795 58.6613 93.5795 59.536V60.656H97.7715V63.696ZM116.142 69.296C116.142 70.7467 115.951 72.0267 115.567 73.136C115.183 74.2453 114.628 75.1947 113.903 75.984C113.199 76.752 112.324 77.3387 111.279 77.744C110.255 78.128 109.113 78.32 107.855 78.32C106.66 78.32 105.561 78.128 104.559 77.744C103.556 77.3387 102.681 76.752 101.935 75.984C101.209 75.1947 100.644 74.2453 100.239 73.136C99.8332 72.0267 99.6305 70.7467 99.6305 69.296C99.6305 67.376 99.9612 65.7547 100.623 64.432C101.284 63.088 102.233 62.0747 103.471 61.392C104.729 60.688 106.212 60.336 107.919 60.336C109.54 60.336 110.959 60.688 112.175 61.392C113.412 62.0747 114.383 63.088 115.087 64.432C115.791 65.7547 116.142 67.376 116.142 69.296ZM103.759 69.296C103.759 70.512 103.897 71.5573 104.175 72.432C104.473 73.2853 104.921 73.936 105.519 74.384C106.137 74.832 106.927 75.056 107.887 75.056C108.868 75.056 109.657 74.832 110.255 74.384C110.873 73.936 111.321 73.2853 111.599 72.432C111.876 71.5573 112.015 70.512 112.015 69.296C112.015 68.0587 111.865 67.024 111.567 66.192C111.289 65.3387 110.841 64.6987 110.223 64.272C109.625 63.824 108.847 63.6 107.887 63.6C106.436 63.6 105.38 64.0907 104.719 65.072C104.079 66.0533 103.759 67.4613 103.759 69.296ZM129.399 60.336C129.655 60.336 129.953 60.3467 130.295 60.368C130.636 60.3893 130.924 60.432 131.159 60.496L130.807 64.24C130.615 64.1973 130.359 64.1653 130.039 64.144C129.74 64.1013 129.473 64.08 129.239 64.08C128.599 64.08 127.98 64.1867 127.383 64.4C126.807 64.592 126.284 64.8907 125.815 65.296C125.367 65.68 125.004 66.1813 124.727 66.8C124.471 67.4187 124.343 68.1547 124.343 69.008V78H120.311V60.656H123.415L123.991 63.664H124.183C124.524 63.0453 124.951 62.4907 125.463 62C125.975 61.488 126.561 61.0827 127.223 60.784C127.905 60.4853 128.631 60.336 129.399 60.336ZM140.094 60.656H144.478L147.934 70.448C148.083 70.8747 148.211 71.2907 148.318 71.696C148.446 72.08 148.552 72.4747 148.638 72.88C148.723 73.2853 148.787 73.6907 148.83 74.096H148.958C149.043 73.5627 149.171 72.976 149.342 72.336C149.534 71.696 149.726 71.0667 149.918 70.448L153.246 60.656H157.598L150.206 80.304C149.779 81.4347 149.235 82.4053 148.574 83.216C147.934 84.0267 147.166 84.6347 146.27 85.04C145.395 85.4667 144.403 85.68 143.294 85.68C142.782 85.68 142.323 85.648 141.918 85.584C141.534 85.5413 141.192 85.488 140.894 85.424V82.224C141.128 82.2667 141.406 82.3093 141.726 82.352C142.067 82.3947 142.419 82.416 142.782 82.416C143.443 82.416 144.008 82.2773 144.478 82C144.968 81.744 145.374 81.3813 145.694 80.912C146.035 80.4427 146.312 79.92 146.526 79.344L147.038 77.936L140.094 60.656ZM175.674 69.296C175.674 70.7467 175.482 72.0267 175.098 73.136C174.714 74.2453 174.159 75.1947 173.434 75.984C172.73 76.752 171.855 77.3387 170.81 77.744C169.786 78.128 168.644 78.32 167.386 78.32C166.191 78.32 165.092 78.128 164.09 77.744C163.087 77.3387 162.212 76.752 161.466 75.984C160.74 75.1947 160.175 74.2453 159.77 73.136C159.364 72.0267 159.162 70.7467 159.162 69.296C159.162 67.376 159.492 65.7547 160.154 64.432C160.815 63.088 161.764 62.0747 163.002 61.392C164.26 60.688 165.743 60.336 167.45 60.336C169.071 60.336 170.49 60.688 171.706 61.392C172.943 62.0747 173.914 63.088 174.618 64.432C175.322 65.7547 175.674 67.376 175.674 69.296ZM163.29 69.296C163.29 70.512 163.428 71.5573 163.706 72.432C164.004 73.2853 164.452 73.936 165.05 74.384C165.668 74.832 166.458 75.056 167.418 75.056C168.399 75.056 169.188 74.832 169.786 74.384C170.404 73.936 170.852 73.2853 171.13 72.432C171.407 71.5573 171.546 70.512 171.546 69.296C171.546 68.0587 171.396 67.024 171.098 66.192C170.82 65.3387 170.372 64.6987 169.754 64.272C169.156 63.824 168.378 63.6 167.418 63.6C165.967 63.6 164.911 64.0907 164.25 65.072C163.61 66.0533 163.29 67.4613 163.29 69.296ZM195.234 60.656V78H192.066L191.522 75.76H191.33C190.967 76.3573 190.498 76.848 189.922 77.232C189.346 77.5947 188.717 77.8613 188.034 78.032C187.351 78.224 186.647 78.32 185.922 78.32C184.642 78.32 183.533 78.096 182.594 77.648C181.655 77.2 180.941 76.5173 180.45 75.6C179.959 74.6613 179.714 73.456 179.714 71.984V60.656H183.746V71.184C183.746 72.464 184.002 73.4347 184.514 74.096C185.026 74.736 185.837 75.056 186.946 75.056C188.034 75.056 188.887 74.832 189.506 74.384C190.125 73.9147 190.562 73.2427 190.818 72.368C191.074 71.4933 191.202 70.416 191.202 69.136V60.656H195.234Z" fill="#011E5F"/>
<path d="M16.235 179H14.315V169.91H11.24V168.29H19.31V169.91H16.235V179ZM24.2826 170.72C24.4026 170.72 24.5426 170.725 24.7026 170.735C24.8626 170.745 24.9976 170.765 25.1076 170.795L24.9426 172.55C24.8526 172.53 24.7326 172.515 24.5826 172.505C24.4426 172.485 24.3176 172.475 24.2076 172.475C23.9076 172.475 23.6176 172.525 23.3376 172.625C23.0676 172.715 22.8226 172.855 22.6026 173.045C22.3926 173.225 22.2226 173.46 22.0926 173.75C21.9726 174.04 21.9126 174.385 21.9126 174.785V179H20.0226V170.87H21.4776L21.7476 172.28H21.8376C21.9976 171.99 22.1976 171.73 22.4376 171.5C22.6776 171.26 22.9526 171.07 23.2626 170.93C23.5826 170.79 23.9226 170.72 24.2826 170.72ZM29.5614 170.72C30.6114 170.72 31.4064 170.95 31.9464 171.41C32.4964 171.86 32.7714 172.57 32.7714 173.54V179H31.4364L31.0614 177.875H31.0014C30.7714 178.165 30.5314 178.41 30.2814 178.61C30.0414 178.8 29.7614 178.935 29.4414 179.015C29.1314 179.105 28.7514 179.15 28.3014 179.15C27.8214 179.15 27.3864 179.06 26.9964 178.88C26.6164 178.7 26.3164 178.425 26.0964 178.055C25.8764 177.675 25.7664 177.2 25.7664 176.63C25.7664 175.79 26.0714 175.16 26.6814 174.74C27.3014 174.31 28.2364 174.075 29.4864 174.035L30.8964 173.99V173.585C30.8964 173.065 30.7714 172.695 30.5214 172.475C30.2714 172.255 29.9214 172.145 29.4714 172.145C29.0614 172.145 28.6664 172.205 28.2864 172.325C27.9064 172.445 27.5364 172.585 27.1764 172.745L26.5764 171.425C26.9764 171.215 27.4314 171.045 27.9414 170.915C28.4614 170.785 29.0014 170.72 29.5614 170.72ZM29.9064 175.19C29.0764 175.22 28.5014 175.365 28.1814 175.625C27.8614 175.875 27.7014 176.215 27.7014 176.645C27.7014 177.025 27.8164 177.3 28.0464 177.47C28.2764 177.64 28.5714 177.725 28.9314 177.725C29.4814 177.725 29.9464 177.57 30.3264 177.26C30.7064 176.94 30.8964 176.47 30.8964 175.85V175.16L29.9064 175.19ZM37.0298 170.87V179H35.1398V170.87H37.0298ZM36.0848 167.735C36.3648 167.735 36.6098 167.81 36.8198 167.96C37.0298 168.1 37.1348 168.355 37.1348 168.725C37.1348 169.085 37.0298 169.345 36.8198 169.505C36.6098 169.655 36.3648 169.73 36.0848 169.73C35.7948 169.73 35.5448 169.655 35.3348 169.505C35.1348 169.345 35.0348 169.085 35.0348 168.725C35.0348 168.355 35.1348 168.1 35.3348 167.96C35.5448 167.81 35.7948 167.735 36.0848 167.735ZM43.7964 170.72C44.7064 170.72 45.4164 170.955 45.9264 171.425C46.4464 171.895 46.7064 172.655 46.7064 173.705V179H44.8164V174.08C44.8164 173.47 44.6964 173.015 44.4564 172.715C44.2164 172.405 43.8364 172.25 43.3164 172.25C42.5564 172.25 42.0364 172.49 41.7564 172.97C41.4764 173.44 41.3364 174.125 41.3364 175.025V179H39.4464V170.87H40.9014L41.1714 171.935H41.2764C41.4564 171.655 41.6764 171.425 41.9364 171.245C42.1964 171.065 42.4864 170.935 42.8064 170.855C43.1264 170.765 43.4564 170.72 43.7964 170.72ZM52.3405 170.72C53.0705 170.72 53.6955 170.87 54.2155 171.17C54.7455 171.46 55.1555 171.88 55.4455 172.43C55.7355 172.97 55.8805 173.63 55.8805 174.41V175.37H50.5105C50.5305 176.11 50.7355 176.685 51.1255 177.095C51.5155 177.495 52.0555 177.695 52.7455 177.695C53.2755 177.695 53.7455 177.645 54.1555 177.545C54.5755 177.435 55.0055 177.28 55.4455 177.08V178.595C55.0455 178.785 54.6305 178.925 54.2005 179.015C53.7705 179.105 53.2555 179.15 52.6555 179.15C51.8655 179.15 51.1605 179 50.5405 178.7C49.9305 178.39 49.4505 177.925 49.1005 177.305C48.7605 176.685 48.5905 175.915 48.5905 174.995C48.5905 174.065 48.7455 173.285 49.0555 172.655C49.3755 172.015 49.8155 171.535 50.3755 171.215C50.9355 170.885 51.5905 170.72 52.3405 170.72ZM52.3405 172.115C51.8405 172.115 51.4305 172.28 51.1105 172.61C50.8005 172.93 50.6155 173.41 50.5555 174.05H54.0505C54.0505 173.67 53.9855 173.335 53.8555 173.045C53.7355 172.755 53.5505 172.53 53.3005 172.37C53.0505 172.2 52.7305 172.115 52.3405 172.115ZM62.0463 170.72C62.1663 170.72 62.3063 170.725 62.4663 170.735C62.6263 170.745 62.7613 170.765 62.8713 170.795L62.7063 172.55C62.6163 172.53 62.4963 172.515 62.3463 172.505C62.2063 172.485 62.0813 172.475 61.9713 172.475C61.6713 172.475 61.3813 172.525 61.1013 172.625C60.8313 172.715 60.5863 172.855 60.3663 173.045C60.1563 173.225 59.9863 173.46 59.8563 173.75C59.7363 174.04 59.6763 174.385 59.6763 174.785V179H57.7863V170.87H59.2413L59.5113 172.28H59.6013C59.7613 171.99 59.9613 171.73 60.2013 171.5C60.4413 171.26 60.7163 171.07 61.0263 170.93C61.3463 170.79 61.6863 170.72 62.0463 170.72ZM76.5246 168.29L72.8196 179H70.7646L67.0596 168.29H69.0246L71.1846 174.845C71.2546 175.025 71.3246 175.26 71.3946 175.55C71.4746 175.83 71.5496 176.12 71.6196 176.42C71.6996 176.71 71.7596 176.97 71.7996 177.2C71.8296 176.97 71.8796 176.71 71.9496 176.42C72.0296 176.12 72.1096 175.83 72.1896 175.55C72.2696 175.26 72.3396 175.025 72.3996 174.845L74.5596 168.29H76.5246ZM80.7145 170.72C81.4445 170.72 82.0695 170.87 82.5895 171.17C83.1195 171.46 83.5295 171.88 83.8195 172.43C84.1095 172.97 84.2545 173.63 84.2545 174.41V175.37H78.8845C78.9045 176.11 79.1095 176.685 79.4995 177.095C79.8895 177.495 80.4295 177.695 81.1195 177.695C81.6495 177.695 82.1195 177.645 82.5295 177.545C82.9495 177.435 83.3795 177.28 83.8195 177.08V178.595C83.4195 178.785 83.0045 178.925 82.5745 179.015C82.1445 179.105 81.6295 179.15 81.0295 179.15C80.2395 179.15 79.5345 179 78.9145 178.7C78.3045 178.39 77.8245 177.925 77.4745 177.305C77.1345 176.685 76.9645 175.915 76.9645 174.995C76.9645 174.065 77.1195 173.285 77.4295 172.655C77.7495 172.015 78.1895 171.535 78.7495 171.215C79.3095 170.885 79.9645 170.72 80.7145 170.72ZM80.7145 172.115C80.2145 172.115 79.8045 172.28 79.4845 172.61C79.1745 172.93 78.9895 173.41 78.9295 174.05H82.4245C82.4245 173.67 82.3595 173.335 82.2295 173.045C82.1095 172.755 81.9245 172.53 81.6745 172.37C81.4245 172.2 81.1045 172.115 80.7145 172.115ZM90.4203 170.72C90.5403 170.72 90.6803 170.725 90.8403 170.735C91.0003 170.745 91.1353 170.765 91.2453 170.795L91.0803 172.55C90.9903 172.53 90.8703 172.515 90.7203 172.505C90.5803 172.485 90.4553 172.475 90.3453 172.475C90.0453 172.475 89.7553 172.525 89.4753 172.625C89.2053 172.715 88.9603 172.855 88.7403 173.045C88.5303 173.225 88.3603 173.46 88.2303 173.75C88.1103 174.04 88.0503 174.385 88.0503 174.785V179H86.1603V170.87H87.6153L87.8853 172.28H87.9753C88.1353 171.99 88.3353 171.73 88.5753 171.5C88.8153 171.26 89.0903 171.07 89.4003 170.93C89.7203 170.79 90.0603 170.72 90.4203 170.72ZM98.2871 176.645C98.2871 177.185 98.1571 177.645 97.8971 178.025C97.6371 178.395 97.2521 178.675 96.7421 178.865C96.2421 179.055 95.6271 179.15 94.8971 179.15C94.3271 179.15 93.8371 179.11 93.4271 179.03C93.0171 178.95 92.6271 178.825 92.2571 178.655V177.05C92.6571 177.24 93.1021 177.4 93.5921 177.53C94.0821 177.66 94.5371 177.725 94.9571 177.725C95.4771 177.725 95.8521 177.645 96.0821 177.485C96.3121 177.325 96.4271 177.11 96.4271 176.84C96.4271 176.68 96.3821 176.535 96.2921 176.405C96.2021 176.275 96.0271 176.14 95.7671 176C95.5071 175.85 95.1121 175.665 94.5821 175.445C94.0621 175.235 93.6271 175.025 93.2771 174.815C92.9371 174.605 92.6771 174.355 92.4971 174.065C92.3271 173.765 92.2421 173.39 92.2421 172.94C92.2421 172.21 92.5321 171.66 93.1121 171.29C93.6921 170.91 94.4571 170.72 95.4071 170.72C95.9071 170.72 96.3771 170.77 96.8171 170.87C97.2671 170.96 97.7171 171.11 98.1671 171.32L97.5671 172.715C97.3171 172.605 97.0671 172.51 96.8171 172.43C96.5771 172.34 96.3321 172.27 96.0821 172.22C95.8421 172.17 95.5971 172.145 95.3471 172.145C94.9371 172.145 94.6271 172.21 94.4171 172.34C94.2071 172.46 94.1021 172.63 94.1021 172.85C94.1021 173.02 94.1521 173.17 94.2521 173.3C94.3621 173.42 94.5471 173.545 94.8071 173.675C95.0771 173.795 95.4571 173.955 95.9471 174.155C96.4371 174.345 96.8521 174.545 97.1921 174.755C97.5421 174.955 97.8121 175.205 98.0021 175.505C98.1921 175.805 98.2871 176.185 98.2871 176.645ZM101.996 170.87V179H100.106V170.87H101.996ZM101.051 167.735C101.331 167.735 101.576 167.81 101.786 167.96C101.996 168.1 102.101 168.355 102.101 168.725C102.101 169.085 101.996 169.345 101.786 169.505C101.576 169.655 101.331 169.73 101.051 169.73C100.761 169.73 100.511 169.655 100.301 169.505C100.101 169.345 100.001 169.085 100.001 168.725C100.001 168.355 100.101 168.1 100.301 167.96C100.511 167.81 100.761 167.735 101.051 167.735ZM111.672 174.92C111.672 175.6 111.582 176.2 111.402 176.72C111.222 177.24 110.962 177.685 110.622 178.055C110.292 178.415 109.882 178.69 109.392 178.88C108.912 179.06 108.377 179.15 107.787 179.15C107.227 179.15 106.712 179.06 106.242 178.88C105.772 178.69 105.362 178.415 105.012 178.055C104.672 177.685 104.407 177.24 104.217 176.72C104.027 176.2 103.932 175.6 103.932 174.92C103.932 174.02 104.087 173.26 104.397 172.64C104.707 172.01 105.152 171.535 105.732 171.215C106.322 170.885 107.017 170.72 107.817 170.72C108.577 170.72 109.242 170.885 109.812 171.215C110.392 171.535 110.847 172.01 111.177 172.64C111.507 173.26 111.672 174.02 111.672 174.92ZM105.867 174.92C105.867 175.49 105.932 175.98 106.062 176.39C106.202 176.79 106.412 177.095 106.692 177.305C106.982 177.515 107.352 177.62 107.802 177.62C108.262 177.62 108.632 177.515 108.912 177.305C109.202 177.095 109.412 176.79 109.542 176.39C109.672 175.98 109.737 175.49 109.737 174.92C109.737 174.34 109.667 173.855 109.527 173.465C109.397 173.065 109.187 172.765 108.897 172.565C108.617 172.355 108.252 172.25 107.802 172.25C107.122 172.25 106.627 172.48 106.317 172.94C106.017 173.4 105.867 174.06 105.867 174.92ZM117.976 170.72C118.886 170.72 119.596 170.955 120.106 171.425C120.626 171.895 120.886 172.655 120.886 173.705V179H118.996V174.08C118.996 173.47 118.876 173.015 118.636 172.715C118.396 172.405 118.016 172.25 117.496 172.25C116.736 172.25 116.216 172.49 115.936 172.97C115.656 173.44 115.516 174.125 115.516 175.025V179H113.626V170.87H115.081L115.351 171.935H115.456C115.636 171.655 115.856 171.425 116.116 171.245C116.376 171.065 116.666 170.935 116.986 170.855C117.306 170.765 117.636 170.72 117.976 170.72ZM122.98 178.04C122.98 177.62 123.09 177.325 123.31 177.155C123.53 176.975 123.8 176.885 124.12 176.885C124.44 176.885 124.71 176.97 124.93 177.14C125.16 177.31 125.275 177.61 125.275 178.04C125.275 178.45 125.16 178.745 124.93 178.925C124.71 179.105 124.44 179.195 124.12 179.195C123.8 179.195 123.53 179.105 123.31 178.925C123.09 178.745 122.98 178.45 122.98 178.04Z" fill="#011E5F"/>
<path d="M20.56 152H14.6V123.44H30.96V128.4H20.56V135.76H30.24V140.72H20.56V152ZM46.8331 130.16V152H40.8731V130.16H46.8331ZM43.8731 121.6C44.7531 121.6 45.5131 121.813 46.1531 122.24C46.7931 122.64 47.1131 123.4 47.1131 124.52C47.1131 125.613 46.7931 126.373 46.1531 126.8C45.5131 127.227 44.7531 127.44 43.8731 127.44C42.9665 127.44 42.1931 127.227 41.5531 126.8C40.9398 126.373 40.6331 125.613 40.6331 124.52C40.6331 123.4 40.9398 122.64 41.5531 122.24C42.1931 121.813 42.9665 121.6 43.8731 121.6ZM67.0606 147.64C67.7273 147.64 68.3673 147.573 68.9806 147.44C69.594 147.307 70.2073 147.147 70.8206 146.96V151.4C70.1806 151.667 69.3806 151.893 68.4206 152.08C67.4873 152.293 66.4606 152.4 65.3406 152.4C64.034 152.4 62.8606 152.187 61.8206 151.76C60.8073 151.333 59.994 150.6 59.3806 149.56C58.794 148.493 58.5006 147.027 58.5006 145.16V134.64H55.6606V132.12L58.9406 130.12L60.6606 125.52H64.4606V130.16H70.5806V134.64H64.4606V145.16C64.4606 145.987 64.7006 146.613 65.1806 147.04C65.6606 147.44 66.2873 147.64 67.0606 147.64ZM78.0844 143.72V138.84H88.5644V143.72H78.0844ZM103.655 130.16V152H97.695V130.16H103.655ZM100.695 121.6C101.575 121.6 102.335 121.813 102.975 122.24C103.615 122.64 103.935 123.4 103.935 124.52C103.935 125.613 103.615 126.373 102.975 126.8C102.335 127.227 101.575 127.44 100.695 127.44C99.7883 127.44 99.015 127.227 98.375 126.8C97.7617 126.373 97.455 125.613 97.455 124.52C97.455 123.4 97.7617 122.64 98.375 122.24C99.015 121.813 99.7883 121.6 100.695 121.6Z" fill="#011E5F"/>
<path d="M10.3574 121.463C8.48773 119.92 -0.640984 113.821 5.16771 114.435C6.02192 114.525 16.1493 115.254 15.9983 116.25C15.9944 116.276 2.67464 119.158 1.10623 120.253C0.0610722 120.983 7.03565 116.265 8.55228 114.063C9.87464 112.142 11.7535 106.392 12.783 108.431C14.4955 111.822 7.70311 124.623 7.31127 123.976" stroke="#FF4E4E" stroke-linecap="round"/>
</svg>
