<svg width="61" height="20" viewBox="0 0 61 20" fill="none" xmlns="http://www.w3.org/2000/svg">
<path d="M59.1283 9.14167L59.6783 6.94167C59.77 6.66667 60.1367 5.38333 59.4033 4.28333C58.8533 3.45833 57.7533 3 56.195 3H54.3617C52.8033 3 51.7033 3.45833 51.1533 4.28333C50.42 5.38333 50.7867 6.575 50.8783 6.94167L51.4283 9.14167C50.42 10.15 49.7783 11.525 49.7783 13.0833C49.7783 15.0083 50.7867 16.6583 52.2533 17.6667H58.3033C59.77 16.6583 60.7783 15.0083 60.7783 13.0833C60.7783 11.525 60.1367 10.15 59.1283 9.14167ZM53.0783 8.04167L52.62 6.48333V6.39167C52.62 6.39167 52.4367 5.75 52.7117 5.38333C52.895 5.01667 53.445 4.83333 54.3617 4.83333H56.195C57.02 4.83333 57.6617 5.01667 57.9367 5.29167C58.2117 5.65833 58.0283 6.3 58.0283 6.3L57.57 8.04167C56.8367 7.76667 56.1033 7.58333 55.2783 7.58333C54.4533 7.58333 53.72 7.76667 53.0783 8.04167Z" fill="#BEBEBE"/>
<path d="M9.23214 12.6628C9.1169 13.2618 8.86205 13.8068 8.46759 14.2978C8.07501 14.779 7.55133 15.162 6.89655 15.4467C6.24365 15.7217 5.4622 15.8592 4.5522 15.8592C4.1322 15.8592 3.74692 15.8346 3.39637 15.7855C3.04581 15.7364 2.71404 15.6677 2.40104 15.5793C2.09993 15.4811 1.80855 15.3584 1.52689 15.2111L1.96614 12.9279C2.4589 13.1734 2.96923 13.3796 3.49711 13.5466C4.035 13.7135 4.56394 13.797 5.08394 13.797C5.41394 13.797 5.68649 13.7577 5.90161 13.6791C6.12861 13.5908 6.30034 13.4778 6.41679 13.3404C6.54513 13.1931 6.62724 13.0261 6.66314 12.8395C6.70659 12.6137 6.66343 12.4222 6.53366 12.2651C6.41578 12.0981 6.221 11.941 5.94934 11.7937C5.67957 11.6366 5.34858 11.4598 4.95636 11.2634C4.66281 11.126 4.37804 10.9688 4.10205 10.7921C3.83794 10.6055 3.60356 10.3944 3.3989 10.1587C3.20613 9.91321 3.06686 9.62352 2.9811 9.28964C2.90722 8.94594 2.91468 8.54333 3.00348 8.08179C3.13005 7.42386 3.39085 6.87394 3.78587 6.43204C4.19277 5.98033 4.7039 5.63663 5.31924 5.40095C5.93458 5.16528 6.62725 5.04744 7.39725 5.04744C8.02725 5.04744 8.59403 5.11618 9.09758 5.25366C9.60113 5.39113 10.0821 5.56789 10.5406 5.78393L9.35365 7.743C8.91333 7.53679 8.49356 7.37967 8.09434 7.27165C7.70701 7.15381 7.31834 7.09489 6.92834 7.09489C6.65834 7.09489 6.42579 7.13417 6.23067 7.21273C6.03745 7.28147 5.88261 7.38458 5.76616 7.52206C5.6516 7.64971 5.57732 7.80192 5.54331 7.97868C5.50364 8.1849 5.53869 8.36657 5.64846 8.52369C5.76012 8.67099 5.95084 8.8232 6.22061 8.98031C6.49038 9.13743 6.84854 9.32892 7.29509 9.55478C7.77975 9.79046 8.18563 10.0458 8.51273 10.3207C8.83983 10.5957 9.06749 10.9197 9.19569 11.2929C9.32579 11.6562 9.33794 12.1129 9.23214 12.6628ZM12.8227 15.7119H10.2877L12.4414 4.51716H14.9764L12.8227 15.7119ZM19.0806 7.62517L17.5248 15.7119H15.0048L16.5606 7.62517H19.0806ZM18.4534 4.41405C18.8134 4.41405 19.1133 4.49261 19.3531 4.64973C19.5928 4.80685 19.6693 5.11127 19.5824 5.56298C19.4973 6.00488 19.3038 6.3093 19.0017 6.47623C18.7014 6.63335 18.3713 6.71191 18.0113 6.71191C17.6313 6.71191 17.3214 6.63335 17.0817 6.47623C16.8538 6.3093 16.7823 6.00488 16.8674 5.56298C16.9543 5.11127 17.1428 4.80685 17.4331 4.64973C17.7333 4.49261 18.0734 4.41405 18.4534 4.41405ZM21.7616 15.7119L20.1824 7.62517H22.8224L23.4213 12.3093C23.4305 12.4173 23.435 12.5499 23.4347 12.707C23.4464 12.8543 23.4471 13.0065 23.4369 13.1636C23.4385 13.3109 23.4271 13.4484 23.4025 13.576H23.4625C23.489 13.4386 23.5264 13.2962 23.5747 13.1489C23.6331 13.0016 23.6905 12.8592 23.7469 12.7217C23.8152 12.5744 23.8807 12.4418 23.9434 12.324L26.3774 7.62517H29.0024L24.3116 15.7119H21.7616ZM33.6641 7.47787C34.4441 7.47787 35.0867 7.62026 35.5919 7.90503C36.109 8.17999 36.4647 8.59243 36.6589 9.14234C36.865 9.68244 36.8906 10.3551 36.7357 11.1603L36.5146 12.3093H31.3096C31.2276 12.8395 31.3214 13.2618 31.5909 13.576C31.8604 13.8903 32.3002 14.0474 32.9102 14.0474C33.4402 14.0474 33.9297 13.9983 34.3786 13.9001C34.8274 13.8019 35.3027 13.6448 35.8042 13.4287L35.45 15.27C35.0103 15.4762 34.552 15.6235 34.075 15.7119C33.5961 15.8101 33.0217 15.8592 32.3517 15.8592C31.5217 15.8592 30.81 15.7119 30.2167 15.4173C29.6333 15.1227 29.2152 14.671 28.9624 14.0621C28.7214 13.4435 28.6916 12.6628 28.873 11.7201C29.0581 10.7577 29.3752 9.96722 29.8242 9.34856C30.2751 8.72009 30.8299 8.25364 31.4884 7.94922C32.1489 7.63499 32.8741 7.47787 33.6641 7.47787ZM33.3776 9.20126C32.9876 9.20126 32.6389 9.32401 32.3317 9.56951C32.0364 9.80519 31.8136 10.1833 31.6635 10.7037H34.4985C34.5533 10.4189 34.5474 10.1636 34.4809 9.93776C34.4243 9.7119 34.3033 9.53514 34.1179 9.40748C33.9343 9.27 33.6876 9.20126 33.3776 9.20126ZM43.9322 7.47787C44.0622 7.47787 44.2053 7.48769 44.3615 7.50733C44.5196 7.51715 44.6418 7.53188 44.728 7.55152L44.0703 9.87884C43.9841 9.8592 43.8719 9.84447 43.7338 9.83465C43.5976 9.81501 43.4445 9.80519 43.2745 9.80519C43.0345 9.80519 42.7888 9.83465 42.5374 9.89357C42.288 9.94267 42.0501 10.036 41.8236 10.1734C41.599 10.3011 41.4032 10.4877 41.2359 10.7332C41.0706 10.9688 40.9511 11.2782 40.8774 11.6612L40.0981 15.7119H37.5631L39.1189 7.62517H41.0239L41.1588 8.95085H41.2638C41.4767 8.6759 41.7239 8.4304 42.0055 8.21436C42.289 7.9885 42.593 7.81174 42.9175 7.68408C43.254 7.54661 43.5922 7.47787 43.9322 7.47787Z" fill="black"/>
</svg>
