<svg width="74" height="20" viewBox="0 0 74 20" fill="none" xmlns="http://www.w3.org/2000/svg">
<path d="M0.6 10.195V11.77H13.185V10.195H0.6ZM5.985 11.23V14.155H8.01V11.23H5.985ZM2.07 15.49V17.095H11.805V15.49H2.07ZM2.07 12.94V15.895H4.08V12.94H2.07ZM6.885 3.7C3.885 3.7 1.89 4.825 1.89 6.58C1.89 8.35 3.885 9.46 6.885 9.46C9.87 9.46 11.88 8.35 11.88 6.58C11.88 4.825 9.87 3.7 6.885 3.7ZM6.885 5.275C8.64 5.275 9.735 5.725 9.735 6.58C9.735 7.435 8.64 7.87 6.885 7.87C5.13 7.87 4.035 7.435 4.035 6.58C4.035 5.725 5.13 5.275 6.885 5.275ZM14.1738 9.97V11.56H26.7438V9.97H14.1738ZM19.4688 7.885V10.585H21.4488V7.885H19.4688ZM15.6888 7.255V8.83H25.3188V7.255H15.6888ZM15.6888 4.045V8.26H17.6688V5.605H25.2438V4.045H15.6888ZM20.4138 12.25C17.4138 12.25 15.5838 13.165 15.5838 14.8C15.5838 16.435 17.4138 17.35 20.4138 17.35C23.4138 17.35 25.2288 16.435 25.2288 14.8C25.2288 13.165 23.4138 12.25 20.4138 12.25ZM20.4138 13.75C22.2738 13.75 23.2188 14.095 23.2188 14.8C23.2188 15.52 22.2738 15.835 20.4138 15.835C18.5538 15.835 17.6088 15.52 17.6088 14.8C17.6088 14.095 18.5538 13.75 20.4138 13.75ZM37.2577 3.46V13.615H39.2677V3.46H37.2577ZM30.0127 15.505V17.095H39.6127V15.505H30.0127ZM30.0127 12.715V16.435H32.0077V12.715H30.0127ZM31.1077 6.19V6.685C31.1077 8.305 30.1177 9.94 27.8377 10.6L28.7827 12.16C31.4677 11.38 32.7427 9.175 32.7427 6.685V6.19H31.1077ZM31.4827 6.19V6.685C31.4827 9.07 32.7577 11.185 35.4577 11.935L36.3877 10.375C34.1077 9.745 33.1027 8.2 33.1027 6.685V6.19H31.4827ZM28.3027 5.05V6.61H35.8927V5.05H28.3027ZM31.1077 3.52V5.695H33.1027V3.52H31.1077ZM42.7165 4.255V5.83H51.4315V4.255H42.7165ZM41.2915 10.165V11.77H53.8465V10.165H41.2915ZM46.4965 11.29V17.35H48.5065V11.29H46.4965ZM50.4115 4.255V5.485C50.4115 6.925 50.4115 8.575 49.8715 10.9L51.8365 11.125C52.3765 8.665 52.3765 6.985 52.3765 5.485V4.255H50.4115Z" fill="#011E5F"/>
<path d="M72.5176 11.3258C72.7111 11.449 72.9575 11.4006 73.0938 11.2026C73.6657 10.3933 74 9.31114 74 8.19824C74 7.08094 73.6701 5.99443 73.0938 5.18944C72.9575 4.9915 72.7111 4.94311 72.5176 5.07068C72.3109 5.19824 72.2801 5.45777 72.434 5.68651C72.9003 6.36833 73.1686 7.26569 73.1686 8.19824C73.1686 9.12639 72.8959 10.0194 72.434 10.7056C72.2845 10.9343 72.3109 11.1938 72.5176 11.3258ZM67.4633 10.2833C68.5235 10.2833 69.3856 9.34634 69.3856 8.19824C69.3856 7.06334 68.5279 6.16158 67.4633 6.16158C66.4032 6.16158 65.5323 7.07654 65.5367 8.20264C65.5411 9.35073 66.3988 10.2833 67.4633 10.2833ZM70.7581 10.1513C70.9428 10.2701 71.1891 10.2261 71.3211 10.037C71.6774 9.56188 71.8842 8.89326 71.8842 8.19824C71.8842 7.49883 71.6774 6.83461 71.3211 6.35513C71.1891 6.16598 70.9428 6.122 70.7581 6.24956C70.5469 6.38592 70.5073 6.64546 70.6745 6.89179C70.9208 7.2349 71.0572 7.70557 71.0572 8.19824C71.0572 8.68651 70.9164 9.15279 70.6745 9.50469C70.5117 9.75103 70.5469 10.0062 70.7581 10.1513ZM62.3651 10.3845C63.2889 10.3845 64.0411 9.56188 64.0411 8.55015C64.0411 7.56041 63.2933 6.75982 62.3651 6.75982C61.4457 6.75982 60.6891 7.57361 60.6891 8.55455C60.6935 9.56628 61.4457 10.3845 62.3651 10.3845ZM67.4633 9.52669C66.8519 9.52669 66.3328 8.94604 66.3328 8.20264C66.3328 7.48123 66.8475 6.92258 67.4633 6.92258C68.0792 6.92258 68.5894 7.47243 68.5894 8.19824C68.5894 8.93724 68.0748 9.52669 67.4633 9.52669ZM62.3651 9.63666C61.8636 9.63666 61.4413 9.15719 61.4413 8.55455C61.437 7.9783 61.8636 7.50763 62.3651 7.50763C62.8798 7.50763 63.2977 7.9695 63.2977 8.55015C63.2977 9.15719 62.871 9.63666 62.3651 9.63666ZM59.9413 14.427H63.3592C63.1217 14.2906 62.9633 13.9739 62.9941 13.6836H59.893C59.8094 13.6836 59.7742 13.6484 59.7742 13.5692C59.7742 12.5575 60.9619 11.5897 62.3651 11.5897C62.8578 11.5897 63.3504 11.7129 63.7331 11.9284C63.8827 11.7173 64.063 11.537 64.3006 11.3786C63.7463 11.0311 63.0513 10.8463 62.3651 10.8463C60.5044 10.8463 59 12.1792 59 13.6396C59 14.1587 59.3123 14.427 59.9413 14.427ZM64.7185 14.427H70.2038C70.9604 14.427 71.3255 14.1894 71.3255 13.6748C71.3255 12.4695 69.8211 10.8507 67.4589 10.8507C65.0968 10.8507 63.5924 12.4695 63.5924 13.6748C63.5924 14.1894 63.9575 14.427 64.7185 14.427ZM64.5689 13.666C64.4677 13.666 64.4282 13.6352 64.4282 13.5516C64.4282 12.8786 65.5147 11.6117 67.4589 11.6117C69.4032 11.6117 70.4941 12.8786 70.4941 13.5516C70.4941 13.6352 70.4501 13.666 70.349 13.666H64.5689Z" fill="#0FD4FF"/>
</svg>
