<svg width="21" height="20" viewBox="0 0 21 20" fill="none" xmlns="http://www.w3.org/2000/svg">
<path d="M0 16.2334C0 18.0527 1.00195 19.0459 2.8916 19.0459H17.9121C19.8193 19.0459 20.8125 18.0615 20.8125 16.1807V2.86523C20.8125 0.984375 19.8193 0 17.9121 0H6.91699C5.00977 0 4.02539 0.984375 4.02539 2.86523V6.77637H2.0918C0.782227 6.77637 0 7.51465 0 8.77148V16.2334ZM5.51953 17.2881C5.68652 16.9717 5.77441 16.5938 5.77441 16.1631V3.02344C5.77441 2.17969 6.21387 1.75781 7.03125 1.75781H17.7979C18.624 1.75781 19.0547 2.17969 19.0547 3.02344V16.0225C19.0547 16.8662 18.624 17.2881 17.7979 17.2881H5.51953ZM8.00684 5.49316H16.8398C17.1738 5.49316 17.4287 5.22949 17.4287 4.89551C17.4287 4.57031 17.1738 4.31543 16.8398 4.31543H8.00684C7.65527 4.31543 7.40039 4.57031 7.40039 4.89551C7.40039 5.22949 7.66406 5.49316 8.00684 5.49316ZM8.00684 8.52539H16.8398C17.1738 8.52539 17.4287 8.27051 17.4287 7.94531C17.4287 7.61133 17.1738 7.34766 16.8398 7.34766H8.00684C7.66406 7.34766 7.40039 7.61133 7.40039 7.94531C7.40039 8.27051 7.65527 8.52539 8.00684 8.52539ZM1.74902 16.1367V9.0791C1.74902 8.73633 1.96875 8.52539 2.32031 8.52539H4.02539V16.1367C4.02539 16.8135 3.5332 17.2881 2.8916 17.2881C2.25 17.2881 1.74902 16.7959 1.74902 16.1367ZM8.49902 14.625H10.6787C11.3643 14.625 11.7861 14.2119 11.7861 13.5264V11.4873C11.7861 10.8105 11.3643 10.3887 10.6787 10.3887H8.49902C7.81348 10.3887 7.3916 10.8105 7.3916 11.4873V13.5264C7.3916 14.2119 7.81348 14.625 8.49902 14.625ZM13.3418 11.5664H16.8398C17.1738 11.5664 17.4287 11.3115 17.4287 10.9863C17.4287 10.6523 17.1738 10.3887 16.8398 10.3887H13.3418C12.9902 10.3887 12.7441 10.6523 12.7441 10.9863C12.7441 11.3115 12.999 11.5664 13.3418 11.5664ZM13.3418 14.625H16.8398C17.1738 14.625 17.4287 14.3701 17.4287 14.0449C17.4287 13.7109 17.1738 13.4473 16.8398 13.4473H13.3418C12.999 13.4473 12.7441 13.7109 12.7441 14.0449C12.7441 14.3701 12.9902 14.625 13.3418 14.625Z" fill="#0000D5"/>
</svg>
