<svg width="64" height="17" viewBox="0 0 64 17" fill="none" xmlns="http://www.w3.org/2000/svg">
<path d="M14.8017 2.0747L15.4058 1.4635C15.7185 1.14368 15.747 0.681728 15.4342 0.383233L15.221 0.177129C14.9439 -0.078724 14.4961 -0.0574029 14.1905 0.241092L13.5793 0.852296L14.8017 2.0747ZM7.85815 9.01116L14.2758 2.60062L13.0463 1.37822L6.63575 7.78875L6.01744 9.28123C5.93926 9.48023 6.13826 9.67212 6.33015 9.60104L7.85815 9.01116Z" fill="#007AFF"/>
<path d="M2.78656 13.6799C4.77653 15.6699 7.27109 16.2811 8.45086 16.4019C8.91992 16.473 9.21842 16.2242 9.23974 15.8618C9.26817 15.5277 9.06206 15.2577 8.64275 15.1724C7.56959 14.9947 5.3593 14.4759 3.68205 12.7844C0.960056 10.0695 0.419922 5.85507 2.66574 3.60215C4.46382 1.81118 7.44877 1.98885 9.65195 3.17573L10.583 2.25892C7.75437 0.539019 4.00186 0.482163 1.77736 2.70666C-0.880664 5.3718 -0.567955 10.3254 2.78656 13.6799ZM5.48723 11.5123C7.75437 13.8718 11.6561 14.7531 13.7882 12.6281C15.5224 10.8868 15.3731 7.79529 13.4826 5.12305L12.5729 6.03275C13.9659 8.08668 14.2218 10.4036 12.8927 11.7326C11.2581 13.3672 8.593 12.6281 6.85178 10.965L5.48723 11.5123Z" fill="#011E5F"/>
<path d="M24.98 4.472V5.072C24.98 6.62 23.072 7.916 21.092 8.216L21.488 9.02C23.744 8.636 25.856 7.148 25.856 5.072V4.472H24.98ZM25.16 4.472V5.072C25.16 7.124 27.284 8.636 29.516 9.02L29.912 8.216C27.956 7.916 26.024 6.584 26.024 5.072V4.472H25.16ZM24.98 10.808V14.936H25.964V10.808H24.98ZM20.6 10.196V11.024H30.404V10.196H20.6ZM37.1831 6.896V7.724H39.6311V6.896H37.1831ZM39.3191 4.088V10.556H40.3151V4.088H39.3191ZM36.7511 10.88C34.5071 10.88 33.1271 11.636 33.1271 12.908C33.1271 14.192 34.5071 14.924 36.7511 14.924C38.9831 14.924 40.3631 14.192 40.3631 12.908C40.3631 11.636 38.9831 10.88 36.7511 10.88ZM36.7511 11.66C38.3831 11.66 39.3791 12.116 39.3791 12.908C39.3791 13.688 38.3831 14.144 36.7511 14.144C35.1191 14.144 34.1231 13.688 34.1231 12.908C34.1231 12.116 35.1191 11.66 36.7511 11.66ZM34.1591 5.18V6.056C34.1591 7.616 33.0431 9.068 31.4351 9.656L31.9511 10.448C33.7511 9.776 34.9751 8.06 34.9751 6.056V5.18H34.1591ZM34.3511 5.18V6.056C34.3511 7.88 35.5151 9.512 37.2791 10.148L37.7831 9.356C36.2111 8.804 35.1551 7.46 35.1551 6.056V5.18H34.3511ZM31.7351 4.88V5.696H37.5311V4.88H31.7351ZM49.5421 4.088V14.936H50.5381V4.088H49.5421ZM50.2981 8.54V9.38H52.3141V8.54H50.2981ZM42.1381 5.816V6.632H48.5341V5.816H42.1381ZM45.3781 7.532C43.8541 7.532 42.7381 8.564 42.7381 10.028C42.7381 11.492 43.8541 12.524 45.3781 12.524C46.9141 12.524 48.0181 11.492 48.0181 10.028C48.0181 8.564 46.9141 7.532 45.3781 7.532ZM45.3781 8.36C46.3621 8.36 47.0701 9.044 47.0701 10.028C47.0701 11 46.3621 11.696 45.3781 11.696C44.3941 11.696 43.6861 11 43.6861 10.028C43.6861 9.044 44.3941 8.36 45.3781 8.36ZM44.8621 4.22V6.188H45.8581V4.22H44.8621ZM60.8932 4.088V14.936H61.8892V4.088H60.8932ZM57.7132 5.252V5.42C57.7132 8.3 56.2612 10.604 53.1292 12.116L53.6572 12.92C57.2812 11.144 58.6972 8.396 58.6972 5.252H57.7132ZM53.6212 5.252V6.068H58.1452V5.252H53.6212Z" fill="#011E5F"/>
</svg>
