<svg width="68" height="20" viewBox="0 0 68 20" fill="none" xmlns="http://www.w3.org/2000/svg">
<path d="M10.59 3.445V17.335H12.495V3.445H10.59ZM8.835 8.68V10.27H11.13V8.68H8.835ZM4.695 5.14V5.56C4.695 8.89 3.585 11.23 0.42 13.105L1.575 14.485C5.46 12.22 6.6 9.055 6.6 5.14H4.695ZM1.125 5.14V6.745H5.28V5.14H1.125ZM7.515 3.805V16.735H9.375V3.805H7.515ZM23.6988 3.46V13.435H25.7088V3.46H23.6988ZM16.4538 15.505V17.095H26.0538V15.505H16.4538ZM16.4538 12.43V16.15H18.4488V12.43H16.4538ZM18.1488 4.33C16.0188 4.33 14.3688 5.8 14.3688 7.855C14.3688 9.895 16.0188 11.38 18.1488 11.38C20.2788 11.38 21.9138 9.895 21.9138 7.855C21.9138 5.8 20.2788 4.33 18.1488 4.33ZM18.1488 6.055C19.1688 6.055 19.9638 6.715 19.9638 7.855C19.9638 8.98 19.1688 9.64 18.1488 9.64C17.1138 9.64 16.3188 8.98 16.3188 7.855C16.3188 6.715 17.1138 6.055 18.1488 6.055ZM35.3641 5.29C36.7541 5.29 37.7641 5.58 38.3941 6.16C39.0341 6.74 39.3541 7.54 39.3541 8.56C39.3541 9.02 39.2841 9.46 39.1441 9.88C39.0041 10.29 38.7691 10.66 38.4391 10.99C38.1091 11.32 37.6741 11.58 37.1341 11.77C36.6041 11.96 35.9441 12.055 35.1541 12.055H34.0891V16H32.1691V5.29H35.3641ZM35.2441 6.88H34.0891V10.465H34.9591C35.4791 10.465 35.9191 10.405 36.2791 10.285C36.6491 10.155 36.9291 9.955 37.1191 9.685C37.3091 9.415 37.4041 9.065 37.4041 8.635C37.4041 8.045 37.2291 7.605 36.8791 7.315C36.5291 7.025 35.9841 6.88 35.2441 6.88ZM45.0563 16H43.1363V6.91H40.0613V5.29H48.1313V6.91H45.0563V16Z" fill="#011E5F"/>
<path d="M58.705 6.39871C58.7994 6.39871 58.8533 6.33127 58.8736 6.24361C59.0961 5.12419 59.0826 5.09722 60.2492 4.86794C60.3504 4.84771 60.4111 4.79376 60.4111 4.69935C60.4111 4.60494 60.3504 4.551 60.256 4.53077C59.0759 4.288 59.0826 4.26103 58.8736 3.14836C58.8601 3.06069 58.7994 3 58.705 3C58.6106 3 58.5566 3.06069 58.5431 3.14836C58.3138 4.27451 58.3341 4.31498 57.1607 4.53077C57.0663 4.54425 57.0056 4.60494 57.0056 4.69935C57.0056 4.78702 57.0663 4.84771 57.1607 4.86794C58.3341 5.10396 58.3273 5.13093 58.5431 6.24361C58.5566 6.33127 58.6106 6.39871 58.705 6.39871ZM64.4841 8.79938C64.592 8.79938 64.6594 8.71846 64.6797 8.61731C64.9224 7.30907 64.909 7.24164 66.2846 7.00562C66.3993 6.98539 66.4734 6.91795 66.4734 6.81006C66.4734 6.70216 66.3993 6.63473 66.2914 6.6145C64.909 6.36499 64.8887 6.3043 64.6797 5.00281C64.6594 4.89491 64.592 4.82074 64.4841 4.82074C64.3762 4.82074 64.302 4.89491 64.2886 5.00281C64.0525 6.31778 64.0593 6.39871 62.6701 6.6145C62.569 6.62798 62.4881 6.70216 62.4881 6.81006C62.4948 6.91795 62.5622 6.98539 62.6701 7.00562C64.0593 7.24838 64.0728 7.31582 64.2886 8.61731C64.302 8.71846 64.3762 8.79938 64.4841 8.79938ZM54.9893 10.8224C55.0972 10.8224 55.1714 10.7482 55.1849 10.6403C55.4007 9.33211 55.4209 9.26468 56.7966 9.02866C56.9045 9.00843 56.9786 8.94099 56.9786 8.8331C56.9786 8.7252 56.9045 8.65777 56.8033 8.63754C55.4142 8.38803 55.4142 8.32734 55.1849 7.02585C55.1647 6.91795 55.0972 6.84377 54.9893 6.84377C54.8814 6.84377 54.814 6.91795 54.7938 7.02585C54.578 8.34082 54.5645 8.40826 53.1821 8.63754C53.0742 8.65777 53 8.7252 53 8.8331C53 8.94099 53.0742 9.00843 53.1753 9.02866C54.5645 9.27142 54.5645 9.3456 54.7938 10.6471C54.814 10.7482 54.8814 10.8224 54.9893 10.8224ZM66.5341 16.6083C66.8646 16.9455 67.431 16.9387 67.7547 16.6083C68.0851 16.2644 68.0784 15.7249 67.7547 15.3877L61.3484 8.94774C61.018 8.61731 60.4515 8.61731 60.1278 8.94774C59.7974 9.29165 59.8042 9.83787 60.1278 10.1683L66.5341 16.6083ZM62.7308 11.9351L60.701 9.90531C60.5662 9.76369 60.519 9.60185 60.6538 9.46698C60.7752 9.3456 60.9438 9.37932 61.0922 9.52093L63.1152 11.5507L62.7308 11.9351ZM58.2397 16.7769C58.3813 16.7769 58.4824 16.6825 58.5027 16.5274C58.7185 14.7067 58.8061 14.6527 60.6606 14.3627C60.8292 14.3358 60.9303 14.2481 60.9303 14.0997C60.9303 13.9581 60.8292 13.8637 60.6943 13.8367C58.8129 13.4726 58.7185 13.4861 58.5027 11.6721C58.4824 11.517 58.3813 11.4226 58.2397 11.4226C58.0981 11.4226 57.9969 11.517 57.9767 11.6654C57.7474 13.5131 57.68 13.5805 55.7918 13.8367C55.6569 13.8502 55.549 13.9581 55.549 14.0997C55.549 14.2414 55.6502 14.3358 55.7851 14.3627C57.6867 14.7269 57.7407 14.7269 57.9767 16.5409C57.9969 16.6825 58.0981 16.7769 58.2397 16.7769Z" fill="#2020FF"/>
</svg>
