<svg width="10" height="12" viewBox="0 0 10 12" fill="none" xmlns="http://www.w3.org/2000/svg">
<path d="M5 9.09538C5.21632 9.09538 5.51622 8.27434 5.51622 6.9469V3.84956C6.3471 3.6234 6.95182 2.86136 6.95182 1.96165C6.95182 0.880039 6.08653 0 5 0C3.91839 0 3.0531 0.880039 3.0531 1.96165C3.0531 2.85644 3.6529 3.61849 4.48378 3.84464V6.9469C4.48378 8.26942 4.78859 9.09538 5 9.09538ZM4.44936 2.06981C4.09538 2.06981 3.78073 1.76008 3.78073 1.39626C3.78073 1.03736 4.09538 0.732547 4.44936 0.732547C4.81809 0.732547 5.11799 1.03736 5.11799 1.39626C5.11799 1.76008 4.81809 2.06981 4.44936 2.06981ZM5 11.0324C8.12684 11.0324 10 9.98033 10 8.7709C10 7.44838 7.97443 6.59292 6.35693 6.52409V7.40413C7.45821 7.45329 8.87906 7.95969 8.87906 8.67257C8.87906 9.51819 7.2468 10.1032 5 10.1032C2.7532 10.1032 1.12586 9.52311 1.12586 8.67257C1.12586 7.95969 2.54671 7.45329 3.64307 7.40413V6.52409C2.02557 6.59292 0 7.44838 0 8.7709C0 9.98033 1.87316 11.0324 5 11.0324Z" fill="#D9D9D9"/>
</svg>
