<svg width="75" height="75" viewBox="0 0 75 75" fill="none" xmlns="http://www.w3.org/2000/svg">
<rect width="60" height="60" rx="10" fill="#011E5F"/>
<path d="M30.0179 29.9196C34.2194 29.9196 37.7849 26.1487 37.7849 21.2699C37.7849 16.5078 34.2001 12.8535 30.0179 12.8535C25.8164 12.8535 22.2123 16.5661 22.2316 21.3088C22.2316 26.1487 25.7971 29.9196 30.0179 29.9196ZM17.9915 47.9964H42.0057C45.1858 47.9964 46.2843 47.0245 46.2843 45.2363C46.2843 40.2408 40.0013 33.36 29.9986 33.36C20.0152 33.36 13.7129 40.2408 13.7129 45.2363C13.7129 47.0245 14.8115 47.9964 17.9915 47.9964Z" fill="white"/>
<circle cx="60" cy="60" r="14.5" fill="white" stroke="#D9D9D9"/>
<path d="M53.3947 67.4699H66.5981C68.1702 67.4699 69 66.6547 69 65.0971V57.4546C69 55.897 68.1702 55.0817 66.5981 55.0817H64.611C64.0433 55.0817 63.8613 54.9871 63.5047 54.6159L62.9296 53.9972C62.5512 53.5969 62.1654 53.4004 61.423 53.4004H58.5334C57.7909 53.4004 57.4125 53.5969 57.0267 53.9972L56.4517 54.6159C56.1023 54.9798 55.9131 55.0817 55.3453 55.0817H53.3947C51.8225 55.0817 51 55.897 51 57.4546V65.0971C51 66.6547 51.8225 67.4699 53.3947 67.4699ZM53.4893 66.0215C52.8269 66.0215 52.4484 65.6721 52.4484 64.9661V57.5856C52.4484 56.8868 52.8269 56.5375 53.4893 56.5375H55.7675C56.4226 56.5375 56.7574 56.421 57.1286 56.0207L57.6818 55.4093C58.0894 54.9653 58.3077 54.8488 58.9482 54.8488H61.0081C61.6486 54.8488 61.867 54.9653 62.2673 55.402L62.8277 56.0207C63.1989 56.421 63.5338 56.5375 64.1888 56.5375H66.5034C67.1731 56.5375 67.5443 56.8868 67.5443 57.5856V64.9661C67.5443 65.6721 67.1731 66.0215 66.5034 66.0215H53.4893ZM59.9964 65.0607C62.1799 65.0607 63.9268 63.3139 63.9268 61.123C63.9268 58.9321 62.1799 57.1853 59.9964 57.1853C57.8201 57.1853 56.0732 58.9321 56.0732 61.123C56.0732 63.3139 57.8201 65.0607 59.9964 65.0607ZM64.1743 58.5173C64.1743 59.0486 64.6037 59.4635 65.1278 59.4562C65.6373 59.4562 66.0667 59.0413 66.0667 58.5173C66.0667 58.0077 65.63 57.571 65.1278 57.571C64.6037 57.571 64.1743 58.0077 64.1743 58.5173ZM59.9964 63.736C58.5625 63.736 57.3906 62.5714 57.3906 61.123C57.3906 59.6673 58.5552 58.51 59.9964 58.51C61.4448 58.51 62.6094 59.6673 62.6094 61.123C62.6094 62.5714 61.4448 63.736 59.9964 63.736Z" fill="#011E5F"/>
</svg>
