<svg width="21" height="20" viewBox="0 0 21 20" fill="none" xmlns="http://www.w3.org/2000/svg">
<path d="M10.0238 19.9903C15.5204 19.9903 20.0573 15.4664 20.0573 9.99517C20.0573 4.52392 15.5107 0 10.0141 0C4.52719 0 0 4.52392 0 9.99517C0 15.4664 4.53689 19.9903 10.0238 19.9903ZM10.0238 17.999C5.57417 17.999 2.01639 14.4321 2.01639 9.99517C2.01639 5.55824 5.57417 2.00097 10.0141 2.00097C14.4638 2.00097 18.0409 5.55824 18.0506 9.99517C18.0603 14.4321 14.4734 17.999 10.0238 17.999ZM5.87469 9.8405C5.87469 10.0918 6.06857 10.2948 6.32062 10.2948H6.8635L7.45484 13.9874C7.5227 14.4128 7.84261 14.6738 8.24977 14.6738C8.65692 14.6738 8.97683 14.4321 9.04469 13.9874L9.63604 10.2852H10.3922L11.0029 13.9874C11.0708 14.4321 11.3907 14.6738 11.7978 14.6738C12.205 14.6738 12.5249 14.4224 12.5928 13.9874L13.1647 10.2852H13.7076C13.9693 10.2852 14.1535 10.0822 14.1535 9.83084C14.1535 9.56017 13.9693 9.37651 13.7076 9.37651H13.3101L13.7561 6.47656C13.7755 6.36056 13.7949 6.2639 13.7949 6.16723C13.7949 5.78057 13.5137 5.53891 13.1163 5.53891C12.7673 5.53891 12.4667 5.75157 12.428 6.12856L12.0305 9.37651H11.3034L10.7896 6.21556C10.7218 5.79024 10.3922 5.54857 10.0044 5.54857C9.60696 5.54857 9.29674 5.79024 9.22888 6.22523L8.71509 9.38618H8.00741L7.62934 6.13823C7.58087 5.76124 7.29004 5.54857 6.93136 5.54857C6.5242 5.54857 6.23337 5.7999 6.23337 6.18656C6.23337 6.30256 6.26245 6.39923 6.27215 6.51522L6.71808 9.38618H6.32062C6.06857 9.38618 5.87469 9.56984 5.87469 9.8405ZM9.79114 9.38618L10.0238 7.74287L10.2565 9.38618H9.79114ZM8.11405 10.2755H8.58906L8.31763 12.2378L8.11405 10.2755ZM11.4295 10.2755H11.953L11.73 12.2861L11.4295 10.2755Z" fill="#9F7B28"/>
<path d="M10.0238 17.999C5.57417 17.999 2.01639 14.4321 2.01639 9.99517C2.01639 5.55824 5.57417 2.00097 10.0141 2.00097C14.4638 2.00097 18.0409 5.55824 18.0506 9.99517C18.0603 14.4321 14.4734 17.999 10.0238 17.999ZM5.87469 9.8405C5.87469 10.0918 6.06857 10.2948 6.32062 10.2948H6.8635L7.45484 13.9874C7.5227 14.4128 7.84261 14.6738 8.24977 14.6738C8.65692 14.6738 8.97683 14.4321 9.04469 13.9874L9.63604 10.2852H10.3922L11.0029 13.9874C11.0708 14.4321 11.3907 14.6738 11.7978 14.6738C12.205 14.6738 12.5249 14.4224 12.5928 13.9874L13.1647 10.2852H13.7076C13.9693 10.2852 14.1535 10.0822 14.1535 9.83084C14.1535 9.56017 13.9693 9.37651 13.7076 9.37651H13.3101L13.7561 6.47656C13.7755 6.36056 13.7949 6.2639 13.7949 6.16723C13.7949 5.78057 13.5137 5.53891 13.1163 5.53891C12.7673 5.53891 12.4667 5.75157 12.428 6.12856L12.0305 9.37651H11.3034L10.7896 6.21556C10.7218 5.79024 10.3922 5.54857 10.0044 5.54857C9.60696 5.54857 9.29674 5.79024 9.22888 6.22523L8.71509 9.38618H8.00741L7.62934 6.13823C7.58087 5.76124 7.29004 5.54857 6.93136 5.54857C6.5242 5.54857 6.23337 5.7999 6.23337 6.18656C6.23337 6.30256 6.26245 6.39923 6.27215 6.51522L6.71808 9.38618H6.32062C6.06857 9.38618 5.87469 9.56984 5.87469 9.8405ZM9.79114 9.38618L10.0238 7.74287L10.2565 9.38618H9.79114ZM8.11405 10.2755H8.58906L8.31763 12.2378L8.11405 10.2755ZM11.4295 10.2755H11.953L11.73 12.2861L11.4295 10.2755Z" fill="#F6D06A"/>
</svg>
