<svg width="27" height="12" viewBox="0 0 27 12" fill="none" xmlns="http://www.w3.org/2000/svg">
<path d="M10.965 5.63C10.965 6.46 10.86 7.215 10.65 7.895C10.45 8.565 10.14 9.145 9.72 9.635C9.31 10.125 8.785 10.5 8.145 10.76C7.515 11.02 6.775 11.15 5.925 11.15C5.065 11.15 4.315 11.02 3.675 10.76C3.045 10.49 2.525 10.115 2.115 9.635C1.705 9.145 1.395 8.56 1.185 7.88C0.985 7.2 0.885 6.445 0.885 5.615C0.885 4.505 1.065 3.54 1.425 2.72C1.795 1.9 2.35 1.265 3.09 0.815C3.84 0.355 4.79 0.125 5.94 0.125C7.07 0.125 8.005 0.355 8.745 0.815C9.485 1.265 10.04 1.905 10.41 2.735C10.78 3.555 10.965 4.52 10.965 5.63ZM2.91 5.63C2.91 6.44 3.015 7.135 3.225 7.715C3.445 8.295 3.775 8.74 4.215 9.05C4.665 9.36 5.235 9.515 5.925 9.515C6.635 9.515 7.21 9.36 7.65 9.05C8.09 8.74 8.415 8.295 8.625 7.715C8.835 7.135 8.94 6.44 8.94 5.63C8.94 4.42 8.705 3.47 8.235 2.78C7.765 2.09 7 1.745 5.94 1.745C5.24 1.745 4.665 1.9 4.215 2.21C3.775 2.52 3.445 2.965 3.225 3.545C3.015 4.125 2.91 4.82 2.91 5.63ZM14.8956 11H13.0056V0.289999H19.0806V1.895H14.8956V5.045H18.7956V6.65H14.8956V11ZM22.7269 11H20.8369V0.289999H26.9119V1.895H22.7269V5.045H26.6269V6.65H22.7269V11Z" fill="#011E5F"/>
</svg>
